%FSLAX45Y45*%
G04 Gerber Fmt 4.5, Leading zero omitted, Abs format (unit mm)*
G04 Created by KiCad (PCBNEW (5.1.5)-3) date 2020-07-09 20:04:30*
%MOMM*%
%LPD*%
G04 APERTURE LIST*
%TA.AperFunction,Profile*%
%ADD10C,0.050000*%
%TD*%
%ADD11C,0.200000*%
%ADD12C,0.300000*%
G04 APERTURE END LIST*
D10*
X10922000Y-14605000D02*
G75*
G02X10541000Y-14224000I0J381000D01*
G01*
X16129000Y-14224000D02*
G75*
G02X15748000Y-14605000I-381000J0D01*
G01*
X15748000Y-6985000D02*
G75*
G02X16129000Y-7366000I0J-381000D01*
G01*
X10541000Y-7366000D02*
G75*
G02X10922000Y-6985000I381000J0D01*
G01*
X10541000Y-7366000D02*
X10541000Y-14224000D01*
X15748000Y-6985000D02*
X10922000Y-6985000D01*
X16129000Y-14224000D02*
X16129000Y-7366000D01*
X10922000Y-14605000D02*
X15748000Y-14605000D01*
D11*
X11981500Y-11537000D02*
X12021500Y-11577000D01*
X12021500Y-11537000D02*
X11981500Y-11577000D01*
X11981500Y-13823000D02*
X12021500Y-13863000D01*
X12021500Y-13823000D02*
X11981500Y-13863000D01*
X12045000Y-11029000D02*
X12085000Y-11069000D01*
X12085000Y-11029000D02*
X12045000Y-11069000D01*
X12045000Y-13315000D02*
X12085000Y-13355000D01*
X12085000Y-13315000D02*
X12045000Y-13355000D01*
X12108500Y-11791000D02*
X12148500Y-11831000D01*
X12148500Y-11791000D02*
X12108500Y-11831000D01*
X12108500Y-14077000D02*
X12148500Y-14117000D01*
X12148500Y-14077000D02*
X12108500Y-14117000D01*
X12743500Y-8362000D02*
X12783500Y-8402000D01*
X12783500Y-8362000D02*
X12743500Y-8402000D01*
X10693000Y-10287000D02*
G75*
G03X10693000Y-10287000I-25000J0D01*
G01*
X10693000Y-10541000D02*
G75*
G03X10693000Y-10541000I-25000J0D01*
G01*
X10693000Y-10795000D02*
G75*
G03X10693000Y-10795000I-25000J0D01*
G01*
X10693000Y-11049000D02*
G75*
G03X10693000Y-11049000I-25000J0D01*
G01*
X10693000Y-11557000D02*
G75*
G03X10693000Y-11557000I-25000J0D01*
G01*
X10693000Y-12573000D02*
G75*
G03X10693000Y-12573000I-25000J0D01*
G01*
X10693000Y-12827000D02*
G75*
G03X10693000Y-12827000I-25000J0D01*
G01*
X10693000Y-13081000D02*
G75*
G03X10693000Y-13081000I-25000J0D01*
G01*
X10693000Y-13335000D02*
G75*
G03X10693000Y-13335000I-25000J0D01*
G01*
X10693000Y-13843000D02*
G75*
G03X10693000Y-13843000I-25000J0D01*
G01*
X10820000Y-8001000D02*
G75*
G03X10820000Y-8001000I-25000J0D01*
G01*
X10820000Y-12065000D02*
G75*
G03X10820000Y-12065000I-25000J0D01*
G01*
X10820000Y-14351000D02*
G75*
G03X10820000Y-14351000I-25000J0D01*
G01*
X10947000Y-9144000D02*
G75*
G03X10947000Y-9144000I-25000J0D01*
G01*
X10947000Y-9525000D02*
G75*
G03X10947000Y-9525000I-25000J0D01*
G01*
X11074000Y-7747000D02*
G75*
G03X11074000Y-7747000I-25000J0D01*
G01*
X11137500Y-8191500D02*
G75*
G03X11137500Y-8191500I-25000J0D01*
G01*
X11137500Y-14414500D02*
G75*
G03X11137500Y-14414500I-25000J0D01*
G01*
X11201000Y-9017000D02*
G75*
G03X11201000Y-9017000I-25000J0D01*
G01*
X11201000Y-11430000D02*
G75*
G03X11201000Y-11430000I-25000J0D01*
G01*
X11201000Y-13716000D02*
G75*
G03X11201000Y-13716000I-25000J0D01*
G01*
X11328000Y-7493000D02*
G75*
G03X11328000Y-7493000I-25000J0D01*
G01*
X11328000Y-8382000D02*
G75*
G03X11328000Y-8382000I-25000J0D01*
G01*
X11391500Y-7937500D02*
G75*
G03X11391500Y-7937500I-25000J0D01*
G01*
X11391500Y-12319000D02*
G75*
G03X11391500Y-12319000I-25000J0D01*
G01*
X11455000Y-9144000D02*
G75*
G03X11455000Y-9144000I-25000J0D01*
G01*
X11455000Y-10287000D02*
G75*
G03X11455000Y-10287000I-25000J0D01*
G01*
X11455000Y-11684000D02*
G75*
G03X11455000Y-11684000I-25000J0D01*
G01*
X11455000Y-12573000D02*
G75*
G03X11455000Y-12573000I-25000J0D01*
G01*
X11455000Y-13970000D02*
G75*
G03X11455000Y-13970000I-25000J0D01*
G01*
X11582000Y-8128000D02*
G75*
G03X11582000Y-8128000I-25000J0D01*
G01*
X11582000Y-8509000D02*
G75*
G03X11582000Y-8509000I-25000J0D01*
G01*
X11645500Y-7683500D02*
G75*
G03X11645500Y-7683500I-25000J0D01*
G01*
X11709000Y-9715500D02*
G75*
G03X11709000Y-9715500I-25000J0D01*
G01*
X11709000Y-10033000D02*
G75*
G03X11709000Y-10033000I-25000J0D01*
G01*
X11709000Y-12319000D02*
G75*
G03X11709000Y-12319000I-25000J0D01*
G01*
X11836000Y-7874000D02*
G75*
G03X11836000Y-7874000I-25000J0D01*
G01*
X11836000Y-8509000D02*
G75*
G03X11836000Y-8509000I-25000J0D01*
G01*
X11899500Y-7429500D02*
G75*
G03X11899500Y-7429500I-25000J0D01*
G01*
X11899500Y-9525000D02*
G75*
G03X11899500Y-9525000I-25000J0D01*
G01*
X11899500Y-9906000D02*
G75*
G03X11899500Y-9906000I-25000J0D01*
G01*
X11899500Y-10414000D02*
G75*
G03X11899500Y-10414000I-25000J0D01*
G01*
X11899500Y-12890500D02*
G75*
G03X11899500Y-12890500I-25000J0D01*
G01*
X11899500Y-13144500D02*
G75*
G03X11899500Y-13144500I-25000J0D01*
G01*
X11963000Y-14097000D02*
G75*
G03X11963000Y-14097000I-25000J0D01*
G01*
X12026500Y-8255000D02*
G75*
G03X12026500Y-8255000I-25000J0D01*
G01*
X12090000Y-7620000D02*
G75*
G03X12090000Y-7620000I-25000J0D01*
G01*
X12280500Y-8001000D02*
G75*
G03X12280500Y-8001000I-25000J0D01*
G01*
X12280500Y-9588500D02*
G75*
G03X12280500Y-9588500I-25000J0D01*
G01*
X12280500Y-10350500D02*
G75*
G03X12280500Y-10350500I-25000J0D01*
G01*
X12280500Y-11303000D02*
G75*
G03X12280500Y-11303000I-25000J0D01*
G01*
X12280500Y-11684000D02*
G75*
G03X12280500Y-11684000I-25000J0D01*
G01*
X12280500Y-12065000D02*
G75*
G03X12280500Y-12065000I-25000J0D01*
G01*
X12280500Y-12573000D02*
G75*
G03X12280500Y-12573000I-25000J0D01*
G01*
X12280500Y-13081000D02*
G75*
G03X12280500Y-13081000I-25000J0D01*
G01*
X12280500Y-13589000D02*
G75*
G03X12280500Y-13589000I-25000J0D01*
G01*
X12280500Y-13970000D02*
G75*
G03X12280500Y-13970000I-25000J0D01*
G01*
X12534500Y-7747000D02*
G75*
G03X12534500Y-7747000I-25000J0D01*
G01*
X13106000Y-9779000D02*
G75*
G03X13106000Y-9779000I-25000J0D01*
G01*
X13296500Y-14097000D02*
G75*
G03X13296500Y-14097000I-25000J0D01*
G01*
X13487000Y-9652000D02*
G75*
G03X13487000Y-9652000I-25000J0D01*
G01*
X13487000Y-11176000D02*
G75*
G03X13487000Y-11176000I-25000J0D01*
G01*
X13487000Y-12636500D02*
G75*
G03X13487000Y-12636500I-25000J0D01*
G01*
X13677500Y-7620000D02*
G75*
G03X13677500Y-7620000I-25000J0D01*
G01*
X13677500Y-8382000D02*
G75*
G03X13677500Y-8382000I-25000J0D01*
G01*
X13741000Y-13589000D02*
G75*
G03X13741000Y-13589000I-25000J0D01*
G01*
X13804500Y-9461500D02*
G75*
G03X13804500Y-9461500I-25000J0D01*
G01*
X13868000Y-10160000D02*
G75*
G03X13868000Y-10160000I-25000J0D01*
G01*
X14122000Y-11176000D02*
G75*
G03X14122000Y-11176000I-25000J0D01*
G01*
X14122000Y-12700000D02*
G75*
G03X14122000Y-12700000I-25000J0D01*
G01*
X14185500Y-14097000D02*
G75*
G03X14185500Y-14097000I-25000J0D01*
G01*
X14249000Y-8128000D02*
G75*
G03X14249000Y-8128000I-25000J0D01*
G01*
X14249000Y-10033000D02*
G75*
G03X14249000Y-10033000I-25000J0D01*
G01*
X14312500Y-9461500D02*
G75*
G03X14312500Y-9461500I-25000J0D01*
G01*
X14376000Y-14351000D02*
G75*
G03X14376000Y-14351000I-25000J0D01*
G01*
X14439500Y-10795000D02*
G75*
G03X14439500Y-10795000I-25000J0D01*
G01*
X14439500Y-11557000D02*
G75*
G03X14439500Y-11557000I-25000J0D01*
G01*
X14439500Y-12319000D02*
G75*
G03X14439500Y-12319000I-25000J0D01*
G01*
X14439500Y-13081000D02*
G75*
G03X14439500Y-13081000I-25000J0D01*
G01*
X14503000Y-8001000D02*
G75*
G03X14503000Y-8001000I-25000J0D01*
G01*
X14503000Y-8255000D02*
G75*
G03X14503000Y-8255000I-25000J0D01*
G01*
X14503000Y-9779000D02*
G75*
G03X14503000Y-9779000I-25000J0D01*
G01*
X14757000Y-8128000D02*
G75*
G03X14757000Y-8128000I-25000J0D01*
G01*
X14757000Y-9525000D02*
G75*
G03X14757000Y-9525000I-25000J0D01*
G01*
X14884000Y-14351000D02*
G75*
G03X14884000Y-14351000I-25000J0D01*
G01*
X15011000Y-7366000D02*
G75*
G03X15011000Y-7366000I-25000J0D01*
G01*
X15011000Y-7620000D02*
G75*
G03X15011000Y-7620000I-25000J0D01*
G01*
X15011000Y-8001000D02*
G75*
G03X15011000Y-8001000I-25000J0D01*
G01*
X15011000Y-8255000D02*
G75*
G03X15011000Y-8255000I-25000J0D01*
G01*
X15011000Y-8509000D02*
G75*
G03X15011000Y-8509000I-25000J0D01*
G01*
X15011000Y-9779000D02*
G75*
G03X15011000Y-9779000I-25000J0D01*
G01*
X15392000Y-8001000D02*
G75*
G03X15392000Y-8001000I-25000J0D01*
G01*
X15392000Y-8255000D02*
G75*
G03X15392000Y-8255000I-25000J0D01*
G01*
X15392000Y-8509000D02*
G75*
G03X15392000Y-8509000I-25000J0D01*
G01*
X15392000Y-8890000D02*
G75*
G03X15392000Y-8890000I-25000J0D01*
G01*
X15392000Y-14351000D02*
G75*
G03X15392000Y-14351000I-25000J0D01*
G01*
X15773000Y-7366000D02*
G75*
G03X15773000Y-7366000I-25000J0D01*
G01*
X15773000Y-7620000D02*
G75*
G03X15773000Y-7620000I-25000J0D01*
G01*
X15773000Y-8001000D02*
G75*
G03X15773000Y-8001000I-25000J0D01*
G01*
X15773000Y-8255000D02*
G75*
G03X15773000Y-8255000I-25000J0D01*
G01*
X15773000Y-8509000D02*
G75*
G03X15773000Y-8509000I-25000J0D01*
G01*
X15773000Y-9525000D02*
G75*
G03X15773000Y-9525000I-25000J0D01*
G01*
X15900000Y-14351000D02*
G75*
G03X15900000Y-14351000I-25000J0D01*
G01*
X16027000Y-9779000D02*
G75*
G03X16027000Y-9779000I-25000J0D01*
G01*
X13716000Y-9998000D02*
X13716000Y-10068000D01*
X13681000Y-10033000D02*
X13751000Y-10033000D01*
X13843000Y-9871000D02*
X13843000Y-9941000D01*
X13808000Y-9906000D02*
X13878000Y-9906000D01*
X13970000Y-9998000D02*
X13970000Y-10068000D01*
X13935000Y-10033000D02*
X14005000Y-10033000D01*
X12954000Y-9617000D02*
X12954000Y-9687000D01*
X12919000Y-9652000D02*
X12989000Y-9652000D01*
X13081000Y-9490000D02*
X13081000Y-9560000D01*
X13046000Y-9525000D02*
X13116000Y-9525000D01*
X13208000Y-9617000D02*
X13208000Y-9687000D01*
X13173000Y-9652000D02*
X13243000Y-9652000D01*
X14506284Y-8718285D02*
X14506284Y-8661716D01*
X14449715Y-8661716D01*
X14449715Y-8718285D01*
X14506284Y-8718285D01*
X14506284Y-8918285D02*
X14506284Y-8861716D01*
X14449715Y-8861716D01*
X14449715Y-8918285D01*
X14506284Y-8918285D01*
X10854285Y-14125284D02*
X10854285Y-14068715D01*
X10797716Y-14068715D01*
X10797716Y-14125284D01*
X10854285Y-14125284D01*
X11204284Y-14125284D02*
X11204284Y-14068715D01*
X11147716Y-14068715D01*
X11147716Y-14125284D01*
X11204284Y-14125284D01*
X10854285Y-11839284D02*
X10854285Y-11782715D01*
X10797716Y-11782715D01*
X10797716Y-11839284D01*
X10854285Y-11839284D01*
X11204284Y-11839284D02*
X11204284Y-11782715D01*
X11147716Y-11782715D01*
X11147716Y-11839284D01*
X11204284Y-11839284D01*
X11684000Y-10337000D02*
X11734000Y-10287000D01*
X11684000Y-10237000D01*
X11634000Y-10287000D01*
X11684000Y-10337000D01*
X11684000Y-10591000D02*
X11734000Y-10541000D01*
X11684000Y-10491000D01*
X11634000Y-10541000D01*
X11684000Y-10591000D01*
X11684000Y-10845000D02*
X11734000Y-10795000D01*
X11684000Y-10745000D01*
X11634000Y-10795000D01*
X11684000Y-10845000D01*
X11684000Y-11099000D02*
X11734000Y-11049000D01*
X11684000Y-10999000D01*
X11634000Y-11049000D01*
X11684000Y-11099000D01*
X11684000Y-11353000D02*
X11734000Y-11303000D01*
X11684000Y-11253000D01*
X11634000Y-11303000D01*
X11684000Y-11353000D01*
X11684000Y-11607000D02*
X11734000Y-11557000D01*
X11684000Y-11507000D01*
X11634000Y-11557000D01*
X11684000Y-11607000D01*
X11684000Y-11861000D02*
X11734000Y-11811000D01*
X11684000Y-11761000D01*
X11634000Y-11811000D01*
X11684000Y-11861000D01*
X11684000Y-12115000D02*
X11734000Y-12065000D01*
X11684000Y-12015000D01*
X11634000Y-12065000D01*
X11684000Y-12115000D01*
X12954000Y-10337000D02*
X13004000Y-10287000D01*
X12954000Y-10237000D01*
X12904000Y-10287000D01*
X12954000Y-10337000D01*
X12954000Y-10591000D02*
X13004000Y-10541000D01*
X12954000Y-10491000D01*
X12904000Y-10541000D01*
X12954000Y-10591000D01*
X12954000Y-10845000D02*
X13004000Y-10795000D01*
X12954000Y-10745000D01*
X12904000Y-10795000D01*
X12954000Y-10845000D01*
X12954000Y-11099000D02*
X13004000Y-11049000D01*
X12954000Y-10999000D01*
X12904000Y-11049000D01*
X12954000Y-11099000D01*
X12954000Y-11353000D02*
X13004000Y-11303000D01*
X12954000Y-11253000D01*
X12904000Y-11303000D01*
X12954000Y-11353000D01*
X12954000Y-11607000D02*
X13004000Y-11557000D01*
X12954000Y-11507000D01*
X12904000Y-11557000D01*
X12954000Y-11607000D01*
X12954000Y-11861000D02*
X13004000Y-11811000D01*
X12954000Y-11761000D01*
X12904000Y-11811000D01*
X12954000Y-11861000D01*
X12954000Y-12115000D02*
X13004000Y-12065000D01*
X12954000Y-12015000D01*
X12904000Y-12065000D01*
X12954000Y-12115000D01*
X11176000Y-12623000D02*
X11226000Y-12573000D01*
X11176000Y-12523000D01*
X11126000Y-12573000D01*
X11176000Y-12623000D01*
X11176000Y-12877000D02*
X11226000Y-12827000D01*
X11176000Y-12777000D01*
X11126000Y-12827000D01*
X11176000Y-12877000D01*
X11176000Y-13131000D02*
X11226000Y-13081000D01*
X11176000Y-13031000D01*
X11126000Y-13081000D01*
X11176000Y-13131000D01*
X11176000Y-13385000D02*
X11226000Y-13335000D01*
X11176000Y-13285000D01*
X11126000Y-13335000D01*
X11176000Y-13385000D01*
X11684000Y-12623000D02*
X11734000Y-12573000D01*
X11684000Y-12523000D01*
X11634000Y-12573000D01*
X11684000Y-12623000D01*
X11684000Y-12877000D02*
X11734000Y-12827000D01*
X11684000Y-12777000D01*
X11634000Y-12827000D01*
X11684000Y-12877000D01*
X11684000Y-13131000D02*
X11734000Y-13081000D01*
X11684000Y-13031000D01*
X11634000Y-13081000D01*
X11684000Y-13131000D01*
X11684000Y-13385000D02*
X11734000Y-13335000D01*
X11684000Y-13285000D01*
X11634000Y-13335000D01*
X11684000Y-13385000D01*
X11684000Y-13639000D02*
X11734000Y-13589000D01*
X11684000Y-13539000D01*
X11634000Y-13589000D01*
X11684000Y-13639000D01*
X11684000Y-13893000D02*
X11734000Y-13843000D01*
X11684000Y-13793000D01*
X11634000Y-13843000D01*
X11684000Y-13893000D01*
X11684000Y-14147000D02*
X11734000Y-14097000D01*
X11684000Y-14047000D01*
X11634000Y-14097000D01*
X11684000Y-14147000D01*
X11684000Y-14401000D02*
X11734000Y-14351000D01*
X11684000Y-14301000D01*
X11634000Y-14351000D01*
X11684000Y-14401000D01*
X12954000Y-12623000D02*
X13004000Y-12573000D01*
X12954000Y-12523000D01*
X12904000Y-12573000D01*
X12954000Y-12623000D01*
X12954000Y-12877000D02*
X13004000Y-12827000D01*
X12954000Y-12777000D01*
X12904000Y-12827000D01*
X12954000Y-12877000D01*
X12954000Y-13131000D02*
X13004000Y-13081000D01*
X12954000Y-13031000D01*
X12904000Y-13081000D01*
X12954000Y-13131000D01*
X12954000Y-13385000D02*
X13004000Y-13335000D01*
X12954000Y-13285000D01*
X12904000Y-13335000D01*
X12954000Y-13385000D01*
X12954000Y-13639000D02*
X13004000Y-13589000D01*
X12954000Y-13539000D01*
X12904000Y-13589000D01*
X12954000Y-13639000D01*
X12954000Y-13893000D02*
X13004000Y-13843000D01*
X12954000Y-13793000D01*
X12904000Y-13843000D01*
X12954000Y-13893000D01*
X12954000Y-14147000D02*
X13004000Y-14097000D01*
X12954000Y-14047000D01*
X12904000Y-14097000D01*
X12954000Y-14147000D01*
X12954000Y-14401000D02*
X13004000Y-14351000D01*
X12954000Y-14301000D01*
X12904000Y-14351000D01*
X12954000Y-14401000D01*
X11176000Y-10337000D02*
X11226000Y-10287000D01*
X11176000Y-10237000D01*
X11126000Y-10287000D01*
X11176000Y-10337000D01*
X11176000Y-10591000D02*
X11226000Y-10541000D01*
X11176000Y-10491000D01*
X11126000Y-10541000D01*
X11176000Y-10591000D01*
X11176000Y-10845000D02*
X11226000Y-10795000D01*
X11176000Y-10745000D01*
X11126000Y-10795000D01*
X11176000Y-10845000D01*
X11176000Y-11099000D02*
X11226000Y-11049000D01*
X11176000Y-10999000D01*
X11126000Y-11049000D01*
X11176000Y-11099000D01*
X11049000Y-7289000D02*
X11099000Y-7239000D01*
X11049000Y-7189000D01*
X10999000Y-7239000D01*
X11049000Y-7289000D01*
X11049000Y-8813000D02*
X11099000Y-8763000D01*
X11049000Y-8713000D01*
X10999000Y-8763000D01*
X11049000Y-8813000D01*
X11303000Y-7289000D02*
X11353000Y-7239000D01*
X11303000Y-7189000D01*
X11253000Y-7239000D01*
X11303000Y-7289000D01*
X11303000Y-8813000D02*
X11353000Y-8763000D01*
X11303000Y-8713000D01*
X11253000Y-8763000D01*
X11303000Y-8813000D01*
X11557000Y-7289000D02*
X11607000Y-7239000D01*
X11557000Y-7189000D01*
X11507000Y-7239000D01*
X11557000Y-7289000D01*
X11557000Y-8813000D02*
X11607000Y-8763000D01*
X11557000Y-8713000D01*
X11507000Y-8763000D01*
X11557000Y-8813000D01*
X11811000Y-7289000D02*
X11861000Y-7239000D01*
X11811000Y-7189000D01*
X11761000Y-7239000D01*
X11811000Y-7289000D01*
X11811000Y-8813000D02*
X11861000Y-8763000D01*
X11811000Y-8713000D01*
X11761000Y-8763000D01*
X11811000Y-8813000D01*
X12065000Y-7289000D02*
X12115000Y-7239000D01*
X12065000Y-7189000D01*
X12015000Y-7239000D01*
X12065000Y-7289000D01*
X12065000Y-8813000D02*
X12115000Y-8763000D01*
X12065000Y-8713000D01*
X12015000Y-8763000D01*
X12065000Y-8813000D01*
X12319000Y-7289000D02*
X12369000Y-7239000D01*
X12319000Y-7189000D01*
X12269000Y-7239000D01*
X12319000Y-7289000D01*
X12319000Y-8813000D02*
X12369000Y-8763000D01*
X12319000Y-8713000D01*
X12269000Y-8763000D01*
X12319000Y-8813000D01*
X12573000Y-7289000D02*
X12623000Y-7239000D01*
X12573000Y-7189000D01*
X12523000Y-7239000D01*
X12573000Y-7289000D01*
X12573000Y-8813000D02*
X12623000Y-8763000D01*
X12573000Y-8713000D01*
X12523000Y-8763000D01*
X12573000Y-8813000D01*
X12827000Y-7289000D02*
X12877000Y-7239000D01*
X12827000Y-7189000D01*
X12777000Y-7239000D01*
X12827000Y-7289000D01*
X12827000Y-8813000D02*
X12877000Y-8763000D01*
X12827000Y-8713000D01*
X12777000Y-8763000D01*
X12827000Y-8813000D01*
X13081000Y-7289000D02*
X13131000Y-7239000D01*
X13081000Y-7189000D01*
X13031000Y-7239000D01*
X13081000Y-7289000D01*
X13081000Y-8813000D02*
X13131000Y-8763000D01*
X13081000Y-8713000D01*
X13031000Y-8763000D01*
X13081000Y-8813000D01*
X13335000Y-7289000D02*
X13385000Y-7239000D01*
X13335000Y-7189000D01*
X13285000Y-7239000D01*
X13335000Y-7289000D01*
X13335000Y-8813000D02*
X13385000Y-8763000D01*
X13335000Y-8713000D01*
X13285000Y-8763000D01*
X13335000Y-8813000D01*
X13589000Y-7289000D02*
X13639000Y-7239000D01*
X13589000Y-7189000D01*
X13539000Y-7239000D01*
X13589000Y-7289000D01*
X13589000Y-8813000D02*
X13639000Y-8763000D01*
X13589000Y-8713000D01*
X13539000Y-8763000D01*
X13589000Y-8813000D01*
X13843000Y-7289000D02*
X13893000Y-7239000D01*
X13843000Y-7189000D01*
X13793000Y-7239000D01*
X13843000Y-7289000D01*
X13843000Y-8813000D02*
X13893000Y-8763000D01*
X13843000Y-8713000D01*
X13793000Y-8763000D01*
X13843000Y-8813000D01*
X15693500Y-9724500D02*
X15802500Y-9833500D01*
X15802500Y-9724500D02*
X15693500Y-9833500D01*
X15802500Y-9779000D02*
G75*
G03X15802500Y-9779000I-54500J0D01*
G01*
X15693500Y-9978500D02*
X15802500Y-10087500D01*
X15802500Y-9978500D02*
X15693500Y-10087500D01*
X15802500Y-10033000D02*
G75*
G03X15802500Y-10033000I-54500J0D01*
G01*
X14677500Y-9724500D02*
X14786500Y-9833500D01*
X14786500Y-9724500D02*
X14677500Y-9833500D01*
X14786500Y-9779000D02*
G75*
G03X14786500Y-9779000I-54500J0D01*
G01*
X14677500Y-9978500D02*
X14786500Y-10087500D01*
X14786500Y-9978500D02*
X14677500Y-10087500D01*
X14786500Y-10033000D02*
G75*
G03X14786500Y-10033000I-54500J0D01*
G01*
X15058000Y-9089000D02*
X15168000Y-9199000D01*
X15168000Y-9089000D02*
X15058000Y-9199000D01*
X15113000Y-9089000D02*
X15113000Y-9199000D01*
X15058000Y-9144000D02*
X15168000Y-9144000D01*
X15312000Y-9089000D02*
X15422000Y-9199000D01*
X15422000Y-9089000D02*
X15312000Y-9199000D01*
X15367000Y-9089000D02*
X15367000Y-9199000D01*
X15312000Y-9144000D02*
X15422000Y-9144000D01*
X15566000Y-9089000D02*
X15676000Y-9199000D01*
X15676000Y-9089000D02*
X15566000Y-9199000D01*
X15621000Y-9089000D02*
X15621000Y-9199000D01*
X15566000Y-9144000D02*
X15676000Y-9144000D01*
X14545000Y-13783000D02*
X14665000Y-13903000D01*
X14665000Y-13783000D02*
X14545000Y-13903000D01*
X14647427Y-13885427D02*
X14647427Y-13800573D01*
X14562573Y-13800573D01*
X14562573Y-13885427D01*
X14647427Y-13885427D01*
X14545000Y-14037000D02*
X14665000Y-14157000D01*
X14665000Y-14037000D02*
X14545000Y-14157000D01*
X14647427Y-14139427D02*
X14647427Y-14054573D01*
X14562573Y-14054573D01*
X14562573Y-14139427D01*
X14647427Y-14139427D01*
X14545000Y-14291000D02*
X14665000Y-14411000D01*
X14665000Y-14291000D02*
X14545000Y-14411000D01*
X14647427Y-14393427D02*
X14647427Y-14308573D01*
X14562573Y-14308573D01*
X14562573Y-14393427D01*
X14647427Y-14393427D01*
X15561000Y-13783000D02*
X15681000Y-13903000D01*
X15681000Y-13783000D02*
X15561000Y-13903000D01*
X15663427Y-13885427D02*
X15663427Y-13800573D01*
X15578573Y-13800573D01*
X15578573Y-13885427D01*
X15663427Y-13885427D01*
X15561000Y-14037000D02*
X15681000Y-14157000D01*
X15681000Y-14037000D02*
X15561000Y-14157000D01*
X15663427Y-14139427D02*
X15663427Y-14054573D01*
X15578573Y-14054573D01*
X15578573Y-14139427D01*
X15663427Y-14139427D01*
X15561000Y-14291000D02*
X15681000Y-14411000D01*
X15681000Y-14291000D02*
X15561000Y-14411000D01*
X15663427Y-14393427D02*
X15663427Y-14308573D01*
X15578573Y-14308573D01*
X15578573Y-14393427D01*
X15663427Y-14393427D01*
X11111000Y-9206000D02*
X11241000Y-9336000D01*
X11241000Y-9206000D02*
X11111000Y-9336000D01*
X11176000Y-9336000D02*
X11241000Y-9271000D01*
X11176000Y-9206000D01*
X11111000Y-9271000D01*
X11176000Y-9336000D01*
X11111000Y-9714000D02*
X11241000Y-9844000D01*
X11241000Y-9714000D02*
X11111000Y-9844000D01*
X11176000Y-9844000D02*
X11241000Y-9779000D01*
X11176000Y-9714000D01*
X11111000Y-9779000D01*
X11176000Y-9844000D01*
X13462000Y-12256000D02*
X13462000Y-12406000D01*
X13387000Y-12331000D02*
X13537000Y-12331000D01*
X13537000Y-12331000D02*
G75*
G03X13537000Y-12331000I-75000J0D01*
G01*
X13462000Y-13006000D02*
X13462000Y-13156000D01*
X13387000Y-13081000D02*
X13537000Y-13081000D01*
X13537000Y-13081000D02*
G75*
G03X13537000Y-13081000I-75000J0D01*
G01*
X14962000Y-12256000D02*
X14962000Y-12406000D01*
X14887000Y-12331000D02*
X15037000Y-12331000D01*
X15037000Y-12331000D02*
G75*
G03X15037000Y-12331000I-75000J0D01*
G01*
X14962000Y-13006000D02*
X14962000Y-13156000D01*
X14887000Y-13081000D02*
X15037000Y-13081000D01*
X15037000Y-13081000D02*
G75*
G03X15037000Y-13081000I-75000J0D01*
G01*
X15462000Y-12256000D02*
X15462000Y-12406000D01*
X15387000Y-12331000D02*
X15537000Y-12331000D01*
X15537000Y-12331000D02*
G75*
G03X15537000Y-12331000I-75000J0D01*
G01*
X15462000Y-13006000D02*
X15462000Y-13156000D01*
X15387000Y-13081000D02*
X15537000Y-13081000D01*
X15537000Y-13081000D02*
G75*
G03X15537000Y-13081000I-75000J0D01*
G01*
X15962000Y-12256000D02*
X15962000Y-12406000D01*
X15887000Y-12331000D02*
X16037000Y-12331000D01*
X16037000Y-12331000D02*
G75*
G03X16037000Y-12331000I-75000J0D01*
G01*
X15962000Y-13006000D02*
X15962000Y-13156000D01*
X15887000Y-13081000D02*
X16037000Y-13081000D01*
X16037000Y-13081000D02*
G75*
G03X16037000Y-13081000I-75000J0D01*
G01*
X13462000Y-10732000D02*
X13462000Y-10882000D01*
X13387000Y-10807000D02*
X13537000Y-10807000D01*
X13537000Y-10807000D02*
G75*
G03X13537000Y-10807000I-75000J0D01*
G01*
X13462000Y-11482000D02*
X13462000Y-11632000D01*
X13387000Y-11557000D02*
X13537000Y-11557000D01*
X13537000Y-11557000D02*
G75*
G03X13537000Y-11557000I-75000J0D01*
G01*
X14962000Y-10732000D02*
X14962000Y-10882000D01*
X14887000Y-10807000D02*
X15037000Y-10807000D01*
X15037000Y-10807000D02*
G75*
G03X15037000Y-10807000I-75000J0D01*
G01*
X14962000Y-11482000D02*
X14962000Y-11632000D01*
X14887000Y-11557000D02*
X15037000Y-11557000D01*
X15037000Y-11557000D02*
G75*
G03X15037000Y-11557000I-75000J0D01*
G01*
X15462000Y-10732000D02*
X15462000Y-10882000D01*
X15387000Y-10807000D02*
X15537000Y-10807000D01*
X15537000Y-10807000D02*
G75*
G03X15537000Y-10807000I-75000J0D01*
G01*
X15462000Y-11482000D02*
X15462000Y-11632000D01*
X15387000Y-11557000D02*
X15537000Y-11557000D01*
X15537000Y-11557000D02*
G75*
G03X15537000Y-11557000I-75000J0D01*
G01*
X15962000Y-10732000D02*
X15962000Y-10882000D01*
X15887000Y-10807000D02*
X16037000Y-10807000D01*
X16037000Y-10807000D02*
G75*
G03X16037000Y-10807000I-75000J0D01*
G01*
X15962000Y-11482000D02*
X15962000Y-11632000D01*
X15887000Y-11557000D02*
X16037000Y-11557000D01*
X16037000Y-11557000D02*
G75*
G03X16037000Y-11557000I-75000J0D01*
G01*
X13804389Y-14185389D02*
X13804389Y-14008611D01*
X13627611Y-14008611D01*
X13627611Y-14185389D01*
X13804389Y-14185389D01*
X13841000Y-14097000D02*
G75*
G03X13841000Y-14097000I-125000J0D01*
G01*
X14566389Y-7581389D02*
X14566389Y-7404611D01*
X14389611Y-7404611D01*
X14389611Y-7581389D01*
X14566389Y-7581389D01*
X14603000Y-7493000D02*
G75*
G03X14603000Y-7493000I-125000J0D01*
G01*
X15367000Y-7653000D02*
X15542000Y-7478000D01*
X15367000Y-7303000D01*
X15192000Y-7478000D01*
X15367000Y-7653000D01*
X15542000Y-7478000D02*
G75*
G03X15542000Y-7478000I-175000J0D01*
G01*
D12*
X10824928Y-15073214D02*
X10824928Y-14773214D01*
X10896357Y-14773214D01*
X10939214Y-14787500D01*
X10967786Y-14816071D01*
X10982071Y-14844643D01*
X10996357Y-14901786D01*
X10996357Y-14944643D01*
X10982071Y-15001786D01*
X10967786Y-15030357D01*
X10939214Y-15058929D01*
X10896357Y-15073214D01*
X10824928Y-15073214D01*
X11124928Y-15073214D02*
X11124928Y-14873214D01*
X11124928Y-14930357D02*
X11139214Y-14901786D01*
X11153500Y-14887500D01*
X11182071Y-14873214D01*
X11210643Y-14873214D01*
X11310643Y-15073214D02*
X11310643Y-14873214D01*
X11310643Y-14773214D02*
X11296357Y-14787500D01*
X11310643Y-14801786D01*
X11324928Y-14787500D01*
X11310643Y-14773214D01*
X11310643Y-14801786D01*
X11496357Y-15073214D02*
X11467786Y-15058929D01*
X11453500Y-15030357D01*
X11453500Y-14773214D01*
X11653500Y-15073214D02*
X11624928Y-15058929D01*
X11610643Y-15030357D01*
X11610643Y-14773214D01*
X11996357Y-15073214D02*
X11996357Y-14773214D01*
X12096357Y-14987500D01*
X12196357Y-14773214D01*
X12196357Y-15073214D01*
X12467786Y-15073214D02*
X12467786Y-14916071D01*
X12453500Y-14887500D01*
X12424928Y-14873214D01*
X12367786Y-14873214D01*
X12339214Y-14887500D01*
X12467786Y-15058929D02*
X12439214Y-15073214D01*
X12367786Y-15073214D01*
X12339214Y-15058929D01*
X12324928Y-15030357D01*
X12324928Y-15001786D01*
X12339214Y-14973214D01*
X12367786Y-14958929D01*
X12439214Y-14958929D01*
X12467786Y-14944643D01*
X12610643Y-14873214D02*
X12610643Y-15173214D01*
X12610643Y-14887500D02*
X12639214Y-14873214D01*
X12696357Y-14873214D01*
X12724928Y-14887500D01*
X12739214Y-14901786D01*
X12753500Y-14930357D01*
X12753500Y-15016071D01*
X12739214Y-15044643D01*
X12724928Y-15058929D01*
X12696357Y-15073214D01*
X12639214Y-15073214D01*
X12610643Y-15058929D01*
X12882071Y-15044643D02*
X12896357Y-15058929D01*
X12882071Y-15073214D01*
X12867786Y-15058929D01*
X12882071Y-15044643D01*
X12882071Y-15073214D01*
X12882071Y-14887500D02*
X12896357Y-14901786D01*
X12882071Y-14916071D01*
X12867786Y-14901786D01*
X12882071Y-14887500D01*
X12882071Y-14916071D01*
X10498500Y-15547500D02*
X10538500Y-15587500D01*
X10538500Y-15547500D02*
X10498500Y-15587500D01*
X10882071Y-15403214D02*
X10910643Y-15403214D01*
X10939214Y-15417500D01*
X10953500Y-15431786D01*
X10967786Y-15460357D01*
X10982071Y-15517500D01*
X10982071Y-15588929D01*
X10967786Y-15646071D01*
X10953500Y-15674643D01*
X10939214Y-15688929D01*
X10910643Y-15703214D01*
X10882071Y-15703214D01*
X10853500Y-15688929D01*
X10839214Y-15674643D01*
X10824928Y-15646071D01*
X10810643Y-15588929D01*
X10810643Y-15517500D01*
X10824928Y-15460357D01*
X10839214Y-15431786D01*
X10853500Y-15417500D01*
X10882071Y-15403214D01*
X11110643Y-15674643D02*
X11124928Y-15688929D01*
X11110643Y-15703214D01*
X11096357Y-15688929D01*
X11110643Y-15674643D01*
X11110643Y-15703214D01*
X11382071Y-15503214D02*
X11382071Y-15703214D01*
X11310643Y-15388929D02*
X11239214Y-15603214D01*
X11424928Y-15603214D01*
X11596357Y-15403214D02*
X11624928Y-15403214D01*
X11653500Y-15417500D01*
X11667786Y-15431786D01*
X11682071Y-15460357D01*
X11696357Y-15517500D01*
X11696357Y-15588929D01*
X11682071Y-15646071D01*
X11667786Y-15674643D01*
X11653500Y-15688929D01*
X11624928Y-15703214D01*
X11596357Y-15703214D01*
X11567786Y-15688929D01*
X11553500Y-15674643D01*
X11539214Y-15646071D01*
X11524928Y-15588929D01*
X11524928Y-15517500D01*
X11539214Y-15460357D01*
X11553500Y-15431786D01*
X11567786Y-15417500D01*
X11596357Y-15403214D01*
X11824928Y-15703214D02*
X11824928Y-15503214D01*
X11824928Y-15531786D02*
X11839214Y-15517500D01*
X11867786Y-15503214D01*
X11910643Y-15503214D01*
X11939214Y-15517500D01*
X11953500Y-15546071D01*
X11953500Y-15703214D01*
X11953500Y-15546071D02*
X11967786Y-15517500D01*
X11996357Y-15503214D01*
X12039214Y-15503214D01*
X12067786Y-15517500D01*
X12082071Y-15546071D01*
X12082071Y-15703214D01*
X12224928Y-15703214D02*
X12224928Y-15503214D01*
X12224928Y-15531786D02*
X12239214Y-15517500D01*
X12267786Y-15503214D01*
X12310643Y-15503214D01*
X12339214Y-15517500D01*
X12353500Y-15546071D01*
X12353500Y-15703214D01*
X12353500Y-15546071D02*
X12367786Y-15517500D01*
X12396357Y-15503214D01*
X12439214Y-15503214D01*
X12467786Y-15517500D01*
X12482071Y-15546071D01*
X12482071Y-15703214D01*
X13067786Y-15388929D02*
X12810643Y-15774643D01*
X13453500Y-15403214D02*
X13482071Y-15403214D01*
X13510643Y-15417500D01*
X13524928Y-15431786D01*
X13539214Y-15460357D01*
X13553500Y-15517500D01*
X13553500Y-15588929D01*
X13539214Y-15646071D01*
X13524928Y-15674643D01*
X13510643Y-15688929D01*
X13482071Y-15703214D01*
X13453500Y-15703214D01*
X13424928Y-15688929D01*
X13410643Y-15674643D01*
X13396357Y-15646071D01*
X13382071Y-15588929D01*
X13382071Y-15517500D01*
X13396357Y-15460357D01*
X13410643Y-15431786D01*
X13424928Y-15417500D01*
X13453500Y-15403214D01*
X13682071Y-15674643D02*
X13696357Y-15688929D01*
X13682071Y-15703214D01*
X13667786Y-15688929D01*
X13682071Y-15674643D01*
X13682071Y-15703214D01*
X13882071Y-15403214D02*
X13910643Y-15403214D01*
X13939214Y-15417500D01*
X13953500Y-15431786D01*
X13967786Y-15460357D01*
X13982071Y-15517500D01*
X13982071Y-15588929D01*
X13967786Y-15646071D01*
X13953500Y-15674643D01*
X13939214Y-15688929D01*
X13910643Y-15703214D01*
X13882071Y-15703214D01*
X13853500Y-15688929D01*
X13839214Y-15674643D01*
X13824928Y-15646071D01*
X13810643Y-15588929D01*
X13810643Y-15517500D01*
X13824928Y-15460357D01*
X13839214Y-15431786D01*
X13853500Y-15417500D01*
X13882071Y-15403214D01*
X14267786Y-15703214D02*
X14096357Y-15703214D01*
X14182071Y-15703214D02*
X14182071Y-15403214D01*
X14153500Y-15446071D01*
X14124928Y-15474643D01*
X14096357Y-15488929D01*
X14524928Y-15403214D02*
X14467786Y-15403214D01*
X14439214Y-15417500D01*
X14424928Y-15431786D01*
X14396357Y-15474643D01*
X14382071Y-15531786D01*
X14382071Y-15646071D01*
X14396357Y-15674643D01*
X14410643Y-15688929D01*
X14439214Y-15703214D01*
X14496357Y-15703214D01*
X14524928Y-15688929D01*
X14539214Y-15674643D01*
X14553500Y-15646071D01*
X14553500Y-15574643D01*
X14539214Y-15546071D01*
X14524928Y-15531786D01*
X14496357Y-15517500D01*
X14439214Y-15517500D01*
X14410643Y-15531786D01*
X14396357Y-15546071D01*
X14382071Y-15574643D01*
X14667786Y-15403214D02*
X14667786Y-15460357D01*
X14782071Y-15403214D02*
X14782071Y-15460357D01*
X15224928Y-15817500D02*
X15210643Y-15803214D01*
X15182071Y-15760357D01*
X15167786Y-15731786D01*
X15153500Y-15688929D01*
X15139214Y-15617500D01*
X15139214Y-15560357D01*
X15153500Y-15488929D01*
X15167786Y-15446071D01*
X15182071Y-15417500D01*
X15210643Y-15374643D01*
X15224928Y-15360357D01*
X15310643Y-15403214D02*
X15510643Y-15403214D01*
X15382071Y-15703214D01*
X15853500Y-15703214D02*
X15853500Y-15403214D01*
X15982071Y-15703214D02*
X15982071Y-15546071D01*
X15967786Y-15517500D01*
X15939214Y-15503214D01*
X15896357Y-15503214D01*
X15867786Y-15517500D01*
X15853500Y-15531786D01*
X16167786Y-15703214D02*
X16139214Y-15688929D01*
X16124928Y-15674643D01*
X16110643Y-15646071D01*
X16110643Y-15560357D01*
X16124928Y-15531786D01*
X16139214Y-15517500D01*
X16167786Y-15503214D01*
X16210643Y-15503214D01*
X16239214Y-15517500D01*
X16253500Y-15531786D01*
X16267786Y-15560357D01*
X16267786Y-15646071D01*
X16253500Y-15674643D01*
X16239214Y-15688929D01*
X16210643Y-15703214D01*
X16167786Y-15703214D01*
X16439214Y-15703214D02*
X16410643Y-15688929D01*
X16396357Y-15660357D01*
X16396357Y-15403214D01*
X16667786Y-15688929D02*
X16639214Y-15703214D01*
X16582071Y-15703214D01*
X16553500Y-15688929D01*
X16539214Y-15660357D01*
X16539214Y-15546071D01*
X16553500Y-15517500D01*
X16582071Y-15503214D01*
X16639214Y-15503214D01*
X16667786Y-15517500D01*
X16682071Y-15546071D01*
X16682071Y-15574643D01*
X16539214Y-15603214D01*
X16796357Y-15688929D02*
X16824928Y-15703214D01*
X16882071Y-15703214D01*
X16910643Y-15688929D01*
X16924928Y-15660357D01*
X16924928Y-15646071D01*
X16910643Y-15617500D01*
X16882071Y-15603214D01*
X16839214Y-15603214D01*
X16810643Y-15588929D01*
X16796357Y-15560357D01*
X16796357Y-15546071D01*
X16810643Y-15517500D01*
X16839214Y-15503214D01*
X16882071Y-15503214D01*
X16910643Y-15517500D01*
X17024928Y-15817500D02*
X17039214Y-15803214D01*
X17067786Y-15760357D01*
X17082071Y-15731786D01*
X17096357Y-15688929D01*
X17110643Y-15617500D01*
X17110643Y-15560357D01*
X17096357Y-15488929D01*
X17082071Y-15446071D01*
X17067786Y-15417500D01*
X17039214Y-15374643D01*
X17024928Y-15360357D01*
X10538500Y-15963500D02*
G75*
G03X10538500Y-15963500I-25000J0D01*
G01*
X10882071Y-15799214D02*
X10910643Y-15799214D01*
X10939214Y-15813500D01*
X10953500Y-15827786D01*
X10967786Y-15856357D01*
X10982071Y-15913500D01*
X10982071Y-15984929D01*
X10967786Y-16042071D01*
X10953500Y-16070643D01*
X10939214Y-16084929D01*
X10910643Y-16099214D01*
X10882071Y-16099214D01*
X10853500Y-16084929D01*
X10839214Y-16070643D01*
X10824928Y-16042071D01*
X10810643Y-15984929D01*
X10810643Y-15913500D01*
X10824928Y-15856357D01*
X10839214Y-15827786D01*
X10853500Y-15813500D01*
X10882071Y-15799214D01*
X11110643Y-16070643D02*
X11124928Y-16084929D01*
X11110643Y-16099214D01*
X11096357Y-16084929D01*
X11110643Y-16070643D01*
X11110643Y-16099214D01*
X11396357Y-15799214D02*
X11253500Y-15799214D01*
X11239214Y-15942071D01*
X11253500Y-15927786D01*
X11282071Y-15913500D01*
X11353500Y-15913500D01*
X11382071Y-15927786D01*
X11396357Y-15942071D01*
X11410643Y-15970643D01*
X11410643Y-16042071D01*
X11396357Y-16070643D01*
X11382071Y-16084929D01*
X11353500Y-16099214D01*
X11282071Y-16099214D01*
X11253500Y-16084929D01*
X11239214Y-16070643D01*
X11596357Y-15799214D02*
X11624928Y-15799214D01*
X11653500Y-15813500D01*
X11667786Y-15827786D01*
X11682071Y-15856357D01*
X11696357Y-15913500D01*
X11696357Y-15984929D01*
X11682071Y-16042071D01*
X11667786Y-16070643D01*
X11653500Y-16084929D01*
X11624928Y-16099214D01*
X11596357Y-16099214D01*
X11567786Y-16084929D01*
X11553500Y-16070643D01*
X11539214Y-16042071D01*
X11524928Y-15984929D01*
X11524928Y-15913500D01*
X11539214Y-15856357D01*
X11553500Y-15827786D01*
X11567786Y-15813500D01*
X11596357Y-15799214D01*
X11824928Y-16099214D02*
X11824928Y-15899214D01*
X11824928Y-15927786D02*
X11839214Y-15913500D01*
X11867786Y-15899214D01*
X11910643Y-15899214D01*
X11939214Y-15913500D01*
X11953500Y-15942071D01*
X11953500Y-16099214D01*
X11953500Y-15942071D02*
X11967786Y-15913500D01*
X11996357Y-15899214D01*
X12039214Y-15899214D01*
X12067786Y-15913500D01*
X12082071Y-15942071D01*
X12082071Y-16099214D01*
X12224928Y-16099214D02*
X12224928Y-15899214D01*
X12224928Y-15927786D02*
X12239214Y-15913500D01*
X12267786Y-15899214D01*
X12310643Y-15899214D01*
X12339214Y-15913500D01*
X12353500Y-15942071D01*
X12353500Y-16099214D01*
X12353500Y-15942071D02*
X12367786Y-15913500D01*
X12396357Y-15899214D01*
X12439214Y-15899214D01*
X12467786Y-15913500D01*
X12482071Y-15942071D01*
X12482071Y-16099214D01*
X13067786Y-15784929D02*
X12810643Y-16170643D01*
X13453500Y-15799214D02*
X13482071Y-15799214D01*
X13510643Y-15813500D01*
X13524928Y-15827786D01*
X13539214Y-15856357D01*
X13553500Y-15913500D01*
X13553500Y-15984929D01*
X13539214Y-16042071D01*
X13524928Y-16070643D01*
X13510643Y-16084929D01*
X13482071Y-16099214D01*
X13453500Y-16099214D01*
X13424928Y-16084929D01*
X13410643Y-16070643D01*
X13396357Y-16042071D01*
X13382071Y-15984929D01*
X13382071Y-15913500D01*
X13396357Y-15856357D01*
X13410643Y-15827786D01*
X13424928Y-15813500D01*
X13453500Y-15799214D01*
X13682071Y-16070643D02*
X13696357Y-16084929D01*
X13682071Y-16099214D01*
X13667786Y-16084929D01*
X13682071Y-16070643D01*
X13682071Y-16099214D01*
X13882071Y-15799214D02*
X13910643Y-15799214D01*
X13939214Y-15813500D01*
X13953500Y-15827786D01*
X13967786Y-15856357D01*
X13982071Y-15913500D01*
X13982071Y-15984929D01*
X13967786Y-16042071D01*
X13953500Y-16070643D01*
X13939214Y-16084929D01*
X13910643Y-16099214D01*
X13882071Y-16099214D01*
X13853500Y-16084929D01*
X13839214Y-16070643D01*
X13824928Y-16042071D01*
X13810643Y-15984929D01*
X13810643Y-15913500D01*
X13824928Y-15856357D01*
X13839214Y-15827786D01*
X13853500Y-15813500D01*
X13882071Y-15799214D01*
X14096357Y-15827786D02*
X14110643Y-15813500D01*
X14139214Y-15799214D01*
X14210643Y-15799214D01*
X14239214Y-15813500D01*
X14253500Y-15827786D01*
X14267786Y-15856357D01*
X14267786Y-15884929D01*
X14253500Y-15927786D01*
X14082071Y-16099214D01*
X14267786Y-16099214D01*
X14453500Y-15799214D02*
X14482071Y-15799214D01*
X14510643Y-15813500D01*
X14524928Y-15827786D01*
X14539214Y-15856357D01*
X14553500Y-15913500D01*
X14553500Y-15984929D01*
X14539214Y-16042071D01*
X14524928Y-16070643D01*
X14510643Y-16084929D01*
X14482071Y-16099214D01*
X14453500Y-16099214D01*
X14424928Y-16084929D01*
X14410643Y-16070643D01*
X14396357Y-16042071D01*
X14382071Y-15984929D01*
X14382071Y-15913500D01*
X14396357Y-15856357D01*
X14410643Y-15827786D01*
X14424928Y-15813500D01*
X14453500Y-15799214D01*
X14667786Y-15799214D02*
X14667786Y-15856357D01*
X14782071Y-15799214D02*
X14782071Y-15856357D01*
X15224928Y-16213500D02*
X15210643Y-16199214D01*
X15182071Y-16156357D01*
X15167786Y-16127786D01*
X15153500Y-16084929D01*
X15139214Y-16013500D01*
X15139214Y-15956357D01*
X15153500Y-15884929D01*
X15167786Y-15842071D01*
X15182071Y-15813500D01*
X15210643Y-15770643D01*
X15224928Y-15756357D01*
X15496357Y-16099214D02*
X15324928Y-16099214D01*
X15410643Y-16099214D02*
X15410643Y-15799214D01*
X15382071Y-15842071D01*
X15353500Y-15870643D01*
X15324928Y-15884929D01*
X15682071Y-15799214D02*
X15710643Y-15799214D01*
X15739214Y-15813500D01*
X15753500Y-15827786D01*
X15767786Y-15856357D01*
X15782071Y-15913500D01*
X15782071Y-15984929D01*
X15767786Y-16042071D01*
X15753500Y-16070643D01*
X15739214Y-16084929D01*
X15710643Y-16099214D01*
X15682071Y-16099214D01*
X15653500Y-16084929D01*
X15639214Y-16070643D01*
X15624928Y-16042071D01*
X15610643Y-15984929D01*
X15610643Y-15913500D01*
X15624928Y-15856357D01*
X15639214Y-15827786D01*
X15653500Y-15813500D01*
X15682071Y-15799214D01*
X16039214Y-15899214D02*
X16039214Y-16099214D01*
X15967786Y-15784929D02*
X15896357Y-15999214D01*
X16082071Y-15999214D01*
X16424928Y-16099214D02*
X16424928Y-15799214D01*
X16553500Y-16099214D02*
X16553500Y-15942071D01*
X16539214Y-15913500D01*
X16510643Y-15899214D01*
X16467786Y-15899214D01*
X16439214Y-15913500D01*
X16424928Y-15927786D01*
X16739214Y-16099214D02*
X16710643Y-16084929D01*
X16696357Y-16070643D01*
X16682071Y-16042071D01*
X16682071Y-15956357D01*
X16696357Y-15927786D01*
X16710643Y-15913500D01*
X16739214Y-15899214D01*
X16782071Y-15899214D01*
X16810643Y-15913500D01*
X16824928Y-15927786D01*
X16839214Y-15956357D01*
X16839214Y-16042071D01*
X16824928Y-16070643D01*
X16810643Y-16084929D01*
X16782071Y-16099214D01*
X16739214Y-16099214D01*
X17010643Y-16099214D02*
X16982071Y-16084929D01*
X16967786Y-16056357D01*
X16967786Y-15799214D01*
X17239214Y-16084929D02*
X17210643Y-16099214D01*
X17153500Y-16099214D01*
X17124928Y-16084929D01*
X17110643Y-16056357D01*
X17110643Y-15942071D01*
X17124928Y-15913500D01*
X17153500Y-15899214D01*
X17210643Y-15899214D01*
X17239214Y-15913500D01*
X17253500Y-15942071D01*
X17253500Y-15970643D01*
X17110643Y-15999214D01*
X17367786Y-16084929D02*
X17396357Y-16099214D01*
X17453500Y-16099214D01*
X17482071Y-16084929D01*
X17496357Y-16056357D01*
X17496357Y-16042071D01*
X17482071Y-16013500D01*
X17453500Y-15999214D01*
X17410643Y-15999214D01*
X17382071Y-15984929D01*
X17367786Y-15956357D01*
X17367786Y-15942071D01*
X17382071Y-15913500D01*
X17410643Y-15899214D01*
X17453500Y-15899214D01*
X17482071Y-15913500D01*
X17596357Y-16213500D02*
X17610643Y-16199214D01*
X17639214Y-16156357D01*
X17653500Y-16127786D01*
X17667786Y-16084929D01*
X17682071Y-16013500D01*
X17682071Y-15956357D01*
X17667786Y-15884929D01*
X17653500Y-15842071D01*
X17639214Y-15813500D01*
X17610643Y-15770643D01*
X17596357Y-15756357D01*
X10503500Y-16324500D02*
X10503500Y-16394500D01*
X10468500Y-16359500D02*
X10538500Y-16359500D01*
X10882071Y-16195214D02*
X10910643Y-16195214D01*
X10939214Y-16209500D01*
X10953500Y-16223786D01*
X10967786Y-16252357D01*
X10982071Y-16309500D01*
X10982071Y-16380929D01*
X10967786Y-16438071D01*
X10953500Y-16466643D01*
X10939214Y-16480929D01*
X10910643Y-16495214D01*
X10882071Y-16495214D01*
X10853500Y-16480929D01*
X10839214Y-16466643D01*
X10824928Y-16438071D01*
X10810643Y-16380929D01*
X10810643Y-16309500D01*
X10824928Y-16252357D01*
X10839214Y-16223786D01*
X10853500Y-16209500D01*
X10882071Y-16195214D01*
X11110643Y-16466643D02*
X11124928Y-16480929D01*
X11110643Y-16495214D01*
X11096357Y-16480929D01*
X11110643Y-16466643D01*
X11110643Y-16495214D01*
X11224928Y-16195214D02*
X11424928Y-16195214D01*
X11296357Y-16495214D01*
X11596357Y-16195214D02*
X11624928Y-16195214D01*
X11653500Y-16209500D01*
X11667786Y-16223786D01*
X11682071Y-16252357D01*
X11696357Y-16309500D01*
X11696357Y-16380929D01*
X11682071Y-16438071D01*
X11667786Y-16466643D01*
X11653500Y-16480929D01*
X11624928Y-16495214D01*
X11596357Y-16495214D01*
X11567786Y-16480929D01*
X11553500Y-16466643D01*
X11539214Y-16438071D01*
X11524928Y-16380929D01*
X11524928Y-16309500D01*
X11539214Y-16252357D01*
X11553500Y-16223786D01*
X11567786Y-16209500D01*
X11596357Y-16195214D01*
X11824928Y-16495214D02*
X11824928Y-16295214D01*
X11824928Y-16323786D02*
X11839214Y-16309500D01*
X11867786Y-16295214D01*
X11910643Y-16295214D01*
X11939214Y-16309500D01*
X11953500Y-16338071D01*
X11953500Y-16495214D01*
X11953500Y-16338071D02*
X11967786Y-16309500D01*
X11996357Y-16295214D01*
X12039214Y-16295214D01*
X12067786Y-16309500D01*
X12082071Y-16338071D01*
X12082071Y-16495214D01*
X12224928Y-16495214D02*
X12224928Y-16295214D01*
X12224928Y-16323786D02*
X12239214Y-16309500D01*
X12267786Y-16295214D01*
X12310643Y-16295214D01*
X12339214Y-16309500D01*
X12353500Y-16338071D01*
X12353500Y-16495214D01*
X12353500Y-16338071D02*
X12367786Y-16309500D01*
X12396357Y-16295214D01*
X12439214Y-16295214D01*
X12467786Y-16309500D01*
X12482071Y-16338071D01*
X12482071Y-16495214D01*
X13067786Y-16180929D02*
X12810643Y-16566643D01*
X13453500Y-16195214D02*
X13482071Y-16195214D01*
X13510643Y-16209500D01*
X13524928Y-16223786D01*
X13539214Y-16252357D01*
X13553500Y-16309500D01*
X13553500Y-16380929D01*
X13539214Y-16438071D01*
X13524928Y-16466643D01*
X13510643Y-16480929D01*
X13482071Y-16495214D01*
X13453500Y-16495214D01*
X13424928Y-16480929D01*
X13410643Y-16466643D01*
X13396357Y-16438071D01*
X13382071Y-16380929D01*
X13382071Y-16309500D01*
X13396357Y-16252357D01*
X13410643Y-16223786D01*
X13424928Y-16209500D01*
X13453500Y-16195214D01*
X13682071Y-16466643D02*
X13696357Y-16480929D01*
X13682071Y-16495214D01*
X13667786Y-16480929D01*
X13682071Y-16466643D01*
X13682071Y-16495214D01*
X13882071Y-16195214D02*
X13910643Y-16195214D01*
X13939214Y-16209500D01*
X13953500Y-16223786D01*
X13967786Y-16252357D01*
X13982071Y-16309500D01*
X13982071Y-16380929D01*
X13967786Y-16438071D01*
X13953500Y-16466643D01*
X13939214Y-16480929D01*
X13910643Y-16495214D01*
X13882071Y-16495214D01*
X13853500Y-16480929D01*
X13839214Y-16466643D01*
X13824928Y-16438071D01*
X13810643Y-16380929D01*
X13810643Y-16309500D01*
X13824928Y-16252357D01*
X13839214Y-16223786D01*
X13853500Y-16209500D01*
X13882071Y-16195214D01*
X14096357Y-16223786D02*
X14110643Y-16209500D01*
X14139214Y-16195214D01*
X14210643Y-16195214D01*
X14239214Y-16209500D01*
X14253500Y-16223786D01*
X14267786Y-16252357D01*
X14267786Y-16280929D01*
X14253500Y-16323786D01*
X14082071Y-16495214D01*
X14267786Y-16495214D01*
X14439214Y-16323786D02*
X14410643Y-16309500D01*
X14396357Y-16295214D01*
X14382071Y-16266643D01*
X14382071Y-16252357D01*
X14396357Y-16223786D01*
X14410643Y-16209500D01*
X14439214Y-16195214D01*
X14496357Y-16195214D01*
X14524928Y-16209500D01*
X14539214Y-16223786D01*
X14553500Y-16252357D01*
X14553500Y-16266643D01*
X14539214Y-16295214D01*
X14524928Y-16309500D01*
X14496357Y-16323786D01*
X14439214Y-16323786D01*
X14410643Y-16338071D01*
X14396357Y-16352357D01*
X14382071Y-16380929D01*
X14382071Y-16438071D01*
X14396357Y-16466643D01*
X14410643Y-16480929D01*
X14439214Y-16495214D01*
X14496357Y-16495214D01*
X14524928Y-16480929D01*
X14539214Y-16466643D01*
X14553500Y-16438071D01*
X14553500Y-16380929D01*
X14539214Y-16352357D01*
X14524928Y-16338071D01*
X14496357Y-16323786D01*
X14667786Y-16195214D02*
X14667786Y-16252357D01*
X14782071Y-16195214D02*
X14782071Y-16252357D01*
X15224928Y-16609500D02*
X15210643Y-16595214D01*
X15182071Y-16552357D01*
X15167786Y-16523786D01*
X15153500Y-16480929D01*
X15139214Y-16409500D01*
X15139214Y-16352357D01*
X15153500Y-16280929D01*
X15167786Y-16238071D01*
X15182071Y-16209500D01*
X15210643Y-16166643D01*
X15224928Y-16152357D01*
X15467786Y-16195214D02*
X15410643Y-16195214D01*
X15382071Y-16209500D01*
X15367786Y-16223786D01*
X15339214Y-16266643D01*
X15324928Y-16323786D01*
X15324928Y-16438071D01*
X15339214Y-16466643D01*
X15353500Y-16480929D01*
X15382071Y-16495214D01*
X15439214Y-16495214D01*
X15467786Y-16480929D01*
X15482071Y-16466643D01*
X15496357Y-16438071D01*
X15496357Y-16366643D01*
X15482071Y-16338071D01*
X15467786Y-16323786D01*
X15439214Y-16309500D01*
X15382071Y-16309500D01*
X15353500Y-16323786D01*
X15339214Y-16338071D01*
X15324928Y-16366643D01*
X15853500Y-16495214D02*
X15853500Y-16195214D01*
X15982071Y-16495214D02*
X15982071Y-16338071D01*
X15967786Y-16309500D01*
X15939214Y-16295214D01*
X15896357Y-16295214D01*
X15867786Y-16309500D01*
X15853500Y-16323786D01*
X16167786Y-16495214D02*
X16139214Y-16480929D01*
X16124928Y-16466643D01*
X16110643Y-16438071D01*
X16110643Y-16352357D01*
X16124928Y-16323786D01*
X16139214Y-16309500D01*
X16167786Y-16295214D01*
X16210643Y-16295214D01*
X16239214Y-16309500D01*
X16253500Y-16323786D01*
X16267786Y-16352357D01*
X16267786Y-16438071D01*
X16253500Y-16466643D01*
X16239214Y-16480929D01*
X16210643Y-16495214D01*
X16167786Y-16495214D01*
X16439214Y-16495214D02*
X16410643Y-16480929D01*
X16396357Y-16452357D01*
X16396357Y-16195214D01*
X16667786Y-16480929D02*
X16639214Y-16495214D01*
X16582071Y-16495214D01*
X16553500Y-16480929D01*
X16539214Y-16452357D01*
X16539214Y-16338071D01*
X16553500Y-16309500D01*
X16582071Y-16295214D01*
X16639214Y-16295214D01*
X16667786Y-16309500D01*
X16682071Y-16338071D01*
X16682071Y-16366643D01*
X16539214Y-16395214D01*
X16796357Y-16480929D02*
X16824928Y-16495214D01*
X16882071Y-16495214D01*
X16910643Y-16480929D01*
X16924928Y-16452357D01*
X16924928Y-16438071D01*
X16910643Y-16409500D01*
X16882071Y-16395214D01*
X16839214Y-16395214D01*
X16810643Y-16380929D01*
X16796357Y-16352357D01*
X16796357Y-16338071D01*
X16810643Y-16309500D01*
X16839214Y-16295214D01*
X16882071Y-16295214D01*
X16910643Y-16309500D01*
X17024928Y-16609500D02*
X17039214Y-16595214D01*
X17067786Y-16552357D01*
X17082071Y-16523786D01*
X17096357Y-16480929D01*
X17110643Y-16409500D01*
X17110643Y-16352357D01*
X17096357Y-16280929D01*
X17082071Y-16238071D01*
X17067786Y-16209500D01*
X17039214Y-16166643D01*
X17024928Y-16152357D01*
X10526784Y-16783785D02*
X10526784Y-16727216D01*
X10470215Y-16727216D01*
X10470215Y-16783785D01*
X10526784Y-16783785D01*
X10882071Y-16591214D02*
X10910643Y-16591214D01*
X10939214Y-16605500D01*
X10953500Y-16619786D01*
X10967786Y-16648357D01*
X10982071Y-16705500D01*
X10982071Y-16776929D01*
X10967786Y-16834072D01*
X10953500Y-16862643D01*
X10939214Y-16876929D01*
X10910643Y-16891214D01*
X10882071Y-16891214D01*
X10853500Y-16876929D01*
X10839214Y-16862643D01*
X10824928Y-16834072D01*
X10810643Y-16776929D01*
X10810643Y-16705500D01*
X10824928Y-16648357D01*
X10839214Y-16619786D01*
X10853500Y-16605500D01*
X10882071Y-16591214D01*
X11110643Y-16862643D02*
X11124928Y-16876929D01*
X11110643Y-16891214D01*
X11096357Y-16876929D01*
X11110643Y-16862643D01*
X11110643Y-16891214D01*
X11296357Y-16719786D02*
X11267786Y-16705500D01*
X11253500Y-16691214D01*
X11239214Y-16662643D01*
X11239214Y-16648357D01*
X11253500Y-16619786D01*
X11267786Y-16605500D01*
X11296357Y-16591214D01*
X11353500Y-16591214D01*
X11382071Y-16605500D01*
X11396357Y-16619786D01*
X11410643Y-16648357D01*
X11410643Y-16662643D01*
X11396357Y-16691214D01*
X11382071Y-16705500D01*
X11353500Y-16719786D01*
X11296357Y-16719786D01*
X11267786Y-16734071D01*
X11253500Y-16748357D01*
X11239214Y-16776929D01*
X11239214Y-16834072D01*
X11253500Y-16862643D01*
X11267786Y-16876929D01*
X11296357Y-16891214D01*
X11353500Y-16891214D01*
X11382071Y-16876929D01*
X11396357Y-16862643D01*
X11410643Y-16834072D01*
X11410643Y-16776929D01*
X11396357Y-16748357D01*
X11382071Y-16734071D01*
X11353500Y-16719786D01*
X11596357Y-16591214D02*
X11624928Y-16591214D01*
X11653500Y-16605500D01*
X11667786Y-16619786D01*
X11682071Y-16648357D01*
X11696357Y-16705500D01*
X11696357Y-16776929D01*
X11682071Y-16834072D01*
X11667786Y-16862643D01*
X11653500Y-16876929D01*
X11624928Y-16891214D01*
X11596357Y-16891214D01*
X11567786Y-16876929D01*
X11553500Y-16862643D01*
X11539214Y-16834072D01*
X11524928Y-16776929D01*
X11524928Y-16705500D01*
X11539214Y-16648357D01*
X11553500Y-16619786D01*
X11567786Y-16605500D01*
X11596357Y-16591214D01*
X11824928Y-16891214D02*
X11824928Y-16691214D01*
X11824928Y-16719786D02*
X11839214Y-16705500D01*
X11867786Y-16691214D01*
X11910643Y-16691214D01*
X11939214Y-16705500D01*
X11953500Y-16734071D01*
X11953500Y-16891214D01*
X11953500Y-16734071D02*
X11967786Y-16705500D01*
X11996357Y-16691214D01*
X12039214Y-16691214D01*
X12067786Y-16705500D01*
X12082071Y-16734071D01*
X12082071Y-16891214D01*
X12224928Y-16891214D02*
X12224928Y-16691214D01*
X12224928Y-16719786D02*
X12239214Y-16705500D01*
X12267786Y-16691214D01*
X12310643Y-16691214D01*
X12339214Y-16705500D01*
X12353500Y-16734071D01*
X12353500Y-16891214D01*
X12353500Y-16734071D02*
X12367786Y-16705500D01*
X12396357Y-16691214D01*
X12439214Y-16691214D01*
X12467786Y-16705500D01*
X12482071Y-16734071D01*
X12482071Y-16891214D01*
X13067786Y-16576929D02*
X12810643Y-16962643D01*
X13453500Y-16591214D02*
X13482071Y-16591214D01*
X13510643Y-16605500D01*
X13524928Y-16619786D01*
X13539214Y-16648357D01*
X13553500Y-16705500D01*
X13553500Y-16776929D01*
X13539214Y-16834072D01*
X13524928Y-16862643D01*
X13510643Y-16876929D01*
X13482071Y-16891214D01*
X13453500Y-16891214D01*
X13424928Y-16876929D01*
X13410643Y-16862643D01*
X13396357Y-16834072D01*
X13382071Y-16776929D01*
X13382071Y-16705500D01*
X13396357Y-16648357D01*
X13410643Y-16619786D01*
X13424928Y-16605500D01*
X13453500Y-16591214D01*
X13682071Y-16862643D02*
X13696357Y-16876929D01*
X13682071Y-16891214D01*
X13667786Y-16876929D01*
X13682071Y-16862643D01*
X13682071Y-16891214D01*
X13882071Y-16591214D02*
X13910643Y-16591214D01*
X13939214Y-16605500D01*
X13953500Y-16619786D01*
X13967786Y-16648357D01*
X13982071Y-16705500D01*
X13982071Y-16776929D01*
X13967786Y-16834072D01*
X13953500Y-16862643D01*
X13939214Y-16876929D01*
X13910643Y-16891214D01*
X13882071Y-16891214D01*
X13853500Y-16876929D01*
X13839214Y-16862643D01*
X13824928Y-16834072D01*
X13810643Y-16776929D01*
X13810643Y-16705500D01*
X13824928Y-16648357D01*
X13839214Y-16619786D01*
X13853500Y-16605500D01*
X13882071Y-16591214D01*
X14082071Y-16591214D02*
X14267786Y-16591214D01*
X14167786Y-16705500D01*
X14210643Y-16705500D01*
X14239214Y-16719786D01*
X14253500Y-16734071D01*
X14267786Y-16762643D01*
X14267786Y-16834072D01*
X14253500Y-16862643D01*
X14239214Y-16876929D01*
X14210643Y-16891214D01*
X14124928Y-16891214D01*
X14096357Y-16876929D01*
X14082071Y-16862643D01*
X14553500Y-16891214D02*
X14382071Y-16891214D01*
X14467786Y-16891214D02*
X14467786Y-16591214D01*
X14439214Y-16634071D01*
X14410643Y-16662643D01*
X14382071Y-16676929D01*
X14667786Y-16591214D02*
X14667786Y-16648357D01*
X14782071Y-16591214D02*
X14782071Y-16648357D01*
X15224928Y-17005500D02*
X15210643Y-16991214D01*
X15182071Y-16948357D01*
X15167786Y-16919786D01*
X15153500Y-16876929D01*
X15139214Y-16805500D01*
X15139214Y-16748357D01*
X15153500Y-16676929D01*
X15167786Y-16634071D01*
X15182071Y-16605500D01*
X15210643Y-16562643D01*
X15224928Y-16548357D01*
X15467786Y-16591214D02*
X15410643Y-16591214D01*
X15382071Y-16605500D01*
X15367786Y-16619786D01*
X15339214Y-16662643D01*
X15324928Y-16719786D01*
X15324928Y-16834072D01*
X15339214Y-16862643D01*
X15353500Y-16876929D01*
X15382071Y-16891214D01*
X15439214Y-16891214D01*
X15467786Y-16876929D01*
X15482071Y-16862643D01*
X15496357Y-16834072D01*
X15496357Y-16762643D01*
X15482071Y-16734071D01*
X15467786Y-16719786D01*
X15439214Y-16705500D01*
X15382071Y-16705500D01*
X15353500Y-16719786D01*
X15339214Y-16734071D01*
X15324928Y-16762643D01*
X15853500Y-16891214D02*
X15853500Y-16591214D01*
X15982071Y-16891214D02*
X15982071Y-16734071D01*
X15967786Y-16705500D01*
X15939214Y-16691214D01*
X15896357Y-16691214D01*
X15867786Y-16705500D01*
X15853500Y-16719786D01*
X16167786Y-16891214D02*
X16139214Y-16876929D01*
X16124928Y-16862643D01*
X16110643Y-16834072D01*
X16110643Y-16748357D01*
X16124928Y-16719786D01*
X16139214Y-16705500D01*
X16167786Y-16691214D01*
X16210643Y-16691214D01*
X16239214Y-16705500D01*
X16253500Y-16719786D01*
X16267786Y-16748357D01*
X16267786Y-16834072D01*
X16253500Y-16862643D01*
X16239214Y-16876929D01*
X16210643Y-16891214D01*
X16167786Y-16891214D01*
X16439214Y-16891214D02*
X16410643Y-16876929D01*
X16396357Y-16848357D01*
X16396357Y-16591214D01*
X16667786Y-16876929D02*
X16639214Y-16891214D01*
X16582071Y-16891214D01*
X16553500Y-16876929D01*
X16539214Y-16848357D01*
X16539214Y-16734071D01*
X16553500Y-16705500D01*
X16582071Y-16691214D01*
X16639214Y-16691214D01*
X16667786Y-16705500D01*
X16682071Y-16734071D01*
X16682071Y-16762643D01*
X16539214Y-16791214D01*
X16796357Y-16876929D02*
X16824928Y-16891214D01*
X16882071Y-16891214D01*
X16910643Y-16876929D01*
X16924928Y-16848357D01*
X16924928Y-16834072D01*
X16910643Y-16805500D01*
X16882071Y-16791214D01*
X16839214Y-16791214D01*
X16810643Y-16776929D01*
X16796357Y-16748357D01*
X16796357Y-16734071D01*
X16810643Y-16705500D01*
X16839214Y-16691214D01*
X16882071Y-16691214D01*
X16910643Y-16705500D01*
X17024928Y-17005500D02*
X17039214Y-16991214D01*
X17067786Y-16948357D01*
X17082071Y-16919786D01*
X17096357Y-16876929D01*
X17110643Y-16805500D01*
X17110643Y-16748357D01*
X17096357Y-16676929D01*
X17082071Y-16634071D01*
X17067786Y-16605500D01*
X17039214Y-16562643D01*
X17024928Y-16548357D01*
X10488500Y-17201500D02*
X10538500Y-17151500D01*
X10488500Y-17101500D01*
X10438500Y-17151500D01*
X10488500Y-17201500D01*
X10982071Y-17287214D02*
X10810643Y-17287214D01*
X10896357Y-17287214D02*
X10896357Y-16987214D01*
X10867786Y-17030072D01*
X10839214Y-17058643D01*
X10810643Y-17072929D01*
X11110643Y-17258643D02*
X11124928Y-17272929D01*
X11110643Y-17287214D01*
X11096357Y-17272929D01*
X11110643Y-17258643D01*
X11110643Y-17287214D01*
X11310643Y-16987214D02*
X11339214Y-16987214D01*
X11367786Y-17001500D01*
X11382071Y-17015786D01*
X11396357Y-17044357D01*
X11410643Y-17101500D01*
X11410643Y-17172929D01*
X11396357Y-17230072D01*
X11382071Y-17258643D01*
X11367786Y-17272929D01*
X11339214Y-17287214D01*
X11310643Y-17287214D01*
X11282071Y-17272929D01*
X11267786Y-17258643D01*
X11253500Y-17230072D01*
X11239214Y-17172929D01*
X11239214Y-17101500D01*
X11253500Y-17044357D01*
X11267786Y-17015786D01*
X11282071Y-17001500D01*
X11310643Y-16987214D01*
X11596357Y-16987214D02*
X11624928Y-16987214D01*
X11653500Y-17001500D01*
X11667786Y-17015786D01*
X11682071Y-17044357D01*
X11696357Y-17101500D01*
X11696357Y-17172929D01*
X11682071Y-17230072D01*
X11667786Y-17258643D01*
X11653500Y-17272929D01*
X11624928Y-17287214D01*
X11596357Y-17287214D01*
X11567786Y-17272929D01*
X11553500Y-17258643D01*
X11539214Y-17230072D01*
X11524928Y-17172929D01*
X11524928Y-17101500D01*
X11539214Y-17044357D01*
X11553500Y-17015786D01*
X11567786Y-17001500D01*
X11596357Y-16987214D01*
X11824928Y-17287214D02*
X11824928Y-17087214D01*
X11824928Y-17115786D02*
X11839214Y-17101500D01*
X11867786Y-17087214D01*
X11910643Y-17087214D01*
X11939214Y-17101500D01*
X11953500Y-17130072D01*
X11953500Y-17287214D01*
X11953500Y-17130072D02*
X11967786Y-17101500D01*
X11996357Y-17087214D01*
X12039214Y-17087214D01*
X12067786Y-17101500D01*
X12082071Y-17130072D01*
X12082071Y-17287214D01*
X12224928Y-17287214D02*
X12224928Y-17087214D01*
X12224928Y-17115786D02*
X12239214Y-17101500D01*
X12267786Y-17087214D01*
X12310643Y-17087214D01*
X12339214Y-17101500D01*
X12353500Y-17130072D01*
X12353500Y-17287214D01*
X12353500Y-17130072D02*
X12367786Y-17101500D01*
X12396357Y-17087214D01*
X12439214Y-17087214D01*
X12467786Y-17101500D01*
X12482071Y-17130072D01*
X12482071Y-17287214D01*
X13067786Y-16972929D02*
X12810643Y-17358643D01*
X13453500Y-16987214D02*
X13482071Y-16987214D01*
X13510643Y-17001500D01*
X13524928Y-17015786D01*
X13539214Y-17044357D01*
X13553500Y-17101500D01*
X13553500Y-17172929D01*
X13539214Y-17230072D01*
X13524928Y-17258643D01*
X13510643Y-17272929D01*
X13482071Y-17287214D01*
X13453500Y-17287214D01*
X13424928Y-17272929D01*
X13410643Y-17258643D01*
X13396357Y-17230072D01*
X13382071Y-17172929D01*
X13382071Y-17101500D01*
X13396357Y-17044357D01*
X13410643Y-17015786D01*
X13424928Y-17001500D01*
X13453500Y-16987214D01*
X13682071Y-17258643D02*
X13696357Y-17272929D01*
X13682071Y-17287214D01*
X13667786Y-17272929D01*
X13682071Y-17258643D01*
X13682071Y-17287214D01*
X13882071Y-16987214D02*
X13910643Y-16987214D01*
X13939214Y-17001500D01*
X13953500Y-17015786D01*
X13967786Y-17044357D01*
X13982071Y-17101500D01*
X13982071Y-17172929D01*
X13967786Y-17230072D01*
X13953500Y-17258643D01*
X13939214Y-17272929D01*
X13910643Y-17287214D01*
X13882071Y-17287214D01*
X13853500Y-17272929D01*
X13839214Y-17258643D01*
X13824928Y-17230072D01*
X13810643Y-17172929D01*
X13810643Y-17101500D01*
X13824928Y-17044357D01*
X13839214Y-17015786D01*
X13853500Y-17001500D01*
X13882071Y-16987214D01*
X14082071Y-16987214D02*
X14267786Y-16987214D01*
X14167786Y-17101500D01*
X14210643Y-17101500D01*
X14239214Y-17115786D01*
X14253500Y-17130072D01*
X14267786Y-17158643D01*
X14267786Y-17230072D01*
X14253500Y-17258643D01*
X14239214Y-17272929D01*
X14210643Y-17287214D01*
X14124928Y-17287214D01*
X14096357Y-17272929D01*
X14082071Y-17258643D01*
X14410643Y-17287214D02*
X14467786Y-17287214D01*
X14496357Y-17272929D01*
X14510643Y-17258643D01*
X14539214Y-17215786D01*
X14553500Y-17158643D01*
X14553500Y-17044357D01*
X14539214Y-17015786D01*
X14524928Y-17001500D01*
X14496357Y-16987214D01*
X14439214Y-16987214D01*
X14410643Y-17001500D01*
X14396357Y-17015786D01*
X14382071Y-17044357D01*
X14382071Y-17115786D01*
X14396357Y-17144357D01*
X14410643Y-17158643D01*
X14439214Y-17172929D01*
X14496357Y-17172929D01*
X14524928Y-17158643D01*
X14539214Y-17144357D01*
X14553500Y-17115786D01*
X14667786Y-16987214D02*
X14667786Y-17044357D01*
X14782071Y-16987214D02*
X14782071Y-17044357D01*
X15224928Y-17401500D02*
X15210643Y-17387214D01*
X15182071Y-17344357D01*
X15167786Y-17315786D01*
X15153500Y-17272929D01*
X15139214Y-17201500D01*
X15139214Y-17144357D01*
X15153500Y-17072929D01*
X15167786Y-17030072D01*
X15182071Y-17001500D01*
X15210643Y-16958643D01*
X15224928Y-16944357D01*
X15467786Y-16987214D02*
X15410643Y-16987214D01*
X15382071Y-17001500D01*
X15367786Y-17015786D01*
X15339214Y-17058643D01*
X15324928Y-17115786D01*
X15324928Y-17230072D01*
X15339214Y-17258643D01*
X15353500Y-17272929D01*
X15382071Y-17287214D01*
X15439214Y-17287214D01*
X15467786Y-17272929D01*
X15482071Y-17258643D01*
X15496357Y-17230072D01*
X15496357Y-17158643D01*
X15482071Y-17130072D01*
X15467786Y-17115786D01*
X15439214Y-17101500D01*
X15382071Y-17101500D01*
X15353500Y-17115786D01*
X15339214Y-17130072D01*
X15324928Y-17158643D01*
X15753500Y-17087214D02*
X15753500Y-17287214D01*
X15682071Y-16972929D02*
X15610643Y-17187214D01*
X15796357Y-17187214D01*
X16139214Y-17287214D02*
X16139214Y-16987214D01*
X16267786Y-17287214D02*
X16267786Y-17130072D01*
X16253500Y-17101500D01*
X16224928Y-17087214D01*
X16182071Y-17087214D01*
X16153500Y-17101500D01*
X16139214Y-17115786D01*
X16453500Y-17287214D02*
X16424928Y-17272929D01*
X16410643Y-17258643D01*
X16396357Y-17230072D01*
X16396357Y-17144357D01*
X16410643Y-17115786D01*
X16424928Y-17101500D01*
X16453500Y-17087214D01*
X16496357Y-17087214D01*
X16524928Y-17101500D01*
X16539214Y-17115786D01*
X16553500Y-17144357D01*
X16553500Y-17230072D01*
X16539214Y-17258643D01*
X16524928Y-17272929D01*
X16496357Y-17287214D01*
X16453500Y-17287214D01*
X16724928Y-17287214D02*
X16696357Y-17272929D01*
X16682071Y-17244357D01*
X16682071Y-16987214D01*
X16953500Y-17272929D02*
X16924928Y-17287214D01*
X16867786Y-17287214D01*
X16839214Y-17272929D01*
X16824928Y-17244357D01*
X16824928Y-17130072D01*
X16839214Y-17101500D01*
X16867786Y-17087214D01*
X16924928Y-17087214D01*
X16953500Y-17101500D01*
X16967786Y-17130072D01*
X16967786Y-17158643D01*
X16824928Y-17187214D01*
X17082071Y-17272929D02*
X17110643Y-17287214D01*
X17167786Y-17287214D01*
X17196357Y-17272929D01*
X17210643Y-17244357D01*
X17210643Y-17230072D01*
X17196357Y-17201500D01*
X17167786Y-17187214D01*
X17124928Y-17187214D01*
X17096357Y-17172929D01*
X17082071Y-17144357D01*
X17082071Y-17130072D01*
X17096357Y-17101500D01*
X17124928Y-17087214D01*
X17167786Y-17087214D01*
X17196357Y-17101500D01*
X17310643Y-17401500D02*
X17324928Y-17387214D01*
X17353500Y-17344357D01*
X17367786Y-17315786D01*
X17382071Y-17272929D01*
X17396357Y-17201500D01*
X17396357Y-17144357D01*
X17382071Y-17072929D01*
X17367786Y-17030072D01*
X17353500Y-17001500D01*
X17324928Y-16958643D01*
X17310643Y-16944357D01*
X10429500Y-17493000D02*
X10538500Y-17602000D01*
X10538500Y-17493000D02*
X10429500Y-17602000D01*
X10538500Y-17547500D02*
G75*
G03X10538500Y-17547500I-54500J0D01*
G01*
X10982071Y-17683214D02*
X10810643Y-17683214D01*
X10896357Y-17683214D02*
X10896357Y-17383214D01*
X10867786Y-17426072D01*
X10839214Y-17454643D01*
X10810643Y-17468929D01*
X11110643Y-17654643D02*
X11124928Y-17668929D01*
X11110643Y-17683214D01*
X11096357Y-17668929D01*
X11110643Y-17654643D01*
X11110643Y-17683214D01*
X11310643Y-17383214D02*
X11339214Y-17383214D01*
X11367786Y-17397500D01*
X11382071Y-17411786D01*
X11396357Y-17440357D01*
X11410643Y-17497500D01*
X11410643Y-17568929D01*
X11396357Y-17626072D01*
X11382071Y-17654643D01*
X11367786Y-17668929D01*
X11339214Y-17683214D01*
X11310643Y-17683214D01*
X11282071Y-17668929D01*
X11267786Y-17654643D01*
X11253500Y-17626072D01*
X11239214Y-17568929D01*
X11239214Y-17497500D01*
X11253500Y-17440357D01*
X11267786Y-17411786D01*
X11282071Y-17397500D01*
X11310643Y-17383214D01*
X11553500Y-17683214D02*
X11610643Y-17683214D01*
X11639214Y-17668929D01*
X11653500Y-17654643D01*
X11682071Y-17611786D01*
X11696357Y-17554643D01*
X11696357Y-17440357D01*
X11682071Y-17411786D01*
X11667786Y-17397500D01*
X11639214Y-17383214D01*
X11582071Y-17383214D01*
X11553500Y-17397500D01*
X11539214Y-17411786D01*
X11524928Y-17440357D01*
X11524928Y-17511786D01*
X11539214Y-17540357D01*
X11553500Y-17554643D01*
X11582071Y-17568929D01*
X11639214Y-17568929D01*
X11667786Y-17554643D01*
X11682071Y-17540357D01*
X11696357Y-17511786D01*
X11824928Y-17683214D02*
X11824928Y-17483214D01*
X11824928Y-17511786D02*
X11839214Y-17497500D01*
X11867786Y-17483214D01*
X11910643Y-17483214D01*
X11939214Y-17497500D01*
X11953500Y-17526072D01*
X11953500Y-17683214D01*
X11953500Y-17526072D02*
X11967786Y-17497500D01*
X11996357Y-17483214D01*
X12039214Y-17483214D01*
X12067786Y-17497500D01*
X12082071Y-17526072D01*
X12082071Y-17683214D01*
X12224928Y-17683214D02*
X12224928Y-17483214D01*
X12224928Y-17511786D02*
X12239214Y-17497500D01*
X12267786Y-17483214D01*
X12310643Y-17483214D01*
X12339214Y-17497500D01*
X12353500Y-17526072D01*
X12353500Y-17683214D01*
X12353500Y-17526072D02*
X12367786Y-17497500D01*
X12396357Y-17483214D01*
X12439214Y-17483214D01*
X12467786Y-17497500D01*
X12482071Y-17526072D01*
X12482071Y-17683214D01*
X13067786Y-17368929D02*
X12810643Y-17754643D01*
X13453500Y-17383214D02*
X13482071Y-17383214D01*
X13510643Y-17397500D01*
X13524928Y-17411786D01*
X13539214Y-17440357D01*
X13553500Y-17497500D01*
X13553500Y-17568929D01*
X13539214Y-17626072D01*
X13524928Y-17654643D01*
X13510643Y-17668929D01*
X13482071Y-17683214D01*
X13453500Y-17683214D01*
X13424928Y-17668929D01*
X13410643Y-17654643D01*
X13396357Y-17626072D01*
X13382071Y-17568929D01*
X13382071Y-17497500D01*
X13396357Y-17440357D01*
X13410643Y-17411786D01*
X13424928Y-17397500D01*
X13453500Y-17383214D01*
X13682071Y-17654643D02*
X13696357Y-17668929D01*
X13682071Y-17683214D01*
X13667786Y-17668929D01*
X13682071Y-17654643D01*
X13682071Y-17683214D01*
X13882071Y-17383214D02*
X13910643Y-17383214D01*
X13939214Y-17397500D01*
X13953500Y-17411786D01*
X13967786Y-17440357D01*
X13982071Y-17497500D01*
X13982071Y-17568929D01*
X13967786Y-17626072D01*
X13953500Y-17654643D01*
X13939214Y-17668929D01*
X13910643Y-17683214D01*
X13882071Y-17683214D01*
X13853500Y-17668929D01*
X13839214Y-17654643D01*
X13824928Y-17626072D01*
X13810643Y-17568929D01*
X13810643Y-17497500D01*
X13824928Y-17440357D01*
X13839214Y-17411786D01*
X13853500Y-17397500D01*
X13882071Y-17383214D01*
X14239214Y-17483214D02*
X14239214Y-17683214D01*
X14167786Y-17368929D02*
X14096357Y-17583214D01*
X14282071Y-17583214D01*
X14367786Y-17383214D02*
X14553500Y-17383214D01*
X14453500Y-17497500D01*
X14496357Y-17497500D01*
X14524928Y-17511786D01*
X14539214Y-17526072D01*
X14553500Y-17554643D01*
X14553500Y-17626072D01*
X14539214Y-17654643D01*
X14524928Y-17668929D01*
X14496357Y-17683214D01*
X14410643Y-17683214D01*
X14382071Y-17668929D01*
X14367786Y-17654643D01*
X14667786Y-17383214D02*
X14667786Y-17440357D01*
X14782071Y-17383214D02*
X14782071Y-17440357D01*
X15224928Y-17797500D02*
X15210643Y-17783214D01*
X15182071Y-17740357D01*
X15167786Y-17711786D01*
X15153500Y-17668929D01*
X15139214Y-17597500D01*
X15139214Y-17540357D01*
X15153500Y-17468929D01*
X15167786Y-17426072D01*
X15182071Y-17397500D01*
X15210643Y-17354643D01*
X15224928Y-17340357D01*
X15467786Y-17483214D02*
X15467786Y-17683214D01*
X15396357Y-17368929D02*
X15324928Y-17583214D01*
X15510643Y-17583214D01*
X15853500Y-17683214D02*
X15853500Y-17383214D01*
X15982071Y-17683214D02*
X15982071Y-17526072D01*
X15967786Y-17497500D01*
X15939214Y-17483214D01*
X15896357Y-17483214D01*
X15867786Y-17497500D01*
X15853500Y-17511786D01*
X16167786Y-17683214D02*
X16139214Y-17668929D01*
X16124928Y-17654643D01*
X16110643Y-17626072D01*
X16110643Y-17540357D01*
X16124928Y-17511786D01*
X16139214Y-17497500D01*
X16167786Y-17483214D01*
X16210643Y-17483214D01*
X16239214Y-17497500D01*
X16253500Y-17511786D01*
X16267786Y-17540357D01*
X16267786Y-17626072D01*
X16253500Y-17654643D01*
X16239214Y-17668929D01*
X16210643Y-17683214D01*
X16167786Y-17683214D01*
X16439214Y-17683214D02*
X16410643Y-17668929D01*
X16396357Y-17640357D01*
X16396357Y-17383214D01*
X16667786Y-17668929D02*
X16639214Y-17683214D01*
X16582071Y-17683214D01*
X16553500Y-17668929D01*
X16539214Y-17640357D01*
X16539214Y-17526072D01*
X16553500Y-17497500D01*
X16582071Y-17483214D01*
X16639214Y-17483214D01*
X16667786Y-17497500D01*
X16682071Y-17526072D01*
X16682071Y-17554643D01*
X16539214Y-17583214D01*
X16796357Y-17668929D02*
X16824928Y-17683214D01*
X16882071Y-17683214D01*
X16910643Y-17668929D01*
X16924928Y-17640357D01*
X16924928Y-17626072D01*
X16910643Y-17597500D01*
X16882071Y-17583214D01*
X16839214Y-17583214D01*
X16810643Y-17568929D01*
X16796357Y-17540357D01*
X16796357Y-17526072D01*
X16810643Y-17497500D01*
X16839214Y-17483214D01*
X16882071Y-17483214D01*
X16910643Y-17497500D01*
X17024928Y-17797500D02*
X17039214Y-17783214D01*
X17067786Y-17740357D01*
X17082071Y-17711786D01*
X17096357Y-17668929D01*
X17110643Y-17597500D01*
X17110643Y-17540357D01*
X17096357Y-17468929D01*
X17082071Y-17426072D01*
X17067786Y-17397500D01*
X17039214Y-17354643D01*
X17024928Y-17340357D01*
X10428500Y-17888500D02*
X10538500Y-17998500D01*
X10538500Y-17888500D02*
X10428500Y-17998500D01*
X10483500Y-17888500D02*
X10483500Y-17998500D01*
X10428500Y-17943500D02*
X10538500Y-17943500D01*
X10982071Y-18079214D02*
X10810643Y-18079214D01*
X10896357Y-18079214D02*
X10896357Y-17779214D01*
X10867786Y-17822072D01*
X10839214Y-17850643D01*
X10810643Y-17864929D01*
X11110643Y-18050643D02*
X11124928Y-18064929D01*
X11110643Y-18079214D01*
X11096357Y-18064929D01*
X11110643Y-18050643D01*
X11110643Y-18079214D01*
X11410643Y-18079214D02*
X11239214Y-18079214D01*
X11324928Y-18079214D02*
X11324928Y-17779214D01*
X11296357Y-17822072D01*
X11267786Y-17850643D01*
X11239214Y-17864929D01*
X11596357Y-17779214D02*
X11624928Y-17779214D01*
X11653500Y-17793500D01*
X11667786Y-17807786D01*
X11682071Y-17836357D01*
X11696357Y-17893500D01*
X11696357Y-17964929D01*
X11682071Y-18022072D01*
X11667786Y-18050643D01*
X11653500Y-18064929D01*
X11624928Y-18079214D01*
X11596357Y-18079214D01*
X11567786Y-18064929D01*
X11553500Y-18050643D01*
X11539214Y-18022072D01*
X11524928Y-17964929D01*
X11524928Y-17893500D01*
X11539214Y-17836357D01*
X11553500Y-17807786D01*
X11567786Y-17793500D01*
X11596357Y-17779214D01*
X11824928Y-18079214D02*
X11824928Y-17879214D01*
X11824928Y-17907786D02*
X11839214Y-17893500D01*
X11867786Y-17879214D01*
X11910643Y-17879214D01*
X11939214Y-17893500D01*
X11953500Y-17922072D01*
X11953500Y-18079214D01*
X11953500Y-17922072D02*
X11967786Y-17893500D01*
X11996357Y-17879214D01*
X12039214Y-17879214D01*
X12067786Y-17893500D01*
X12082071Y-17922072D01*
X12082071Y-18079214D01*
X12224928Y-18079214D02*
X12224928Y-17879214D01*
X12224928Y-17907786D02*
X12239214Y-17893500D01*
X12267786Y-17879214D01*
X12310643Y-17879214D01*
X12339214Y-17893500D01*
X12353500Y-17922072D01*
X12353500Y-18079214D01*
X12353500Y-17922072D02*
X12367786Y-17893500D01*
X12396357Y-17879214D01*
X12439214Y-17879214D01*
X12467786Y-17893500D01*
X12482071Y-17922072D01*
X12482071Y-18079214D01*
X13067786Y-17764929D02*
X12810643Y-18150643D01*
X13453500Y-17779214D02*
X13482071Y-17779214D01*
X13510643Y-17793500D01*
X13524928Y-17807786D01*
X13539214Y-17836357D01*
X13553500Y-17893500D01*
X13553500Y-17964929D01*
X13539214Y-18022072D01*
X13524928Y-18050643D01*
X13510643Y-18064929D01*
X13482071Y-18079214D01*
X13453500Y-18079214D01*
X13424928Y-18064929D01*
X13410643Y-18050643D01*
X13396357Y-18022072D01*
X13382071Y-17964929D01*
X13382071Y-17893500D01*
X13396357Y-17836357D01*
X13410643Y-17807786D01*
X13424928Y-17793500D01*
X13453500Y-17779214D01*
X13682071Y-18050643D02*
X13696357Y-18064929D01*
X13682071Y-18079214D01*
X13667786Y-18064929D01*
X13682071Y-18050643D01*
X13682071Y-18079214D01*
X13882071Y-17779214D02*
X13910643Y-17779214D01*
X13939214Y-17793500D01*
X13953500Y-17807786D01*
X13967786Y-17836357D01*
X13982071Y-17893500D01*
X13982071Y-17964929D01*
X13967786Y-18022072D01*
X13953500Y-18050643D01*
X13939214Y-18064929D01*
X13910643Y-18079214D01*
X13882071Y-18079214D01*
X13853500Y-18064929D01*
X13839214Y-18050643D01*
X13824928Y-18022072D01*
X13810643Y-17964929D01*
X13810643Y-17893500D01*
X13824928Y-17836357D01*
X13839214Y-17807786D01*
X13853500Y-17793500D01*
X13882071Y-17779214D01*
X14239214Y-17879214D02*
X14239214Y-18079214D01*
X14167786Y-17764929D02*
X14096357Y-17979214D01*
X14282071Y-17979214D01*
X14367786Y-17779214D02*
X14553500Y-17779214D01*
X14453500Y-17893500D01*
X14496357Y-17893500D01*
X14524928Y-17907786D01*
X14539214Y-17922072D01*
X14553500Y-17950643D01*
X14553500Y-18022072D01*
X14539214Y-18050643D01*
X14524928Y-18064929D01*
X14496357Y-18079214D01*
X14410643Y-18079214D01*
X14382071Y-18064929D01*
X14367786Y-18050643D01*
X14667786Y-17779214D02*
X14667786Y-17836357D01*
X14782071Y-17779214D02*
X14782071Y-17836357D01*
X15224928Y-18193500D02*
X15210643Y-18179214D01*
X15182071Y-18136357D01*
X15167786Y-18107786D01*
X15153500Y-18064929D01*
X15139214Y-17993500D01*
X15139214Y-17936357D01*
X15153500Y-17864929D01*
X15167786Y-17822072D01*
X15182071Y-17793500D01*
X15210643Y-17750643D01*
X15224928Y-17736357D01*
X15310643Y-17779214D02*
X15496357Y-17779214D01*
X15396357Y-17893500D01*
X15439214Y-17893500D01*
X15467786Y-17907786D01*
X15482071Y-17922072D01*
X15496357Y-17950643D01*
X15496357Y-18022072D01*
X15482071Y-18050643D01*
X15467786Y-18064929D01*
X15439214Y-18079214D01*
X15353500Y-18079214D01*
X15324928Y-18064929D01*
X15310643Y-18050643D01*
X15853500Y-18079214D02*
X15853500Y-17779214D01*
X15982071Y-18079214D02*
X15982071Y-17922072D01*
X15967786Y-17893500D01*
X15939214Y-17879214D01*
X15896357Y-17879214D01*
X15867786Y-17893500D01*
X15853500Y-17907786D01*
X16167786Y-18079214D02*
X16139214Y-18064929D01*
X16124928Y-18050643D01*
X16110643Y-18022072D01*
X16110643Y-17936357D01*
X16124928Y-17907786D01*
X16139214Y-17893500D01*
X16167786Y-17879214D01*
X16210643Y-17879214D01*
X16239214Y-17893500D01*
X16253500Y-17907786D01*
X16267786Y-17936357D01*
X16267786Y-18022072D01*
X16253500Y-18050643D01*
X16239214Y-18064929D01*
X16210643Y-18079214D01*
X16167786Y-18079214D01*
X16439214Y-18079214D02*
X16410643Y-18064929D01*
X16396357Y-18036357D01*
X16396357Y-17779214D01*
X16667786Y-18064929D02*
X16639214Y-18079214D01*
X16582071Y-18079214D01*
X16553500Y-18064929D01*
X16539214Y-18036357D01*
X16539214Y-17922072D01*
X16553500Y-17893500D01*
X16582071Y-17879214D01*
X16639214Y-17879214D01*
X16667786Y-17893500D01*
X16682071Y-17922072D01*
X16682071Y-17950643D01*
X16539214Y-17979214D01*
X16796357Y-18064929D02*
X16824928Y-18079214D01*
X16882071Y-18079214D01*
X16910643Y-18064929D01*
X16924928Y-18036357D01*
X16924928Y-18022072D01*
X16910643Y-17993500D01*
X16882071Y-17979214D01*
X16839214Y-17979214D01*
X16810643Y-17964929D01*
X16796357Y-17936357D01*
X16796357Y-17922072D01*
X16810643Y-17893500D01*
X16839214Y-17879214D01*
X16882071Y-17879214D01*
X16910643Y-17893500D01*
X17024928Y-18193500D02*
X17039214Y-18179214D01*
X17067786Y-18136357D01*
X17082071Y-18107786D01*
X17096357Y-18064929D01*
X17110643Y-17993500D01*
X17110643Y-17936357D01*
X17096357Y-17864929D01*
X17082071Y-17822072D01*
X17067786Y-17793500D01*
X17039214Y-17750643D01*
X17024928Y-17736357D01*
X10418500Y-18279500D02*
X10538500Y-18399500D01*
X10538500Y-18279500D02*
X10418500Y-18399500D01*
X10520927Y-18381927D02*
X10520927Y-18297073D01*
X10436073Y-18297073D01*
X10436073Y-18381927D01*
X10520927Y-18381927D01*
X10982071Y-18475214D02*
X10810643Y-18475214D01*
X10896357Y-18475214D02*
X10896357Y-18175214D01*
X10867786Y-18218072D01*
X10839214Y-18246643D01*
X10810643Y-18260929D01*
X11110643Y-18446643D02*
X11124928Y-18460929D01*
X11110643Y-18475214D01*
X11096357Y-18460929D01*
X11110643Y-18446643D01*
X11110643Y-18475214D01*
X11239214Y-18203786D02*
X11253500Y-18189500D01*
X11282071Y-18175214D01*
X11353500Y-18175214D01*
X11382071Y-18189500D01*
X11396357Y-18203786D01*
X11410643Y-18232357D01*
X11410643Y-18260929D01*
X11396357Y-18303786D01*
X11224928Y-18475214D01*
X11410643Y-18475214D01*
X11596357Y-18175214D02*
X11624928Y-18175214D01*
X11653500Y-18189500D01*
X11667786Y-18203786D01*
X11682071Y-18232357D01*
X11696357Y-18289500D01*
X11696357Y-18360929D01*
X11682071Y-18418072D01*
X11667786Y-18446643D01*
X11653500Y-18460929D01*
X11624928Y-18475214D01*
X11596357Y-18475214D01*
X11567786Y-18460929D01*
X11553500Y-18446643D01*
X11539214Y-18418072D01*
X11524928Y-18360929D01*
X11524928Y-18289500D01*
X11539214Y-18232357D01*
X11553500Y-18203786D01*
X11567786Y-18189500D01*
X11596357Y-18175214D01*
X11824928Y-18475214D02*
X11824928Y-18275214D01*
X11824928Y-18303786D02*
X11839214Y-18289500D01*
X11867786Y-18275214D01*
X11910643Y-18275214D01*
X11939214Y-18289500D01*
X11953500Y-18318072D01*
X11953500Y-18475214D01*
X11953500Y-18318072D02*
X11967786Y-18289500D01*
X11996357Y-18275214D01*
X12039214Y-18275214D01*
X12067786Y-18289500D01*
X12082071Y-18318072D01*
X12082071Y-18475214D01*
X12224928Y-18475214D02*
X12224928Y-18275214D01*
X12224928Y-18303786D02*
X12239214Y-18289500D01*
X12267786Y-18275214D01*
X12310643Y-18275214D01*
X12339214Y-18289500D01*
X12353500Y-18318072D01*
X12353500Y-18475214D01*
X12353500Y-18318072D02*
X12367786Y-18289500D01*
X12396357Y-18275214D01*
X12439214Y-18275214D01*
X12467786Y-18289500D01*
X12482071Y-18318072D01*
X12482071Y-18475214D01*
X13067786Y-18160929D02*
X12810643Y-18546643D01*
X13453500Y-18175214D02*
X13482071Y-18175214D01*
X13510643Y-18189500D01*
X13524928Y-18203786D01*
X13539214Y-18232357D01*
X13553500Y-18289500D01*
X13553500Y-18360929D01*
X13539214Y-18418072D01*
X13524928Y-18446643D01*
X13510643Y-18460929D01*
X13482071Y-18475214D01*
X13453500Y-18475214D01*
X13424928Y-18460929D01*
X13410643Y-18446643D01*
X13396357Y-18418072D01*
X13382071Y-18360929D01*
X13382071Y-18289500D01*
X13396357Y-18232357D01*
X13410643Y-18203786D01*
X13424928Y-18189500D01*
X13453500Y-18175214D01*
X13682071Y-18446643D02*
X13696357Y-18460929D01*
X13682071Y-18475214D01*
X13667786Y-18460929D01*
X13682071Y-18446643D01*
X13682071Y-18475214D01*
X13882071Y-18175214D02*
X13910643Y-18175214D01*
X13939214Y-18189500D01*
X13953500Y-18203786D01*
X13967786Y-18232357D01*
X13982071Y-18289500D01*
X13982071Y-18360929D01*
X13967786Y-18418072D01*
X13953500Y-18446643D01*
X13939214Y-18460929D01*
X13910643Y-18475214D01*
X13882071Y-18475214D01*
X13853500Y-18460929D01*
X13839214Y-18446643D01*
X13824928Y-18418072D01*
X13810643Y-18360929D01*
X13810643Y-18289500D01*
X13824928Y-18232357D01*
X13839214Y-18203786D01*
X13853500Y-18189500D01*
X13882071Y-18175214D01*
X14239214Y-18275214D02*
X14239214Y-18475214D01*
X14167786Y-18160929D02*
X14096357Y-18375214D01*
X14282071Y-18375214D01*
X14367786Y-18175214D02*
X14567786Y-18175214D01*
X14439214Y-18475214D01*
X14667786Y-18175214D02*
X14667786Y-18232357D01*
X14782071Y-18175214D02*
X14782071Y-18232357D01*
X15224928Y-18589500D02*
X15210643Y-18575214D01*
X15182071Y-18532357D01*
X15167786Y-18503786D01*
X15153500Y-18460929D01*
X15139214Y-18389500D01*
X15139214Y-18332357D01*
X15153500Y-18260929D01*
X15167786Y-18218072D01*
X15182071Y-18189500D01*
X15210643Y-18146643D01*
X15224928Y-18132357D01*
X15467786Y-18175214D02*
X15410643Y-18175214D01*
X15382071Y-18189500D01*
X15367786Y-18203786D01*
X15339214Y-18246643D01*
X15324928Y-18303786D01*
X15324928Y-18418072D01*
X15339214Y-18446643D01*
X15353500Y-18460929D01*
X15382071Y-18475214D01*
X15439214Y-18475214D01*
X15467786Y-18460929D01*
X15482071Y-18446643D01*
X15496357Y-18418072D01*
X15496357Y-18346643D01*
X15482071Y-18318072D01*
X15467786Y-18303786D01*
X15439214Y-18289500D01*
X15382071Y-18289500D01*
X15353500Y-18303786D01*
X15339214Y-18318072D01*
X15324928Y-18346643D01*
X15853500Y-18475214D02*
X15853500Y-18175214D01*
X15982071Y-18475214D02*
X15982071Y-18318072D01*
X15967786Y-18289500D01*
X15939214Y-18275214D01*
X15896357Y-18275214D01*
X15867786Y-18289500D01*
X15853500Y-18303786D01*
X16167786Y-18475214D02*
X16139214Y-18460929D01*
X16124928Y-18446643D01*
X16110643Y-18418072D01*
X16110643Y-18332357D01*
X16124928Y-18303786D01*
X16139214Y-18289500D01*
X16167786Y-18275214D01*
X16210643Y-18275214D01*
X16239214Y-18289500D01*
X16253500Y-18303786D01*
X16267786Y-18332357D01*
X16267786Y-18418072D01*
X16253500Y-18446643D01*
X16239214Y-18460929D01*
X16210643Y-18475214D01*
X16167786Y-18475214D01*
X16439214Y-18475214D02*
X16410643Y-18460929D01*
X16396357Y-18432357D01*
X16396357Y-18175214D01*
X16667786Y-18460929D02*
X16639214Y-18475214D01*
X16582071Y-18475214D01*
X16553500Y-18460929D01*
X16539214Y-18432357D01*
X16539214Y-18318072D01*
X16553500Y-18289500D01*
X16582071Y-18275214D01*
X16639214Y-18275214D01*
X16667786Y-18289500D01*
X16682071Y-18318072D01*
X16682071Y-18346643D01*
X16539214Y-18375214D01*
X16796357Y-18460929D02*
X16824928Y-18475214D01*
X16882071Y-18475214D01*
X16910643Y-18460929D01*
X16924928Y-18432357D01*
X16924928Y-18418072D01*
X16910643Y-18389500D01*
X16882071Y-18375214D01*
X16839214Y-18375214D01*
X16810643Y-18360929D01*
X16796357Y-18332357D01*
X16796357Y-18318072D01*
X16810643Y-18289500D01*
X16839214Y-18275214D01*
X16882071Y-18275214D01*
X16910643Y-18289500D01*
X17024928Y-18589500D02*
X17039214Y-18575214D01*
X17067786Y-18532357D01*
X17082071Y-18503786D01*
X17096357Y-18460929D01*
X17110643Y-18389500D01*
X17110643Y-18332357D01*
X17096357Y-18260929D01*
X17082071Y-18218072D01*
X17067786Y-18189500D01*
X17039214Y-18146643D01*
X17024928Y-18132357D01*
X10408500Y-18670500D02*
X10538500Y-18800500D01*
X10538500Y-18670500D02*
X10408500Y-18800500D01*
X10473500Y-18800500D02*
X10538500Y-18735500D01*
X10473500Y-18670500D01*
X10408500Y-18735500D01*
X10473500Y-18800500D01*
X10982071Y-18871214D02*
X10810643Y-18871214D01*
X10896357Y-18871214D02*
X10896357Y-18571214D01*
X10867786Y-18614072D01*
X10839214Y-18642643D01*
X10810643Y-18656929D01*
X11110643Y-18842643D02*
X11124928Y-18856929D01*
X11110643Y-18871214D01*
X11096357Y-18856929D01*
X11110643Y-18842643D01*
X11110643Y-18871214D01*
X11224928Y-18571214D02*
X11410643Y-18571214D01*
X11310643Y-18685500D01*
X11353500Y-18685500D01*
X11382071Y-18699786D01*
X11396357Y-18714072D01*
X11410643Y-18742643D01*
X11410643Y-18814072D01*
X11396357Y-18842643D01*
X11382071Y-18856929D01*
X11353500Y-18871214D01*
X11267786Y-18871214D01*
X11239214Y-18856929D01*
X11224928Y-18842643D01*
X11596357Y-18571214D02*
X11624928Y-18571214D01*
X11653500Y-18585500D01*
X11667786Y-18599786D01*
X11682071Y-18628357D01*
X11696357Y-18685500D01*
X11696357Y-18756929D01*
X11682071Y-18814072D01*
X11667786Y-18842643D01*
X11653500Y-18856929D01*
X11624928Y-18871214D01*
X11596357Y-18871214D01*
X11567786Y-18856929D01*
X11553500Y-18842643D01*
X11539214Y-18814072D01*
X11524928Y-18756929D01*
X11524928Y-18685500D01*
X11539214Y-18628357D01*
X11553500Y-18599786D01*
X11567786Y-18585500D01*
X11596357Y-18571214D01*
X11824928Y-18871214D02*
X11824928Y-18671214D01*
X11824928Y-18699786D02*
X11839214Y-18685500D01*
X11867786Y-18671214D01*
X11910643Y-18671214D01*
X11939214Y-18685500D01*
X11953500Y-18714072D01*
X11953500Y-18871214D01*
X11953500Y-18714072D02*
X11967786Y-18685500D01*
X11996357Y-18671214D01*
X12039214Y-18671214D01*
X12067786Y-18685500D01*
X12082071Y-18714072D01*
X12082071Y-18871214D01*
X12224928Y-18871214D02*
X12224928Y-18671214D01*
X12224928Y-18699786D02*
X12239214Y-18685500D01*
X12267786Y-18671214D01*
X12310643Y-18671214D01*
X12339214Y-18685500D01*
X12353500Y-18714072D01*
X12353500Y-18871214D01*
X12353500Y-18714072D02*
X12367786Y-18685500D01*
X12396357Y-18671214D01*
X12439214Y-18671214D01*
X12467786Y-18685500D01*
X12482071Y-18714072D01*
X12482071Y-18871214D01*
X13067786Y-18556929D02*
X12810643Y-18942643D01*
X13453500Y-18571214D02*
X13482071Y-18571214D01*
X13510643Y-18585500D01*
X13524928Y-18599786D01*
X13539214Y-18628357D01*
X13553500Y-18685500D01*
X13553500Y-18756929D01*
X13539214Y-18814072D01*
X13524928Y-18842643D01*
X13510643Y-18856929D01*
X13482071Y-18871214D01*
X13453500Y-18871214D01*
X13424928Y-18856929D01*
X13410643Y-18842643D01*
X13396357Y-18814072D01*
X13382071Y-18756929D01*
X13382071Y-18685500D01*
X13396357Y-18628357D01*
X13410643Y-18599786D01*
X13424928Y-18585500D01*
X13453500Y-18571214D01*
X13682071Y-18842643D02*
X13696357Y-18856929D01*
X13682071Y-18871214D01*
X13667786Y-18856929D01*
X13682071Y-18842643D01*
X13682071Y-18871214D01*
X13882071Y-18571214D02*
X13910643Y-18571214D01*
X13939214Y-18585500D01*
X13953500Y-18599786D01*
X13967786Y-18628357D01*
X13982071Y-18685500D01*
X13982071Y-18756929D01*
X13967786Y-18814072D01*
X13953500Y-18842643D01*
X13939214Y-18856929D01*
X13910643Y-18871214D01*
X13882071Y-18871214D01*
X13853500Y-18856929D01*
X13839214Y-18842643D01*
X13824928Y-18814072D01*
X13810643Y-18756929D01*
X13810643Y-18685500D01*
X13824928Y-18628357D01*
X13839214Y-18599786D01*
X13853500Y-18585500D01*
X13882071Y-18571214D01*
X14253500Y-18571214D02*
X14110643Y-18571214D01*
X14096357Y-18714072D01*
X14110643Y-18699786D01*
X14139214Y-18685500D01*
X14210643Y-18685500D01*
X14239214Y-18699786D01*
X14253500Y-18714072D01*
X14267786Y-18742643D01*
X14267786Y-18814072D01*
X14253500Y-18842643D01*
X14239214Y-18856929D01*
X14210643Y-18871214D01*
X14139214Y-18871214D01*
X14110643Y-18856929D01*
X14096357Y-18842643D01*
X14553500Y-18871214D02*
X14382071Y-18871214D01*
X14467786Y-18871214D02*
X14467786Y-18571214D01*
X14439214Y-18614072D01*
X14410643Y-18642643D01*
X14382071Y-18656929D01*
X14667786Y-18571214D02*
X14667786Y-18628357D01*
X14782071Y-18571214D02*
X14782071Y-18628357D01*
X15224928Y-18985500D02*
X15210643Y-18971214D01*
X15182071Y-18928357D01*
X15167786Y-18899786D01*
X15153500Y-18856929D01*
X15139214Y-18785500D01*
X15139214Y-18728357D01*
X15153500Y-18656929D01*
X15167786Y-18614072D01*
X15182071Y-18585500D01*
X15210643Y-18542643D01*
X15224928Y-18528357D01*
X15324928Y-18599786D02*
X15339214Y-18585500D01*
X15367786Y-18571214D01*
X15439214Y-18571214D01*
X15467786Y-18585500D01*
X15482071Y-18599786D01*
X15496357Y-18628357D01*
X15496357Y-18656929D01*
X15482071Y-18699786D01*
X15310643Y-18871214D01*
X15496357Y-18871214D01*
X15853500Y-18871214D02*
X15853500Y-18571214D01*
X15982071Y-18871214D02*
X15982071Y-18714072D01*
X15967786Y-18685500D01*
X15939214Y-18671214D01*
X15896357Y-18671214D01*
X15867786Y-18685500D01*
X15853500Y-18699786D01*
X16167786Y-18871214D02*
X16139214Y-18856929D01*
X16124928Y-18842643D01*
X16110643Y-18814072D01*
X16110643Y-18728357D01*
X16124928Y-18699786D01*
X16139214Y-18685500D01*
X16167786Y-18671214D01*
X16210643Y-18671214D01*
X16239214Y-18685500D01*
X16253500Y-18699786D01*
X16267786Y-18728357D01*
X16267786Y-18814072D01*
X16253500Y-18842643D01*
X16239214Y-18856929D01*
X16210643Y-18871214D01*
X16167786Y-18871214D01*
X16439214Y-18871214D02*
X16410643Y-18856929D01*
X16396357Y-18828357D01*
X16396357Y-18571214D01*
X16667786Y-18856929D02*
X16639214Y-18871214D01*
X16582071Y-18871214D01*
X16553500Y-18856929D01*
X16539214Y-18828357D01*
X16539214Y-18714072D01*
X16553500Y-18685500D01*
X16582071Y-18671214D01*
X16639214Y-18671214D01*
X16667786Y-18685500D01*
X16682071Y-18714072D01*
X16682071Y-18742643D01*
X16539214Y-18771214D01*
X16796357Y-18856929D02*
X16824928Y-18871214D01*
X16882071Y-18871214D01*
X16910643Y-18856929D01*
X16924928Y-18828357D01*
X16924928Y-18814072D01*
X16910643Y-18785500D01*
X16882071Y-18771214D01*
X16839214Y-18771214D01*
X16810643Y-18756929D01*
X16796357Y-18728357D01*
X16796357Y-18714072D01*
X16810643Y-18685500D01*
X16839214Y-18671214D01*
X16882071Y-18671214D01*
X16910643Y-18685500D01*
X17024928Y-18985500D02*
X17039214Y-18971214D01*
X17067786Y-18928357D01*
X17082071Y-18899786D01*
X17096357Y-18856929D01*
X17110643Y-18785500D01*
X17110643Y-18728357D01*
X17096357Y-18656929D01*
X17082071Y-18614072D01*
X17067786Y-18585500D01*
X17039214Y-18542643D01*
X17024928Y-18528357D01*
X10463500Y-19056500D02*
X10463500Y-19206500D01*
X10388500Y-19131500D02*
X10538500Y-19131500D01*
X10538500Y-19131500D02*
G75*
G03X10538500Y-19131500I-75000J0D01*
G01*
X10982071Y-19267214D02*
X10810643Y-19267214D01*
X10896357Y-19267214D02*
X10896357Y-18967214D01*
X10867786Y-19010072D01*
X10839214Y-19038643D01*
X10810643Y-19052929D01*
X11110643Y-19238643D02*
X11124928Y-19252929D01*
X11110643Y-19267214D01*
X11096357Y-19252929D01*
X11110643Y-19238643D01*
X11110643Y-19267214D01*
X11396357Y-18967214D02*
X11253500Y-18967214D01*
X11239214Y-19110072D01*
X11253500Y-19095786D01*
X11282071Y-19081500D01*
X11353500Y-19081500D01*
X11382071Y-19095786D01*
X11396357Y-19110072D01*
X11410643Y-19138643D01*
X11410643Y-19210072D01*
X11396357Y-19238643D01*
X11382071Y-19252929D01*
X11353500Y-19267214D01*
X11282071Y-19267214D01*
X11253500Y-19252929D01*
X11239214Y-19238643D01*
X11596357Y-18967214D02*
X11624928Y-18967214D01*
X11653500Y-18981500D01*
X11667786Y-18995786D01*
X11682071Y-19024357D01*
X11696357Y-19081500D01*
X11696357Y-19152929D01*
X11682071Y-19210072D01*
X11667786Y-19238643D01*
X11653500Y-19252929D01*
X11624928Y-19267214D01*
X11596357Y-19267214D01*
X11567786Y-19252929D01*
X11553500Y-19238643D01*
X11539214Y-19210072D01*
X11524928Y-19152929D01*
X11524928Y-19081500D01*
X11539214Y-19024357D01*
X11553500Y-18995786D01*
X11567786Y-18981500D01*
X11596357Y-18967214D01*
X11824928Y-19267214D02*
X11824928Y-19067214D01*
X11824928Y-19095786D02*
X11839214Y-19081500D01*
X11867786Y-19067214D01*
X11910643Y-19067214D01*
X11939214Y-19081500D01*
X11953500Y-19110072D01*
X11953500Y-19267214D01*
X11953500Y-19110072D02*
X11967786Y-19081500D01*
X11996357Y-19067214D01*
X12039214Y-19067214D01*
X12067786Y-19081500D01*
X12082071Y-19110072D01*
X12082071Y-19267214D01*
X12224928Y-19267214D02*
X12224928Y-19067214D01*
X12224928Y-19095786D02*
X12239214Y-19081500D01*
X12267786Y-19067214D01*
X12310643Y-19067214D01*
X12339214Y-19081500D01*
X12353500Y-19110072D01*
X12353500Y-19267214D01*
X12353500Y-19110072D02*
X12367786Y-19081500D01*
X12396357Y-19067214D01*
X12439214Y-19067214D01*
X12467786Y-19081500D01*
X12482071Y-19110072D01*
X12482071Y-19267214D01*
X13067786Y-18952929D02*
X12810643Y-19338643D01*
X13453500Y-18967214D02*
X13482071Y-18967214D01*
X13510643Y-18981500D01*
X13524928Y-18995786D01*
X13539214Y-19024357D01*
X13553500Y-19081500D01*
X13553500Y-19152929D01*
X13539214Y-19210072D01*
X13524928Y-19238643D01*
X13510643Y-19252929D01*
X13482071Y-19267214D01*
X13453500Y-19267214D01*
X13424928Y-19252929D01*
X13410643Y-19238643D01*
X13396357Y-19210072D01*
X13382071Y-19152929D01*
X13382071Y-19081500D01*
X13396357Y-19024357D01*
X13410643Y-18995786D01*
X13424928Y-18981500D01*
X13453500Y-18967214D01*
X13682071Y-19238643D02*
X13696357Y-19252929D01*
X13682071Y-19267214D01*
X13667786Y-19252929D01*
X13682071Y-19238643D01*
X13682071Y-19267214D01*
X13882071Y-18967214D02*
X13910643Y-18967214D01*
X13939214Y-18981500D01*
X13953500Y-18995786D01*
X13967786Y-19024357D01*
X13982071Y-19081500D01*
X13982071Y-19152929D01*
X13967786Y-19210072D01*
X13953500Y-19238643D01*
X13939214Y-19252929D01*
X13910643Y-19267214D01*
X13882071Y-19267214D01*
X13853500Y-19252929D01*
X13839214Y-19238643D01*
X13824928Y-19210072D01*
X13810643Y-19152929D01*
X13810643Y-19081500D01*
X13824928Y-19024357D01*
X13839214Y-18995786D01*
X13853500Y-18981500D01*
X13882071Y-18967214D01*
X14253500Y-18967214D02*
X14110643Y-18967214D01*
X14096357Y-19110072D01*
X14110643Y-19095786D01*
X14139214Y-19081500D01*
X14210643Y-19081500D01*
X14239214Y-19095786D01*
X14253500Y-19110072D01*
X14267786Y-19138643D01*
X14267786Y-19210072D01*
X14253500Y-19238643D01*
X14239214Y-19252929D01*
X14210643Y-19267214D01*
X14139214Y-19267214D01*
X14110643Y-19252929D01*
X14096357Y-19238643D01*
X14410643Y-19267214D02*
X14467786Y-19267214D01*
X14496357Y-19252929D01*
X14510643Y-19238643D01*
X14539214Y-19195786D01*
X14553500Y-19138643D01*
X14553500Y-19024357D01*
X14539214Y-18995786D01*
X14524928Y-18981500D01*
X14496357Y-18967214D01*
X14439214Y-18967214D01*
X14410643Y-18981500D01*
X14396357Y-18995786D01*
X14382071Y-19024357D01*
X14382071Y-19095786D01*
X14396357Y-19124357D01*
X14410643Y-19138643D01*
X14439214Y-19152929D01*
X14496357Y-19152929D01*
X14524928Y-19138643D01*
X14539214Y-19124357D01*
X14553500Y-19095786D01*
X14667786Y-18967214D02*
X14667786Y-19024357D01*
X14782071Y-18967214D02*
X14782071Y-19024357D01*
X15224928Y-19381500D02*
X15210643Y-19367214D01*
X15182071Y-19324357D01*
X15167786Y-19295786D01*
X15153500Y-19252929D01*
X15139214Y-19181500D01*
X15139214Y-19124357D01*
X15153500Y-19052929D01*
X15167786Y-19010072D01*
X15182071Y-18981500D01*
X15210643Y-18938643D01*
X15224928Y-18924357D01*
X15496357Y-19267214D02*
X15324928Y-19267214D01*
X15410643Y-19267214D02*
X15410643Y-18967214D01*
X15382071Y-19010072D01*
X15353500Y-19038643D01*
X15324928Y-19052929D01*
X15753500Y-18967214D02*
X15696357Y-18967214D01*
X15667786Y-18981500D01*
X15653500Y-18995786D01*
X15624928Y-19038643D01*
X15610643Y-19095786D01*
X15610643Y-19210072D01*
X15624928Y-19238643D01*
X15639214Y-19252929D01*
X15667786Y-19267214D01*
X15724928Y-19267214D01*
X15753500Y-19252929D01*
X15767786Y-19238643D01*
X15782071Y-19210072D01*
X15782071Y-19138643D01*
X15767786Y-19110072D01*
X15753500Y-19095786D01*
X15724928Y-19081500D01*
X15667786Y-19081500D01*
X15639214Y-19095786D01*
X15624928Y-19110072D01*
X15610643Y-19138643D01*
X16139214Y-19267214D02*
X16139214Y-18967214D01*
X16267786Y-19267214D02*
X16267786Y-19110072D01*
X16253500Y-19081500D01*
X16224928Y-19067214D01*
X16182071Y-19067214D01*
X16153500Y-19081500D01*
X16139214Y-19095786D01*
X16453500Y-19267214D02*
X16424928Y-19252929D01*
X16410643Y-19238643D01*
X16396357Y-19210072D01*
X16396357Y-19124357D01*
X16410643Y-19095786D01*
X16424928Y-19081500D01*
X16453500Y-19067214D01*
X16496357Y-19067214D01*
X16524928Y-19081500D01*
X16539214Y-19095786D01*
X16553500Y-19124357D01*
X16553500Y-19210072D01*
X16539214Y-19238643D01*
X16524928Y-19252929D01*
X16496357Y-19267214D01*
X16453500Y-19267214D01*
X16724928Y-19267214D02*
X16696357Y-19252929D01*
X16682071Y-19224357D01*
X16682071Y-18967214D01*
X16953500Y-19252929D02*
X16924928Y-19267214D01*
X16867786Y-19267214D01*
X16839214Y-19252929D01*
X16824928Y-19224357D01*
X16824928Y-19110072D01*
X16839214Y-19081500D01*
X16867786Y-19067214D01*
X16924928Y-19067214D01*
X16953500Y-19081500D01*
X16967786Y-19110072D01*
X16967786Y-19138643D01*
X16824928Y-19167214D01*
X17082071Y-19252929D02*
X17110643Y-19267214D01*
X17167786Y-19267214D01*
X17196357Y-19252929D01*
X17210643Y-19224357D01*
X17210643Y-19210072D01*
X17196357Y-19181500D01*
X17167786Y-19167214D01*
X17124928Y-19167214D01*
X17096357Y-19152929D01*
X17082071Y-19124357D01*
X17082071Y-19110072D01*
X17096357Y-19081500D01*
X17124928Y-19067214D01*
X17167786Y-19067214D01*
X17196357Y-19081500D01*
X17310643Y-19381500D02*
X17324928Y-19367214D01*
X17353500Y-19324357D01*
X17367786Y-19295786D01*
X17382071Y-19252929D01*
X17396357Y-19181500D01*
X17396357Y-19124357D01*
X17382071Y-19052929D01*
X17367786Y-19010072D01*
X17353500Y-18981500D01*
X17324928Y-18938643D01*
X17310643Y-18924357D01*
X10501889Y-19615889D02*
X10501889Y-19439111D01*
X10325111Y-19439111D01*
X10325111Y-19615889D01*
X10501889Y-19615889D01*
X10538500Y-19527500D02*
G75*
G03X10538500Y-19527500I-125000J0D01*
G01*
X10810643Y-19391786D02*
X10824928Y-19377500D01*
X10853500Y-19363214D01*
X10924928Y-19363214D01*
X10953500Y-19377500D01*
X10967786Y-19391786D01*
X10982071Y-19420357D01*
X10982071Y-19448929D01*
X10967786Y-19491786D01*
X10796357Y-19663214D01*
X10982071Y-19663214D01*
X11110643Y-19634643D02*
X11124928Y-19648929D01*
X11110643Y-19663214D01*
X11096357Y-19648929D01*
X11110643Y-19634643D01*
X11110643Y-19663214D01*
X11396357Y-19363214D02*
X11253500Y-19363214D01*
X11239214Y-19506072D01*
X11253500Y-19491786D01*
X11282071Y-19477500D01*
X11353500Y-19477500D01*
X11382071Y-19491786D01*
X11396357Y-19506072D01*
X11410643Y-19534643D01*
X11410643Y-19606072D01*
X11396357Y-19634643D01*
X11382071Y-19648929D01*
X11353500Y-19663214D01*
X11282071Y-19663214D01*
X11253500Y-19648929D01*
X11239214Y-19634643D01*
X11596357Y-19363214D02*
X11624928Y-19363214D01*
X11653500Y-19377500D01*
X11667786Y-19391786D01*
X11682071Y-19420357D01*
X11696357Y-19477500D01*
X11696357Y-19548929D01*
X11682071Y-19606072D01*
X11667786Y-19634643D01*
X11653500Y-19648929D01*
X11624928Y-19663214D01*
X11596357Y-19663214D01*
X11567786Y-19648929D01*
X11553500Y-19634643D01*
X11539214Y-19606072D01*
X11524928Y-19548929D01*
X11524928Y-19477500D01*
X11539214Y-19420357D01*
X11553500Y-19391786D01*
X11567786Y-19377500D01*
X11596357Y-19363214D01*
X11824928Y-19663214D02*
X11824928Y-19463214D01*
X11824928Y-19491786D02*
X11839214Y-19477500D01*
X11867786Y-19463214D01*
X11910643Y-19463214D01*
X11939214Y-19477500D01*
X11953500Y-19506072D01*
X11953500Y-19663214D01*
X11953500Y-19506072D02*
X11967786Y-19477500D01*
X11996357Y-19463214D01*
X12039214Y-19463214D01*
X12067786Y-19477500D01*
X12082071Y-19506072D01*
X12082071Y-19663214D01*
X12224928Y-19663214D02*
X12224928Y-19463214D01*
X12224928Y-19491786D02*
X12239214Y-19477500D01*
X12267786Y-19463214D01*
X12310643Y-19463214D01*
X12339214Y-19477500D01*
X12353500Y-19506072D01*
X12353500Y-19663214D01*
X12353500Y-19506072D02*
X12367786Y-19477500D01*
X12396357Y-19463214D01*
X12439214Y-19463214D01*
X12467786Y-19477500D01*
X12482071Y-19506072D01*
X12482071Y-19663214D01*
X13067786Y-19348929D02*
X12810643Y-19734643D01*
X13453500Y-19363214D02*
X13482071Y-19363214D01*
X13510643Y-19377500D01*
X13524928Y-19391786D01*
X13539214Y-19420357D01*
X13553500Y-19477500D01*
X13553500Y-19548929D01*
X13539214Y-19606072D01*
X13524928Y-19634643D01*
X13510643Y-19648929D01*
X13482071Y-19663214D01*
X13453500Y-19663214D01*
X13424928Y-19648929D01*
X13410643Y-19634643D01*
X13396357Y-19606072D01*
X13382071Y-19548929D01*
X13382071Y-19477500D01*
X13396357Y-19420357D01*
X13410643Y-19391786D01*
X13424928Y-19377500D01*
X13453500Y-19363214D01*
X13682071Y-19634643D02*
X13696357Y-19648929D01*
X13682071Y-19663214D01*
X13667786Y-19648929D01*
X13682071Y-19634643D01*
X13682071Y-19663214D01*
X13882071Y-19363214D02*
X13910643Y-19363214D01*
X13939214Y-19377500D01*
X13953500Y-19391786D01*
X13967786Y-19420357D01*
X13982071Y-19477500D01*
X13982071Y-19548929D01*
X13967786Y-19606072D01*
X13953500Y-19634643D01*
X13939214Y-19648929D01*
X13910643Y-19663214D01*
X13882071Y-19663214D01*
X13853500Y-19648929D01*
X13839214Y-19634643D01*
X13824928Y-19606072D01*
X13810643Y-19548929D01*
X13810643Y-19477500D01*
X13824928Y-19420357D01*
X13839214Y-19391786D01*
X13853500Y-19377500D01*
X13882071Y-19363214D01*
X14124928Y-19663214D02*
X14182071Y-19663214D01*
X14210643Y-19648929D01*
X14224928Y-19634643D01*
X14253500Y-19591786D01*
X14267786Y-19534643D01*
X14267786Y-19420357D01*
X14253500Y-19391786D01*
X14239214Y-19377500D01*
X14210643Y-19363214D01*
X14153500Y-19363214D01*
X14124928Y-19377500D01*
X14110643Y-19391786D01*
X14096357Y-19420357D01*
X14096357Y-19491786D01*
X14110643Y-19520357D01*
X14124928Y-19534643D01*
X14153500Y-19548929D01*
X14210643Y-19548929D01*
X14239214Y-19534643D01*
X14253500Y-19520357D01*
X14267786Y-19491786D01*
X14439214Y-19491786D02*
X14410643Y-19477500D01*
X14396357Y-19463214D01*
X14382071Y-19434643D01*
X14382071Y-19420357D01*
X14396357Y-19391786D01*
X14410643Y-19377500D01*
X14439214Y-19363214D01*
X14496357Y-19363214D01*
X14524928Y-19377500D01*
X14539214Y-19391786D01*
X14553500Y-19420357D01*
X14553500Y-19434643D01*
X14539214Y-19463214D01*
X14524928Y-19477500D01*
X14496357Y-19491786D01*
X14439214Y-19491786D01*
X14410643Y-19506072D01*
X14396357Y-19520357D01*
X14382071Y-19548929D01*
X14382071Y-19606072D01*
X14396357Y-19634643D01*
X14410643Y-19648929D01*
X14439214Y-19663214D01*
X14496357Y-19663214D01*
X14524928Y-19648929D01*
X14539214Y-19634643D01*
X14553500Y-19606072D01*
X14553500Y-19548929D01*
X14539214Y-19520357D01*
X14524928Y-19506072D01*
X14496357Y-19491786D01*
X14667786Y-19363214D02*
X14667786Y-19420357D01*
X14782071Y-19363214D02*
X14782071Y-19420357D01*
X15224928Y-19777500D02*
X15210643Y-19763214D01*
X15182071Y-19720357D01*
X15167786Y-19691786D01*
X15153500Y-19648929D01*
X15139214Y-19577500D01*
X15139214Y-19520357D01*
X15153500Y-19448929D01*
X15167786Y-19406072D01*
X15182071Y-19377500D01*
X15210643Y-19334643D01*
X15224928Y-19320357D01*
X15324928Y-19391786D02*
X15339214Y-19377500D01*
X15367786Y-19363214D01*
X15439214Y-19363214D01*
X15467786Y-19377500D01*
X15482071Y-19391786D01*
X15496357Y-19420357D01*
X15496357Y-19448929D01*
X15482071Y-19491786D01*
X15310643Y-19663214D01*
X15496357Y-19663214D01*
X15853500Y-19663214D02*
X15853500Y-19363214D01*
X15982071Y-19663214D02*
X15982071Y-19506072D01*
X15967786Y-19477500D01*
X15939214Y-19463214D01*
X15896357Y-19463214D01*
X15867786Y-19477500D01*
X15853500Y-19491786D01*
X16167786Y-19663214D02*
X16139214Y-19648929D01*
X16124928Y-19634643D01*
X16110643Y-19606072D01*
X16110643Y-19520357D01*
X16124928Y-19491786D01*
X16139214Y-19477500D01*
X16167786Y-19463214D01*
X16210643Y-19463214D01*
X16239214Y-19477500D01*
X16253500Y-19491786D01*
X16267786Y-19520357D01*
X16267786Y-19606072D01*
X16253500Y-19634643D01*
X16239214Y-19648929D01*
X16210643Y-19663214D01*
X16167786Y-19663214D01*
X16439214Y-19663214D02*
X16410643Y-19648929D01*
X16396357Y-19620357D01*
X16396357Y-19363214D01*
X16667786Y-19648929D02*
X16639214Y-19663214D01*
X16582071Y-19663214D01*
X16553500Y-19648929D01*
X16539214Y-19620357D01*
X16539214Y-19506072D01*
X16553500Y-19477500D01*
X16582071Y-19463214D01*
X16639214Y-19463214D01*
X16667786Y-19477500D01*
X16682071Y-19506072D01*
X16682071Y-19534643D01*
X16539214Y-19563214D01*
X16796357Y-19648929D02*
X16824928Y-19663214D01*
X16882071Y-19663214D01*
X16910643Y-19648929D01*
X16924928Y-19620357D01*
X16924928Y-19606072D01*
X16910643Y-19577500D01*
X16882071Y-19563214D01*
X16839214Y-19563214D01*
X16810643Y-19548929D01*
X16796357Y-19520357D01*
X16796357Y-19506072D01*
X16810643Y-19477500D01*
X16839214Y-19463214D01*
X16882071Y-19463214D01*
X16910643Y-19477500D01*
X17024928Y-19777500D02*
X17039214Y-19763214D01*
X17067786Y-19720357D01*
X17082071Y-19691786D01*
X17096357Y-19648929D01*
X17110643Y-19577500D01*
X17110643Y-19520357D01*
X17096357Y-19448929D01*
X17082071Y-19406072D01*
X17067786Y-19377500D01*
X17039214Y-19334643D01*
X17024928Y-19320357D01*
X10363500Y-20098500D02*
X10538500Y-19923500D01*
X10363500Y-19748500D01*
X10188500Y-19923500D01*
X10363500Y-20098500D01*
X10538500Y-19923500D02*
G75*
G03X10538500Y-19923500I-175000J0D01*
G01*
X10796357Y-19759214D02*
X10982071Y-19759214D01*
X10882071Y-19873500D01*
X10924928Y-19873500D01*
X10953500Y-19887786D01*
X10967786Y-19902072D01*
X10982071Y-19930643D01*
X10982071Y-20002072D01*
X10967786Y-20030643D01*
X10953500Y-20044929D01*
X10924928Y-20059214D01*
X10839214Y-20059214D01*
X10810643Y-20044929D01*
X10796357Y-20030643D01*
X11110643Y-20030643D02*
X11124928Y-20044929D01*
X11110643Y-20059214D01*
X11096357Y-20044929D01*
X11110643Y-20030643D01*
X11110643Y-20059214D01*
X11396357Y-19759214D02*
X11253500Y-19759214D01*
X11239214Y-19902072D01*
X11253500Y-19887786D01*
X11282071Y-19873500D01*
X11353500Y-19873500D01*
X11382071Y-19887786D01*
X11396357Y-19902072D01*
X11410643Y-19930643D01*
X11410643Y-20002072D01*
X11396357Y-20030643D01*
X11382071Y-20044929D01*
X11353500Y-20059214D01*
X11282071Y-20059214D01*
X11253500Y-20044929D01*
X11239214Y-20030643D01*
X11596357Y-19759214D02*
X11624928Y-19759214D01*
X11653500Y-19773500D01*
X11667786Y-19787786D01*
X11682071Y-19816357D01*
X11696357Y-19873500D01*
X11696357Y-19944929D01*
X11682071Y-20002072D01*
X11667786Y-20030643D01*
X11653500Y-20044929D01*
X11624928Y-20059214D01*
X11596357Y-20059214D01*
X11567786Y-20044929D01*
X11553500Y-20030643D01*
X11539214Y-20002072D01*
X11524928Y-19944929D01*
X11524928Y-19873500D01*
X11539214Y-19816357D01*
X11553500Y-19787786D01*
X11567786Y-19773500D01*
X11596357Y-19759214D01*
X11824928Y-20059214D02*
X11824928Y-19859214D01*
X11824928Y-19887786D02*
X11839214Y-19873500D01*
X11867786Y-19859214D01*
X11910643Y-19859214D01*
X11939214Y-19873500D01*
X11953500Y-19902072D01*
X11953500Y-20059214D01*
X11953500Y-19902072D02*
X11967786Y-19873500D01*
X11996357Y-19859214D01*
X12039214Y-19859214D01*
X12067786Y-19873500D01*
X12082071Y-19902072D01*
X12082071Y-20059214D01*
X12224928Y-20059214D02*
X12224928Y-19859214D01*
X12224928Y-19887786D02*
X12239214Y-19873500D01*
X12267786Y-19859214D01*
X12310643Y-19859214D01*
X12339214Y-19873500D01*
X12353500Y-19902072D01*
X12353500Y-20059214D01*
X12353500Y-19902072D02*
X12367786Y-19873500D01*
X12396357Y-19859214D01*
X12439214Y-19859214D01*
X12467786Y-19873500D01*
X12482071Y-19902072D01*
X12482071Y-20059214D01*
X13067786Y-19744929D02*
X12810643Y-20130643D01*
X13453500Y-19759214D02*
X13482071Y-19759214D01*
X13510643Y-19773500D01*
X13524928Y-19787786D01*
X13539214Y-19816357D01*
X13553500Y-19873500D01*
X13553500Y-19944929D01*
X13539214Y-20002072D01*
X13524928Y-20030643D01*
X13510643Y-20044929D01*
X13482071Y-20059214D01*
X13453500Y-20059214D01*
X13424928Y-20044929D01*
X13410643Y-20030643D01*
X13396357Y-20002072D01*
X13382071Y-19944929D01*
X13382071Y-19873500D01*
X13396357Y-19816357D01*
X13410643Y-19787786D01*
X13424928Y-19773500D01*
X13453500Y-19759214D01*
X13682071Y-20030643D02*
X13696357Y-20044929D01*
X13682071Y-20059214D01*
X13667786Y-20044929D01*
X13682071Y-20030643D01*
X13682071Y-20059214D01*
X13982071Y-20059214D02*
X13810643Y-20059214D01*
X13896357Y-20059214D02*
X13896357Y-19759214D01*
X13867786Y-19802072D01*
X13839214Y-19830643D01*
X13810643Y-19844929D01*
X14082071Y-19759214D02*
X14267786Y-19759214D01*
X14167786Y-19873500D01*
X14210643Y-19873500D01*
X14239214Y-19887786D01*
X14253500Y-19902072D01*
X14267786Y-19930643D01*
X14267786Y-20002072D01*
X14253500Y-20030643D01*
X14239214Y-20044929D01*
X14210643Y-20059214D01*
X14124928Y-20059214D01*
X14096357Y-20044929D01*
X14082071Y-20030643D01*
X14439214Y-19887786D02*
X14410643Y-19873500D01*
X14396357Y-19859214D01*
X14382071Y-19830643D01*
X14382071Y-19816357D01*
X14396357Y-19787786D01*
X14410643Y-19773500D01*
X14439214Y-19759214D01*
X14496357Y-19759214D01*
X14524928Y-19773500D01*
X14539214Y-19787786D01*
X14553500Y-19816357D01*
X14553500Y-19830643D01*
X14539214Y-19859214D01*
X14524928Y-19873500D01*
X14496357Y-19887786D01*
X14439214Y-19887786D01*
X14410643Y-19902072D01*
X14396357Y-19916357D01*
X14382071Y-19944929D01*
X14382071Y-20002072D01*
X14396357Y-20030643D01*
X14410643Y-20044929D01*
X14439214Y-20059214D01*
X14496357Y-20059214D01*
X14524928Y-20044929D01*
X14539214Y-20030643D01*
X14553500Y-20002072D01*
X14553500Y-19944929D01*
X14539214Y-19916357D01*
X14524928Y-19902072D01*
X14496357Y-19887786D01*
X14667786Y-19759214D02*
X14667786Y-19816357D01*
X14782071Y-19759214D02*
X14782071Y-19816357D01*
X15224928Y-20173500D02*
X15210643Y-20159214D01*
X15182071Y-20116357D01*
X15167786Y-20087786D01*
X15153500Y-20044929D01*
X15139214Y-19973500D01*
X15139214Y-19916357D01*
X15153500Y-19844929D01*
X15167786Y-19802072D01*
X15182071Y-19773500D01*
X15210643Y-19730643D01*
X15224928Y-19716357D01*
X15496357Y-20059214D02*
X15324928Y-20059214D01*
X15410643Y-20059214D02*
X15410643Y-19759214D01*
X15382071Y-19802072D01*
X15353500Y-19830643D01*
X15324928Y-19844929D01*
X15853500Y-20059214D02*
X15853500Y-19759214D01*
X15982071Y-20059214D02*
X15982071Y-19902072D01*
X15967786Y-19873500D01*
X15939214Y-19859214D01*
X15896357Y-19859214D01*
X15867786Y-19873500D01*
X15853500Y-19887786D01*
X16167786Y-20059214D02*
X16139214Y-20044929D01*
X16124928Y-20030643D01*
X16110643Y-20002072D01*
X16110643Y-19916357D01*
X16124928Y-19887786D01*
X16139214Y-19873500D01*
X16167786Y-19859214D01*
X16210643Y-19859214D01*
X16239214Y-19873500D01*
X16253500Y-19887786D01*
X16267786Y-19916357D01*
X16267786Y-20002072D01*
X16253500Y-20030643D01*
X16239214Y-20044929D01*
X16210643Y-20059214D01*
X16167786Y-20059214D01*
X16439214Y-20059214D02*
X16410643Y-20044929D01*
X16396357Y-20016357D01*
X16396357Y-19759214D01*
X16667786Y-20044929D02*
X16639214Y-20059214D01*
X16582071Y-20059214D01*
X16553500Y-20044929D01*
X16539214Y-20016357D01*
X16539214Y-19902072D01*
X16553500Y-19873500D01*
X16582071Y-19859214D01*
X16639214Y-19859214D01*
X16667786Y-19873500D01*
X16682071Y-19902072D01*
X16682071Y-19930643D01*
X16539214Y-19959214D01*
X16782071Y-20173500D02*
X16796357Y-20159214D01*
X16824928Y-20116357D01*
X16839214Y-20087786D01*
X16853500Y-20044929D01*
X16867786Y-19973500D01*
X16867786Y-19916357D01*
X16853500Y-19844929D01*
X16839214Y-19802072D01*
X16824928Y-19773500D01*
X16796357Y-19730643D01*
X16782071Y-19716357D01*
X17324928Y-20173500D02*
X17310643Y-20159214D01*
X17282071Y-20116357D01*
X17267786Y-20087786D01*
X17253500Y-20044929D01*
X17239214Y-19973500D01*
X17239214Y-19916357D01*
X17253500Y-19844929D01*
X17267786Y-19802072D01*
X17282071Y-19773500D01*
X17310643Y-19730643D01*
X17324928Y-19716357D01*
X17439214Y-19859214D02*
X17439214Y-20059214D01*
X17439214Y-19887786D02*
X17453500Y-19873500D01*
X17482071Y-19859214D01*
X17524928Y-19859214D01*
X17553500Y-19873500D01*
X17567786Y-19902072D01*
X17567786Y-20059214D01*
X17753500Y-20059214D02*
X17724928Y-20044929D01*
X17710643Y-20030643D01*
X17696357Y-20002072D01*
X17696357Y-19916357D01*
X17710643Y-19887786D01*
X17724928Y-19873500D01*
X17753500Y-19859214D01*
X17796357Y-19859214D01*
X17824928Y-19873500D01*
X17839214Y-19887786D01*
X17853500Y-19916357D01*
X17853500Y-20002072D01*
X17839214Y-20030643D01*
X17824928Y-20044929D01*
X17796357Y-20059214D01*
X17753500Y-20059214D01*
X17939214Y-19859214D02*
X18053500Y-19859214D01*
X17982071Y-19759214D02*
X17982071Y-20016357D01*
X17996357Y-20044929D01*
X18024928Y-20059214D01*
X18053500Y-20059214D01*
X18382071Y-19859214D02*
X18382071Y-20159214D01*
X18382071Y-19873500D02*
X18410643Y-19859214D01*
X18467786Y-19859214D01*
X18496357Y-19873500D01*
X18510643Y-19887786D01*
X18524928Y-19916357D01*
X18524928Y-20002072D01*
X18510643Y-20030643D01*
X18496357Y-20044929D01*
X18467786Y-20059214D01*
X18410643Y-20059214D01*
X18382071Y-20044929D01*
X18696357Y-20059214D02*
X18667786Y-20044929D01*
X18653500Y-20016357D01*
X18653500Y-19759214D01*
X18939214Y-20059214D02*
X18939214Y-19902072D01*
X18924928Y-19873500D01*
X18896357Y-19859214D01*
X18839214Y-19859214D01*
X18810643Y-19873500D01*
X18939214Y-20044929D02*
X18910643Y-20059214D01*
X18839214Y-20059214D01*
X18810643Y-20044929D01*
X18796357Y-20016357D01*
X18796357Y-19987786D01*
X18810643Y-19959214D01*
X18839214Y-19944929D01*
X18910643Y-19944929D01*
X18939214Y-19930643D01*
X19039214Y-19859214D02*
X19153500Y-19859214D01*
X19082071Y-19759214D02*
X19082071Y-20016357D01*
X19096357Y-20044929D01*
X19124928Y-20059214D01*
X19153500Y-20059214D01*
X19367786Y-20044929D02*
X19339214Y-20059214D01*
X19282071Y-20059214D01*
X19253500Y-20044929D01*
X19239214Y-20016357D01*
X19239214Y-19902072D01*
X19253500Y-19873500D01*
X19282071Y-19859214D01*
X19339214Y-19859214D01*
X19367786Y-19873500D01*
X19382071Y-19902072D01*
X19382071Y-19930643D01*
X19239214Y-19959214D01*
X19639214Y-20059214D02*
X19639214Y-19759214D01*
X19639214Y-20044929D02*
X19610643Y-20059214D01*
X19553500Y-20059214D01*
X19524928Y-20044929D01*
X19510643Y-20030643D01*
X19496357Y-20002072D01*
X19496357Y-19916357D01*
X19510643Y-19887786D01*
X19524928Y-19873500D01*
X19553500Y-19859214D01*
X19610643Y-19859214D01*
X19639214Y-19873500D01*
X19753500Y-20173500D02*
X19767786Y-20159214D01*
X19796357Y-20116357D01*
X19810643Y-20087786D01*
X19824928Y-20044929D01*
X19839214Y-19973500D01*
X19839214Y-19916357D01*
X19824928Y-19844929D01*
X19810643Y-19802072D01*
X19796357Y-19773500D01*
X19767786Y-19730643D01*
X19753500Y-19716357D01*
M02*
