G04 #@! TF.GenerationSoftware,KiCad,Pcbnew,(5.1.5)-3*
G04 #@! TF.CreationDate,2020-07-09T20:04:34+02:00*
G04 #@! TF.ProjectId,ejector,656a6563-746f-4722-9e6b-696361645f70,rev?*
G04 #@! TF.SameCoordinates,Original*
G04 #@! TF.FileFunction,Legend,Top*
G04 #@! TF.FilePolarity,Positive*
%FSLAX46Y46*%
G04 Gerber Fmt 4.6, Leading zero omitted, Abs format (unit mm)*
G04 Created by KiCad (PCBNEW (5.1.5)-3) date 2020-07-09 20:04:34*
%MOMM*%
%LPD*%
G04 APERTURE LIST*
%ADD10C,0.500000*%
%ADD11C,0.120000*%
%ADD12C,0.150000*%
G04 APERTURE END LIST*
D10*
X118142857Y-79795714D02*
X119142857Y-79795714D01*
X119571428Y-81367142D02*
X118142857Y-81367142D01*
X118142857Y-78367142D01*
X119571428Y-78367142D01*
X121714285Y-78367142D02*
X121714285Y-80510000D01*
X121571428Y-80938571D01*
X121285714Y-81224285D01*
X120857142Y-81367142D01*
X120571428Y-81367142D01*
X123142857Y-79795714D02*
X124142857Y-79795714D01*
X124571428Y-81367142D02*
X123142857Y-81367142D01*
X123142857Y-78367142D01*
X124571428Y-78367142D01*
X127571428Y-81081428D02*
X127428571Y-81224285D01*
X127000000Y-81367142D01*
X126714285Y-81367142D01*
X126285714Y-81224285D01*
X126000000Y-80938571D01*
X125857142Y-80652857D01*
X125714285Y-80081428D01*
X125714285Y-79652857D01*
X125857142Y-79081428D01*
X126000000Y-78795714D01*
X126285714Y-78510000D01*
X126714285Y-78367142D01*
X127000000Y-78367142D01*
X127428571Y-78510000D01*
X127571428Y-78652857D01*
X128428571Y-78367142D02*
X130142857Y-78367142D01*
X129285714Y-81367142D02*
X129285714Y-78367142D01*
X131714285Y-78367142D02*
X132285714Y-78367142D01*
X132571428Y-78510000D01*
X132857142Y-78795714D01*
X133000000Y-79367142D01*
X133000000Y-80367142D01*
X132857142Y-80938571D01*
X132571428Y-81224285D01*
X132285714Y-81367142D01*
X131714285Y-81367142D01*
X131428571Y-81224285D01*
X131142857Y-80938571D01*
X131000000Y-80367142D01*
X131000000Y-79367142D01*
X131142857Y-78795714D01*
X131428571Y-78510000D01*
X131714285Y-78367142D01*
X136000000Y-81367142D02*
X135000000Y-79938571D01*
X134285714Y-81367142D02*
X134285714Y-78367142D01*
X135428571Y-78367142D01*
X135714285Y-78510000D01*
X135857142Y-78652857D01*
X136000000Y-78938571D01*
X136000000Y-79367142D01*
X135857142Y-79652857D01*
X135714285Y-79795714D01*
X135428571Y-79938571D01*
X134285714Y-79938571D01*
D11*
X141002150Y-101912544D02*
G75*
G03X140012331Y-102902281I-2572150J1582544D01*
G01*
X141914448Y-102824499D02*
X141002281Y-101912331D01*
X140924499Y-103814448D02*
X141914448Y-102824499D01*
X140012331Y-102902281D02*
X140924499Y-103814448D01*
X114019698Y-143685000D02*
X114019698Y-142885000D01*
X114419698Y-143285000D02*
X113619698Y-143285000D01*
X105929000Y-141503000D02*
X105929000Y-140437000D01*
X105969000Y-141738000D02*
X105969000Y-140202000D01*
X106009000Y-141918000D02*
X106009000Y-140022000D01*
X106049000Y-142068000D02*
X106049000Y-139872000D01*
X106089000Y-142199000D02*
X106089000Y-139741000D01*
X106129000Y-142316000D02*
X106129000Y-139624000D01*
X106169000Y-142423000D02*
X106169000Y-139517000D01*
X106209000Y-142522000D02*
X106209000Y-139418000D01*
X106249000Y-142615000D02*
X106249000Y-139325000D01*
X106289000Y-142701000D02*
X106289000Y-139239000D01*
X106329000Y-142783000D02*
X106329000Y-139157000D01*
X106369000Y-142860000D02*
X106369000Y-139080000D01*
X106409000Y-142934000D02*
X106409000Y-139006000D01*
X106449000Y-143004000D02*
X106449000Y-138936000D01*
X106489000Y-143072000D02*
X106489000Y-138868000D01*
X106529000Y-143136000D02*
X106529000Y-138804000D01*
X106569000Y-143198000D02*
X106569000Y-138742000D01*
X106609000Y-143257000D02*
X106609000Y-138683000D01*
X106649000Y-143315000D02*
X106649000Y-138625000D01*
X106689000Y-143370000D02*
X106689000Y-138570000D01*
X106729000Y-143424000D02*
X106729000Y-138516000D01*
X106769000Y-143475000D02*
X106769000Y-138465000D01*
X106809000Y-143526000D02*
X106809000Y-138414000D01*
X106849000Y-143574000D02*
X106849000Y-138366000D01*
X106889000Y-143621000D02*
X106889000Y-138319000D01*
X106929000Y-143667000D02*
X106929000Y-138273000D01*
X106969000Y-143711000D02*
X106969000Y-138229000D01*
X107009000Y-143754000D02*
X107009000Y-138186000D01*
X107049000Y-143796000D02*
X107049000Y-138144000D01*
X107089000Y-143837000D02*
X107089000Y-138103000D01*
X107129000Y-143877000D02*
X107129000Y-138063000D01*
X107169000Y-143915000D02*
X107169000Y-138025000D01*
X107209000Y-143953000D02*
X107209000Y-137987000D01*
X107249000Y-139930000D02*
X107249000Y-137951000D01*
X107249000Y-143989000D02*
X107249000Y-142010000D01*
X107289000Y-139930000D02*
X107289000Y-137915000D01*
X107289000Y-144025000D02*
X107289000Y-142010000D01*
X107329000Y-139930000D02*
X107329000Y-137880000D01*
X107329000Y-144060000D02*
X107329000Y-142010000D01*
X107369000Y-139930000D02*
X107369000Y-137846000D01*
X107369000Y-144094000D02*
X107369000Y-142010000D01*
X107409000Y-139930000D02*
X107409000Y-137814000D01*
X107409000Y-144126000D02*
X107409000Y-142010000D01*
X107449000Y-139930000D02*
X107449000Y-137781000D01*
X107449000Y-144159000D02*
X107449000Y-142010000D01*
X107489000Y-139930000D02*
X107489000Y-137750000D01*
X107489000Y-144190000D02*
X107489000Y-142010000D01*
X107529000Y-139930000D02*
X107529000Y-137720000D01*
X107529000Y-144220000D02*
X107529000Y-142010000D01*
X107569000Y-139930000D02*
X107569000Y-137690000D01*
X107569000Y-144250000D02*
X107569000Y-142010000D01*
X107609000Y-139930000D02*
X107609000Y-137661000D01*
X107609000Y-144279000D02*
X107609000Y-142010000D01*
X107649000Y-139930000D02*
X107649000Y-137632000D01*
X107649000Y-144308000D02*
X107649000Y-142010000D01*
X107689000Y-139930000D02*
X107689000Y-137605000D01*
X107689000Y-144335000D02*
X107689000Y-142010000D01*
X107729000Y-139930000D02*
X107729000Y-137578000D01*
X107729000Y-144362000D02*
X107729000Y-142010000D01*
X107769000Y-139930000D02*
X107769000Y-137552000D01*
X107769000Y-144388000D02*
X107769000Y-142010000D01*
X107809000Y-139930000D02*
X107809000Y-137526000D01*
X107809000Y-144414000D02*
X107809000Y-142010000D01*
X107849000Y-139930000D02*
X107849000Y-137501000D01*
X107849000Y-144439000D02*
X107849000Y-142010000D01*
X107889000Y-139930000D02*
X107889000Y-137477000D01*
X107889000Y-144463000D02*
X107889000Y-142010000D01*
X107929000Y-139930000D02*
X107929000Y-137453000D01*
X107929000Y-144487000D02*
X107929000Y-142010000D01*
X107969000Y-139930000D02*
X107969000Y-137430000D01*
X107969000Y-144510000D02*
X107969000Y-142010000D01*
X108009000Y-139930000D02*
X108009000Y-137408000D01*
X108009000Y-144532000D02*
X108009000Y-142010000D01*
X108049000Y-139930000D02*
X108049000Y-137386000D01*
X108049000Y-144554000D02*
X108049000Y-142010000D01*
X108089000Y-139930000D02*
X108089000Y-137364000D01*
X108089000Y-144576000D02*
X108089000Y-142010000D01*
X108129000Y-139930000D02*
X108129000Y-137343000D01*
X108129000Y-144597000D02*
X108129000Y-142010000D01*
X108169000Y-139930000D02*
X108169000Y-137323000D01*
X108169000Y-144617000D02*
X108169000Y-142010000D01*
X108209000Y-139930000D02*
X108209000Y-137304000D01*
X108209000Y-144636000D02*
X108209000Y-142010000D01*
X108249000Y-139930000D02*
X108249000Y-137284000D01*
X108249000Y-144656000D02*
X108249000Y-142010000D01*
X108289000Y-139930000D02*
X108289000Y-137266000D01*
X108289000Y-144674000D02*
X108289000Y-142010000D01*
X108329000Y-139930000D02*
X108329000Y-137248000D01*
X108329000Y-144692000D02*
X108329000Y-142010000D01*
X108369000Y-139930000D02*
X108369000Y-137230000D01*
X108369000Y-144710000D02*
X108369000Y-142010000D01*
X108409000Y-139930000D02*
X108409000Y-137213000D01*
X108409000Y-144727000D02*
X108409000Y-142010000D01*
X108449000Y-139930000D02*
X108449000Y-137196000D01*
X108449000Y-144744000D02*
X108449000Y-142010000D01*
X108489000Y-139930000D02*
X108489000Y-137180000D01*
X108489000Y-144760000D02*
X108489000Y-142010000D01*
X108529000Y-139930000D02*
X108529000Y-137165000D01*
X108529000Y-144775000D02*
X108529000Y-142010000D01*
X108569000Y-139930000D02*
X108569000Y-137149000D01*
X108569000Y-144791000D02*
X108569000Y-142010000D01*
X108609000Y-139930000D02*
X108609000Y-137135000D01*
X108609000Y-144805000D02*
X108609000Y-142010000D01*
X108649000Y-139930000D02*
X108649000Y-137120000D01*
X108649000Y-144820000D02*
X108649000Y-142010000D01*
X108689000Y-139930000D02*
X108689000Y-137107000D01*
X108689000Y-144833000D02*
X108689000Y-142010000D01*
X108729000Y-139930000D02*
X108729000Y-137093000D01*
X108729000Y-144847000D02*
X108729000Y-142010000D01*
X108769000Y-139930000D02*
X108769000Y-137081000D01*
X108769000Y-144859000D02*
X108769000Y-142010000D01*
X108809000Y-139930000D02*
X108809000Y-137068000D01*
X108809000Y-144872000D02*
X108809000Y-142010000D01*
X108849000Y-139930000D02*
X108849000Y-137056000D01*
X108849000Y-144884000D02*
X108849000Y-142010000D01*
X108889000Y-139930000D02*
X108889000Y-137045000D01*
X108889000Y-144895000D02*
X108889000Y-142010000D01*
X108929000Y-139930000D02*
X108929000Y-137034000D01*
X108929000Y-144906000D02*
X108929000Y-142010000D01*
X108969000Y-139930000D02*
X108969000Y-137023000D01*
X108969000Y-144917000D02*
X108969000Y-142010000D01*
X109009000Y-139930000D02*
X109009000Y-137013000D01*
X109009000Y-144927000D02*
X109009000Y-142010000D01*
X109049000Y-139930000D02*
X109049000Y-137003000D01*
X109049000Y-144937000D02*
X109049000Y-142010000D01*
X109089000Y-139930000D02*
X109089000Y-136994000D01*
X109089000Y-144946000D02*
X109089000Y-142010000D01*
X109129000Y-139930000D02*
X109129000Y-136985000D01*
X109129000Y-144955000D02*
X109129000Y-142010000D01*
X109169000Y-139930000D02*
X109169000Y-136976000D01*
X109169000Y-144964000D02*
X109169000Y-142010000D01*
X109209000Y-139930000D02*
X109209000Y-136968000D01*
X109209000Y-144972000D02*
X109209000Y-142010000D01*
X109249000Y-139930000D02*
X109249000Y-136960000D01*
X109249000Y-144980000D02*
X109249000Y-142010000D01*
X109289000Y-139930000D02*
X109289000Y-136953000D01*
X109289000Y-144987000D02*
X109289000Y-142010000D01*
X109330000Y-144994000D02*
X109330000Y-136946000D01*
X109370000Y-145000000D02*
X109370000Y-136940000D01*
X109410000Y-145007000D02*
X109410000Y-136933000D01*
X109450000Y-145012000D02*
X109450000Y-136928000D01*
X109490000Y-145018000D02*
X109490000Y-136922000D01*
X109530000Y-145022000D02*
X109530000Y-136918000D01*
X109570000Y-145027000D02*
X109570000Y-136913000D01*
X109610000Y-145031000D02*
X109610000Y-136909000D01*
X109650000Y-145035000D02*
X109650000Y-136905000D01*
X109690000Y-145038000D02*
X109690000Y-136902000D01*
X109730000Y-145041000D02*
X109730000Y-136899000D01*
X109770000Y-145044000D02*
X109770000Y-136896000D01*
X109810000Y-145046000D02*
X109810000Y-136894000D01*
X109850000Y-145047000D02*
X109850000Y-136893000D01*
X109890000Y-145049000D02*
X109890000Y-136891000D01*
X109930000Y-145050000D02*
X109930000Y-136890000D01*
X109970000Y-145050000D02*
X109970000Y-136890000D01*
X110010000Y-145050000D02*
X110010000Y-136890000D01*
X114130000Y-140970000D02*
G75*
G03X114130000Y-140970000I-4120000J0D01*
G01*
X131980000Y-118560000D02*
X131980000Y-116220000D01*
X134320000Y-118560000D02*
X131980000Y-118560000D01*
X135220000Y-112170000D02*
X135220000Y-111470000D01*
X134020000Y-112170000D02*
X135220000Y-112170000D01*
X134020000Y-111470000D02*
X134020000Y-112170000D01*
X135220000Y-111470000D02*
X134020000Y-111470000D01*
X134820000Y-112170000D02*
X134420000Y-111470000D01*
X161020000Y-118320000D02*
X161020000Y-105320000D01*
X132220000Y-118320000D02*
X161020000Y-118320000D01*
X132220000Y-105320000D02*
X132220000Y-118320000D01*
X161020000Y-105320000D02*
X132220000Y-105320000D01*
X143055000Y-90454775D02*
X143555000Y-90454775D01*
X143305000Y-90704775D02*
X143305000Y-90204775D01*
X144496000Y-85299000D02*
X145064000Y-85299000D01*
X144262000Y-85339000D02*
X145298000Y-85339000D01*
X144103000Y-85379000D02*
X145457000Y-85379000D01*
X143975000Y-85419000D02*
X145585000Y-85419000D01*
X143865000Y-85459000D02*
X145695000Y-85459000D01*
X143769000Y-85499000D02*
X145791000Y-85499000D01*
X143682000Y-85539000D02*
X145878000Y-85539000D01*
X143602000Y-85579000D02*
X145958000Y-85579000D01*
X143529000Y-85619000D02*
X146031000Y-85619000D01*
X143461000Y-85659000D02*
X146099000Y-85659000D01*
X143397000Y-85699000D02*
X146163000Y-85699000D01*
X143337000Y-85739000D02*
X146223000Y-85739000D01*
X143280000Y-85779000D02*
X146280000Y-85779000D01*
X143226000Y-85819000D02*
X146334000Y-85819000D01*
X143175000Y-85859000D02*
X146385000Y-85859000D01*
X145820000Y-85899000D02*
X146433000Y-85899000D01*
X143127000Y-85899000D02*
X143740000Y-85899000D01*
X145820000Y-85939000D02*
X146479000Y-85939000D01*
X143081000Y-85939000D02*
X143740000Y-85939000D01*
X145820000Y-85979000D02*
X146523000Y-85979000D01*
X143037000Y-85979000D02*
X143740000Y-85979000D01*
X145820000Y-86019000D02*
X146565000Y-86019000D01*
X142995000Y-86019000D02*
X143740000Y-86019000D01*
X145820000Y-86059000D02*
X146606000Y-86059000D01*
X142954000Y-86059000D02*
X143740000Y-86059000D01*
X145820000Y-86099000D02*
X146644000Y-86099000D01*
X142916000Y-86099000D02*
X143740000Y-86099000D01*
X145820000Y-86139000D02*
X146681000Y-86139000D01*
X142879000Y-86139000D02*
X143740000Y-86139000D01*
X145820000Y-86179000D02*
X146717000Y-86179000D01*
X142843000Y-86179000D02*
X143740000Y-86179000D01*
X145820000Y-86219000D02*
X146751000Y-86219000D01*
X142809000Y-86219000D02*
X143740000Y-86219000D01*
X145820000Y-86259000D02*
X146784000Y-86259000D01*
X142776000Y-86259000D02*
X143740000Y-86259000D01*
X145820000Y-86299000D02*
X146815000Y-86299000D01*
X142745000Y-86299000D02*
X143740000Y-86299000D01*
X145820000Y-86339000D02*
X146845000Y-86339000D01*
X142715000Y-86339000D02*
X143740000Y-86339000D01*
X145820000Y-86379000D02*
X146875000Y-86379000D01*
X142685000Y-86379000D02*
X143740000Y-86379000D01*
X145820000Y-86419000D02*
X146902000Y-86419000D01*
X142658000Y-86419000D02*
X143740000Y-86419000D01*
X145820000Y-86459000D02*
X146929000Y-86459000D01*
X142631000Y-86459000D02*
X143740000Y-86459000D01*
X145820000Y-86499000D02*
X146955000Y-86499000D01*
X142605000Y-86499000D02*
X143740000Y-86499000D01*
X145820000Y-86539000D02*
X146980000Y-86539000D01*
X142580000Y-86539000D02*
X143740000Y-86539000D01*
X145820000Y-86579000D02*
X147004000Y-86579000D01*
X142556000Y-86579000D02*
X143740000Y-86579000D01*
X145820000Y-86619000D02*
X147027000Y-86619000D01*
X142533000Y-86619000D02*
X143740000Y-86619000D01*
X145820000Y-86659000D02*
X147048000Y-86659000D01*
X142512000Y-86659000D02*
X143740000Y-86659000D01*
X145820000Y-86699000D02*
X147070000Y-86699000D01*
X142490000Y-86699000D02*
X143740000Y-86699000D01*
X145820000Y-86739000D02*
X147090000Y-86739000D01*
X142470000Y-86739000D02*
X143740000Y-86739000D01*
X145820000Y-86779000D02*
X147109000Y-86779000D01*
X142451000Y-86779000D02*
X143740000Y-86779000D01*
X145820000Y-86819000D02*
X147128000Y-86819000D01*
X142432000Y-86819000D02*
X143740000Y-86819000D01*
X145820000Y-86859000D02*
X147145000Y-86859000D01*
X142415000Y-86859000D02*
X143740000Y-86859000D01*
X145820000Y-86899000D02*
X147162000Y-86899000D01*
X142398000Y-86899000D02*
X143740000Y-86899000D01*
X145820000Y-86939000D02*
X147178000Y-86939000D01*
X142382000Y-86939000D02*
X143740000Y-86939000D01*
X145820000Y-86979000D02*
X147194000Y-86979000D01*
X142366000Y-86979000D02*
X143740000Y-86979000D01*
X145820000Y-87019000D02*
X147208000Y-87019000D01*
X142352000Y-87019000D02*
X143740000Y-87019000D01*
X145820000Y-87059000D02*
X147222000Y-87059000D01*
X142338000Y-87059000D02*
X143740000Y-87059000D01*
X145820000Y-87099000D02*
X147235000Y-87099000D01*
X142325000Y-87099000D02*
X143740000Y-87099000D01*
X145820000Y-87139000D02*
X147248000Y-87139000D01*
X142312000Y-87139000D02*
X143740000Y-87139000D01*
X145820000Y-87179000D02*
X147260000Y-87179000D01*
X142300000Y-87179000D02*
X143740000Y-87179000D01*
X145820000Y-87220000D02*
X147271000Y-87220000D01*
X142289000Y-87220000D02*
X143740000Y-87220000D01*
X145820000Y-87260000D02*
X147281000Y-87260000D01*
X142279000Y-87260000D02*
X143740000Y-87260000D01*
X145820000Y-87300000D02*
X147291000Y-87300000D01*
X142269000Y-87300000D02*
X143740000Y-87300000D01*
X145820000Y-87340000D02*
X147300000Y-87340000D01*
X142260000Y-87340000D02*
X143740000Y-87340000D01*
X145820000Y-87380000D02*
X147308000Y-87380000D01*
X142252000Y-87380000D02*
X143740000Y-87380000D01*
X145820000Y-87420000D02*
X147316000Y-87420000D01*
X142244000Y-87420000D02*
X143740000Y-87420000D01*
X145820000Y-87460000D02*
X147323000Y-87460000D01*
X142237000Y-87460000D02*
X143740000Y-87460000D01*
X145820000Y-87500000D02*
X147330000Y-87500000D01*
X142230000Y-87500000D02*
X143740000Y-87500000D01*
X145820000Y-87540000D02*
X147336000Y-87540000D01*
X142224000Y-87540000D02*
X143740000Y-87540000D01*
X145820000Y-87580000D02*
X147341000Y-87580000D01*
X142219000Y-87580000D02*
X143740000Y-87580000D01*
X145820000Y-87620000D02*
X147345000Y-87620000D01*
X142215000Y-87620000D02*
X143740000Y-87620000D01*
X145820000Y-87660000D02*
X147349000Y-87660000D01*
X142211000Y-87660000D02*
X143740000Y-87660000D01*
X145820000Y-87700000D02*
X147353000Y-87700000D01*
X142207000Y-87700000D02*
X143740000Y-87700000D01*
X145820000Y-87740000D02*
X147356000Y-87740000D01*
X142204000Y-87740000D02*
X143740000Y-87740000D01*
X145820000Y-87780000D02*
X147358000Y-87780000D01*
X142202000Y-87780000D02*
X143740000Y-87780000D01*
X145820000Y-87820000D02*
X147359000Y-87820000D01*
X142201000Y-87820000D02*
X143740000Y-87820000D01*
X142200000Y-87860000D02*
X143740000Y-87860000D01*
X145820000Y-87860000D02*
X147360000Y-87860000D01*
X142200000Y-87900000D02*
X143740000Y-87900000D01*
X145820000Y-87900000D02*
X147360000Y-87900000D01*
X147400000Y-87900000D02*
G75*
G03X147400000Y-87900000I-2620000J0D01*
G01*
X131980000Y-133800000D02*
X131980000Y-131460000D01*
X134320000Y-133800000D02*
X131980000Y-133800000D01*
X135220000Y-127410000D02*
X135220000Y-126710000D01*
X134020000Y-127410000D02*
X135220000Y-127410000D01*
X134020000Y-126710000D02*
X134020000Y-127410000D01*
X135220000Y-126710000D02*
X134020000Y-126710000D01*
X134820000Y-127410000D02*
X134420000Y-126710000D01*
X161020000Y-133560000D02*
X161020000Y-120560000D01*
X132220000Y-133560000D02*
X161020000Y-133560000D01*
X132220000Y-120560000D02*
X132220000Y-133560000D01*
X161020000Y-120560000D02*
X132220000Y-120560000D01*
X156210000Y-87750000D02*
X156210000Y-90290000D01*
X153670000Y-87750000D02*
X153670000Y-90290000D01*
X151130000Y-87750000D02*
X151130000Y-90290000D01*
X158790000Y-71860000D02*
X158790000Y-87750000D01*
X148550000Y-71860000D02*
X148550000Y-87750000D01*
X148550000Y-71860000D02*
X158790000Y-71860000D01*
X148550000Y-87750000D02*
X158790000Y-87750000D01*
X133382150Y-98102544D02*
G75*
G03X132392331Y-99092281I-2572150J1582544D01*
G01*
X134294448Y-99014499D02*
X133382281Y-98102331D01*
X133304499Y-100004448D02*
X134294448Y-99014499D01*
X132392331Y-99092281D02*
X133304499Y-100004448D01*
X114019698Y-120825000D02*
X114019698Y-120025000D01*
X114419698Y-120425000D02*
X113619698Y-120425000D01*
X105929000Y-118643000D02*
X105929000Y-117577000D01*
X105969000Y-118878000D02*
X105969000Y-117342000D01*
X106009000Y-119058000D02*
X106009000Y-117162000D01*
X106049000Y-119208000D02*
X106049000Y-117012000D01*
X106089000Y-119339000D02*
X106089000Y-116881000D01*
X106129000Y-119456000D02*
X106129000Y-116764000D01*
X106169000Y-119563000D02*
X106169000Y-116657000D01*
X106209000Y-119662000D02*
X106209000Y-116558000D01*
X106249000Y-119755000D02*
X106249000Y-116465000D01*
X106289000Y-119841000D02*
X106289000Y-116379000D01*
X106329000Y-119923000D02*
X106329000Y-116297000D01*
X106369000Y-120000000D02*
X106369000Y-116220000D01*
X106409000Y-120074000D02*
X106409000Y-116146000D01*
X106449000Y-120144000D02*
X106449000Y-116076000D01*
X106489000Y-120212000D02*
X106489000Y-116008000D01*
X106529000Y-120276000D02*
X106529000Y-115944000D01*
X106569000Y-120338000D02*
X106569000Y-115882000D01*
X106609000Y-120397000D02*
X106609000Y-115823000D01*
X106649000Y-120455000D02*
X106649000Y-115765000D01*
X106689000Y-120510000D02*
X106689000Y-115710000D01*
X106729000Y-120564000D02*
X106729000Y-115656000D01*
X106769000Y-120615000D02*
X106769000Y-115605000D01*
X106809000Y-120666000D02*
X106809000Y-115554000D01*
X106849000Y-120714000D02*
X106849000Y-115506000D01*
X106889000Y-120761000D02*
X106889000Y-115459000D01*
X106929000Y-120807000D02*
X106929000Y-115413000D01*
X106969000Y-120851000D02*
X106969000Y-115369000D01*
X107009000Y-120894000D02*
X107009000Y-115326000D01*
X107049000Y-120936000D02*
X107049000Y-115284000D01*
X107089000Y-120977000D02*
X107089000Y-115243000D01*
X107129000Y-121017000D02*
X107129000Y-115203000D01*
X107169000Y-121055000D02*
X107169000Y-115165000D01*
X107209000Y-121093000D02*
X107209000Y-115127000D01*
X107249000Y-117070000D02*
X107249000Y-115091000D01*
X107249000Y-121129000D02*
X107249000Y-119150000D01*
X107289000Y-117070000D02*
X107289000Y-115055000D01*
X107289000Y-121165000D02*
X107289000Y-119150000D01*
X107329000Y-117070000D02*
X107329000Y-115020000D01*
X107329000Y-121200000D02*
X107329000Y-119150000D01*
X107369000Y-117070000D02*
X107369000Y-114986000D01*
X107369000Y-121234000D02*
X107369000Y-119150000D01*
X107409000Y-117070000D02*
X107409000Y-114954000D01*
X107409000Y-121266000D02*
X107409000Y-119150000D01*
X107449000Y-117070000D02*
X107449000Y-114921000D01*
X107449000Y-121299000D02*
X107449000Y-119150000D01*
X107489000Y-117070000D02*
X107489000Y-114890000D01*
X107489000Y-121330000D02*
X107489000Y-119150000D01*
X107529000Y-117070000D02*
X107529000Y-114860000D01*
X107529000Y-121360000D02*
X107529000Y-119150000D01*
X107569000Y-117070000D02*
X107569000Y-114830000D01*
X107569000Y-121390000D02*
X107569000Y-119150000D01*
X107609000Y-117070000D02*
X107609000Y-114801000D01*
X107609000Y-121419000D02*
X107609000Y-119150000D01*
X107649000Y-117070000D02*
X107649000Y-114772000D01*
X107649000Y-121448000D02*
X107649000Y-119150000D01*
X107689000Y-117070000D02*
X107689000Y-114745000D01*
X107689000Y-121475000D02*
X107689000Y-119150000D01*
X107729000Y-117070000D02*
X107729000Y-114718000D01*
X107729000Y-121502000D02*
X107729000Y-119150000D01*
X107769000Y-117070000D02*
X107769000Y-114692000D01*
X107769000Y-121528000D02*
X107769000Y-119150000D01*
X107809000Y-117070000D02*
X107809000Y-114666000D01*
X107809000Y-121554000D02*
X107809000Y-119150000D01*
X107849000Y-117070000D02*
X107849000Y-114641000D01*
X107849000Y-121579000D02*
X107849000Y-119150000D01*
X107889000Y-117070000D02*
X107889000Y-114617000D01*
X107889000Y-121603000D02*
X107889000Y-119150000D01*
X107929000Y-117070000D02*
X107929000Y-114593000D01*
X107929000Y-121627000D02*
X107929000Y-119150000D01*
X107969000Y-117070000D02*
X107969000Y-114570000D01*
X107969000Y-121650000D02*
X107969000Y-119150000D01*
X108009000Y-117070000D02*
X108009000Y-114548000D01*
X108009000Y-121672000D02*
X108009000Y-119150000D01*
X108049000Y-117070000D02*
X108049000Y-114526000D01*
X108049000Y-121694000D02*
X108049000Y-119150000D01*
X108089000Y-117070000D02*
X108089000Y-114504000D01*
X108089000Y-121716000D02*
X108089000Y-119150000D01*
X108129000Y-117070000D02*
X108129000Y-114483000D01*
X108129000Y-121737000D02*
X108129000Y-119150000D01*
X108169000Y-117070000D02*
X108169000Y-114463000D01*
X108169000Y-121757000D02*
X108169000Y-119150000D01*
X108209000Y-117070000D02*
X108209000Y-114444000D01*
X108209000Y-121776000D02*
X108209000Y-119150000D01*
X108249000Y-117070000D02*
X108249000Y-114424000D01*
X108249000Y-121796000D02*
X108249000Y-119150000D01*
X108289000Y-117070000D02*
X108289000Y-114406000D01*
X108289000Y-121814000D02*
X108289000Y-119150000D01*
X108329000Y-117070000D02*
X108329000Y-114388000D01*
X108329000Y-121832000D02*
X108329000Y-119150000D01*
X108369000Y-117070000D02*
X108369000Y-114370000D01*
X108369000Y-121850000D02*
X108369000Y-119150000D01*
X108409000Y-117070000D02*
X108409000Y-114353000D01*
X108409000Y-121867000D02*
X108409000Y-119150000D01*
X108449000Y-117070000D02*
X108449000Y-114336000D01*
X108449000Y-121884000D02*
X108449000Y-119150000D01*
X108489000Y-117070000D02*
X108489000Y-114320000D01*
X108489000Y-121900000D02*
X108489000Y-119150000D01*
X108529000Y-117070000D02*
X108529000Y-114305000D01*
X108529000Y-121915000D02*
X108529000Y-119150000D01*
X108569000Y-117070000D02*
X108569000Y-114289000D01*
X108569000Y-121931000D02*
X108569000Y-119150000D01*
X108609000Y-117070000D02*
X108609000Y-114275000D01*
X108609000Y-121945000D02*
X108609000Y-119150000D01*
X108649000Y-117070000D02*
X108649000Y-114260000D01*
X108649000Y-121960000D02*
X108649000Y-119150000D01*
X108689000Y-117070000D02*
X108689000Y-114247000D01*
X108689000Y-121973000D02*
X108689000Y-119150000D01*
X108729000Y-117070000D02*
X108729000Y-114233000D01*
X108729000Y-121987000D02*
X108729000Y-119150000D01*
X108769000Y-117070000D02*
X108769000Y-114221000D01*
X108769000Y-121999000D02*
X108769000Y-119150000D01*
X108809000Y-117070000D02*
X108809000Y-114208000D01*
X108809000Y-122012000D02*
X108809000Y-119150000D01*
X108849000Y-117070000D02*
X108849000Y-114196000D01*
X108849000Y-122024000D02*
X108849000Y-119150000D01*
X108889000Y-117070000D02*
X108889000Y-114185000D01*
X108889000Y-122035000D02*
X108889000Y-119150000D01*
X108929000Y-117070000D02*
X108929000Y-114174000D01*
X108929000Y-122046000D02*
X108929000Y-119150000D01*
X108969000Y-117070000D02*
X108969000Y-114163000D01*
X108969000Y-122057000D02*
X108969000Y-119150000D01*
X109009000Y-117070000D02*
X109009000Y-114153000D01*
X109009000Y-122067000D02*
X109009000Y-119150000D01*
X109049000Y-117070000D02*
X109049000Y-114143000D01*
X109049000Y-122077000D02*
X109049000Y-119150000D01*
X109089000Y-117070000D02*
X109089000Y-114134000D01*
X109089000Y-122086000D02*
X109089000Y-119150000D01*
X109129000Y-117070000D02*
X109129000Y-114125000D01*
X109129000Y-122095000D02*
X109129000Y-119150000D01*
X109169000Y-117070000D02*
X109169000Y-114116000D01*
X109169000Y-122104000D02*
X109169000Y-119150000D01*
X109209000Y-117070000D02*
X109209000Y-114108000D01*
X109209000Y-122112000D02*
X109209000Y-119150000D01*
X109249000Y-117070000D02*
X109249000Y-114100000D01*
X109249000Y-122120000D02*
X109249000Y-119150000D01*
X109289000Y-117070000D02*
X109289000Y-114093000D01*
X109289000Y-122127000D02*
X109289000Y-119150000D01*
X109330000Y-122134000D02*
X109330000Y-114086000D01*
X109370000Y-122140000D02*
X109370000Y-114080000D01*
X109410000Y-122147000D02*
X109410000Y-114073000D01*
X109450000Y-122152000D02*
X109450000Y-114068000D01*
X109490000Y-122158000D02*
X109490000Y-114062000D01*
X109530000Y-122162000D02*
X109530000Y-114058000D01*
X109570000Y-122167000D02*
X109570000Y-114053000D01*
X109610000Y-122171000D02*
X109610000Y-114049000D01*
X109650000Y-122175000D02*
X109650000Y-114045000D01*
X109690000Y-122178000D02*
X109690000Y-114042000D01*
X109730000Y-122181000D02*
X109730000Y-114039000D01*
X109770000Y-122184000D02*
X109770000Y-114036000D01*
X109810000Y-122186000D02*
X109810000Y-114034000D01*
X109850000Y-122187000D02*
X109850000Y-114033000D01*
X109890000Y-122189000D02*
X109890000Y-114031000D01*
X109930000Y-122190000D02*
X109930000Y-114030000D01*
X109970000Y-122190000D02*
X109970000Y-114030000D01*
X110010000Y-122190000D02*
X110010000Y-114030000D01*
X114130000Y-118110000D02*
G75*
G03X114130000Y-118110000I-4120000J0D01*
G01*
X150280000Y-94960000D02*
X150280000Y-97370000D01*
X147870000Y-94960000D02*
X150280000Y-94960000D01*
X149980000Y-102860000D02*
X149980000Y-95260000D01*
X147450000Y-102860000D02*
X149980000Y-102860000D01*
X147450000Y-102730000D02*
X147450000Y-102860000D01*
X145640000Y-102730000D02*
X147450000Y-102730000D01*
X145640000Y-102860000D02*
X145640000Y-102730000D01*
X144660000Y-102860000D02*
X145640000Y-102860000D01*
X144660000Y-102600000D02*
X144660000Y-102860000D01*
X143160000Y-102600000D02*
X144660000Y-102600000D01*
X143160000Y-95520000D02*
X143160000Y-102600000D01*
X144660000Y-95520000D02*
X143160000Y-95520000D01*
X144660000Y-95260000D02*
X144660000Y-95520000D01*
X145640000Y-95260000D02*
X144660000Y-95260000D01*
X145640000Y-95390000D02*
X145640000Y-95260000D01*
X147450000Y-95390000D02*
X145640000Y-95390000D01*
X147450000Y-95260000D02*
X147450000Y-95390000D01*
X149980000Y-95260000D02*
X147450000Y-95260000D01*
X160440000Y-94960000D02*
X160440000Y-97370000D01*
X158030000Y-94960000D02*
X160440000Y-94960000D01*
X160140000Y-102860000D02*
X160140000Y-95260000D01*
X157610000Y-102860000D02*
X160140000Y-102860000D01*
X157610000Y-102730000D02*
X157610000Y-102860000D01*
X155800000Y-102730000D02*
X157610000Y-102730000D01*
X155800000Y-102860000D02*
X155800000Y-102730000D01*
X154820000Y-102860000D02*
X155800000Y-102860000D01*
X154820000Y-102600000D02*
X154820000Y-102860000D01*
X153320000Y-102600000D02*
X154820000Y-102600000D01*
X153320000Y-95520000D02*
X153320000Y-102600000D01*
X154820000Y-95520000D02*
X153320000Y-95520000D01*
X154820000Y-95260000D02*
X154820000Y-95520000D01*
X155800000Y-95260000D02*
X154820000Y-95260000D01*
X155800000Y-95390000D02*
X155800000Y-95260000D01*
X157610000Y-95390000D02*
X155800000Y-95390000D01*
X157610000Y-95260000D02*
X157610000Y-95390000D01*
X160140000Y-95260000D02*
X157610000Y-95260000D01*
X106860000Y-89870000D02*
X106860000Y-90370000D01*
X107600000Y-89870000D02*
X106860000Y-89870000D01*
X110737000Y-96563000D02*
X110691000Y-96516000D01*
X113035000Y-98860000D02*
X112999000Y-98825000D01*
X110521000Y-96756000D02*
X110486000Y-96721000D01*
X112829000Y-99065000D02*
X112783000Y-99018000D01*
X117021000Y-100390000D02*
X107100000Y-100390000D01*
X117021000Y-90110000D02*
X107100000Y-90110000D01*
X107100000Y-90110000D02*
X107100000Y-100390000D01*
X117021000Y-90110000D02*
X117021000Y-100390000D01*
X114061000Y-90110000D02*
X114061000Y-100390000D01*
X109160000Y-90110000D02*
X109160000Y-100390000D01*
X107660000Y-90110000D02*
X107660000Y-100390000D01*
X113440000Y-97790000D02*
G75*
G03X113440000Y-97790000I-1680000J0D01*
G01*
X110079747Y-92738805D02*
G75*
G02X110225000Y-92026000I1680253J28805D01*
G01*
X111076958Y-91174574D02*
G75*
G02X112444000Y-91175000I683042J-1535426D01*
G01*
X113295426Y-92026958D02*
G75*
G02X113295000Y-93394000I-1535426J-683042D01*
G01*
X112443042Y-94245426D02*
G75*
G02X111076000Y-94245000I-683042J1535426D01*
G01*
X110225244Y-93393318D02*
G75*
G02X110080000Y-92710000I1534756J683318D01*
G01*
X106680000Y-71120000D02*
X106680000Y-88900000D01*
X139700000Y-71120000D02*
X106680000Y-71120000D01*
X139700000Y-88900000D02*
X139700000Y-71120000D01*
X106680000Y-88900000D02*
X139700000Y-88900000D01*
X153780000Y-137630000D02*
X153180000Y-137630000D01*
X153780000Y-139230000D02*
X153780000Y-137630000D01*
X153180000Y-139230000D02*
X153780000Y-139230000D01*
X153780000Y-140170000D02*
X153180000Y-140170000D01*
X153780000Y-141770000D02*
X153780000Y-140170000D01*
X153180000Y-141770000D02*
X153780000Y-141770000D01*
X153780000Y-142710000D02*
X153180000Y-142710000D01*
X153780000Y-144310000D02*
X153780000Y-142710000D01*
X153180000Y-144310000D02*
X153780000Y-144310000D01*
X159200000Y-138680000D02*
X158200000Y-138680000D01*
X159200000Y-143260000D02*
X158200000Y-143260000D01*
X157670000Y-138680000D02*
X158200000Y-138430000D01*
X157670000Y-143260000D02*
X157670000Y-138680000D01*
X158200000Y-143510000D02*
X157670000Y-143260000D01*
X158200000Y-138430000D02*
X159200000Y-138430000D01*
X158200000Y-143510000D02*
X158200000Y-138430000D01*
X159200000Y-143510000D02*
X158200000Y-143510000D01*
X154210000Y-145180000D02*
X158210000Y-145180000D01*
X153180000Y-137050000D02*
X153180000Y-144890000D01*
X159200000Y-137050000D02*
X153180000Y-137050000D01*
X159200000Y-144890000D02*
X159200000Y-137050000D01*
X153180000Y-144890000D02*
X159200000Y-144890000D01*
X143620000Y-137630000D02*
X143020000Y-137630000D01*
X143620000Y-139230000D02*
X143620000Y-137630000D01*
X143020000Y-139230000D02*
X143620000Y-139230000D01*
X143620000Y-140170000D02*
X143020000Y-140170000D01*
X143620000Y-141770000D02*
X143620000Y-140170000D01*
X143020000Y-141770000D02*
X143620000Y-141770000D01*
X143620000Y-142710000D02*
X143020000Y-142710000D01*
X143620000Y-144310000D02*
X143620000Y-142710000D01*
X143020000Y-144310000D02*
X143620000Y-144310000D01*
X149040000Y-138680000D02*
X148040000Y-138680000D01*
X149040000Y-143260000D02*
X148040000Y-143260000D01*
X147510000Y-138680000D02*
X148040000Y-138430000D01*
X147510000Y-143260000D02*
X147510000Y-138680000D01*
X148040000Y-143510000D02*
X147510000Y-143260000D01*
X148040000Y-138430000D02*
X149040000Y-138430000D01*
X148040000Y-143510000D02*
X148040000Y-138430000D01*
X149040000Y-143510000D02*
X148040000Y-143510000D01*
X144050000Y-145180000D02*
X148050000Y-145180000D01*
X143020000Y-137050000D02*
X143020000Y-144890000D01*
X149040000Y-137050000D02*
X143020000Y-137050000D01*
X149040000Y-144890000D02*
X149040000Y-137050000D01*
X143020000Y-144890000D02*
X149040000Y-144890000D01*
X110430000Y-124400000D02*
X111760000Y-124400000D01*
X110430000Y-125730000D02*
X110430000Y-124400000D01*
X110430000Y-127000000D02*
X113090000Y-127000000D01*
X113090000Y-127000000D02*
X113090000Y-134680000D01*
X110430000Y-127000000D02*
X110430000Y-134680000D01*
X110430000Y-134680000D02*
X113090000Y-134680000D01*
X110430000Y-101540000D02*
X111760000Y-101540000D01*
X110430000Y-102870000D02*
X110430000Y-101540000D01*
X110430000Y-104140000D02*
X113090000Y-104140000D01*
X113090000Y-104140000D02*
X113090000Y-111820000D01*
X110430000Y-104140000D02*
X110430000Y-111820000D01*
X110430000Y-111820000D02*
X113090000Y-111820000D01*
D12*
X128778095Y-141692380D02*
X128778095Y-142501904D01*
X128825714Y-142597142D01*
X128873333Y-142644761D01*
X128968571Y-142692380D01*
X129159047Y-142692380D01*
X129254285Y-142644761D01*
X129301904Y-142597142D01*
X129349523Y-142501904D01*
X129349523Y-141692380D01*
X129730476Y-141692380D02*
X130349523Y-141692380D01*
X130016190Y-142073333D01*
X130159047Y-142073333D01*
X130254285Y-142120952D01*
X130301904Y-142168571D01*
X130349523Y-142263809D01*
X130349523Y-142501904D01*
X130301904Y-142597142D01*
X130254285Y-142644761D01*
X130159047Y-142692380D01*
X129873333Y-142692380D01*
X129778095Y-142644761D01*
X129730476Y-142597142D01*
X128778095Y-118832380D02*
X128778095Y-119641904D01*
X128825714Y-119737142D01*
X128873333Y-119784761D01*
X128968571Y-119832380D01*
X129159047Y-119832380D01*
X129254285Y-119784761D01*
X129301904Y-119737142D01*
X129349523Y-119641904D01*
X129349523Y-118832380D01*
X129778095Y-118927619D02*
X129825714Y-118880000D01*
X129920952Y-118832380D01*
X130159047Y-118832380D01*
X130254285Y-118880000D01*
X130301904Y-118927619D01*
X130349523Y-119022857D01*
X130349523Y-119118095D01*
X130301904Y-119260952D01*
X129730476Y-119832380D01*
X130349523Y-119832380D01*
X138334761Y-104897619D02*
X138239523Y-104850000D01*
X138144285Y-104754761D01*
X138001428Y-104611904D01*
X137906190Y-104564285D01*
X137810952Y-104564285D01*
X137858571Y-104802380D02*
X137763333Y-104754761D01*
X137668095Y-104659523D01*
X137620476Y-104469047D01*
X137620476Y-104135714D01*
X137668095Y-103945238D01*
X137763333Y-103850000D01*
X137858571Y-103802380D01*
X138049047Y-103802380D01*
X138144285Y-103850000D01*
X138239523Y-103945238D01*
X138287142Y-104135714D01*
X138287142Y-104469047D01*
X138239523Y-104659523D01*
X138144285Y-104754761D01*
X138049047Y-104802380D01*
X137858571Y-104802380D01*
X138668095Y-103897619D02*
X138715714Y-103850000D01*
X138810952Y-103802380D01*
X139049047Y-103802380D01*
X139144285Y-103850000D01*
X139191904Y-103897619D01*
X139239523Y-103992857D01*
X139239523Y-104088095D01*
X139191904Y-104230952D01*
X138620476Y-104802380D01*
X139239523Y-104802380D01*
X107037142Y-136056666D02*
X107084761Y-136104285D01*
X107132380Y-136247142D01*
X107132380Y-136342380D01*
X107084761Y-136485238D01*
X106989523Y-136580476D01*
X106894285Y-136628095D01*
X106703809Y-136675714D01*
X106560952Y-136675714D01*
X106370476Y-136628095D01*
X106275238Y-136580476D01*
X106180000Y-136485238D01*
X106132380Y-136342380D01*
X106132380Y-136247142D01*
X106180000Y-136104285D01*
X106227619Y-136056666D01*
X106227619Y-135675714D02*
X106180000Y-135628095D01*
X106132380Y-135532857D01*
X106132380Y-135294761D01*
X106180000Y-135199523D01*
X106227619Y-135151904D01*
X106322857Y-135104285D01*
X106418095Y-135104285D01*
X106560952Y-135151904D01*
X107132380Y-135723333D01*
X107132380Y-135104285D01*
X140152380Y-116308095D02*
X139152380Y-116308095D01*
X140152380Y-115736666D02*
X139580952Y-116165238D01*
X139152380Y-115736666D02*
X139723809Y-116308095D01*
X140152380Y-114784285D02*
X140152380Y-115355714D01*
X140152380Y-115070000D02*
X139152380Y-115070000D01*
X139295238Y-115165238D01*
X139390476Y-115260476D01*
X139438095Y-115355714D01*
X145137142Y-91606666D02*
X145184761Y-91654285D01*
X145232380Y-91797142D01*
X145232380Y-91892380D01*
X145184761Y-92035238D01*
X145089523Y-92130476D01*
X144994285Y-92178095D01*
X144803809Y-92225714D01*
X144660952Y-92225714D01*
X144470476Y-92178095D01*
X144375238Y-92130476D01*
X144280000Y-92035238D01*
X144232380Y-91892380D01*
X144232380Y-91797142D01*
X144280000Y-91654285D01*
X144327619Y-91606666D01*
X145232380Y-90654285D02*
X145232380Y-91225714D01*
X145232380Y-90940000D02*
X144232380Y-90940000D01*
X144375238Y-91035238D01*
X144470476Y-91130476D01*
X144518095Y-91225714D01*
X140152380Y-123928095D02*
X139152380Y-123928095D01*
X140152380Y-123356666D02*
X139580952Y-123785238D01*
X139152380Y-123356666D02*
X139723809Y-123928095D01*
X139247619Y-122975714D02*
X139200000Y-122928095D01*
X139152380Y-122832857D01*
X139152380Y-122594761D01*
X139200000Y-122499523D01*
X139247619Y-122451904D01*
X139342857Y-122404285D01*
X139438095Y-122404285D01*
X139580952Y-122451904D01*
X140152380Y-123023333D01*
X140152380Y-122404285D01*
X152908095Y-70312380D02*
X152908095Y-71121904D01*
X152955714Y-71217142D01*
X153003333Y-71264761D01*
X153098571Y-71312380D01*
X153289047Y-71312380D01*
X153384285Y-71264761D01*
X153431904Y-71217142D01*
X153479523Y-71121904D01*
X153479523Y-70312380D01*
X154384285Y-70645714D02*
X154384285Y-71312380D01*
X154146190Y-70264761D02*
X153908095Y-70979047D01*
X154527142Y-70979047D01*
X130714761Y-101087619D02*
X130619523Y-101040000D01*
X130524285Y-100944761D01*
X130381428Y-100801904D01*
X130286190Y-100754285D01*
X130190952Y-100754285D01*
X130238571Y-100992380D02*
X130143333Y-100944761D01*
X130048095Y-100849523D01*
X130000476Y-100659047D01*
X130000476Y-100325714D01*
X130048095Y-100135238D01*
X130143333Y-100040000D01*
X130238571Y-99992380D01*
X130429047Y-99992380D01*
X130524285Y-100040000D01*
X130619523Y-100135238D01*
X130667142Y-100325714D01*
X130667142Y-100659047D01*
X130619523Y-100849523D01*
X130524285Y-100944761D01*
X130429047Y-100992380D01*
X130238571Y-100992380D01*
X131619523Y-100992380D02*
X131048095Y-100992380D01*
X131333809Y-100992380D02*
X131333809Y-99992380D01*
X131238571Y-100135238D01*
X131143333Y-100230476D01*
X131048095Y-100278095D01*
X107037142Y-123356666D02*
X107084761Y-123404285D01*
X107132380Y-123547142D01*
X107132380Y-123642380D01*
X107084761Y-123785238D01*
X106989523Y-123880476D01*
X106894285Y-123928095D01*
X106703809Y-123975714D01*
X106560952Y-123975714D01*
X106370476Y-123928095D01*
X106275238Y-123880476D01*
X106180000Y-123785238D01*
X106132380Y-123642380D01*
X106132380Y-123547142D01*
X106180000Y-123404285D01*
X106227619Y-123356666D01*
X106132380Y-123023333D02*
X106132380Y-122404285D01*
X106513333Y-122737619D01*
X106513333Y-122594761D01*
X106560952Y-122499523D01*
X106608571Y-122451904D01*
X106703809Y-122404285D01*
X106941904Y-122404285D01*
X107037142Y-122451904D01*
X107084761Y-122499523D01*
X107132380Y-122594761D01*
X107132380Y-122880476D01*
X107084761Y-122975714D01*
X107037142Y-123023333D01*
X142722380Y-100079047D02*
X142722380Y-100555238D01*
X141722380Y-100555238D01*
X142198571Y-99745714D02*
X142198571Y-99412380D01*
X142722380Y-99269523D02*
X142722380Y-99745714D01*
X141722380Y-99745714D01*
X141722380Y-99269523D01*
X142722380Y-98840952D02*
X141722380Y-98840952D01*
X141722380Y-98602857D01*
X141770000Y-98460000D01*
X141865238Y-98364761D01*
X141960476Y-98317142D01*
X142150952Y-98269523D01*
X142293809Y-98269523D01*
X142484285Y-98317142D01*
X142579523Y-98364761D01*
X142674761Y-98460000D01*
X142722380Y-98602857D01*
X142722380Y-98840952D01*
X142722380Y-97317142D02*
X142722380Y-97888571D01*
X142722380Y-97602857D02*
X141722380Y-97602857D01*
X141865238Y-97698095D01*
X141960476Y-97793333D01*
X142008095Y-97888571D01*
X152882380Y-100079047D02*
X152882380Y-100555238D01*
X151882380Y-100555238D01*
X152358571Y-99745714D02*
X152358571Y-99412380D01*
X152882380Y-99269523D02*
X152882380Y-99745714D01*
X151882380Y-99745714D01*
X151882380Y-99269523D01*
X152882380Y-98840952D02*
X151882380Y-98840952D01*
X151882380Y-98602857D01*
X151930000Y-98460000D01*
X152025238Y-98364761D01*
X152120476Y-98317142D01*
X152310952Y-98269523D01*
X152453809Y-98269523D01*
X152644285Y-98317142D01*
X152739523Y-98364761D01*
X152834761Y-98460000D01*
X152882380Y-98602857D01*
X152882380Y-98840952D01*
X151977619Y-97888571D02*
X151930000Y-97840952D01*
X151882380Y-97745714D01*
X151882380Y-97507619D01*
X151930000Y-97412380D01*
X151977619Y-97364761D01*
X152072857Y-97317142D01*
X152168095Y-97317142D01*
X152310952Y-97364761D01*
X152882380Y-97936190D01*
X152882380Y-97317142D01*
X117472380Y-95583333D02*
X118186666Y-95583333D01*
X118329523Y-95630952D01*
X118424761Y-95726190D01*
X118472380Y-95869047D01*
X118472380Y-95964285D01*
X118472380Y-94583333D02*
X118472380Y-95154761D01*
X118472380Y-94869047D02*
X117472380Y-94869047D01*
X117615238Y-94964285D01*
X117710476Y-95059523D01*
X117758095Y-95154761D01*
X109307380Y-80771904D02*
X110116904Y-80771904D01*
X110212142Y-80724285D01*
X110259761Y-80676666D01*
X110307380Y-80581428D01*
X110307380Y-80390952D01*
X110259761Y-80295714D01*
X110212142Y-80248095D01*
X110116904Y-80200476D01*
X109307380Y-80200476D01*
X110307380Y-79200476D02*
X110307380Y-79771904D01*
X110307380Y-79486190D02*
X109307380Y-79486190D01*
X109450238Y-79581428D01*
X109545476Y-79676666D01*
X109593095Y-79771904D01*
X152018571Y-142255714D02*
X152018571Y-142589047D01*
X152542380Y-142589047D02*
X151542380Y-142589047D01*
X151542380Y-142112857D01*
X152256666Y-141779523D02*
X152256666Y-141303333D01*
X152542380Y-141874761D02*
X151542380Y-141541428D01*
X152542380Y-141208095D01*
X152542380Y-140874761D02*
X151542380Y-140874761D01*
X152542380Y-140303333D01*
X151542380Y-140303333D01*
X151637619Y-139874761D02*
X151590000Y-139827142D01*
X151542380Y-139731904D01*
X151542380Y-139493809D01*
X151590000Y-139398571D01*
X151637619Y-139350952D01*
X151732857Y-139303333D01*
X151828095Y-139303333D01*
X151970952Y-139350952D01*
X152542380Y-139922380D01*
X152542380Y-139303333D01*
X141858571Y-142255714D02*
X141858571Y-142589047D01*
X142382380Y-142589047D02*
X141382380Y-142589047D01*
X141382380Y-142112857D01*
X142096666Y-141779523D02*
X142096666Y-141303333D01*
X142382380Y-141874761D02*
X141382380Y-141541428D01*
X142382380Y-141208095D01*
X142382380Y-140874761D02*
X141382380Y-140874761D01*
X142382380Y-140303333D01*
X141382380Y-140303333D01*
X142382380Y-139303333D02*
X142382380Y-139874761D01*
X142382380Y-139589047D02*
X141382380Y-139589047D01*
X141525238Y-139684285D01*
X141620476Y-139779523D01*
X141668095Y-139874761D01*
X112212380Y-136699523D02*
X111212380Y-136699523D01*
X111926666Y-136366190D01*
X111212380Y-136032857D01*
X112212380Y-136032857D01*
X111307619Y-135604285D02*
X111260000Y-135556666D01*
X111212380Y-135461428D01*
X111212380Y-135223333D01*
X111260000Y-135128095D01*
X111307619Y-135080476D01*
X111402857Y-135032857D01*
X111498095Y-135032857D01*
X111640952Y-135080476D01*
X112212380Y-135651904D01*
X112212380Y-135032857D01*
X112212380Y-101139523D02*
X111212380Y-101139523D01*
X111926666Y-100806190D01*
X111212380Y-100472857D01*
X112212380Y-100472857D01*
X112212380Y-99472857D02*
X112212380Y-100044285D01*
X112212380Y-99758571D02*
X111212380Y-99758571D01*
X111355238Y-99853809D01*
X111450476Y-99949047D01*
X111498095Y-100044285D01*
M02*
