G04 #@! TF.GenerationSoftware,KiCad,Pcbnew,(5.1.5)-3*
G04 #@! TF.CreationDate,2020-07-09T20:04:34+02:00*
G04 #@! TF.ProjectId,ejector,656a6563-746f-4722-9e6b-696361645f70,rev?*
G04 #@! TF.SameCoordinates,Original*
G04 #@! TF.FileFunction,Copper,L1,Top*
G04 #@! TF.FilePolarity,Positive*
%FSLAX46Y46*%
G04 Gerber Fmt 4.6, Leading zero omitted, Abs format (unit mm)*
G04 Created by KiCad (PCBNEW (5.1.5)-3) date 2020-07-09 20:04:34*
%MOMM*%
%LPD*%
G04 APERTURE LIST*
%ADD10C,1.800000*%
%ADD11O,1.200000X1.200000*%
%ADD12O,1.600000X1.200000*%
%ADD13C,5.000000*%
%ADD14C,1.600000*%
%ADD15R,1.600000X1.600000*%
%ADD16O,2.500000X2.500000*%
%ADD17R,2.500000X2.500000*%
%ADD18O,1.905000X2.000000*%
%ADD19R,1.905000X2.000000*%
%ADD20C,1.740000*%
%ADD21C,0.100000*%
%ADD22C,2.600000*%
%ADD23R,2.600000X2.600000*%
%ADD24O,2.200000X1.740000*%
%ADD25O,1.700000X1.700000*%
%ADD26R,1.700000X1.700000*%
%ADD27C,1.000000*%
%ADD28C,0.800000*%
%ADD29C,1.000000*%
%ADD30C,0.500000*%
%ADD31C,0.250000*%
%ADD32C,0.254000*%
G04 APERTURE END LIST*
D10*
X116840000Y-143510000D03*
X116840000Y-140970000D03*
X116840000Y-138430000D03*
X116840000Y-135890000D03*
X116840000Y-133350000D03*
X116840000Y-130810000D03*
X116840000Y-128270000D03*
X116840000Y-125730000D03*
X129540000Y-125730000D03*
X129540000Y-128270000D03*
X129540000Y-130810000D03*
X129540000Y-133350000D03*
X129540000Y-135890000D03*
X129540000Y-138430000D03*
X129540000Y-140970000D03*
X129540000Y-143510000D03*
X116840000Y-120650000D03*
X116840000Y-118110000D03*
X116840000Y-115570000D03*
X116840000Y-113030000D03*
X116840000Y-110490000D03*
X116840000Y-107950000D03*
X116840000Y-105410000D03*
X116840000Y-102870000D03*
X129540000Y-102870000D03*
X129540000Y-105410000D03*
X129540000Y-107950000D03*
X129540000Y-110490000D03*
X129540000Y-113030000D03*
X129540000Y-115570000D03*
X129540000Y-118110000D03*
X129540000Y-120650000D03*
D11*
X137160000Y-100330000D03*
X138430000Y-99060000D03*
D12*
X139700000Y-100330000D03*
D13*
X137160000Y-140970000D03*
X144780000Y-74930000D03*
D14*
X108260000Y-140970000D03*
D15*
X111760000Y-140970000D03*
D16*
X134620000Y-108070000D03*
X149620000Y-108070000D03*
X154620000Y-108070000D03*
X159620000Y-108070000D03*
X159620000Y-115570000D03*
X154620000Y-115570000D03*
X149620000Y-115570000D03*
D17*
X134620000Y-115570000D03*
D14*
X144780000Y-86900000D03*
D15*
X144780000Y-88900000D03*
D16*
X134620000Y-123310000D03*
X149620000Y-123310000D03*
X154620000Y-123310000D03*
X159620000Y-123310000D03*
X159620000Y-130810000D03*
X154620000Y-130810000D03*
X149620000Y-130810000D03*
D17*
X134620000Y-130810000D03*
D18*
X156210000Y-91440000D03*
X153670000Y-91440000D03*
D19*
X151130000Y-91440000D03*
D11*
X129540000Y-96520000D03*
X130810000Y-95250000D03*
D12*
X132080000Y-96520000D03*
D14*
X108260000Y-118110000D03*
D15*
X111760000Y-118110000D03*
D20*
X147320000Y-100330000D03*
G04 #@! TA.AperFunction,ComponentPad*
D21*
G36*
X147964505Y-96921204D02*
G01*
X147988773Y-96924804D01*
X148012572Y-96930765D01*
X148035671Y-96939030D01*
X148057850Y-96949520D01*
X148078893Y-96962132D01*
X148098599Y-96976747D01*
X148116777Y-96993223D01*
X148133253Y-97011401D01*
X148147868Y-97031107D01*
X148160480Y-97052150D01*
X148170970Y-97074329D01*
X148179235Y-97097428D01*
X148185196Y-97121227D01*
X148188796Y-97145495D01*
X148190000Y-97169999D01*
X148190000Y-98410001D01*
X148188796Y-98434505D01*
X148185196Y-98458773D01*
X148179235Y-98482572D01*
X148170970Y-98505671D01*
X148160480Y-98527850D01*
X148147868Y-98548893D01*
X148133253Y-98568599D01*
X148116777Y-98586777D01*
X148098599Y-98603253D01*
X148078893Y-98617868D01*
X148057850Y-98630480D01*
X148035671Y-98640970D01*
X148012572Y-98649235D01*
X147988773Y-98655196D01*
X147964505Y-98658796D01*
X147940001Y-98660000D01*
X146699999Y-98660000D01*
X146675495Y-98658796D01*
X146651227Y-98655196D01*
X146627428Y-98649235D01*
X146604329Y-98640970D01*
X146582150Y-98630480D01*
X146561107Y-98617868D01*
X146541401Y-98603253D01*
X146523223Y-98586777D01*
X146506747Y-98568599D01*
X146492132Y-98548893D01*
X146479520Y-98527850D01*
X146469030Y-98505671D01*
X146460765Y-98482572D01*
X146454804Y-98458773D01*
X146451204Y-98434505D01*
X146450000Y-98410001D01*
X146450000Y-97169999D01*
X146451204Y-97145495D01*
X146454804Y-97121227D01*
X146460765Y-97097428D01*
X146469030Y-97074329D01*
X146479520Y-97052150D01*
X146492132Y-97031107D01*
X146506747Y-97011401D01*
X146523223Y-96993223D01*
X146541401Y-96976747D01*
X146561107Y-96962132D01*
X146582150Y-96949520D01*
X146604329Y-96939030D01*
X146627428Y-96930765D01*
X146651227Y-96924804D01*
X146675495Y-96921204D01*
X146699999Y-96920000D01*
X147940001Y-96920000D01*
X147964505Y-96921204D01*
G37*
G04 #@! TD.AperFunction*
D20*
X157480000Y-100330000D03*
G04 #@! TA.AperFunction,ComponentPad*
D21*
G36*
X158124505Y-96921204D02*
G01*
X158148773Y-96924804D01*
X158172572Y-96930765D01*
X158195671Y-96939030D01*
X158217850Y-96949520D01*
X158238893Y-96962132D01*
X158258599Y-96976747D01*
X158276777Y-96993223D01*
X158293253Y-97011401D01*
X158307868Y-97031107D01*
X158320480Y-97052150D01*
X158330970Y-97074329D01*
X158339235Y-97097428D01*
X158345196Y-97121227D01*
X158348796Y-97145495D01*
X158350000Y-97169999D01*
X158350000Y-98410001D01*
X158348796Y-98434505D01*
X158345196Y-98458773D01*
X158339235Y-98482572D01*
X158330970Y-98505671D01*
X158320480Y-98527850D01*
X158307868Y-98548893D01*
X158293253Y-98568599D01*
X158276777Y-98586777D01*
X158258599Y-98603253D01*
X158238893Y-98617868D01*
X158217850Y-98630480D01*
X158195671Y-98640970D01*
X158172572Y-98649235D01*
X158148773Y-98655196D01*
X158124505Y-98658796D01*
X158100001Y-98660000D01*
X156859999Y-98660000D01*
X156835495Y-98658796D01*
X156811227Y-98655196D01*
X156787428Y-98649235D01*
X156764329Y-98640970D01*
X156742150Y-98630480D01*
X156721107Y-98617868D01*
X156701401Y-98603253D01*
X156683223Y-98586777D01*
X156666747Y-98568599D01*
X156652132Y-98548893D01*
X156639520Y-98527850D01*
X156629030Y-98505671D01*
X156620765Y-98482572D01*
X156614804Y-98458773D01*
X156611204Y-98434505D01*
X156610000Y-98410001D01*
X156610000Y-97169999D01*
X156611204Y-97145495D01*
X156614804Y-97121227D01*
X156620765Y-97097428D01*
X156629030Y-97074329D01*
X156639520Y-97052150D01*
X156652132Y-97031107D01*
X156666747Y-97011401D01*
X156683223Y-96993223D01*
X156701401Y-96976747D01*
X156721107Y-96962132D01*
X156742150Y-96949520D01*
X156764329Y-96939030D01*
X156787428Y-96930765D01*
X156811227Y-96924804D01*
X156835495Y-96921204D01*
X156859999Y-96920000D01*
X158100001Y-96920000D01*
X158124505Y-96921204D01*
G37*
G04 #@! TD.AperFunction*
D22*
X111760000Y-97790000D03*
D23*
X111760000Y-92710000D03*
D10*
X110490000Y-72390000D03*
X113030000Y-72390000D03*
X115570000Y-72390000D03*
X118110000Y-72390000D03*
X120650000Y-72390000D03*
X123190000Y-72390000D03*
X125730000Y-72390000D03*
X128270000Y-72390000D03*
X130810000Y-72390000D03*
X133350000Y-72390000D03*
X135890000Y-72390000D03*
X138430000Y-72390000D03*
X138430000Y-87630000D03*
X135890000Y-87630000D03*
X133350000Y-87630000D03*
X130810000Y-87630000D03*
X128270000Y-87630000D03*
X125730000Y-87630000D03*
X123190000Y-87630000D03*
X120650000Y-87630000D03*
X118110000Y-87630000D03*
X115570000Y-87630000D03*
X113030000Y-87630000D03*
X110490000Y-87630000D03*
D24*
X156210000Y-138430000D03*
X156210000Y-140970000D03*
G04 #@! TA.AperFunction,ComponentPad*
D21*
G36*
X157084505Y-142641204D02*
G01*
X157108773Y-142644804D01*
X157132572Y-142650765D01*
X157155671Y-142659030D01*
X157177850Y-142669520D01*
X157198893Y-142682132D01*
X157218599Y-142696747D01*
X157236777Y-142713223D01*
X157253253Y-142731401D01*
X157267868Y-142751107D01*
X157280480Y-142772150D01*
X157290970Y-142794329D01*
X157299235Y-142817428D01*
X157305196Y-142841227D01*
X157308796Y-142865495D01*
X157310000Y-142889999D01*
X157310000Y-144130001D01*
X157308796Y-144154505D01*
X157305196Y-144178773D01*
X157299235Y-144202572D01*
X157290970Y-144225671D01*
X157280480Y-144247850D01*
X157267868Y-144268893D01*
X157253253Y-144288599D01*
X157236777Y-144306777D01*
X157218599Y-144323253D01*
X157198893Y-144337868D01*
X157177850Y-144350480D01*
X157155671Y-144360970D01*
X157132572Y-144369235D01*
X157108773Y-144375196D01*
X157084505Y-144378796D01*
X157060001Y-144380000D01*
X155359999Y-144380000D01*
X155335495Y-144378796D01*
X155311227Y-144375196D01*
X155287428Y-144369235D01*
X155264329Y-144360970D01*
X155242150Y-144350480D01*
X155221107Y-144337868D01*
X155201401Y-144323253D01*
X155183223Y-144306777D01*
X155166747Y-144288599D01*
X155152132Y-144268893D01*
X155139520Y-144247850D01*
X155129030Y-144225671D01*
X155120765Y-144202572D01*
X155114804Y-144178773D01*
X155111204Y-144154505D01*
X155110000Y-144130001D01*
X155110000Y-142889999D01*
X155111204Y-142865495D01*
X155114804Y-142841227D01*
X155120765Y-142817428D01*
X155129030Y-142794329D01*
X155139520Y-142772150D01*
X155152132Y-142751107D01*
X155166747Y-142731401D01*
X155183223Y-142713223D01*
X155201401Y-142696747D01*
X155221107Y-142682132D01*
X155242150Y-142669520D01*
X155264329Y-142659030D01*
X155287428Y-142650765D01*
X155311227Y-142644804D01*
X155335495Y-142641204D01*
X155359999Y-142640000D01*
X157060001Y-142640000D01*
X157084505Y-142641204D01*
G37*
G04 #@! TD.AperFunction*
D24*
X146050000Y-138430000D03*
X146050000Y-140970000D03*
G04 #@! TA.AperFunction,ComponentPad*
D21*
G36*
X146924505Y-142641204D02*
G01*
X146948773Y-142644804D01*
X146972572Y-142650765D01*
X146995671Y-142659030D01*
X147017850Y-142669520D01*
X147038893Y-142682132D01*
X147058599Y-142696747D01*
X147076777Y-142713223D01*
X147093253Y-142731401D01*
X147107868Y-142751107D01*
X147120480Y-142772150D01*
X147130970Y-142794329D01*
X147139235Y-142817428D01*
X147145196Y-142841227D01*
X147148796Y-142865495D01*
X147150000Y-142889999D01*
X147150000Y-144130001D01*
X147148796Y-144154505D01*
X147145196Y-144178773D01*
X147139235Y-144202572D01*
X147130970Y-144225671D01*
X147120480Y-144247850D01*
X147107868Y-144268893D01*
X147093253Y-144288599D01*
X147076777Y-144306777D01*
X147058599Y-144323253D01*
X147038893Y-144337868D01*
X147017850Y-144350480D01*
X146995671Y-144360970D01*
X146972572Y-144369235D01*
X146948773Y-144375196D01*
X146924505Y-144378796D01*
X146900001Y-144380000D01*
X145199999Y-144380000D01*
X145175495Y-144378796D01*
X145151227Y-144375196D01*
X145127428Y-144369235D01*
X145104329Y-144360970D01*
X145082150Y-144350480D01*
X145061107Y-144337868D01*
X145041401Y-144323253D01*
X145023223Y-144306777D01*
X145006747Y-144288599D01*
X144992132Y-144268893D01*
X144979520Y-144247850D01*
X144969030Y-144225671D01*
X144960765Y-144202572D01*
X144954804Y-144178773D01*
X144951204Y-144154505D01*
X144950000Y-144130001D01*
X144950000Y-142889999D01*
X144951204Y-142865495D01*
X144954804Y-142841227D01*
X144960765Y-142817428D01*
X144969030Y-142794329D01*
X144979520Y-142772150D01*
X144992132Y-142751107D01*
X145006747Y-142731401D01*
X145023223Y-142713223D01*
X145041401Y-142696747D01*
X145061107Y-142682132D01*
X145082150Y-142669520D01*
X145104329Y-142659030D01*
X145127428Y-142650765D01*
X145151227Y-142644804D01*
X145175495Y-142641204D01*
X145199999Y-142640000D01*
X146900001Y-142640000D01*
X146924505Y-142641204D01*
G37*
G04 #@! TD.AperFunction*
D25*
X111760000Y-133350000D03*
X111760000Y-130810000D03*
X111760000Y-128270000D03*
D26*
X111760000Y-125730000D03*
D25*
X111760000Y-110490000D03*
X111760000Y-107950000D03*
X111760000Y-105410000D03*
D26*
X111760000Y-102870000D03*
D27*
X111760000Y-114300000D03*
X114300000Y-116840000D03*
X114300000Y-139700000D03*
X111760000Y-137160000D03*
X107950000Y-120650000D03*
X107950000Y-143510000D03*
X106680000Y-138430000D03*
X106680000Y-115570000D03*
X116840000Y-100330000D03*
X116840000Y-123190000D03*
X114300000Y-125730000D03*
X114300000Y-102870000D03*
X138430000Y-101600000D03*
X130810000Y-97790000D03*
X153670000Y-88900000D03*
X149860000Y-73660000D03*
X149860000Y-76200000D03*
X157480000Y-73660000D03*
X157480000Y-76200000D03*
X149860000Y-80010000D03*
X149860000Y-85090000D03*
X157480000Y-85090000D03*
X157480000Y-80010000D03*
X153670000Y-80010000D03*
X153670000Y-85090000D03*
X153670000Y-82550000D03*
X157480000Y-82550000D03*
X149860000Y-82550000D03*
X115570000Y-85090000D03*
X113030000Y-74930000D03*
X118110000Y-85090000D03*
X160020000Y-97790000D03*
X149860000Y-97790000D03*
X144780000Y-97790000D03*
X157480000Y-95250000D03*
X148590000Y-143510000D03*
X143510000Y-143510000D03*
X153670000Y-143510000D03*
X158750000Y-143510000D03*
X144780000Y-80010000D03*
X144780000Y-82550000D03*
X114300000Y-91440000D03*
X109220000Y-91440000D03*
X109220000Y-95250000D03*
X111760000Y-90170000D03*
X142240000Y-100330000D03*
X134620000Y-96520000D03*
X113030000Y-83820000D03*
X115570000Y-81280000D03*
D28*
X127635000Y-83820000D03*
D27*
X136525000Y-83820000D03*
X136525000Y-76200000D03*
X122555000Y-95885000D03*
X122555000Y-103505000D03*
X122555000Y-113030000D03*
X122555000Y-116840000D03*
X122555000Y-120650000D03*
X122555000Y-125730000D03*
X122555000Y-130810000D03*
X122555000Y-135890000D03*
X122555000Y-139700000D03*
X134620000Y-111760000D03*
X134620000Y-126365000D03*
X106680000Y-125730000D03*
X106680000Y-128270000D03*
X106680000Y-130810000D03*
X106680000Y-133350000D03*
X106680000Y-102870000D03*
X106680000Y-105410000D03*
X106680000Y-107950000D03*
X106680000Y-110490000D03*
X118110000Y-78740000D03*
X120650000Y-76200000D03*
X111125000Y-81915000D03*
X113665000Y-79375000D03*
X116205000Y-76835000D03*
X118745000Y-74295000D03*
X110490000Y-77470000D03*
X107950000Y-80010000D03*
X120015000Y-82550000D03*
X122555000Y-80010000D03*
X125095000Y-77470000D03*
X142240000Y-81280000D03*
X147320000Y-81280000D03*
X147320000Y-95250000D03*
X144145000Y-107950000D03*
X144145000Y-115570000D03*
X144145000Y-123190000D03*
X144145000Y-130810000D03*
X132715000Y-140970000D03*
X141605000Y-140970000D03*
X137160000Y-135890000D03*
X119380000Y-140970000D03*
X113665000Y-123190000D03*
X111125000Y-144145000D03*
X142875000Y-94615000D03*
X137795000Y-94615000D03*
X140970000Y-111760000D03*
X140970000Y-127000000D03*
X116840000Y-97155000D03*
X118745000Y-95250000D03*
X118745000Y-99060000D03*
X118745000Y-104140000D03*
X118745000Y-128905000D03*
X118745000Y-131445000D03*
D28*
X120015000Y-115570000D03*
X120015000Y-138430000D03*
X120650000Y-110490000D03*
X120650000Y-133350000D03*
X121285000Y-118110000D03*
X121285000Y-140970000D03*
D29*
X147320000Y-100330000D02*
X157480000Y-100330000D01*
D30*
X115940001Y-104510001D02*
X116840000Y-105410000D01*
X115489999Y-98474157D02*
X115489999Y-104059999D01*
X112265842Y-95250000D02*
X115489999Y-98474157D01*
X110889998Y-95250000D02*
X112265842Y-95250000D01*
X107869999Y-92230001D02*
X110889998Y-95250000D01*
X115489999Y-104059999D02*
X115940001Y-104510001D01*
X118110000Y-72390000D02*
X107950000Y-82550000D01*
X107869999Y-92230001D02*
X107869999Y-82630001D01*
D31*
X129169999Y-71490001D02*
X128270000Y-72390000D01*
X129495001Y-71164999D02*
X129169999Y-71490001D01*
X139018001Y-71164999D02*
X129495001Y-71164999D01*
X139655001Y-71801999D02*
X139018001Y-71164999D01*
X139655001Y-88218001D02*
X139655001Y-71801999D01*
X132623002Y-95250000D02*
X139655001Y-88218001D01*
X130810000Y-95250000D02*
X132623002Y-95250000D01*
X138430000Y-99060000D02*
X140105011Y-97384989D01*
X139204401Y-70714989D02*
X127405011Y-70714989D01*
X140105011Y-97384989D02*
X140105010Y-71615598D01*
X140105010Y-71615598D02*
X139204401Y-70714989D01*
X126629999Y-71490001D02*
X125730000Y-72390000D01*
X127405011Y-70714989D02*
X126629999Y-71490001D01*
X120015000Y-115570000D02*
X120015000Y-115570000D01*
X120015000Y-116840000D02*
X120015000Y-115570000D01*
X120009989Y-118692401D02*
X120009989Y-116845011D01*
X120009989Y-116845011D02*
X120015000Y-116840000D01*
X120015000Y-133936002D02*
X119824999Y-133746001D01*
X120015000Y-118697412D02*
X120009989Y-118692401D01*
X120015000Y-138430000D02*
X120015000Y-138430000D01*
X119824999Y-133746001D02*
X119824999Y-132905001D01*
X119824999Y-132905001D02*
X120015000Y-132715000D01*
X120015000Y-132715000D02*
X120015000Y-118697412D01*
X120015000Y-111125000D02*
X120015000Y-115570000D01*
X114344999Y-88218001D02*
X115661998Y-89535000D01*
X125823997Y-73615001D02*
X114344999Y-85093999D01*
X114344999Y-85093999D02*
X114344999Y-88218001D01*
X130810000Y-72390000D02*
X129584999Y-73615001D01*
X115661998Y-89535000D02*
X119378590Y-89535000D01*
X119378590Y-89535000D02*
X120015000Y-90171410D01*
X120015000Y-90171410D02*
X120015000Y-109855000D01*
X120015000Y-111076002D02*
X120015000Y-111125000D01*
X129584999Y-73615001D02*
X125823997Y-73615001D01*
X120015000Y-109855000D02*
X119824999Y-110045001D01*
X119824999Y-110045001D02*
X119824999Y-110886001D01*
X119824999Y-110886001D02*
X120015000Y-111076002D01*
X120015000Y-115570000D02*
X120015000Y-115570000D01*
X120015000Y-138430000D02*
X120015000Y-133936002D01*
X120840001Y-115125001D02*
X120650000Y-114935000D01*
X120840001Y-115966001D02*
X120840001Y-115125001D01*
X120650000Y-118696002D02*
X120459999Y-118506001D01*
X120650000Y-116156002D02*
X120840001Y-115966001D01*
X120459999Y-118506001D02*
X120459999Y-117665001D01*
X120650000Y-133350000D02*
X120650000Y-133350000D01*
X120650000Y-114935000D02*
X120650000Y-110490000D01*
X120459999Y-117665001D02*
X120650000Y-117475000D01*
X120650000Y-117475000D02*
X120650000Y-116156002D01*
X120650000Y-110490000D02*
X120650000Y-110490000D01*
X116884999Y-87041999D02*
X116884999Y-88218001D01*
X116884999Y-88218001D02*
X117566998Y-88900000D01*
X117521999Y-86404999D02*
X116884999Y-87041999D01*
X133350000Y-72390000D02*
X119335001Y-86404999D01*
X119335001Y-86404999D02*
X117521999Y-86404999D01*
X119380000Y-88900000D02*
X120650000Y-90170000D01*
X117566998Y-88900000D02*
X119380000Y-88900000D01*
X120650000Y-90170000D02*
X120650000Y-109220000D01*
X120650000Y-110490000D02*
X120650000Y-109220000D01*
X120650000Y-133350000D02*
X120650000Y-118696002D01*
X121285000Y-132715000D02*
X121285000Y-118110000D01*
X121475001Y-133746001D02*
X121475001Y-132905001D01*
X121475001Y-132905001D02*
X121285000Y-132715000D01*
X121285000Y-140970000D02*
X121285000Y-140970000D01*
X121285000Y-133936002D02*
X121475001Y-133746001D01*
X121290011Y-111130011D02*
X121475001Y-110945021D01*
X121290011Y-116199989D02*
X121290011Y-111130011D01*
X134990001Y-73289999D02*
X135890000Y-72390000D01*
X121475001Y-110945021D02*
X121475001Y-110045001D01*
X134664999Y-73615001D02*
X134990001Y-73289999D01*
X121285000Y-116205000D02*
X121290011Y-116199989D01*
X132851997Y-73615001D02*
X134664999Y-73615001D01*
X121285000Y-118110000D02*
X121285000Y-116205000D01*
X121475001Y-110045001D02*
X121285000Y-109855000D01*
X121285000Y-90078002D02*
X119380000Y-88173002D01*
X121285000Y-109855000D02*
X121285000Y-90078002D01*
X119380000Y-87086998D02*
X132851997Y-73615001D01*
X119380000Y-88173002D02*
X119380000Y-87086998D01*
X121285000Y-118110000D02*
X121285000Y-118110000D01*
X121285000Y-140970000D02*
X121285000Y-133936002D01*
X137530001Y-88529999D02*
X138430000Y-87630000D01*
X129540000Y-102870000D02*
X128270000Y-101600000D01*
X128270000Y-96420998D02*
X135835997Y-88855001D01*
X128270000Y-101600000D02*
X128270000Y-96420998D01*
X135835997Y-88855001D02*
X137204999Y-88855001D01*
X137204999Y-88855001D02*
X137530001Y-88529999D01*
X127635000Y-95885000D02*
X135890000Y-87630000D01*
X129540000Y-105410000D02*
X127635000Y-103505000D01*
X127635000Y-103505000D02*
X127635000Y-95885000D01*
X127000000Y-93980000D02*
X133350000Y-87630000D01*
X129540000Y-113030000D02*
X127000000Y-110490000D01*
X127000000Y-110490000D02*
X127000000Y-93980000D01*
X126365000Y-92075000D02*
X130810000Y-87630000D01*
X129540000Y-120650000D02*
X126365000Y-117475000D01*
X126365000Y-117475000D02*
X126365000Y-92075000D01*
X129540000Y-125730000D02*
X125730000Y-121920000D01*
X125730000Y-90170000D02*
X128270000Y-87630000D01*
X125730000Y-121920000D02*
X125730000Y-90170000D01*
X129540000Y-128270000D02*
X125095000Y-123825000D01*
X125095000Y-123825000D02*
X125095000Y-116840000D01*
X125095000Y-116840000D02*
X125095000Y-116205000D01*
X125095000Y-116205000D02*
X125095000Y-93980000D01*
X125095000Y-93980000D02*
X125095000Y-89535000D01*
X125730000Y-87630000D02*
X125730000Y-88900000D01*
X125730000Y-88900000D02*
X125095000Y-89535000D01*
X129540000Y-135890000D02*
X124460000Y-130810000D01*
X124460000Y-88900000D02*
X123190000Y-87630000D01*
X124460000Y-130810000D02*
X124460000Y-88900000D01*
X120650000Y-87630000D02*
X123825000Y-90805000D01*
X123825000Y-137795000D02*
X129540000Y-143510000D01*
X123825000Y-90805000D02*
X123825000Y-137795000D01*
D32*
G36*
X126138930Y-70906269D02*
G01*
X125881184Y-70855000D01*
X125578816Y-70855000D01*
X125282257Y-70913989D01*
X125002905Y-71029701D01*
X124751495Y-71197688D01*
X124537688Y-71411495D01*
X124460000Y-71527763D01*
X124382312Y-71411495D01*
X124168505Y-71197688D01*
X123917095Y-71029701D01*
X123637743Y-70913989D01*
X123341184Y-70855000D01*
X123038816Y-70855000D01*
X122742257Y-70913989D01*
X122462905Y-71029701D01*
X122211495Y-71197688D01*
X121997688Y-71411495D01*
X121920000Y-71527763D01*
X121842312Y-71411495D01*
X121628505Y-71197688D01*
X121377095Y-71029701D01*
X121097743Y-70913989D01*
X120801184Y-70855000D01*
X120498816Y-70855000D01*
X120202257Y-70913989D01*
X119922905Y-71029701D01*
X119671495Y-71197688D01*
X119457688Y-71411495D01*
X119380000Y-71527763D01*
X119302312Y-71411495D01*
X119088505Y-71197688D01*
X118837095Y-71029701D01*
X118557743Y-70913989D01*
X118261184Y-70855000D01*
X117958816Y-70855000D01*
X117662257Y-70913989D01*
X117382905Y-71029701D01*
X117131495Y-71197688D01*
X116917688Y-71411495D01*
X116840000Y-71527763D01*
X116762312Y-71411495D01*
X116548505Y-71197688D01*
X116297095Y-71029701D01*
X116017743Y-70913989D01*
X115721184Y-70855000D01*
X115418816Y-70855000D01*
X115122257Y-70913989D01*
X114842905Y-71029701D01*
X114591495Y-71197688D01*
X114377688Y-71411495D01*
X114275049Y-71565105D01*
X114094080Y-71505525D01*
X113209605Y-72390000D01*
X114094080Y-73274475D01*
X114275049Y-73214895D01*
X114377688Y-73368505D01*
X114591495Y-73582312D01*
X114842905Y-73750299D01*
X115122257Y-73866011D01*
X115339248Y-73909173D01*
X107293468Y-81954954D01*
X107285121Y-81965124D01*
X107241183Y-82001184D01*
X107130589Y-82135942D01*
X107048411Y-82289688D01*
X106997805Y-82456511D01*
X106985000Y-82586524D01*
X106984999Y-92186532D01*
X106980718Y-92230001D01*
X106984999Y-92273470D01*
X106984999Y-92273477D01*
X106995795Y-92383089D01*
X106997804Y-92403491D01*
X107008879Y-92440000D01*
X107048410Y-92570313D01*
X107130588Y-92724059D01*
X107241182Y-92858818D01*
X107274955Y-92886535D01*
X110233468Y-95845049D01*
X110261181Y-95878817D01*
X110294949Y-95906530D01*
X110294951Y-95906532D01*
X110395939Y-95989411D01*
X110549684Y-96071589D01*
X110716508Y-96122195D01*
X110765863Y-96127056D01*
X110526509Y-96286987D01*
X110256987Y-96556509D01*
X110045225Y-96873434D01*
X109899361Y-97225581D01*
X109825000Y-97599419D01*
X109825000Y-97980581D01*
X109899361Y-98354419D01*
X110045225Y-98706566D01*
X110256987Y-99023491D01*
X110526509Y-99293013D01*
X110843434Y-99504775D01*
X111195581Y-99650639D01*
X111569419Y-99725000D01*
X111950581Y-99725000D01*
X112324419Y-99650639D01*
X112676566Y-99504775D01*
X112993491Y-99293013D01*
X113263013Y-99023491D01*
X113474775Y-98706566D01*
X113620639Y-98354419D01*
X113695000Y-97980581D01*
X113695000Y-97930737D01*
X114604999Y-98840736D01*
X114605000Y-104016520D01*
X114600718Y-104059999D01*
X114617804Y-104233489D01*
X114668411Y-104400312D01*
X114750589Y-104554058D01*
X114833467Y-104655045D01*
X114833470Y-104655048D01*
X114861183Y-104688816D01*
X114894951Y-104716529D01*
X115326940Y-105148518D01*
X115305000Y-105258816D01*
X115305000Y-105561184D01*
X115363989Y-105857743D01*
X115479701Y-106137095D01*
X115647688Y-106388505D01*
X115861495Y-106602312D01*
X115977763Y-106680000D01*
X115861495Y-106757688D01*
X115647688Y-106971495D01*
X115479701Y-107222905D01*
X115363989Y-107502257D01*
X115305000Y-107798816D01*
X115305000Y-108101184D01*
X115363989Y-108397743D01*
X115479701Y-108677095D01*
X115647688Y-108928505D01*
X115861495Y-109142312D01*
X115977763Y-109220000D01*
X115861495Y-109297688D01*
X115647688Y-109511495D01*
X115479701Y-109762905D01*
X115363989Y-110042257D01*
X115305000Y-110338816D01*
X115305000Y-110641184D01*
X115363989Y-110937743D01*
X115479701Y-111217095D01*
X115647688Y-111468505D01*
X115861495Y-111682312D01*
X115977763Y-111760000D01*
X115861495Y-111837688D01*
X115647688Y-112051495D01*
X115479701Y-112302905D01*
X115363989Y-112582257D01*
X115305000Y-112878816D01*
X115305000Y-113181184D01*
X115363989Y-113477743D01*
X115479701Y-113757095D01*
X115647688Y-114008505D01*
X115861495Y-114222312D01*
X115977763Y-114300000D01*
X115861495Y-114377688D01*
X115647688Y-114591495D01*
X115479701Y-114842905D01*
X115363989Y-115122257D01*
X115305000Y-115418816D01*
X115305000Y-115721184D01*
X115363989Y-116017743D01*
X115479701Y-116297095D01*
X115647688Y-116548505D01*
X115861495Y-116762312D01*
X116015105Y-116864951D01*
X115955525Y-117045920D01*
X116840000Y-117930395D01*
X117724475Y-117045920D01*
X117664895Y-116864951D01*
X117818505Y-116762312D01*
X118032312Y-116548505D01*
X118200299Y-116297095D01*
X118316011Y-116017743D01*
X118375000Y-115721184D01*
X118375000Y-115418816D01*
X118316011Y-115122257D01*
X118200299Y-114842905D01*
X118032312Y-114591495D01*
X117818505Y-114377688D01*
X117702237Y-114300000D01*
X117818505Y-114222312D01*
X118032312Y-114008505D01*
X118200299Y-113757095D01*
X118316011Y-113477743D01*
X118375000Y-113181184D01*
X118375000Y-112878816D01*
X118316011Y-112582257D01*
X118200299Y-112302905D01*
X118032312Y-112051495D01*
X117818505Y-111837688D01*
X117702237Y-111760000D01*
X117818505Y-111682312D01*
X118032312Y-111468505D01*
X118200299Y-111217095D01*
X118316011Y-110937743D01*
X118375000Y-110641184D01*
X118375000Y-110338816D01*
X118316011Y-110042257D01*
X118200299Y-109762905D01*
X118032312Y-109511495D01*
X117818505Y-109297688D01*
X117702237Y-109220000D01*
X117818505Y-109142312D01*
X118032312Y-108928505D01*
X118200299Y-108677095D01*
X118316011Y-108397743D01*
X118375000Y-108101184D01*
X118375000Y-107798816D01*
X118316011Y-107502257D01*
X118200299Y-107222905D01*
X118032312Y-106971495D01*
X117818505Y-106757688D01*
X117702237Y-106680000D01*
X117818505Y-106602312D01*
X118032312Y-106388505D01*
X118200299Y-106137095D01*
X118316011Y-105857743D01*
X118375000Y-105561184D01*
X118375000Y-105258816D01*
X118316011Y-104962257D01*
X118200299Y-104682905D01*
X118032312Y-104431495D01*
X117818505Y-104217688D01*
X117664895Y-104115049D01*
X117724475Y-103934080D01*
X116840000Y-103049605D01*
X116825858Y-103063748D01*
X116646253Y-102884143D01*
X116660395Y-102870000D01*
X117019605Y-102870000D01*
X117904080Y-103754475D01*
X118158261Y-103670792D01*
X118289158Y-103398225D01*
X118364365Y-103105358D01*
X118380991Y-102803447D01*
X118338397Y-102504093D01*
X118238222Y-102218801D01*
X118158261Y-102069208D01*
X117904080Y-101985525D01*
X117019605Y-102870000D01*
X116660395Y-102870000D01*
X116646253Y-102855858D01*
X116825858Y-102676253D01*
X116840000Y-102690395D01*
X117724475Y-101805920D01*
X117640792Y-101551739D01*
X117368225Y-101420842D01*
X117075358Y-101345635D01*
X116773447Y-101329009D01*
X116474093Y-101371603D01*
X116374999Y-101406398D01*
X116374999Y-98517626D01*
X116379280Y-98474157D01*
X116374999Y-98430688D01*
X116374999Y-98430680D01*
X116362194Y-98300667D01*
X116311633Y-98133991D01*
X116311588Y-98133843D01*
X116229410Y-97980098D01*
X116146531Y-97879110D01*
X116146529Y-97879108D01*
X116118816Y-97845340D01*
X116085049Y-97817628D01*
X112922376Y-94654956D01*
X112916369Y-94647637D01*
X113060000Y-94648072D01*
X113184482Y-94635812D01*
X113304180Y-94599502D01*
X113414494Y-94540537D01*
X113511185Y-94461185D01*
X113590537Y-94364494D01*
X113649502Y-94254180D01*
X113685812Y-94134482D01*
X113698072Y-94010000D01*
X113695000Y-92995750D01*
X113536250Y-92837000D01*
X111887000Y-92837000D01*
X111887000Y-92857000D01*
X111633000Y-92857000D01*
X111633000Y-92837000D01*
X109983750Y-92837000D01*
X109856163Y-92964587D01*
X108754999Y-91863423D01*
X108754999Y-91410000D01*
X109821928Y-91410000D01*
X109825000Y-92424250D01*
X109983750Y-92583000D01*
X111633000Y-92583000D01*
X111633000Y-90933750D01*
X111887000Y-90933750D01*
X111887000Y-92583000D01*
X113536250Y-92583000D01*
X113695000Y-92424250D01*
X113698072Y-91410000D01*
X113685812Y-91285518D01*
X113649502Y-91165820D01*
X113590537Y-91055506D01*
X113511185Y-90958815D01*
X113414494Y-90879463D01*
X113304180Y-90820498D01*
X113184482Y-90784188D01*
X113060000Y-90771928D01*
X112045750Y-90775000D01*
X111887000Y-90933750D01*
X111633000Y-90933750D01*
X111474250Y-90775000D01*
X110460000Y-90771928D01*
X110335518Y-90784188D01*
X110215820Y-90820498D01*
X110105506Y-90879463D01*
X110008815Y-90958815D01*
X109929463Y-91055506D01*
X109870498Y-91165820D01*
X109834188Y-91285518D01*
X109821928Y-91410000D01*
X108754999Y-91410000D01*
X108754999Y-82996579D01*
X117848518Y-73903061D01*
X117958816Y-73925000D01*
X118261184Y-73925000D01*
X118557743Y-73866011D01*
X118837095Y-73750299D01*
X119088505Y-73582312D01*
X119302312Y-73368505D01*
X119380000Y-73252237D01*
X119457688Y-73368505D01*
X119671495Y-73582312D01*
X119922905Y-73750299D01*
X120202257Y-73866011D01*
X120498816Y-73925000D01*
X120801184Y-73925000D01*
X121097743Y-73866011D01*
X121377095Y-73750299D01*
X121628505Y-73582312D01*
X121842312Y-73368505D01*
X121920000Y-73252237D01*
X121997688Y-73368505D01*
X122211495Y-73582312D01*
X122462905Y-73750299D01*
X122742257Y-73866011D01*
X123038816Y-73925000D01*
X123341184Y-73925000D01*
X123637743Y-73866011D01*
X123917095Y-73750299D01*
X124168505Y-73582312D01*
X124382312Y-73368505D01*
X124460000Y-73252237D01*
X124537688Y-73368505D01*
X124751495Y-73582312D01*
X124769712Y-73594484D01*
X113834002Y-84530195D01*
X113804998Y-84553998D01*
X113749870Y-84621173D01*
X113710025Y-84669723D01*
X113639454Y-84801752D01*
X113639453Y-84801753D01*
X113595996Y-84945014D01*
X113584999Y-85056667D01*
X113584999Y-85056677D01*
X113581323Y-85093999D01*
X113584999Y-85131322D01*
X113584999Y-86198416D01*
X113477743Y-86153989D01*
X113181184Y-86095000D01*
X112878816Y-86095000D01*
X112582257Y-86153989D01*
X112302905Y-86269701D01*
X112051495Y-86437688D01*
X111837688Y-86651495D01*
X111760000Y-86767763D01*
X111682312Y-86651495D01*
X111468505Y-86437688D01*
X111217095Y-86269701D01*
X110937743Y-86153989D01*
X110641184Y-86095000D01*
X110338816Y-86095000D01*
X110042257Y-86153989D01*
X109762905Y-86269701D01*
X109511495Y-86437688D01*
X109297688Y-86651495D01*
X109129701Y-86902905D01*
X109013989Y-87182257D01*
X108955000Y-87478816D01*
X108955000Y-87781184D01*
X109013989Y-88077743D01*
X109129701Y-88357095D01*
X109297688Y-88608505D01*
X109511495Y-88822312D01*
X109762905Y-88990299D01*
X110042257Y-89106011D01*
X110338816Y-89165000D01*
X110641184Y-89165000D01*
X110937743Y-89106011D01*
X111217095Y-88990299D01*
X111468505Y-88822312D01*
X111682312Y-88608505D01*
X111760000Y-88492237D01*
X111837688Y-88608505D01*
X112051495Y-88822312D01*
X112302905Y-88990299D01*
X112582257Y-89106011D01*
X112878816Y-89165000D01*
X113181184Y-89165000D01*
X113477743Y-89106011D01*
X113757095Y-88990299D01*
X113928180Y-88875983D01*
X115098198Y-90046002D01*
X115121997Y-90075001D01*
X115237722Y-90169974D01*
X115369751Y-90240546D01*
X115513012Y-90284003D01*
X115624665Y-90295000D01*
X115624675Y-90295000D01*
X115661998Y-90298676D01*
X115699321Y-90295000D01*
X119063789Y-90295000D01*
X119255000Y-90486212D01*
X119255001Y-109541552D01*
X119237601Y-109562754D01*
X119190025Y-109620725D01*
X119177437Y-109644276D01*
X119119453Y-109752755D01*
X119075996Y-109896016D01*
X119064999Y-110007669D01*
X119064999Y-110007679D01*
X119061323Y-110045001D01*
X119064999Y-110082323D01*
X119064999Y-110848679D01*
X119061323Y-110886001D01*
X119064999Y-110923323D01*
X119064999Y-110923334D01*
X119075506Y-111030001D01*
X119075997Y-111034986D01*
X119119453Y-111178247D01*
X119190025Y-111310277D01*
X119238462Y-111369297D01*
X119255000Y-111389448D01*
X119255001Y-114866288D01*
X119211063Y-114910226D01*
X119097795Y-115079744D01*
X119019774Y-115268102D01*
X118980000Y-115468061D01*
X118980000Y-115671939D01*
X119019774Y-115871898D01*
X119097795Y-116060256D01*
X119211063Y-116229774D01*
X119255000Y-116273711D01*
X119255000Y-116756811D01*
X119246313Y-116845011D01*
X119249990Y-116882343D01*
X119249989Y-118655078D01*
X119246313Y-118692401D01*
X119249989Y-118729723D01*
X119249989Y-118729733D01*
X119255001Y-118780620D01*
X119255000Y-132401554D01*
X119190025Y-132480725D01*
X119119453Y-132612755D01*
X119089179Y-132712559D01*
X119075997Y-132756015D01*
X119064999Y-132867668D01*
X119064999Y-132867679D01*
X119061323Y-132905001D01*
X119064999Y-132942323D01*
X119064999Y-133708679D01*
X119061323Y-133746001D01*
X119064999Y-133783323D01*
X119064999Y-133783333D01*
X119075996Y-133894986D01*
X119103293Y-133984974D01*
X119119453Y-134038247D01*
X119190025Y-134170277D01*
X119229870Y-134218827D01*
X119255001Y-134249450D01*
X119255000Y-137726289D01*
X119211063Y-137770226D01*
X119097795Y-137939744D01*
X119019774Y-138128102D01*
X118980000Y-138328061D01*
X118980000Y-138531939D01*
X119019774Y-138731898D01*
X119097795Y-138920256D01*
X119211063Y-139089774D01*
X119355226Y-139233937D01*
X119524744Y-139347205D01*
X119713102Y-139425226D01*
X119913061Y-139465000D01*
X120116939Y-139465000D01*
X120316898Y-139425226D01*
X120505256Y-139347205D01*
X120525000Y-139334012D01*
X120525000Y-140266289D01*
X120481063Y-140310226D01*
X120367795Y-140479744D01*
X120289774Y-140668102D01*
X120250000Y-140868061D01*
X120250000Y-141071939D01*
X120289774Y-141271898D01*
X120367795Y-141460256D01*
X120481063Y-141629774D01*
X120625226Y-141773937D01*
X120794744Y-141887205D01*
X120983102Y-141965226D01*
X121183061Y-142005000D01*
X121386939Y-142005000D01*
X121586898Y-141965226D01*
X121775256Y-141887205D01*
X121944774Y-141773937D01*
X122088937Y-141629774D01*
X122202205Y-141460256D01*
X122280226Y-141271898D01*
X122320000Y-141071939D01*
X122320000Y-140868061D01*
X122280226Y-140668102D01*
X122202205Y-140479744D01*
X122088937Y-140310226D01*
X122045000Y-140266289D01*
X122045000Y-134249449D01*
X122109975Y-134170277D01*
X122180547Y-134038248D01*
X122224004Y-133894987D01*
X122235001Y-133783334D01*
X122235001Y-133783324D01*
X122238677Y-133746001D01*
X122235001Y-133708679D01*
X122235001Y-132942323D01*
X122238677Y-132905001D01*
X122235001Y-132867678D01*
X122235001Y-132867668D01*
X122224004Y-132756015D01*
X122180547Y-132612754D01*
X122109975Y-132480725D01*
X122045000Y-132401553D01*
X122045000Y-118813711D01*
X122088937Y-118769774D01*
X122202205Y-118600256D01*
X122280226Y-118411898D01*
X122320000Y-118211939D01*
X122320000Y-118008061D01*
X122280226Y-117808102D01*
X122202205Y-117619744D01*
X122088937Y-117450226D01*
X122045000Y-117406289D01*
X122045000Y-116288199D01*
X122050011Y-116237322D01*
X122050011Y-116237321D01*
X122053688Y-116199989D01*
X122050011Y-116162656D01*
X122050011Y-111442363D01*
X122109975Y-111369297D01*
X122180547Y-111237268D01*
X122224004Y-111094007D01*
X122235001Y-110982354D01*
X122235001Y-110982345D01*
X122238677Y-110945022D01*
X122235001Y-110907699D01*
X122235001Y-110082323D01*
X122238677Y-110045001D01*
X122235001Y-110007678D01*
X122235001Y-110007668D01*
X122224004Y-109896015D01*
X122180547Y-109752754D01*
X122109975Y-109620725D01*
X122045000Y-109541553D01*
X122045000Y-90115325D01*
X122046392Y-90101193D01*
X123065000Y-91119802D01*
X123065001Y-137757667D01*
X123061324Y-137795000D01*
X123075998Y-137943985D01*
X123119454Y-138087246D01*
X123190026Y-138219276D01*
X123238890Y-138278816D01*
X123285000Y-138335001D01*
X123313998Y-138358799D01*
X128056269Y-143101070D01*
X128005000Y-143358816D01*
X128005000Y-143661184D01*
X128063989Y-143957743D01*
X128179701Y-144237095D01*
X128347688Y-144488505D01*
X128561495Y-144702312D01*
X128812905Y-144870299D01*
X129092257Y-144986011D01*
X129388816Y-145045000D01*
X129691184Y-145045000D01*
X129987743Y-144986011D01*
X130267095Y-144870299D01*
X130518505Y-144702312D01*
X130732312Y-144488505D01*
X130804812Y-144380000D01*
X144311928Y-144380000D01*
X144324188Y-144504482D01*
X144360498Y-144624180D01*
X144419463Y-144734494D01*
X144498815Y-144831185D01*
X144595506Y-144910537D01*
X144705820Y-144969502D01*
X144825518Y-145005812D01*
X144950000Y-145018072D01*
X145764250Y-145015000D01*
X145923000Y-144856250D01*
X145923000Y-143637000D01*
X146177000Y-143637000D01*
X146177000Y-144856250D01*
X146335750Y-145015000D01*
X147150000Y-145018072D01*
X147274482Y-145005812D01*
X147394180Y-144969502D01*
X147504494Y-144910537D01*
X147601185Y-144831185D01*
X147680537Y-144734494D01*
X147739502Y-144624180D01*
X147775812Y-144504482D01*
X147788072Y-144380000D01*
X154471928Y-144380000D01*
X154484188Y-144504482D01*
X154520498Y-144624180D01*
X154579463Y-144734494D01*
X154658815Y-144831185D01*
X154755506Y-144910537D01*
X154865820Y-144969502D01*
X154985518Y-145005812D01*
X155110000Y-145018072D01*
X155924250Y-145015000D01*
X156083000Y-144856250D01*
X156083000Y-143637000D01*
X156337000Y-143637000D01*
X156337000Y-144856250D01*
X156495750Y-145015000D01*
X157310000Y-145018072D01*
X157434482Y-145005812D01*
X157554180Y-144969502D01*
X157664494Y-144910537D01*
X157761185Y-144831185D01*
X157840537Y-144734494D01*
X157899502Y-144624180D01*
X157935812Y-144504482D01*
X157948072Y-144380000D01*
X157945000Y-143795750D01*
X157786250Y-143637000D01*
X156337000Y-143637000D01*
X156083000Y-143637000D01*
X154633750Y-143637000D01*
X154475000Y-143795750D01*
X154471928Y-144380000D01*
X147788072Y-144380000D01*
X147785000Y-143795750D01*
X147626250Y-143637000D01*
X146177000Y-143637000D01*
X145923000Y-143637000D01*
X144473750Y-143637000D01*
X144315000Y-143795750D01*
X144311928Y-144380000D01*
X130804812Y-144380000D01*
X130900299Y-144237095D01*
X131016011Y-143957743D01*
X131075000Y-143661184D01*
X131075000Y-143358816D01*
X131038069Y-143173148D01*
X135136457Y-143173148D01*
X135412627Y-143591118D01*
X135957557Y-143881649D01*
X136548696Y-144060287D01*
X137163328Y-144120168D01*
X137777831Y-144058990D01*
X138368592Y-143879103D01*
X138907373Y-143591118D01*
X139183543Y-143173148D01*
X137160000Y-141149605D01*
X135136457Y-143173148D01*
X131038069Y-143173148D01*
X131016011Y-143062257D01*
X130900299Y-142782905D01*
X130732312Y-142531495D01*
X130518505Y-142317688D01*
X130402237Y-142240000D01*
X130518505Y-142162312D01*
X130732312Y-141948505D01*
X130900299Y-141697095D01*
X131016011Y-141417743D01*
X131075000Y-141121184D01*
X131075000Y-140973328D01*
X134009832Y-140973328D01*
X134071010Y-141587831D01*
X134250897Y-142178592D01*
X134538882Y-142717373D01*
X134956852Y-142993543D01*
X136980395Y-140970000D01*
X137339605Y-140970000D01*
X139363148Y-142993543D01*
X139781118Y-142717373D01*
X140071649Y-142172443D01*
X140250287Y-141581304D01*
X140310168Y-140966672D01*
X140248990Y-140352169D01*
X140069103Y-139761408D01*
X139781118Y-139222627D01*
X139363148Y-138946457D01*
X137339605Y-140970000D01*
X136980395Y-140970000D01*
X134956852Y-138946457D01*
X134538882Y-139222627D01*
X134248351Y-139767557D01*
X134069713Y-140358696D01*
X134009832Y-140973328D01*
X131075000Y-140973328D01*
X131075000Y-140818816D01*
X131016011Y-140522257D01*
X130900299Y-140242905D01*
X130732312Y-139991495D01*
X130518505Y-139777688D01*
X130402237Y-139700000D01*
X130518505Y-139622312D01*
X130732312Y-139408505D01*
X130900299Y-139157095D01*
X131016011Y-138877743D01*
X131038068Y-138766852D01*
X135136457Y-138766852D01*
X137160000Y-140790395D01*
X139183543Y-138766852D01*
X138960972Y-138430000D01*
X144307718Y-138430000D01*
X144336776Y-138725032D01*
X144422834Y-139008725D01*
X144562583Y-139270179D01*
X144750655Y-139499345D01*
X144979821Y-139687417D01*
X145003362Y-139700000D01*
X144979821Y-139712583D01*
X144750655Y-139900655D01*
X144562583Y-140129821D01*
X144422834Y-140391275D01*
X144336776Y-140674968D01*
X144307718Y-140970000D01*
X144336776Y-141265032D01*
X144422834Y-141548725D01*
X144562583Y-141810179D01*
X144749047Y-142037385D01*
X144705820Y-142050498D01*
X144595506Y-142109463D01*
X144498815Y-142188815D01*
X144419463Y-142285506D01*
X144360498Y-142395820D01*
X144324188Y-142515518D01*
X144311928Y-142640000D01*
X144315000Y-143224250D01*
X144473750Y-143383000D01*
X145923000Y-143383000D01*
X145923000Y-143363000D01*
X146177000Y-143363000D01*
X146177000Y-143383000D01*
X147626250Y-143383000D01*
X147785000Y-143224250D01*
X147788072Y-142640000D01*
X147775812Y-142515518D01*
X147739502Y-142395820D01*
X147680537Y-142285506D01*
X147601185Y-142188815D01*
X147504494Y-142109463D01*
X147394180Y-142050498D01*
X147350953Y-142037385D01*
X147537417Y-141810179D01*
X147677166Y-141548725D01*
X147763224Y-141265032D01*
X147792282Y-140970000D01*
X147763224Y-140674968D01*
X147677166Y-140391275D01*
X147537417Y-140129821D01*
X147349345Y-139900655D01*
X147120179Y-139712583D01*
X147096638Y-139700000D01*
X147120179Y-139687417D01*
X147349345Y-139499345D01*
X147537417Y-139270179D01*
X147677166Y-139008725D01*
X147763224Y-138725032D01*
X147792282Y-138430000D01*
X154467718Y-138430000D01*
X154496776Y-138725032D01*
X154582834Y-139008725D01*
X154722583Y-139270179D01*
X154910655Y-139499345D01*
X155139821Y-139687417D01*
X155163362Y-139700000D01*
X155139821Y-139712583D01*
X154910655Y-139900655D01*
X154722583Y-140129821D01*
X154582834Y-140391275D01*
X154496776Y-140674968D01*
X154467718Y-140970000D01*
X154496776Y-141265032D01*
X154582834Y-141548725D01*
X154722583Y-141810179D01*
X154909047Y-142037385D01*
X154865820Y-142050498D01*
X154755506Y-142109463D01*
X154658815Y-142188815D01*
X154579463Y-142285506D01*
X154520498Y-142395820D01*
X154484188Y-142515518D01*
X154471928Y-142640000D01*
X154475000Y-143224250D01*
X154633750Y-143383000D01*
X156083000Y-143383000D01*
X156083000Y-143363000D01*
X156337000Y-143363000D01*
X156337000Y-143383000D01*
X157786250Y-143383000D01*
X157945000Y-143224250D01*
X157948072Y-142640000D01*
X157935812Y-142515518D01*
X157899502Y-142395820D01*
X157840537Y-142285506D01*
X157761185Y-142188815D01*
X157664494Y-142109463D01*
X157554180Y-142050498D01*
X157510953Y-142037385D01*
X157697417Y-141810179D01*
X157837166Y-141548725D01*
X157923224Y-141265032D01*
X157952282Y-140970000D01*
X157923224Y-140674968D01*
X157837166Y-140391275D01*
X157697417Y-140129821D01*
X157509345Y-139900655D01*
X157280179Y-139712583D01*
X157256638Y-139700000D01*
X157280179Y-139687417D01*
X157509345Y-139499345D01*
X157697417Y-139270179D01*
X157837166Y-139008725D01*
X157923224Y-138725032D01*
X157952282Y-138430000D01*
X157923224Y-138134968D01*
X157837166Y-137851275D01*
X157697417Y-137589821D01*
X157509345Y-137360655D01*
X157280179Y-137172583D01*
X157018725Y-137032834D01*
X156735032Y-136946776D01*
X156513936Y-136925000D01*
X155906064Y-136925000D01*
X155684968Y-136946776D01*
X155401275Y-137032834D01*
X155139821Y-137172583D01*
X154910655Y-137360655D01*
X154722583Y-137589821D01*
X154582834Y-137851275D01*
X154496776Y-138134968D01*
X154467718Y-138430000D01*
X147792282Y-138430000D01*
X147763224Y-138134968D01*
X147677166Y-137851275D01*
X147537417Y-137589821D01*
X147349345Y-137360655D01*
X147120179Y-137172583D01*
X146858725Y-137032834D01*
X146575032Y-136946776D01*
X146353936Y-136925000D01*
X145746064Y-136925000D01*
X145524968Y-136946776D01*
X145241275Y-137032834D01*
X144979821Y-137172583D01*
X144750655Y-137360655D01*
X144562583Y-137589821D01*
X144422834Y-137851275D01*
X144336776Y-138134968D01*
X144307718Y-138430000D01*
X138960972Y-138430000D01*
X138907373Y-138348882D01*
X138362443Y-138058351D01*
X137771304Y-137879713D01*
X137156672Y-137819832D01*
X136542169Y-137881010D01*
X135951408Y-138060897D01*
X135412627Y-138348882D01*
X135136457Y-138766852D01*
X131038068Y-138766852D01*
X131075000Y-138581184D01*
X131075000Y-138278816D01*
X131016011Y-137982257D01*
X130900299Y-137702905D01*
X130732312Y-137451495D01*
X130518505Y-137237688D01*
X130402237Y-137160000D01*
X130518505Y-137082312D01*
X130732312Y-136868505D01*
X130900299Y-136617095D01*
X131016011Y-136337743D01*
X131075000Y-136041184D01*
X131075000Y-135738816D01*
X131016011Y-135442257D01*
X130900299Y-135162905D01*
X130732312Y-134911495D01*
X130518505Y-134697688D01*
X130402237Y-134620000D01*
X130518505Y-134542312D01*
X130732312Y-134328505D01*
X130900299Y-134077095D01*
X131016011Y-133797743D01*
X131075000Y-133501184D01*
X131075000Y-133198816D01*
X131016011Y-132902257D01*
X130900299Y-132622905D01*
X130732312Y-132371495D01*
X130518505Y-132157688D01*
X130402237Y-132080000D01*
X130518505Y-132002312D01*
X130732312Y-131788505D01*
X130900299Y-131537095D01*
X131016011Y-131257743D01*
X131075000Y-130961184D01*
X131075000Y-130658816D01*
X131016011Y-130362257D01*
X130900299Y-130082905D01*
X130732312Y-129831495D01*
X130518505Y-129617688D01*
X130432170Y-129560000D01*
X132731928Y-129560000D01*
X132731928Y-132060000D01*
X132744188Y-132184482D01*
X132780498Y-132304180D01*
X132839463Y-132414494D01*
X132918815Y-132511185D01*
X133015506Y-132590537D01*
X133125820Y-132649502D01*
X133245518Y-132685812D01*
X133370000Y-132698072D01*
X135870000Y-132698072D01*
X135994482Y-132685812D01*
X136114180Y-132649502D01*
X136224494Y-132590537D01*
X136321185Y-132511185D01*
X136400537Y-132414494D01*
X136459502Y-132304180D01*
X136495812Y-132184482D01*
X136508072Y-132060000D01*
X136508072Y-130624344D01*
X147735000Y-130624344D01*
X147735000Y-130995656D01*
X147807439Y-131359834D01*
X147949534Y-131702882D01*
X148155825Y-132011618D01*
X148418382Y-132274175D01*
X148727118Y-132480466D01*
X149070166Y-132622561D01*
X149434344Y-132695000D01*
X149805656Y-132695000D01*
X150169834Y-132622561D01*
X150512882Y-132480466D01*
X150821618Y-132274175D01*
X151084175Y-132011618D01*
X151290466Y-131702882D01*
X151432561Y-131359834D01*
X151505000Y-130995656D01*
X151505000Y-130624344D01*
X152735000Y-130624344D01*
X152735000Y-130995656D01*
X152807439Y-131359834D01*
X152949534Y-131702882D01*
X153155825Y-132011618D01*
X153418382Y-132274175D01*
X153727118Y-132480466D01*
X154070166Y-132622561D01*
X154434344Y-132695000D01*
X154805656Y-132695000D01*
X155169834Y-132622561D01*
X155512882Y-132480466D01*
X155821618Y-132274175D01*
X156084175Y-132011618D01*
X156290466Y-131702882D01*
X156432561Y-131359834D01*
X156505000Y-130995656D01*
X156505000Y-130624344D01*
X156432561Y-130260166D01*
X156290466Y-129917118D01*
X156084175Y-129608382D01*
X155821618Y-129345825D01*
X155512882Y-129139534D01*
X155169834Y-128997439D01*
X154805656Y-128925000D01*
X154434344Y-128925000D01*
X154070166Y-128997439D01*
X153727118Y-129139534D01*
X153418382Y-129345825D01*
X153155825Y-129608382D01*
X152949534Y-129917118D01*
X152807439Y-130260166D01*
X152735000Y-130624344D01*
X151505000Y-130624344D01*
X151432561Y-130260166D01*
X151290466Y-129917118D01*
X151084175Y-129608382D01*
X150821618Y-129345825D01*
X150512882Y-129139534D01*
X150169834Y-128997439D01*
X149805656Y-128925000D01*
X149434344Y-128925000D01*
X149070166Y-128997439D01*
X148727118Y-129139534D01*
X148418382Y-129345825D01*
X148155825Y-129608382D01*
X147949534Y-129917118D01*
X147807439Y-130260166D01*
X147735000Y-130624344D01*
X136508072Y-130624344D01*
X136508072Y-129560000D01*
X136495812Y-129435518D01*
X136459502Y-129315820D01*
X136400537Y-129205506D01*
X136321185Y-129108815D01*
X136224494Y-129029463D01*
X136114180Y-128970498D01*
X135994482Y-128934188D01*
X135870000Y-128921928D01*
X133370000Y-128921928D01*
X133245518Y-128934188D01*
X133125820Y-128970498D01*
X133015506Y-129029463D01*
X132918815Y-129108815D01*
X132839463Y-129205506D01*
X132780498Y-129315820D01*
X132744188Y-129435518D01*
X132731928Y-129560000D01*
X130432170Y-129560000D01*
X130402237Y-129540000D01*
X130518505Y-129462312D01*
X130732312Y-129248505D01*
X130900299Y-128997095D01*
X131016011Y-128717743D01*
X131075000Y-128421184D01*
X131075000Y-128118816D01*
X131016011Y-127822257D01*
X130900299Y-127542905D01*
X130732312Y-127291495D01*
X130518505Y-127077688D01*
X130402237Y-127000000D01*
X130518505Y-126922312D01*
X130732312Y-126708505D01*
X130900299Y-126457095D01*
X131016011Y-126177743D01*
X131075000Y-125881184D01*
X131075000Y-125578816D01*
X131016011Y-125282257D01*
X130900299Y-125002905D01*
X130732312Y-124751495D01*
X130518505Y-124537688D01*
X130267095Y-124369701D01*
X129987743Y-124253989D01*
X129691184Y-124195000D01*
X129388816Y-124195000D01*
X129131070Y-124246269D01*
X128009145Y-123124344D01*
X132735000Y-123124344D01*
X132735000Y-123495656D01*
X132807439Y-123859834D01*
X132949534Y-124202882D01*
X133155825Y-124511618D01*
X133418382Y-124774175D01*
X133727118Y-124980466D01*
X134070166Y-125122561D01*
X134434344Y-125195000D01*
X134805656Y-125195000D01*
X135169834Y-125122561D01*
X135512882Y-124980466D01*
X135821618Y-124774175D01*
X136084175Y-124511618D01*
X136290466Y-124202882D01*
X136432561Y-123859834D01*
X136505000Y-123495656D01*
X136505000Y-123124344D01*
X147735000Y-123124344D01*
X147735000Y-123495656D01*
X147807439Y-123859834D01*
X147949534Y-124202882D01*
X148155825Y-124511618D01*
X148418382Y-124774175D01*
X148727118Y-124980466D01*
X149070166Y-125122561D01*
X149434344Y-125195000D01*
X149805656Y-125195000D01*
X150169834Y-125122561D01*
X150512882Y-124980466D01*
X150821618Y-124774175D01*
X151084175Y-124511618D01*
X151290466Y-124202882D01*
X151432561Y-123859834D01*
X151505000Y-123495656D01*
X151505000Y-123124344D01*
X152735000Y-123124344D01*
X152735000Y-123495656D01*
X152807439Y-123859834D01*
X152949534Y-124202882D01*
X153155825Y-124511618D01*
X153418382Y-124774175D01*
X153727118Y-124980466D01*
X154070166Y-125122561D01*
X154434344Y-125195000D01*
X154805656Y-125195000D01*
X155169834Y-125122561D01*
X155512882Y-124980466D01*
X155821618Y-124774175D01*
X156084175Y-124511618D01*
X156290466Y-124202882D01*
X156432561Y-123859834D01*
X156505000Y-123495656D01*
X156505000Y-123124344D01*
X156432561Y-122760166D01*
X156290466Y-122417118D01*
X156084175Y-122108382D01*
X155821618Y-121845825D01*
X155512882Y-121639534D01*
X155169834Y-121497439D01*
X154805656Y-121425000D01*
X154434344Y-121425000D01*
X154070166Y-121497439D01*
X153727118Y-121639534D01*
X153418382Y-121845825D01*
X153155825Y-122108382D01*
X152949534Y-122417118D01*
X152807439Y-122760166D01*
X152735000Y-123124344D01*
X151505000Y-123124344D01*
X151432561Y-122760166D01*
X151290466Y-122417118D01*
X151084175Y-122108382D01*
X150821618Y-121845825D01*
X150512882Y-121639534D01*
X150169834Y-121497439D01*
X149805656Y-121425000D01*
X149434344Y-121425000D01*
X149070166Y-121497439D01*
X148727118Y-121639534D01*
X148418382Y-121845825D01*
X148155825Y-122108382D01*
X147949534Y-122417118D01*
X147807439Y-122760166D01*
X147735000Y-123124344D01*
X136505000Y-123124344D01*
X136432561Y-122760166D01*
X136290466Y-122417118D01*
X136084175Y-122108382D01*
X135821618Y-121845825D01*
X135512882Y-121639534D01*
X135169834Y-121497439D01*
X134805656Y-121425000D01*
X134434344Y-121425000D01*
X134070166Y-121497439D01*
X133727118Y-121639534D01*
X133418382Y-121845825D01*
X133155825Y-122108382D01*
X132949534Y-122417118D01*
X132807439Y-122760166D01*
X132735000Y-123124344D01*
X128009145Y-123124344D01*
X126490000Y-121605199D01*
X126490000Y-118674801D01*
X128056269Y-120241070D01*
X128005000Y-120498816D01*
X128005000Y-120801184D01*
X128063989Y-121097743D01*
X128179701Y-121377095D01*
X128347688Y-121628505D01*
X128561495Y-121842312D01*
X128812905Y-122010299D01*
X129092257Y-122126011D01*
X129388816Y-122185000D01*
X129691184Y-122185000D01*
X129987743Y-122126011D01*
X130267095Y-122010299D01*
X130518505Y-121842312D01*
X130732312Y-121628505D01*
X130900299Y-121377095D01*
X131016011Y-121097743D01*
X131075000Y-120801184D01*
X131075000Y-120498816D01*
X131016011Y-120202257D01*
X130900299Y-119922905D01*
X130732312Y-119671495D01*
X130518505Y-119457688D01*
X130402237Y-119380000D01*
X130518505Y-119302312D01*
X130732312Y-119088505D01*
X130900299Y-118837095D01*
X131016011Y-118557743D01*
X131075000Y-118261184D01*
X131075000Y-117958816D01*
X131016011Y-117662257D01*
X130900299Y-117382905D01*
X130732312Y-117131495D01*
X130518505Y-116917688D01*
X130402237Y-116840000D01*
X130518505Y-116762312D01*
X130732312Y-116548505D01*
X130900299Y-116297095D01*
X131016011Y-116017743D01*
X131075000Y-115721184D01*
X131075000Y-115418816D01*
X131016011Y-115122257D01*
X130900299Y-114842905D01*
X130732312Y-114591495D01*
X130518505Y-114377688D01*
X130432170Y-114320000D01*
X132731928Y-114320000D01*
X132731928Y-116820000D01*
X132744188Y-116944482D01*
X132780498Y-117064180D01*
X132839463Y-117174494D01*
X132918815Y-117271185D01*
X133015506Y-117350537D01*
X133125820Y-117409502D01*
X133245518Y-117445812D01*
X133370000Y-117458072D01*
X135870000Y-117458072D01*
X135994482Y-117445812D01*
X136114180Y-117409502D01*
X136224494Y-117350537D01*
X136321185Y-117271185D01*
X136400537Y-117174494D01*
X136459502Y-117064180D01*
X136495812Y-116944482D01*
X136508072Y-116820000D01*
X136508072Y-115384344D01*
X147735000Y-115384344D01*
X147735000Y-115755656D01*
X147807439Y-116119834D01*
X147949534Y-116462882D01*
X148155825Y-116771618D01*
X148418382Y-117034175D01*
X148727118Y-117240466D01*
X149070166Y-117382561D01*
X149434344Y-117455000D01*
X149805656Y-117455000D01*
X150169834Y-117382561D01*
X150512882Y-117240466D01*
X150821618Y-117034175D01*
X151084175Y-116771618D01*
X151290466Y-116462882D01*
X151432561Y-116119834D01*
X151505000Y-115755656D01*
X151505000Y-115384344D01*
X152735000Y-115384344D01*
X152735000Y-115755656D01*
X152807439Y-116119834D01*
X152949534Y-116462882D01*
X153155825Y-116771618D01*
X153418382Y-117034175D01*
X153727118Y-117240466D01*
X154070166Y-117382561D01*
X154434344Y-117455000D01*
X154805656Y-117455000D01*
X155169834Y-117382561D01*
X155512882Y-117240466D01*
X155821618Y-117034175D01*
X156084175Y-116771618D01*
X156290466Y-116462882D01*
X156432561Y-116119834D01*
X156505000Y-115755656D01*
X156505000Y-115384344D01*
X156432561Y-115020166D01*
X156290466Y-114677118D01*
X156084175Y-114368382D01*
X155821618Y-114105825D01*
X155512882Y-113899534D01*
X155169834Y-113757439D01*
X154805656Y-113685000D01*
X154434344Y-113685000D01*
X154070166Y-113757439D01*
X153727118Y-113899534D01*
X153418382Y-114105825D01*
X153155825Y-114368382D01*
X152949534Y-114677118D01*
X152807439Y-115020166D01*
X152735000Y-115384344D01*
X151505000Y-115384344D01*
X151432561Y-115020166D01*
X151290466Y-114677118D01*
X151084175Y-114368382D01*
X150821618Y-114105825D01*
X150512882Y-113899534D01*
X150169834Y-113757439D01*
X149805656Y-113685000D01*
X149434344Y-113685000D01*
X149070166Y-113757439D01*
X148727118Y-113899534D01*
X148418382Y-114105825D01*
X148155825Y-114368382D01*
X147949534Y-114677118D01*
X147807439Y-115020166D01*
X147735000Y-115384344D01*
X136508072Y-115384344D01*
X136508072Y-114320000D01*
X136495812Y-114195518D01*
X136459502Y-114075820D01*
X136400537Y-113965506D01*
X136321185Y-113868815D01*
X136224494Y-113789463D01*
X136114180Y-113730498D01*
X135994482Y-113694188D01*
X135870000Y-113681928D01*
X133370000Y-113681928D01*
X133245518Y-113694188D01*
X133125820Y-113730498D01*
X133015506Y-113789463D01*
X132918815Y-113868815D01*
X132839463Y-113965506D01*
X132780498Y-114075820D01*
X132744188Y-114195518D01*
X132731928Y-114320000D01*
X130432170Y-114320000D01*
X130402237Y-114300000D01*
X130518505Y-114222312D01*
X130732312Y-114008505D01*
X130900299Y-113757095D01*
X131016011Y-113477743D01*
X131075000Y-113181184D01*
X131075000Y-112878816D01*
X131016011Y-112582257D01*
X130900299Y-112302905D01*
X130732312Y-112051495D01*
X130518505Y-111837688D01*
X130402237Y-111760000D01*
X130518505Y-111682312D01*
X130732312Y-111468505D01*
X130900299Y-111217095D01*
X131016011Y-110937743D01*
X131075000Y-110641184D01*
X131075000Y-110338816D01*
X131016011Y-110042257D01*
X130900299Y-109762905D01*
X130732312Y-109511495D01*
X130518505Y-109297688D01*
X130402237Y-109220000D01*
X130518505Y-109142312D01*
X130732312Y-108928505D01*
X130900299Y-108677095D01*
X131016011Y-108397743D01*
X131075000Y-108101184D01*
X131075000Y-107884344D01*
X132735000Y-107884344D01*
X132735000Y-108255656D01*
X132807439Y-108619834D01*
X132949534Y-108962882D01*
X133155825Y-109271618D01*
X133418382Y-109534175D01*
X133727118Y-109740466D01*
X134070166Y-109882561D01*
X134434344Y-109955000D01*
X134805656Y-109955000D01*
X135169834Y-109882561D01*
X135512882Y-109740466D01*
X135821618Y-109534175D01*
X136084175Y-109271618D01*
X136290466Y-108962882D01*
X136432561Y-108619834D01*
X136505000Y-108255656D01*
X136505000Y-107884344D01*
X147735000Y-107884344D01*
X147735000Y-108255656D01*
X147807439Y-108619834D01*
X147949534Y-108962882D01*
X148155825Y-109271618D01*
X148418382Y-109534175D01*
X148727118Y-109740466D01*
X149070166Y-109882561D01*
X149434344Y-109955000D01*
X149805656Y-109955000D01*
X150169834Y-109882561D01*
X150512882Y-109740466D01*
X150821618Y-109534175D01*
X151084175Y-109271618D01*
X151290466Y-108962882D01*
X151432561Y-108619834D01*
X151505000Y-108255656D01*
X151505000Y-107884344D01*
X152735000Y-107884344D01*
X152735000Y-108255656D01*
X152807439Y-108619834D01*
X152949534Y-108962882D01*
X153155825Y-109271618D01*
X153418382Y-109534175D01*
X153727118Y-109740466D01*
X154070166Y-109882561D01*
X154434344Y-109955000D01*
X154805656Y-109955000D01*
X155169834Y-109882561D01*
X155512882Y-109740466D01*
X155821618Y-109534175D01*
X156084175Y-109271618D01*
X156290466Y-108962882D01*
X156432561Y-108619834D01*
X156505000Y-108255656D01*
X156505000Y-107884344D01*
X156432561Y-107520166D01*
X156290466Y-107177118D01*
X156084175Y-106868382D01*
X155821618Y-106605825D01*
X155512882Y-106399534D01*
X155169834Y-106257439D01*
X154805656Y-106185000D01*
X154434344Y-106185000D01*
X154070166Y-106257439D01*
X153727118Y-106399534D01*
X153418382Y-106605825D01*
X153155825Y-106868382D01*
X152949534Y-107177118D01*
X152807439Y-107520166D01*
X152735000Y-107884344D01*
X151505000Y-107884344D01*
X151432561Y-107520166D01*
X151290466Y-107177118D01*
X151084175Y-106868382D01*
X150821618Y-106605825D01*
X150512882Y-106399534D01*
X150169834Y-106257439D01*
X149805656Y-106185000D01*
X149434344Y-106185000D01*
X149070166Y-106257439D01*
X148727118Y-106399534D01*
X148418382Y-106605825D01*
X148155825Y-106868382D01*
X147949534Y-107177118D01*
X147807439Y-107520166D01*
X147735000Y-107884344D01*
X136505000Y-107884344D01*
X136432561Y-107520166D01*
X136290466Y-107177118D01*
X136084175Y-106868382D01*
X135821618Y-106605825D01*
X135512882Y-106399534D01*
X135169834Y-106257439D01*
X134805656Y-106185000D01*
X134434344Y-106185000D01*
X134070166Y-106257439D01*
X133727118Y-106399534D01*
X133418382Y-106605825D01*
X133155825Y-106868382D01*
X132949534Y-107177118D01*
X132807439Y-107520166D01*
X132735000Y-107884344D01*
X131075000Y-107884344D01*
X131075000Y-107798816D01*
X131016011Y-107502257D01*
X130900299Y-107222905D01*
X130732312Y-106971495D01*
X130518505Y-106757688D01*
X130402237Y-106680000D01*
X130518505Y-106602312D01*
X130732312Y-106388505D01*
X130900299Y-106137095D01*
X131016011Y-105857743D01*
X131075000Y-105561184D01*
X131075000Y-105258816D01*
X131016011Y-104962257D01*
X130900299Y-104682905D01*
X130732312Y-104431495D01*
X130518505Y-104217688D01*
X130402237Y-104140000D01*
X130518505Y-104062312D01*
X130732312Y-103848505D01*
X130900299Y-103597095D01*
X131016011Y-103317743D01*
X131075000Y-103021184D01*
X131075000Y-102718816D01*
X131016011Y-102422257D01*
X130900299Y-102142905D01*
X130732312Y-101891495D01*
X130518505Y-101677688D01*
X130267095Y-101509701D01*
X129987743Y-101393989D01*
X129691184Y-101335000D01*
X129388816Y-101335000D01*
X129131070Y-101386269D01*
X129030000Y-101285199D01*
X129030000Y-97645506D01*
X129179764Y-97707540D01*
X129418363Y-97755000D01*
X129661637Y-97755000D01*
X129900236Y-97707540D01*
X130124992Y-97614443D01*
X130327267Y-97479287D01*
X130499287Y-97307267D01*
X130634443Y-97104992D01*
X130710046Y-96922471D01*
X130785604Y-97104907D01*
X130920742Y-97307174D01*
X131092744Y-97479191D01*
X131295000Y-97614346D01*
X131519737Y-97707446D01*
X131758319Y-97754913D01*
X131953000Y-97599994D01*
X131953000Y-96647000D01*
X132207000Y-96647000D01*
X132207000Y-97599994D01*
X132401681Y-97754913D01*
X132640263Y-97707446D01*
X132865000Y-97614346D01*
X133067256Y-97479191D01*
X133239258Y-97307174D01*
X133374396Y-97104907D01*
X133467477Y-96880162D01*
X133473462Y-96837609D01*
X133348731Y-96647000D01*
X132207000Y-96647000D01*
X131953000Y-96647000D01*
X131933000Y-96647000D01*
X131933000Y-96393000D01*
X131953000Y-96393000D01*
X131953000Y-96373000D01*
X132207000Y-96373000D01*
X132207000Y-96393000D01*
X133348731Y-96393000D01*
X133473462Y-96202391D01*
X133467477Y-96159838D01*
X133374396Y-95935093D01*
X133239258Y-95732826D01*
X133227118Y-95720685D01*
X139345011Y-89602792D01*
X139345012Y-97070186D01*
X138583801Y-97831398D01*
X138551637Y-97825000D01*
X138308363Y-97825000D01*
X138069764Y-97872460D01*
X137845008Y-97965557D01*
X137642733Y-98100713D01*
X137470713Y-98272733D01*
X137335557Y-98475008D01*
X137242460Y-98699764D01*
X137195000Y-98938363D01*
X137195000Y-99095000D01*
X137038363Y-99095000D01*
X136799764Y-99142460D01*
X136575008Y-99235557D01*
X136372733Y-99370713D01*
X136200713Y-99542733D01*
X136065557Y-99745008D01*
X135972460Y-99969764D01*
X135925000Y-100208363D01*
X135925000Y-100451637D01*
X135972460Y-100690236D01*
X136065557Y-100914992D01*
X136200713Y-101117267D01*
X136372733Y-101289287D01*
X136575008Y-101424443D01*
X136799764Y-101517540D01*
X137038363Y-101565000D01*
X137281637Y-101565000D01*
X137520236Y-101517540D01*
X137744992Y-101424443D01*
X137947267Y-101289287D01*
X138119287Y-101117267D01*
X138254443Y-100914992D01*
X138330046Y-100732471D01*
X138405604Y-100914907D01*
X138540742Y-101117174D01*
X138712744Y-101289191D01*
X138915000Y-101424346D01*
X139139737Y-101517446D01*
X139378319Y-101564913D01*
X139573000Y-101409994D01*
X139573000Y-100457000D01*
X139827000Y-100457000D01*
X139827000Y-101409994D01*
X140021681Y-101564913D01*
X140260263Y-101517446D01*
X140485000Y-101424346D01*
X140687256Y-101289191D01*
X140859258Y-101117174D01*
X140994396Y-100914907D01*
X141087477Y-100690162D01*
X141093462Y-100647609D01*
X140968731Y-100457000D01*
X139827000Y-100457000D01*
X139573000Y-100457000D01*
X139553000Y-100457000D01*
X139553000Y-100203000D01*
X139573000Y-100203000D01*
X139573000Y-99527765D01*
X139617540Y-99420236D01*
X139651400Y-99250006D01*
X139827000Y-99250006D01*
X139827000Y-100203000D01*
X140968731Y-100203000D01*
X141093462Y-100012391D01*
X141087477Y-99969838D01*
X140994396Y-99745093D01*
X140859258Y-99542826D01*
X140687256Y-99370809D01*
X140485000Y-99235654D01*
X140260263Y-99142554D01*
X140021681Y-99095087D01*
X139827000Y-99250006D01*
X139651400Y-99250006D01*
X139665000Y-99181637D01*
X139665000Y-98938363D01*
X139658602Y-98906199D01*
X139904801Y-98660000D01*
X145811928Y-98660000D01*
X145824188Y-98784482D01*
X145860498Y-98904180D01*
X145919463Y-99014494D01*
X145998815Y-99111185D01*
X146095506Y-99190537D01*
X146205820Y-99249502D01*
X146256678Y-99264930D01*
X146150990Y-99370618D01*
X145986286Y-99617115D01*
X145872836Y-99891008D01*
X145815000Y-100181770D01*
X145815000Y-100478230D01*
X145872836Y-100768992D01*
X145986286Y-101042885D01*
X146150990Y-101289382D01*
X146360618Y-101499010D01*
X146607115Y-101663714D01*
X146881008Y-101777164D01*
X147171770Y-101835000D01*
X147468230Y-101835000D01*
X147758992Y-101777164D01*
X148032885Y-101663714D01*
X148279382Y-101499010D01*
X148313392Y-101465000D01*
X156486608Y-101465000D01*
X156520618Y-101499010D01*
X156767115Y-101663714D01*
X157041008Y-101777164D01*
X157331770Y-101835000D01*
X157628230Y-101835000D01*
X157918992Y-101777164D01*
X158192885Y-101663714D01*
X158439382Y-101499010D01*
X158649010Y-101289382D01*
X158813714Y-101042885D01*
X158927164Y-100768992D01*
X158985000Y-100478230D01*
X158985000Y-100181770D01*
X158927164Y-99891008D01*
X158813714Y-99617115D01*
X158649010Y-99370618D01*
X158543322Y-99264930D01*
X158594180Y-99249502D01*
X158704494Y-99190537D01*
X158801185Y-99111185D01*
X158880537Y-99014494D01*
X158939502Y-98904180D01*
X158975812Y-98784482D01*
X158988072Y-98660000D01*
X158985000Y-98075750D01*
X158826250Y-97917000D01*
X157607000Y-97917000D01*
X157607000Y-97937000D01*
X157353000Y-97937000D01*
X157353000Y-97917000D01*
X156133750Y-97917000D01*
X155975000Y-98075750D01*
X155971928Y-98660000D01*
X155984188Y-98784482D01*
X156020498Y-98904180D01*
X156079463Y-99014494D01*
X156158815Y-99111185D01*
X156255506Y-99190537D01*
X156263856Y-99195000D01*
X148536144Y-99195000D01*
X148544494Y-99190537D01*
X148641185Y-99111185D01*
X148720537Y-99014494D01*
X148779502Y-98904180D01*
X148815812Y-98784482D01*
X148828072Y-98660000D01*
X148825000Y-98075750D01*
X148666250Y-97917000D01*
X147447000Y-97917000D01*
X147447000Y-97937000D01*
X147193000Y-97937000D01*
X147193000Y-97917000D01*
X145973750Y-97917000D01*
X145815000Y-98075750D01*
X145811928Y-98660000D01*
X139904801Y-98660000D01*
X140616019Y-97948783D01*
X140645012Y-97924989D01*
X140668806Y-97895996D01*
X140668810Y-97895992D01*
X140739984Y-97809266D01*
X140810557Y-97677236D01*
X140834162Y-97599419D01*
X140854014Y-97533974D01*
X140865011Y-97422321D01*
X140865011Y-97422313D01*
X140868687Y-97384990D01*
X140865011Y-97347667D01*
X140865011Y-96920000D01*
X145811928Y-96920000D01*
X145815000Y-97504250D01*
X145973750Y-97663000D01*
X147193000Y-97663000D01*
X147193000Y-96443750D01*
X147447000Y-96443750D01*
X147447000Y-97663000D01*
X148666250Y-97663000D01*
X148825000Y-97504250D01*
X148828072Y-96920000D01*
X155971928Y-96920000D01*
X155975000Y-97504250D01*
X156133750Y-97663000D01*
X157353000Y-97663000D01*
X157353000Y-96443750D01*
X157607000Y-96443750D01*
X157607000Y-97663000D01*
X158826250Y-97663000D01*
X158985000Y-97504250D01*
X158988072Y-96920000D01*
X158975812Y-96795518D01*
X158939502Y-96675820D01*
X158880537Y-96565506D01*
X158801185Y-96468815D01*
X158704494Y-96389463D01*
X158594180Y-96330498D01*
X158474482Y-96294188D01*
X158350000Y-96281928D01*
X157765750Y-96285000D01*
X157607000Y-96443750D01*
X157353000Y-96443750D01*
X157194250Y-96285000D01*
X156610000Y-96281928D01*
X156485518Y-96294188D01*
X156365820Y-96330498D01*
X156255506Y-96389463D01*
X156158815Y-96468815D01*
X156079463Y-96565506D01*
X156020498Y-96675820D01*
X155984188Y-96795518D01*
X155971928Y-96920000D01*
X148828072Y-96920000D01*
X148815812Y-96795518D01*
X148779502Y-96675820D01*
X148720537Y-96565506D01*
X148641185Y-96468815D01*
X148544494Y-96389463D01*
X148434180Y-96330498D01*
X148314482Y-96294188D01*
X148190000Y-96281928D01*
X147605750Y-96285000D01*
X147447000Y-96443750D01*
X147193000Y-96443750D01*
X147034250Y-96285000D01*
X146450000Y-96281928D01*
X146325518Y-96294188D01*
X146205820Y-96330498D01*
X146095506Y-96389463D01*
X145998815Y-96468815D01*
X145919463Y-96565506D01*
X145860498Y-96675820D01*
X145824188Y-96795518D01*
X145811928Y-96920000D01*
X140865011Y-96920000D01*
X140865011Y-90440000D01*
X149539428Y-90440000D01*
X149539428Y-92440000D01*
X149551688Y-92564482D01*
X149587998Y-92684180D01*
X149646963Y-92794494D01*
X149726315Y-92891185D01*
X149823006Y-92970537D01*
X149933320Y-93029502D01*
X150053018Y-93065812D01*
X150177500Y-93078072D01*
X152082500Y-93078072D01*
X152206982Y-93065812D01*
X152326680Y-93029502D01*
X152436994Y-92970537D01*
X152533685Y-92891185D01*
X152613037Y-92794494D01*
X152662059Y-92702781D01*
X152803077Y-92815969D01*
X153078906Y-92959571D01*
X153297020Y-93030563D01*
X153543000Y-92910594D01*
X153543000Y-91567000D01*
X153523000Y-91567000D01*
X153523000Y-91313000D01*
X153543000Y-91313000D01*
X153543000Y-89969406D01*
X153797000Y-89969406D01*
X153797000Y-91313000D01*
X153817000Y-91313000D01*
X153817000Y-91567000D01*
X153797000Y-91567000D01*
X153797000Y-92910594D01*
X154042980Y-93030563D01*
X154261094Y-92959571D01*
X154536923Y-92815969D01*
X154779437Y-92621315D01*
X154934837Y-92436101D01*
X155082037Y-92615463D01*
X155323766Y-92813845D01*
X155599552Y-92961255D01*
X155898797Y-93052030D01*
X156210000Y-93082681D01*
X156521204Y-93052030D01*
X156820449Y-92961255D01*
X157096235Y-92813845D01*
X157337963Y-92615463D01*
X157536345Y-92373734D01*
X157683755Y-92097948D01*
X157774530Y-91798703D01*
X157797500Y-91565485D01*
X157797500Y-91314514D01*
X157774530Y-91081296D01*
X157683755Y-90782051D01*
X157536345Y-90506265D01*
X157337963Y-90264537D01*
X157096234Y-90066155D01*
X156820448Y-89918745D01*
X156521203Y-89827970D01*
X156210000Y-89797319D01*
X155898796Y-89827970D01*
X155599551Y-89918745D01*
X155323765Y-90066155D01*
X155082037Y-90264537D01*
X154934838Y-90443900D01*
X154779437Y-90258685D01*
X154536923Y-90064031D01*
X154261094Y-89920429D01*
X154042980Y-89849437D01*
X153797000Y-89969406D01*
X153543000Y-89969406D01*
X153297020Y-89849437D01*
X153078906Y-89920429D01*
X152803077Y-90064031D01*
X152662059Y-90177219D01*
X152613037Y-90085506D01*
X152533685Y-89988815D01*
X152436994Y-89909463D01*
X152326680Y-89850498D01*
X152206982Y-89814188D01*
X152082500Y-89801928D01*
X150177500Y-89801928D01*
X150053018Y-89814188D01*
X149933320Y-89850498D01*
X149823006Y-89909463D01*
X149726315Y-89988815D01*
X149646963Y-90085506D01*
X149587998Y-90195820D01*
X149551688Y-90315518D01*
X149539428Y-90440000D01*
X140865011Y-90440000D01*
X140865011Y-86970512D01*
X143339783Y-86970512D01*
X143381213Y-87250130D01*
X143476397Y-87516292D01*
X143541616Y-87638309D01*
X143528815Y-87648815D01*
X143449463Y-87745506D01*
X143390498Y-87855820D01*
X143354188Y-87975518D01*
X143341928Y-88100000D01*
X143341928Y-89700000D01*
X143354188Y-89824482D01*
X143390498Y-89944180D01*
X143449463Y-90054494D01*
X143528815Y-90151185D01*
X143625506Y-90230537D01*
X143735820Y-90289502D01*
X143855518Y-90325812D01*
X143980000Y-90338072D01*
X145580000Y-90338072D01*
X145704482Y-90325812D01*
X145824180Y-90289502D01*
X145934494Y-90230537D01*
X146031185Y-90151185D01*
X146110537Y-90054494D01*
X146169502Y-89944180D01*
X146205812Y-89824482D01*
X146218072Y-89700000D01*
X146218072Y-88100000D01*
X146205812Y-87975518D01*
X146169502Y-87855820D01*
X146110537Y-87745506D01*
X146031185Y-87648815D01*
X146018242Y-87638193D01*
X146137571Y-87386004D01*
X146206300Y-87111816D01*
X146220217Y-86829488D01*
X146178787Y-86549870D01*
X146083603Y-86283708D01*
X146016671Y-86158486D01*
X145772702Y-86086903D01*
X144959605Y-86900000D01*
X144973748Y-86914143D01*
X144794143Y-87093748D01*
X144780000Y-87079605D01*
X144765858Y-87093748D01*
X144586253Y-86914143D01*
X144600395Y-86900000D01*
X143787298Y-86086903D01*
X143543329Y-86158486D01*
X143422429Y-86413996D01*
X143353700Y-86688184D01*
X143339783Y-86970512D01*
X140865011Y-86970512D01*
X140865011Y-85907298D01*
X143966903Y-85907298D01*
X144780000Y-86720395D01*
X145593097Y-85907298D01*
X145521514Y-85663329D01*
X145266004Y-85542429D01*
X144991816Y-85473700D01*
X144709488Y-85459783D01*
X144429870Y-85501213D01*
X144163708Y-85596397D01*
X144038486Y-85663329D01*
X143966903Y-85907298D01*
X140865011Y-85907298D01*
X140865011Y-77133148D01*
X142756457Y-77133148D01*
X143032627Y-77551118D01*
X143577557Y-77841649D01*
X144168696Y-78020287D01*
X144783328Y-78080168D01*
X145397831Y-78018990D01*
X145988592Y-77839103D01*
X146527373Y-77551118D01*
X146803543Y-77133148D01*
X144780000Y-75109605D01*
X142756457Y-77133148D01*
X140865011Y-77133148D01*
X140865010Y-74933328D01*
X141629832Y-74933328D01*
X141691010Y-75547831D01*
X141870897Y-76138592D01*
X142158882Y-76677373D01*
X142576852Y-76953543D01*
X144600395Y-74930000D01*
X144959605Y-74930000D01*
X146983148Y-76953543D01*
X147401118Y-76677373D01*
X147691649Y-76132443D01*
X147870287Y-75541304D01*
X147930168Y-74926672D01*
X147892180Y-74545098D01*
X151285000Y-74545098D01*
X151285000Y-75014902D01*
X151376654Y-75475679D01*
X151556440Y-75909721D01*
X151817450Y-76300349D01*
X152149651Y-76632550D01*
X152540279Y-76893560D01*
X152974321Y-77073346D01*
X153435098Y-77165000D01*
X153904902Y-77165000D01*
X154365679Y-77073346D01*
X154799721Y-76893560D01*
X155190349Y-76632550D01*
X155522550Y-76300349D01*
X155783560Y-75909721D01*
X155963346Y-75475679D01*
X156055000Y-75014902D01*
X156055000Y-74545098D01*
X155963346Y-74084321D01*
X155783560Y-73650279D01*
X155522550Y-73259651D01*
X155190349Y-72927450D01*
X154799721Y-72666440D01*
X154365679Y-72486654D01*
X153904902Y-72395000D01*
X153435098Y-72395000D01*
X152974321Y-72486654D01*
X152540279Y-72666440D01*
X152149651Y-72927450D01*
X151817450Y-73259651D01*
X151556440Y-73650279D01*
X151376654Y-74084321D01*
X151285000Y-74545098D01*
X147892180Y-74545098D01*
X147868990Y-74312169D01*
X147689103Y-73721408D01*
X147401118Y-73182627D01*
X146983148Y-72906457D01*
X144959605Y-74930000D01*
X144600395Y-74930000D01*
X142576852Y-72906457D01*
X142158882Y-73182627D01*
X141868351Y-73727557D01*
X141689713Y-74318696D01*
X141629832Y-74933328D01*
X140865010Y-74933328D01*
X140865010Y-72726852D01*
X142756457Y-72726852D01*
X144780000Y-74750395D01*
X146803543Y-72726852D01*
X146527373Y-72308882D01*
X145982443Y-72018351D01*
X145391304Y-71839713D01*
X144776672Y-71779832D01*
X144162169Y-71841010D01*
X143571408Y-72020897D01*
X143032627Y-72308882D01*
X142756457Y-72726852D01*
X140865010Y-72726852D01*
X140865009Y-71652930D01*
X140868686Y-71615597D01*
X140854012Y-71466611D01*
X140810555Y-71323351D01*
X140739983Y-71191321D01*
X140668809Y-71104594D01*
X140668799Y-71104584D01*
X140645010Y-71075597D01*
X140616022Y-71051807D01*
X140074214Y-70510000D01*
X157447721Y-70510000D01*
X158091222Y-70573096D01*
X158679164Y-70750606D01*
X159221436Y-71038937D01*
X159697364Y-71427094D01*
X160088845Y-71900314D01*
X160380951Y-72440552D01*
X160562563Y-73027244D01*
X160630001Y-73668888D01*
X160630001Y-106477790D01*
X160512882Y-106399534D01*
X160169834Y-106257439D01*
X159805656Y-106185000D01*
X159434344Y-106185000D01*
X159070166Y-106257439D01*
X158727118Y-106399534D01*
X158418382Y-106605825D01*
X158155825Y-106868382D01*
X157949534Y-107177118D01*
X157807439Y-107520166D01*
X157735000Y-107884344D01*
X157735000Y-108255656D01*
X157807439Y-108619834D01*
X157949534Y-108962882D01*
X158155825Y-109271618D01*
X158418382Y-109534175D01*
X158727118Y-109740466D01*
X159070166Y-109882561D01*
X159434344Y-109955000D01*
X159805656Y-109955000D01*
X160169834Y-109882561D01*
X160512882Y-109740466D01*
X160630000Y-109662210D01*
X160630000Y-113977790D01*
X160512882Y-113899534D01*
X160169834Y-113757439D01*
X159805656Y-113685000D01*
X159434344Y-113685000D01*
X159070166Y-113757439D01*
X158727118Y-113899534D01*
X158418382Y-114105825D01*
X158155825Y-114368382D01*
X157949534Y-114677118D01*
X157807439Y-115020166D01*
X157735000Y-115384344D01*
X157735000Y-115755656D01*
X157807439Y-116119834D01*
X157949534Y-116462882D01*
X158155825Y-116771618D01*
X158418382Y-117034175D01*
X158727118Y-117240466D01*
X159070166Y-117382561D01*
X159434344Y-117455000D01*
X159805656Y-117455000D01*
X160169834Y-117382561D01*
X160512882Y-117240466D01*
X160630000Y-117162210D01*
X160630000Y-121717790D01*
X160512882Y-121639534D01*
X160169834Y-121497439D01*
X159805656Y-121425000D01*
X159434344Y-121425000D01*
X159070166Y-121497439D01*
X158727118Y-121639534D01*
X158418382Y-121845825D01*
X158155825Y-122108382D01*
X157949534Y-122417118D01*
X157807439Y-122760166D01*
X157735000Y-123124344D01*
X157735000Y-123495656D01*
X157807439Y-123859834D01*
X157949534Y-124202882D01*
X158155825Y-124511618D01*
X158418382Y-124774175D01*
X158727118Y-124980466D01*
X159070166Y-125122561D01*
X159434344Y-125195000D01*
X159805656Y-125195000D01*
X160169834Y-125122561D01*
X160512882Y-124980466D01*
X160630000Y-124902210D01*
X160630000Y-129217790D01*
X160512882Y-129139534D01*
X160169834Y-128997439D01*
X159805656Y-128925000D01*
X159434344Y-128925000D01*
X159070166Y-128997439D01*
X158727118Y-129139534D01*
X158418382Y-129345825D01*
X158155825Y-129608382D01*
X157949534Y-129917118D01*
X157807439Y-130260166D01*
X157735000Y-130624344D01*
X157735000Y-130995656D01*
X157807439Y-131359834D01*
X157949534Y-131702882D01*
X158155825Y-132011618D01*
X158418382Y-132274175D01*
X158727118Y-132480466D01*
X159070166Y-132622561D01*
X159434344Y-132695000D01*
X159805656Y-132695000D01*
X160169834Y-132622561D01*
X160512882Y-132480466D01*
X160630000Y-132402210D01*
X160630000Y-142207721D01*
X160566904Y-142851221D01*
X160389394Y-143439164D01*
X160101063Y-143981436D01*
X159712906Y-144457364D01*
X159239686Y-144848845D01*
X158699449Y-145140950D01*
X158112756Y-145322563D01*
X157471130Y-145390000D01*
X109252279Y-145390000D01*
X108608779Y-145326904D01*
X108020836Y-145149394D01*
X107478564Y-144861063D01*
X107002636Y-144472906D01*
X106611155Y-143999686D01*
X106319050Y-143459449D01*
X106287899Y-143358816D01*
X115305000Y-143358816D01*
X115305000Y-143661184D01*
X115363989Y-143957743D01*
X115479701Y-144237095D01*
X115647688Y-144488505D01*
X115861495Y-144702312D01*
X116112905Y-144870299D01*
X116392257Y-144986011D01*
X116688816Y-145045000D01*
X116991184Y-145045000D01*
X117287743Y-144986011D01*
X117567095Y-144870299D01*
X117818505Y-144702312D01*
X118032312Y-144488505D01*
X118200299Y-144237095D01*
X118316011Y-143957743D01*
X118375000Y-143661184D01*
X118375000Y-143358816D01*
X118316011Y-143062257D01*
X118200299Y-142782905D01*
X118032312Y-142531495D01*
X117818505Y-142317688D01*
X117664895Y-142215049D01*
X117724475Y-142034080D01*
X116840000Y-141149605D01*
X115955525Y-142034080D01*
X116015105Y-142215049D01*
X115861495Y-142317688D01*
X115647688Y-142531495D01*
X115479701Y-142782905D01*
X115363989Y-143062257D01*
X115305000Y-143358816D01*
X106287899Y-143358816D01*
X106137437Y-142872756D01*
X106070000Y-142231130D01*
X106070000Y-141962702D01*
X107446903Y-141962702D01*
X107518486Y-142206671D01*
X107773996Y-142327571D01*
X108048184Y-142396300D01*
X108330512Y-142410217D01*
X108610130Y-142368787D01*
X108876292Y-142273603D01*
X109001514Y-142206671D01*
X109073097Y-141962702D01*
X108260000Y-141149605D01*
X107446903Y-141962702D01*
X106070000Y-141962702D01*
X106070000Y-141040512D01*
X106819783Y-141040512D01*
X106861213Y-141320130D01*
X106956397Y-141586292D01*
X107023329Y-141711514D01*
X107267298Y-141783097D01*
X108080395Y-140970000D01*
X108439605Y-140970000D01*
X109252702Y-141783097D01*
X109496671Y-141711514D01*
X109617571Y-141456004D01*
X109686300Y-141181816D01*
X109700217Y-140899488D01*
X109658787Y-140619870D01*
X109563603Y-140353708D01*
X109496671Y-140228486D01*
X109297340Y-140170000D01*
X110321928Y-140170000D01*
X110321928Y-141770000D01*
X110334188Y-141894482D01*
X110370498Y-142014180D01*
X110429463Y-142124494D01*
X110508815Y-142221185D01*
X110605506Y-142300537D01*
X110715820Y-142359502D01*
X110835518Y-142395812D01*
X110960000Y-142408072D01*
X112560000Y-142408072D01*
X112684482Y-142395812D01*
X112804180Y-142359502D01*
X112914494Y-142300537D01*
X113011185Y-142221185D01*
X113090537Y-142124494D01*
X113149502Y-142014180D01*
X113185812Y-141894482D01*
X113198072Y-141770000D01*
X113198072Y-141036553D01*
X115299009Y-141036553D01*
X115341603Y-141335907D01*
X115441778Y-141621199D01*
X115521739Y-141770792D01*
X115775920Y-141854475D01*
X116660395Y-140970000D01*
X117019605Y-140970000D01*
X117904080Y-141854475D01*
X118158261Y-141770792D01*
X118289158Y-141498225D01*
X118364365Y-141205358D01*
X118380991Y-140903447D01*
X118338397Y-140604093D01*
X118238222Y-140318801D01*
X118158261Y-140169208D01*
X117904080Y-140085525D01*
X117019605Y-140970000D01*
X116660395Y-140970000D01*
X115775920Y-140085525D01*
X115521739Y-140169208D01*
X115390842Y-140441775D01*
X115315635Y-140734642D01*
X115299009Y-141036553D01*
X113198072Y-141036553D01*
X113198072Y-140170000D01*
X113185812Y-140045518D01*
X113149502Y-139925820D01*
X113090537Y-139815506D01*
X113011185Y-139718815D01*
X112914494Y-139639463D01*
X112804180Y-139580498D01*
X112684482Y-139544188D01*
X112560000Y-139531928D01*
X110960000Y-139531928D01*
X110835518Y-139544188D01*
X110715820Y-139580498D01*
X110605506Y-139639463D01*
X110508815Y-139718815D01*
X110429463Y-139815506D01*
X110370498Y-139925820D01*
X110334188Y-140045518D01*
X110321928Y-140170000D01*
X109297340Y-140170000D01*
X109252702Y-140156903D01*
X108439605Y-140970000D01*
X108080395Y-140970000D01*
X107267298Y-140156903D01*
X107023329Y-140228486D01*
X106902429Y-140483996D01*
X106833700Y-140758184D01*
X106819783Y-141040512D01*
X106070000Y-141040512D01*
X106070000Y-139977298D01*
X107446903Y-139977298D01*
X108260000Y-140790395D01*
X109073097Y-139977298D01*
X109001514Y-139733329D01*
X108746004Y-139612429D01*
X108471816Y-139543700D01*
X108189488Y-139529783D01*
X107909870Y-139571213D01*
X107643708Y-139666397D01*
X107518486Y-139733329D01*
X107446903Y-139977298D01*
X106070000Y-139977298D01*
X106070000Y-124880000D01*
X110271928Y-124880000D01*
X110271928Y-126580000D01*
X110284188Y-126704482D01*
X110320498Y-126824180D01*
X110379463Y-126934494D01*
X110458815Y-127031185D01*
X110555506Y-127110537D01*
X110665820Y-127169502D01*
X110738380Y-127191513D01*
X110606525Y-127323368D01*
X110444010Y-127566589D01*
X110332068Y-127836842D01*
X110275000Y-128123740D01*
X110275000Y-128416260D01*
X110332068Y-128703158D01*
X110444010Y-128973411D01*
X110606525Y-129216632D01*
X110813368Y-129423475D01*
X110987760Y-129540000D01*
X110813368Y-129656525D01*
X110606525Y-129863368D01*
X110444010Y-130106589D01*
X110332068Y-130376842D01*
X110275000Y-130663740D01*
X110275000Y-130956260D01*
X110332068Y-131243158D01*
X110444010Y-131513411D01*
X110606525Y-131756632D01*
X110813368Y-131963475D01*
X110987760Y-132080000D01*
X110813368Y-132196525D01*
X110606525Y-132403368D01*
X110444010Y-132646589D01*
X110332068Y-132916842D01*
X110275000Y-133203740D01*
X110275000Y-133496260D01*
X110332068Y-133783158D01*
X110444010Y-134053411D01*
X110606525Y-134296632D01*
X110813368Y-134503475D01*
X111056589Y-134665990D01*
X111326842Y-134777932D01*
X111613740Y-134835000D01*
X111906260Y-134835000D01*
X112193158Y-134777932D01*
X112463411Y-134665990D01*
X112706632Y-134503475D01*
X112913475Y-134296632D01*
X113075990Y-134053411D01*
X113187932Y-133783158D01*
X113245000Y-133496260D01*
X113245000Y-133203740D01*
X113187932Y-132916842D01*
X113075990Y-132646589D01*
X112913475Y-132403368D01*
X112706632Y-132196525D01*
X112532240Y-132080000D01*
X112706632Y-131963475D01*
X112913475Y-131756632D01*
X113075990Y-131513411D01*
X113187932Y-131243158D01*
X113245000Y-130956260D01*
X113245000Y-130663740D01*
X113187932Y-130376842D01*
X113075990Y-130106589D01*
X112913475Y-129863368D01*
X112706632Y-129656525D01*
X112532240Y-129540000D01*
X112706632Y-129423475D01*
X112913475Y-129216632D01*
X113075990Y-128973411D01*
X113187932Y-128703158D01*
X113245000Y-128416260D01*
X113245000Y-128123740D01*
X113244021Y-128118816D01*
X115305000Y-128118816D01*
X115305000Y-128421184D01*
X115363989Y-128717743D01*
X115479701Y-128997095D01*
X115647688Y-129248505D01*
X115861495Y-129462312D01*
X115977763Y-129540000D01*
X115861495Y-129617688D01*
X115647688Y-129831495D01*
X115479701Y-130082905D01*
X115363989Y-130362257D01*
X115305000Y-130658816D01*
X115305000Y-130961184D01*
X115363989Y-131257743D01*
X115479701Y-131537095D01*
X115647688Y-131788505D01*
X115861495Y-132002312D01*
X115977763Y-132080000D01*
X115861495Y-132157688D01*
X115647688Y-132371495D01*
X115479701Y-132622905D01*
X115363989Y-132902257D01*
X115305000Y-133198816D01*
X115305000Y-133501184D01*
X115363989Y-133797743D01*
X115479701Y-134077095D01*
X115647688Y-134328505D01*
X115861495Y-134542312D01*
X115977763Y-134620000D01*
X115861495Y-134697688D01*
X115647688Y-134911495D01*
X115479701Y-135162905D01*
X115363989Y-135442257D01*
X115305000Y-135738816D01*
X115305000Y-136041184D01*
X115363989Y-136337743D01*
X115479701Y-136617095D01*
X115647688Y-136868505D01*
X115861495Y-137082312D01*
X115977763Y-137160000D01*
X115861495Y-137237688D01*
X115647688Y-137451495D01*
X115479701Y-137702905D01*
X115363989Y-137982257D01*
X115305000Y-138278816D01*
X115305000Y-138581184D01*
X115363989Y-138877743D01*
X115479701Y-139157095D01*
X115647688Y-139408505D01*
X115861495Y-139622312D01*
X116015105Y-139724951D01*
X115955525Y-139905920D01*
X116840000Y-140790395D01*
X117724475Y-139905920D01*
X117664895Y-139724951D01*
X117818505Y-139622312D01*
X118032312Y-139408505D01*
X118200299Y-139157095D01*
X118316011Y-138877743D01*
X118375000Y-138581184D01*
X118375000Y-138278816D01*
X118316011Y-137982257D01*
X118200299Y-137702905D01*
X118032312Y-137451495D01*
X117818505Y-137237688D01*
X117702237Y-137160000D01*
X117818505Y-137082312D01*
X118032312Y-136868505D01*
X118200299Y-136617095D01*
X118316011Y-136337743D01*
X118375000Y-136041184D01*
X118375000Y-135738816D01*
X118316011Y-135442257D01*
X118200299Y-135162905D01*
X118032312Y-134911495D01*
X117818505Y-134697688D01*
X117702237Y-134620000D01*
X117818505Y-134542312D01*
X118032312Y-134328505D01*
X118200299Y-134077095D01*
X118316011Y-133797743D01*
X118375000Y-133501184D01*
X118375000Y-133198816D01*
X118316011Y-132902257D01*
X118200299Y-132622905D01*
X118032312Y-132371495D01*
X117818505Y-132157688D01*
X117702237Y-132080000D01*
X117818505Y-132002312D01*
X118032312Y-131788505D01*
X118200299Y-131537095D01*
X118316011Y-131257743D01*
X118375000Y-130961184D01*
X118375000Y-130658816D01*
X118316011Y-130362257D01*
X118200299Y-130082905D01*
X118032312Y-129831495D01*
X117818505Y-129617688D01*
X117702237Y-129540000D01*
X117818505Y-129462312D01*
X118032312Y-129248505D01*
X118200299Y-128997095D01*
X118316011Y-128717743D01*
X118375000Y-128421184D01*
X118375000Y-128118816D01*
X118316011Y-127822257D01*
X118200299Y-127542905D01*
X118032312Y-127291495D01*
X117818505Y-127077688D01*
X117664895Y-126975049D01*
X117724475Y-126794080D01*
X116840000Y-125909605D01*
X115955525Y-126794080D01*
X116015105Y-126975049D01*
X115861495Y-127077688D01*
X115647688Y-127291495D01*
X115479701Y-127542905D01*
X115363989Y-127822257D01*
X115305000Y-128118816D01*
X113244021Y-128118816D01*
X113187932Y-127836842D01*
X113075990Y-127566589D01*
X112913475Y-127323368D01*
X112781620Y-127191513D01*
X112854180Y-127169502D01*
X112964494Y-127110537D01*
X113061185Y-127031185D01*
X113140537Y-126934494D01*
X113199502Y-126824180D01*
X113235812Y-126704482D01*
X113248072Y-126580000D01*
X113248072Y-125796553D01*
X115299009Y-125796553D01*
X115341603Y-126095907D01*
X115441778Y-126381199D01*
X115521739Y-126530792D01*
X115775920Y-126614475D01*
X116660395Y-125730000D01*
X117019605Y-125730000D01*
X117904080Y-126614475D01*
X118158261Y-126530792D01*
X118289158Y-126258225D01*
X118364365Y-125965358D01*
X118380991Y-125663447D01*
X118338397Y-125364093D01*
X118238222Y-125078801D01*
X118158261Y-124929208D01*
X117904080Y-124845525D01*
X117019605Y-125730000D01*
X116660395Y-125730000D01*
X115775920Y-124845525D01*
X115521739Y-124929208D01*
X115390842Y-125201775D01*
X115315635Y-125494642D01*
X115299009Y-125796553D01*
X113248072Y-125796553D01*
X113248072Y-124880000D01*
X113235812Y-124755518D01*
X113208633Y-124665920D01*
X115955525Y-124665920D01*
X116840000Y-125550395D01*
X117724475Y-124665920D01*
X117640792Y-124411739D01*
X117368225Y-124280842D01*
X117075358Y-124205635D01*
X116773447Y-124189009D01*
X116474093Y-124231603D01*
X116188801Y-124331778D01*
X116039208Y-124411739D01*
X115955525Y-124665920D01*
X113208633Y-124665920D01*
X113199502Y-124635820D01*
X113140537Y-124525506D01*
X113061185Y-124428815D01*
X112964494Y-124349463D01*
X112854180Y-124290498D01*
X112734482Y-124254188D01*
X112610000Y-124241928D01*
X110910000Y-124241928D01*
X110785518Y-124254188D01*
X110665820Y-124290498D01*
X110555506Y-124349463D01*
X110458815Y-124428815D01*
X110379463Y-124525506D01*
X110320498Y-124635820D01*
X110284188Y-124755518D01*
X110271928Y-124880000D01*
X106070000Y-124880000D01*
X106070000Y-120498816D01*
X115305000Y-120498816D01*
X115305000Y-120801184D01*
X115363989Y-121097743D01*
X115479701Y-121377095D01*
X115647688Y-121628505D01*
X115861495Y-121842312D01*
X116112905Y-122010299D01*
X116392257Y-122126011D01*
X116688816Y-122185000D01*
X116991184Y-122185000D01*
X117287743Y-122126011D01*
X117567095Y-122010299D01*
X117818505Y-121842312D01*
X118032312Y-121628505D01*
X118200299Y-121377095D01*
X118316011Y-121097743D01*
X118375000Y-120801184D01*
X118375000Y-120498816D01*
X118316011Y-120202257D01*
X118200299Y-119922905D01*
X118032312Y-119671495D01*
X117818505Y-119457688D01*
X117664895Y-119355049D01*
X117724475Y-119174080D01*
X116840000Y-118289605D01*
X115955525Y-119174080D01*
X116015105Y-119355049D01*
X115861495Y-119457688D01*
X115647688Y-119671495D01*
X115479701Y-119922905D01*
X115363989Y-120202257D01*
X115305000Y-120498816D01*
X106070000Y-120498816D01*
X106070000Y-119102702D01*
X107446903Y-119102702D01*
X107518486Y-119346671D01*
X107773996Y-119467571D01*
X108048184Y-119536300D01*
X108330512Y-119550217D01*
X108610130Y-119508787D01*
X108876292Y-119413603D01*
X109001514Y-119346671D01*
X109073097Y-119102702D01*
X108260000Y-118289605D01*
X107446903Y-119102702D01*
X106070000Y-119102702D01*
X106070000Y-118180512D01*
X106819783Y-118180512D01*
X106861213Y-118460130D01*
X106956397Y-118726292D01*
X107023329Y-118851514D01*
X107267298Y-118923097D01*
X108080395Y-118110000D01*
X108439605Y-118110000D01*
X109252702Y-118923097D01*
X109496671Y-118851514D01*
X109617571Y-118596004D01*
X109686300Y-118321816D01*
X109700217Y-118039488D01*
X109658787Y-117759870D01*
X109563603Y-117493708D01*
X109496671Y-117368486D01*
X109297340Y-117310000D01*
X110321928Y-117310000D01*
X110321928Y-118910000D01*
X110334188Y-119034482D01*
X110370498Y-119154180D01*
X110429463Y-119264494D01*
X110508815Y-119361185D01*
X110605506Y-119440537D01*
X110715820Y-119499502D01*
X110835518Y-119535812D01*
X110960000Y-119548072D01*
X112560000Y-119548072D01*
X112684482Y-119535812D01*
X112804180Y-119499502D01*
X112914494Y-119440537D01*
X113011185Y-119361185D01*
X113090537Y-119264494D01*
X113149502Y-119154180D01*
X113185812Y-119034482D01*
X113198072Y-118910000D01*
X113198072Y-118176553D01*
X115299009Y-118176553D01*
X115341603Y-118475907D01*
X115441778Y-118761199D01*
X115521739Y-118910792D01*
X115775920Y-118994475D01*
X116660395Y-118110000D01*
X117019605Y-118110000D01*
X117904080Y-118994475D01*
X118158261Y-118910792D01*
X118289158Y-118638225D01*
X118364365Y-118345358D01*
X118380991Y-118043447D01*
X118338397Y-117744093D01*
X118238222Y-117458801D01*
X118158261Y-117309208D01*
X117904080Y-117225525D01*
X117019605Y-118110000D01*
X116660395Y-118110000D01*
X115775920Y-117225525D01*
X115521739Y-117309208D01*
X115390842Y-117581775D01*
X115315635Y-117874642D01*
X115299009Y-118176553D01*
X113198072Y-118176553D01*
X113198072Y-117310000D01*
X113185812Y-117185518D01*
X113149502Y-117065820D01*
X113090537Y-116955506D01*
X113011185Y-116858815D01*
X112914494Y-116779463D01*
X112804180Y-116720498D01*
X112684482Y-116684188D01*
X112560000Y-116671928D01*
X110960000Y-116671928D01*
X110835518Y-116684188D01*
X110715820Y-116720498D01*
X110605506Y-116779463D01*
X110508815Y-116858815D01*
X110429463Y-116955506D01*
X110370498Y-117065820D01*
X110334188Y-117185518D01*
X110321928Y-117310000D01*
X109297340Y-117310000D01*
X109252702Y-117296903D01*
X108439605Y-118110000D01*
X108080395Y-118110000D01*
X107267298Y-117296903D01*
X107023329Y-117368486D01*
X106902429Y-117623996D01*
X106833700Y-117898184D01*
X106819783Y-118180512D01*
X106070000Y-118180512D01*
X106070000Y-117117298D01*
X107446903Y-117117298D01*
X108260000Y-117930395D01*
X109073097Y-117117298D01*
X109001514Y-116873329D01*
X108746004Y-116752429D01*
X108471816Y-116683700D01*
X108189488Y-116669783D01*
X107909870Y-116711213D01*
X107643708Y-116806397D01*
X107518486Y-116873329D01*
X107446903Y-117117298D01*
X106070000Y-117117298D01*
X106070000Y-102020000D01*
X110271928Y-102020000D01*
X110271928Y-103720000D01*
X110284188Y-103844482D01*
X110320498Y-103964180D01*
X110379463Y-104074494D01*
X110458815Y-104171185D01*
X110555506Y-104250537D01*
X110665820Y-104309502D01*
X110738380Y-104331513D01*
X110606525Y-104463368D01*
X110444010Y-104706589D01*
X110332068Y-104976842D01*
X110275000Y-105263740D01*
X110275000Y-105556260D01*
X110332068Y-105843158D01*
X110444010Y-106113411D01*
X110606525Y-106356632D01*
X110813368Y-106563475D01*
X110987760Y-106680000D01*
X110813368Y-106796525D01*
X110606525Y-107003368D01*
X110444010Y-107246589D01*
X110332068Y-107516842D01*
X110275000Y-107803740D01*
X110275000Y-108096260D01*
X110332068Y-108383158D01*
X110444010Y-108653411D01*
X110606525Y-108896632D01*
X110813368Y-109103475D01*
X110987760Y-109220000D01*
X110813368Y-109336525D01*
X110606525Y-109543368D01*
X110444010Y-109786589D01*
X110332068Y-110056842D01*
X110275000Y-110343740D01*
X110275000Y-110636260D01*
X110332068Y-110923158D01*
X110444010Y-111193411D01*
X110606525Y-111436632D01*
X110813368Y-111643475D01*
X111056589Y-111805990D01*
X111326842Y-111917932D01*
X111613740Y-111975000D01*
X111906260Y-111975000D01*
X112193158Y-111917932D01*
X112463411Y-111805990D01*
X112706632Y-111643475D01*
X112913475Y-111436632D01*
X113075990Y-111193411D01*
X113187932Y-110923158D01*
X113245000Y-110636260D01*
X113245000Y-110343740D01*
X113187932Y-110056842D01*
X113075990Y-109786589D01*
X112913475Y-109543368D01*
X112706632Y-109336525D01*
X112532240Y-109220000D01*
X112706632Y-109103475D01*
X112913475Y-108896632D01*
X113075990Y-108653411D01*
X113187932Y-108383158D01*
X113245000Y-108096260D01*
X113245000Y-107803740D01*
X113187932Y-107516842D01*
X113075990Y-107246589D01*
X112913475Y-107003368D01*
X112706632Y-106796525D01*
X112532240Y-106680000D01*
X112706632Y-106563475D01*
X112913475Y-106356632D01*
X113075990Y-106113411D01*
X113187932Y-105843158D01*
X113245000Y-105556260D01*
X113245000Y-105263740D01*
X113187932Y-104976842D01*
X113075990Y-104706589D01*
X112913475Y-104463368D01*
X112781620Y-104331513D01*
X112854180Y-104309502D01*
X112964494Y-104250537D01*
X113061185Y-104171185D01*
X113140537Y-104074494D01*
X113199502Y-103964180D01*
X113235812Y-103844482D01*
X113248072Y-103720000D01*
X113248072Y-102020000D01*
X113235812Y-101895518D01*
X113199502Y-101775820D01*
X113140537Y-101665506D01*
X113061185Y-101568815D01*
X112964494Y-101489463D01*
X112854180Y-101430498D01*
X112734482Y-101394188D01*
X112610000Y-101381928D01*
X110910000Y-101381928D01*
X110785518Y-101394188D01*
X110665820Y-101430498D01*
X110555506Y-101489463D01*
X110458815Y-101568815D01*
X110379463Y-101665506D01*
X110320498Y-101775820D01*
X110284188Y-101895518D01*
X110271928Y-102020000D01*
X106070000Y-102020000D01*
X106070000Y-73692279D01*
X106133096Y-73048778D01*
X106310606Y-72460836D01*
X106428656Y-72238816D01*
X108955000Y-72238816D01*
X108955000Y-72541184D01*
X109013989Y-72837743D01*
X109129701Y-73117095D01*
X109297688Y-73368505D01*
X109511495Y-73582312D01*
X109762905Y-73750299D01*
X110042257Y-73866011D01*
X110338816Y-73925000D01*
X110641184Y-73925000D01*
X110937743Y-73866011D01*
X111217095Y-73750299D01*
X111468505Y-73582312D01*
X111596737Y-73454080D01*
X112145525Y-73454080D01*
X112229208Y-73708261D01*
X112501775Y-73839158D01*
X112794642Y-73914365D01*
X113096553Y-73930991D01*
X113395907Y-73888397D01*
X113681199Y-73788222D01*
X113830792Y-73708261D01*
X113914475Y-73454080D01*
X113030000Y-72569605D01*
X112145525Y-73454080D01*
X111596737Y-73454080D01*
X111682312Y-73368505D01*
X111784951Y-73214895D01*
X111965920Y-73274475D01*
X112850395Y-72390000D01*
X111965920Y-71505525D01*
X111784951Y-71565105D01*
X111682312Y-71411495D01*
X111596737Y-71325920D01*
X112145525Y-71325920D01*
X113030000Y-72210395D01*
X113914475Y-71325920D01*
X113830792Y-71071739D01*
X113558225Y-70940842D01*
X113265358Y-70865635D01*
X112963447Y-70849009D01*
X112664093Y-70891603D01*
X112378801Y-70991778D01*
X112229208Y-71071739D01*
X112145525Y-71325920D01*
X111596737Y-71325920D01*
X111468505Y-71197688D01*
X111217095Y-71029701D01*
X110937743Y-70913989D01*
X110641184Y-70855000D01*
X110338816Y-70855000D01*
X110042257Y-70913989D01*
X109762905Y-71029701D01*
X109511495Y-71197688D01*
X109297688Y-71411495D01*
X109129701Y-71662905D01*
X109013989Y-71942257D01*
X108955000Y-72238816D01*
X106428656Y-72238816D01*
X106598937Y-71918564D01*
X106987094Y-71442636D01*
X107460314Y-71051155D01*
X108000552Y-70759049D01*
X108587244Y-70577437D01*
X109228879Y-70510000D01*
X126535198Y-70510000D01*
X126138930Y-70906269D01*
G37*
X126138930Y-70906269D02*
X125881184Y-70855000D01*
X125578816Y-70855000D01*
X125282257Y-70913989D01*
X125002905Y-71029701D01*
X124751495Y-71197688D01*
X124537688Y-71411495D01*
X124460000Y-71527763D01*
X124382312Y-71411495D01*
X124168505Y-71197688D01*
X123917095Y-71029701D01*
X123637743Y-70913989D01*
X123341184Y-70855000D01*
X123038816Y-70855000D01*
X122742257Y-70913989D01*
X122462905Y-71029701D01*
X122211495Y-71197688D01*
X121997688Y-71411495D01*
X121920000Y-71527763D01*
X121842312Y-71411495D01*
X121628505Y-71197688D01*
X121377095Y-71029701D01*
X121097743Y-70913989D01*
X120801184Y-70855000D01*
X120498816Y-70855000D01*
X120202257Y-70913989D01*
X119922905Y-71029701D01*
X119671495Y-71197688D01*
X119457688Y-71411495D01*
X119380000Y-71527763D01*
X119302312Y-71411495D01*
X119088505Y-71197688D01*
X118837095Y-71029701D01*
X118557743Y-70913989D01*
X118261184Y-70855000D01*
X117958816Y-70855000D01*
X117662257Y-70913989D01*
X117382905Y-71029701D01*
X117131495Y-71197688D01*
X116917688Y-71411495D01*
X116840000Y-71527763D01*
X116762312Y-71411495D01*
X116548505Y-71197688D01*
X116297095Y-71029701D01*
X116017743Y-70913989D01*
X115721184Y-70855000D01*
X115418816Y-70855000D01*
X115122257Y-70913989D01*
X114842905Y-71029701D01*
X114591495Y-71197688D01*
X114377688Y-71411495D01*
X114275049Y-71565105D01*
X114094080Y-71505525D01*
X113209605Y-72390000D01*
X114094080Y-73274475D01*
X114275049Y-73214895D01*
X114377688Y-73368505D01*
X114591495Y-73582312D01*
X114842905Y-73750299D01*
X115122257Y-73866011D01*
X115339248Y-73909173D01*
X107293468Y-81954954D01*
X107285121Y-81965124D01*
X107241183Y-82001184D01*
X107130589Y-82135942D01*
X107048411Y-82289688D01*
X106997805Y-82456511D01*
X106985000Y-82586524D01*
X106984999Y-92186532D01*
X106980718Y-92230001D01*
X106984999Y-92273470D01*
X106984999Y-92273477D01*
X106995795Y-92383089D01*
X106997804Y-92403491D01*
X107008879Y-92440000D01*
X107048410Y-92570313D01*
X107130588Y-92724059D01*
X107241182Y-92858818D01*
X107274955Y-92886535D01*
X110233468Y-95845049D01*
X110261181Y-95878817D01*
X110294949Y-95906530D01*
X110294951Y-95906532D01*
X110395939Y-95989411D01*
X110549684Y-96071589D01*
X110716508Y-96122195D01*
X110765863Y-96127056D01*
X110526509Y-96286987D01*
X110256987Y-96556509D01*
X110045225Y-96873434D01*
X109899361Y-97225581D01*
X109825000Y-97599419D01*
X109825000Y-97980581D01*
X109899361Y-98354419D01*
X110045225Y-98706566D01*
X110256987Y-99023491D01*
X110526509Y-99293013D01*
X110843434Y-99504775D01*
X111195581Y-99650639D01*
X111569419Y-99725000D01*
X111950581Y-99725000D01*
X112324419Y-99650639D01*
X112676566Y-99504775D01*
X112993491Y-99293013D01*
X113263013Y-99023491D01*
X113474775Y-98706566D01*
X113620639Y-98354419D01*
X113695000Y-97980581D01*
X113695000Y-97930737D01*
X114604999Y-98840736D01*
X114605000Y-104016520D01*
X114600718Y-104059999D01*
X114617804Y-104233489D01*
X114668411Y-104400312D01*
X114750589Y-104554058D01*
X114833467Y-104655045D01*
X114833470Y-104655048D01*
X114861183Y-104688816D01*
X114894951Y-104716529D01*
X115326940Y-105148518D01*
X115305000Y-105258816D01*
X115305000Y-105561184D01*
X115363989Y-105857743D01*
X115479701Y-106137095D01*
X115647688Y-106388505D01*
X115861495Y-106602312D01*
X115977763Y-106680000D01*
X115861495Y-106757688D01*
X115647688Y-106971495D01*
X115479701Y-107222905D01*
X115363989Y-107502257D01*
X115305000Y-107798816D01*
X115305000Y-108101184D01*
X115363989Y-108397743D01*
X115479701Y-108677095D01*
X115647688Y-108928505D01*
X115861495Y-109142312D01*
X115977763Y-109220000D01*
X115861495Y-109297688D01*
X115647688Y-109511495D01*
X115479701Y-109762905D01*
X115363989Y-110042257D01*
X115305000Y-110338816D01*
X115305000Y-110641184D01*
X115363989Y-110937743D01*
X115479701Y-111217095D01*
X115647688Y-111468505D01*
X115861495Y-111682312D01*
X115977763Y-111760000D01*
X115861495Y-111837688D01*
X115647688Y-112051495D01*
X115479701Y-112302905D01*
X115363989Y-112582257D01*
X115305000Y-112878816D01*
X115305000Y-113181184D01*
X115363989Y-113477743D01*
X115479701Y-113757095D01*
X115647688Y-114008505D01*
X115861495Y-114222312D01*
X115977763Y-114300000D01*
X115861495Y-114377688D01*
X115647688Y-114591495D01*
X115479701Y-114842905D01*
X115363989Y-115122257D01*
X115305000Y-115418816D01*
X115305000Y-115721184D01*
X115363989Y-116017743D01*
X115479701Y-116297095D01*
X115647688Y-116548505D01*
X115861495Y-116762312D01*
X116015105Y-116864951D01*
X115955525Y-117045920D01*
X116840000Y-117930395D01*
X117724475Y-117045920D01*
X117664895Y-116864951D01*
X117818505Y-116762312D01*
X118032312Y-116548505D01*
X118200299Y-116297095D01*
X118316011Y-116017743D01*
X118375000Y-115721184D01*
X118375000Y-115418816D01*
X118316011Y-115122257D01*
X118200299Y-114842905D01*
X118032312Y-114591495D01*
X117818505Y-114377688D01*
X117702237Y-114300000D01*
X117818505Y-114222312D01*
X118032312Y-114008505D01*
X118200299Y-113757095D01*
X118316011Y-113477743D01*
X118375000Y-113181184D01*
X118375000Y-112878816D01*
X118316011Y-112582257D01*
X118200299Y-112302905D01*
X118032312Y-112051495D01*
X117818505Y-111837688D01*
X117702237Y-111760000D01*
X117818505Y-111682312D01*
X118032312Y-111468505D01*
X118200299Y-111217095D01*
X118316011Y-110937743D01*
X118375000Y-110641184D01*
X118375000Y-110338816D01*
X118316011Y-110042257D01*
X118200299Y-109762905D01*
X118032312Y-109511495D01*
X117818505Y-109297688D01*
X117702237Y-109220000D01*
X117818505Y-109142312D01*
X118032312Y-108928505D01*
X118200299Y-108677095D01*
X118316011Y-108397743D01*
X118375000Y-108101184D01*
X118375000Y-107798816D01*
X118316011Y-107502257D01*
X118200299Y-107222905D01*
X118032312Y-106971495D01*
X117818505Y-106757688D01*
X117702237Y-106680000D01*
X117818505Y-106602312D01*
X118032312Y-106388505D01*
X118200299Y-106137095D01*
X118316011Y-105857743D01*
X118375000Y-105561184D01*
X118375000Y-105258816D01*
X118316011Y-104962257D01*
X118200299Y-104682905D01*
X118032312Y-104431495D01*
X117818505Y-104217688D01*
X117664895Y-104115049D01*
X117724475Y-103934080D01*
X116840000Y-103049605D01*
X116825858Y-103063748D01*
X116646253Y-102884143D01*
X116660395Y-102870000D01*
X117019605Y-102870000D01*
X117904080Y-103754475D01*
X118158261Y-103670792D01*
X118289158Y-103398225D01*
X118364365Y-103105358D01*
X118380991Y-102803447D01*
X118338397Y-102504093D01*
X118238222Y-102218801D01*
X118158261Y-102069208D01*
X117904080Y-101985525D01*
X117019605Y-102870000D01*
X116660395Y-102870000D01*
X116646253Y-102855858D01*
X116825858Y-102676253D01*
X116840000Y-102690395D01*
X117724475Y-101805920D01*
X117640792Y-101551739D01*
X117368225Y-101420842D01*
X117075358Y-101345635D01*
X116773447Y-101329009D01*
X116474093Y-101371603D01*
X116374999Y-101406398D01*
X116374999Y-98517626D01*
X116379280Y-98474157D01*
X116374999Y-98430688D01*
X116374999Y-98430680D01*
X116362194Y-98300667D01*
X116311633Y-98133991D01*
X116311588Y-98133843D01*
X116229410Y-97980098D01*
X116146531Y-97879110D01*
X116146529Y-97879108D01*
X116118816Y-97845340D01*
X116085049Y-97817628D01*
X112922376Y-94654956D01*
X112916369Y-94647637D01*
X113060000Y-94648072D01*
X113184482Y-94635812D01*
X113304180Y-94599502D01*
X113414494Y-94540537D01*
X113511185Y-94461185D01*
X113590537Y-94364494D01*
X113649502Y-94254180D01*
X113685812Y-94134482D01*
X113698072Y-94010000D01*
X113695000Y-92995750D01*
X113536250Y-92837000D01*
X111887000Y-92837000D01*
X111887000Y-92857000D01*
X111633000Y-92857000D01*
X111633000Y-92837000D01*
X109983750Y-92837000D01*
X109856163Y-92964587D01*
X108754999Y-91863423D01*
X108754999Y-91410000D01*
X109821928Y-91410000D01*
X109825000Y-92424250D01*
X109983750Y-92583000D01*
X111633000Y-92583000D01*
X111633000Y-90933750D01*
X111887000Y-90933750D01*
X111887000Y-92583000D01*
X113536250Y-92583000D01*
X113695000Y-92424250D01*
X113698072Y-91410000D01*
X113685812Y-91285518D01*
X113649502Y-91165820D01*
X113590537Y-91055506D01*
X113511185Y-90958815D01*
X113414494Y-90879463D01*
X113304180Y-90820498D01*
X113184482Y-90784188D01*
X113060000Y-90771928D01*
X112045750Y-90775000D01*
X111887000Y-90933750D01*
X111633000Y-90933750D01*
X111474250Y-90775000D01*
X110460000Y-90771928D01*
X110335518Y-90784188D01*
X110215820Y-90820498D01*
X110105506Y-90879463D01*
X110008815Y-90958815D01*
X109929463Y-91055506D01*
X109870498Y-91165820D01*
X109834188Y-91285518D01*
X109821928Y-91410000D01*
X108754999Y-91410000D01*
X108754999Y-82996579D01*
X117848518Y-73903061D01*
X117958816Y-73925000D01*
X118261184Y-73925000D01*
X118557743Y-73866011D01*
X118837095Y-73750299D01*
X119088505Y-73582312D01*
X119302312Y-73368505D01*
X119380000Y-73252237D01*
X119457688Y-73368505D01*
X119671495Y-73582312D01*
X119922905Y-73750299D01*
X120202257Y-73866011D01*
X120498816Y-73925000D01*
X120801184Y-73925000D01*
X121097743Y-73866011D01*
X121377095Y-73750299D01*
X121628505Y-73582312D01*
X121842312Y-73368505D01*
X121920000Y-73252237D01*
X121997688Y-73368505D01*
X122211495Y-73582312D01*
X122462905Y-73750299D01*
X122742257Y-73866011D01*
X123038816Y-73925000D01*
X123341184Y-73925000D01*
X123637743Y-73866011D01*
X123917095Y-73750299D01*
X124168505Y-73582312D01*
X124382312Y-73368505D01*
X124460000Y-73252237D01*
X124537688Y-73368505D01*
X124751495Y-73582312D01*
X124769712Y-73594484D01*
X113834002Y-84530195D01*
X113804998Y-84553998D01*
X113749870Y-84621173D01*
X113710025Y-84669723D01*
X113639454Y-84801752D01*
X113639453Y-84801753D01*
X113595996Y-84945014D01*
X113584999Y-85056667D01*
X113584999Y-85056677D01*
X113581323Y-85093999D01*
X113584999Y-85131322D01*
X113584999Y-86198416D01*
X113477743Y-86153989D01*
X113181184Y-86095000D01*
X112878816Y-86095000D01*
X112582257Y-86153989D01*
X112302905Y-86269701D01*
X112051495Y-86437688D01*
X111837688Y-86651495D01*
X111760000Y-86767763D01*
X111682312Y-86651495D01*
X111468505Y-86437688D01*
X111217095Y-86269701D01*
X110937743Y-86153989D01*
X110641184Y-86095000D01*
X110338816Y-86095000D01*
X110042257Y-86153989D01*
X109762905Y-86269701D01*
X109511495Y-86437688D01*
X109297688Y-86651495D01*
X109129701Y-86902905D01*
X109013989Y-87182257D01*
X108955000Y-87478816D01*
X108955000Y-87781184D01*
X109013989Y-88077743D01*
X109129701Y-88357095D01*
X109297688Y-88608505D01*
X109511495Y-88822312D01*
X109762905Y-88990299D01*
X110042257Y-89106011D01*
X110338816Y-89165000D01*
X110641184Y-89165000D01*
X110937743Y-89106011D01*
X111217095Y-88990299D01*
X111468505Y-88822312D01*
X111682312Y-88608505D01*
X111760000Y-88492237D01*
X111837688Y-88608505D01*
X112051495Y-88822312D01*
X112302905Y-88990299D01*
X112582257Y-89106011D01*
X112878816Y-89165000D01*
X113181184Y-89165000D01*
X113477743Y-89106011D01*
X113757095Y-88990299D01*
X113928180Y-88875983D01*
X115098198Y-90046002D01*
X115121997Y-90075001D01*
X115237722Y-90169974D01*
X115369751Y-90240546D01*
X115513012Y-90284003D01*
X115624665Y-90295000D01*
X115624675Y-90295000D01*
X115661998Y-90298676D01*
X115699321Y-90295000D01*
X119063789Y-90295000D01*
X119255000Y-90486212D01*
X119255001Y-109541552D01*
X119237601Y-109562754D01*
X119190025Y-109620725D01*
X119177437Y-109644276D01*
X119119453Y-109752755D01*
X119075996Y-109896016D01*
X119064999Y-110007669D01*
X119064999Y-110007679D01*
X119061323Y-110045001D01*
X119064999Y-110082323D01*
X119064999Y-110848679D01*
X119061323Y-110886001D01*
X119064999Y-110923323D01*
X119064999Y-110923334D01*
X119075506Y-111030001D01*
X119075997Y-111034986D01*
X119119453Y-111178247D01*
X119190025Y-111310277D01*
X119238462Y-111369297D01*
X119255000Y-111389448D01*
X119255001Y-114866288D01*
X119211063Y-114910226D01*
X119097795Y-115079744D01*
X119019774Y-115268102D01*
X118980000Y-115468061D01*
X118980000Y-115671939D01*
X119019774Y-115871898D01*
X119097795Y-116060256D01*
X119211063Y-116229774D01*
X119255000Y-116273711D01*
X119255000Y-116756811D01*
X119246313Y-116845011D01*
X119249990Y-116882343D01*
X119249989Y-118655078D01*
X119246313Y-118692401D01*
X119249989Y-118729723D01*
X119249989Y-118729733D01*
X119255001Y-118780620D01*
X119255000Y-132401554D01*
X119190025Y-132480725D01*
X119119453Y-132612755D01*
X119089179Y-132712559D01*
X119075997Y-132756015D01*
X119064999Y-132867668D01*
X119064999Y-132867679D01*
X119061323Y-132905001D01*
X119064999Y-132942323D01*
X119064999Y-133708679D01*
X119061323Y-133746001D01*
X119064999Y-133783323D01*
X119064999Y-133783333D01*
X119075996Y-133894986D01*
X119103293Y-133984974D01*
X119119453Y-134038247D01*
X119190025Y-134170277D01*
X119229870Y-134218827D01*
X119255001Y-134249450D01*
X119255000Y-137726289D01*
X119211063Y-137770226D01*
X119097795Y-137939744D01*
X119019774Y-138128102D01*
X118980000Y-138328061D01*
X118980000Y-138531939D01*
X119019774Y-138731898D01*
X119097795Y-138920256D01*
X119211063Y-139089774D01*
X119355226Y-139233937D01*
X119524744Y-139347205D01*
X119713102Y-139425226D01*
X119913061Y-139465000D01*
X120116939Y-139465000D01*
X120316898Y-139425226D01*
X120505256Y-139347205D01*
X120525000Y-139334012D01*
X120525000Y-140266289D01*
X120481063Y-140310226D01*
X120367795Y-140479744D01*
X120289774Y-140668102D01*
X120250000Y-140868061D01*
X120250000Y-141071939D01*
X120289774Y-141271898D01*
X120367795Y-141460256D01*
X120481063Y-141629774D01*
X120625226Y-141773937D01*
X120794744Y-141887205D01*
X120983102Y-141965226D01*
X121183061Y-142005000D01*
X121386939Y-142005000D01*
X121586898Y-141965226D01*
X121775256Y-141887205D01*
X121944774Y-141773937D01*
X122088937Y-141629774D01*
X122202205Y-141460256D01*
X122280226Y-141271898D01*
X122320000Y-141071939D01*
X122320000Y-140868061D01*
X122280226Y-140668102D01*
X122202205Y-140479744D01*
X122088937Y-140310226D01*
X122045000Y-140266289D01*
X122045000Y-134249449D01*
X122109975Y-134170277D01*
X122180547Y-134038248D01*
X122224004Y-133894987D01*
X122235001Y-133783334D01*
X122235001Y-133783324D01*
X122238677Y-133746001D01*
X122235001Y-133708679D01*
X122235001Y-132942323D01*
X122238677Y-132905001D01*
X122235001Y-132867678D01*
X122235001Y-132867668D01*
X122224004Y-132756015D01*
X122180547Y-132612754D01*
X122109975Y-132480725D01*
X122045000Y-132401553D01*
X122045000Y-118813711D01*
X122088937Y-118769774D01*
X122202205Y-118600256D01*
X122280226Y-118411898D01*
X122320000Y-118211939D01*
X122320000Y-118008061D01*
X122280226Y-117808102D01*
X122202205Y-117619744D01*
X122088937Y-117450226D01*
X122045000Y-117406289D01*
X122045000Y-116288199D01*
X122050011Y-116237322D01*
X122050011Y-116237321D01*
X122053688Y-116199989D01*
X122050011Y-116162656D01*
X122050011Y-111442363D01*
X122109975Y-111369297D01*
X122180547Y-111237268D01*
X122224004Y-111094007D01*
X122235001Y-110982354D01*
X122235001Y-110982345D01*
X122238677Y-110945022D01*
X122235001Y-110907699D01*
X122235001Y-110082323D01*
X122238677Y-110045001D01*
X122235001Y-110007678D01*
X122235001Y-110007668D01*
X122224004Y-109896015D01*
X122180547Y-109752754D01*
X122109975Y-109620725D01*
X122045000Y-109541553D01*
X122045000Y-90115325D01*
X122046392Y-90101193D01*
X123065000Y-91119802D01*
X123065001Y-137757667D01*
X123061324Y-137795000D01*
X123075998Y-137943985D01*
X123119454Y-138087246D01*
X123190026Y-138219276D01*
X123238890Y-138278816D01*
X123285000Y-138335001D01*
X123313998Y-138358799D01*
X128056269Y-143101070D01*
X128005000Y-143358816D01*
X128005000Y-143661184D01*
X128063989Y-143957743D01*
X128179701Y-144237095D01*
X128347688Y-144488505D01*
X128561495Y-144702312D01*
X128812905Y-144870299D01*
X129092257Y-144986011D01*
X129388816Y-145045000D01*
X129691184Y-145045000D01*
X129987743Y-144986011D01*
X130267095Y-144870299D01*
X130518505Y-144702312D01*
X130732312Y-144488505D01*
X130804812Y-144380000D01*
X144311928Y-144380000D01*
X144324188Y-144504482D01*
X144360498Y-144624180D01*
X144419463Y-144734494D01*
X144498815Y-144831185D01*
X144595506Y-144910537D01*
X144705820Y-144969502D01*
X144825518Y-145005812D01*
X144950000Y-145018072D01*
X145764250Y-145015000D01*
X145923000Y-144856250D01*
X145923000Y-143637000D01*
X146177000Y-143637000D01*
X146177000Y-144856250D01*
X146335750Y-145015000D01*
X147150000Y-145018072D01*
X147274482Y-145005812D01*
X147394180Y-144969502D01*
X147504494Y-144910537D01*
X147601185Y-144831185D01*
X147680537Y-144734494D01*
X147739502Y-144624180D01*
X147775812Y-144504482D01*
X147788072Y-144380000D01*
X154471928Y-144380000D01*
X154484188Y-144504482D01*
X154520498Y-144624180D01*
X154579463Y-144734494D01*
X154658815Y-144831185D01*
X154755506Y-144910537D01*
X154865820Y-144969502D01*
X154985518Y-145005812D01*
X155110000Y-145018072D01*
X155924250Y-145015000D01*
X156083000Y-144856250D01*
X156083000Y-143637000D01*
X156337000Y-143637000D01*
X156337000Y-144856250D01*
X156495750Y-145015000D01*
X157310000Y-145018072D01*
X157434482Y-145005812D01*
X157554180Y-144969502D01*
X157664494Y-144910537D01*
X157761185Y-144831185D01*
X157840537Y-144734494D01*
X157899502Y-144624180D01*
X157935812Y-144504482D01*
X157948072Y-144380000D01*
X157945000Y-143795750D01*
X157786250Y-143637000D01*
X156337000Y-143637000D01*
X156083000Y-143637000D01*
X154633750Y-143637000D01*
X154475000Y-143795750D01*
X154471928Y-144380000D01*
X147788072Y-144380000D01*
X147785000Y-143795750D01*
X147626250Y-143637000D01*
X146177000Y-143637000D01*
X145923000Y-143637000D01*
X144473750Y-143637000D01*
X144315000Y-143795750D01*
X144311928Y-144380000D01*
X130804812Y-144380000D01*
X130900299Y-144237095D01*
X131016011Y-143957743D01*
X131075000Y-143661184D01*
X131075000Y-143358816D01*
X131038069Y-143173148D01*
X135136457Y-143173148D01*
X135412627Y-143591118D01*
X135957557Y-143881649D01*
X136548696Y-144060287D01*
X137163328Y-144120168D01*
X137777831Y-144058990D01*
X138368592Y-143879103D01*
X138907373Y-143591118D01*
X139183543Y-143173148D01*
X137160000Y-141149605D01*
X135136457Y-143173148D01*
X131038069Y-143173148D01*
X131016011Y-143062257D01*
X130900299Y-142782905D01*
X130732312Y-142531495D01*
X130518505Y-142317688D01*
X130402237Y-142240000D01*
X130518505Y-142162312D01*
X130732312Y-141948505D01*
X130900299Y-141697095D01*
X131016011Y-141417743D01*
X131075000Y-141121184D01*
X131075000Y-140973328D01*
X134009832Y-140973328D01*
X134071010Y-141587831D01*
X134250897Y-142178592D01*
X134538882Y-142717373D01*
X134956852Y-142993543D01*
X136980395Y-140970000D01*
X137339605Y-140970000D01*
X139363148Y-142993543D01*
X139781118Y-142717373D01*
X140071649Y-142172443D01*
X140250287Y-141581304D01*
X140310168Y-140966672D01*
X140248990Y-140352169D01*
X140069103Y-139761408D01*
X139781118Y-139222627D01*
X139363148Y-138946457D01*
X137339605Y-140970000D01*
X136980395Y-140970000D01*
X134956852Y-138946457D01*
X134538882Y-139222627D01*
X134248351Y-139767557D01*
X134069713Y-140358696D01*
X134009832Y-140973328D01*
X131075000Y-140973328D01*
X131075000Y-140818816D01*
X131016011Y-140522257D01*
X130900299Y-140242905D01*
X130732312Y-139991495D01*
X130518505Y-139777688D01*
X130402237Y-139700000D01*
X130518505Y-139622312D01*
X130732312Y-139408505D01*
X130900299Y-139157095D01*
X131016011Y-138877743D01*
X131038068Y-138766852D01*
X135136457Y-138766852D01*
X137160000Y-140790395D01*
X139183543Y-138766852D01*
X138960972Y-138430000D01*
X144307718Y-138430000D01*
X144336776Y-138725032D01*
X144422834Y-139008725D01*
X144562583Y-139270179D01*
X144750655Y-139499345D01*
X144979821Y-139687417D01*
X145003362Y-139700000D01*
X144979821Y-139712583D01*
X144750655Y-139900655D01*
X144562583Y-140129821D01*
X144422834Y-140391275D01*
X144336776Y-140674968D01*
X144307718Y-140970000D01*
X144336776Y-141265032D01*
X144422834Y-141548725D01*
X144562583Y-141810179D01*
X144749047Y-142037385D01*
X144705820Y-142050498D01*
X144595506Y-142109463D01*
X144498815Y-142188815D01*
X144419463Y-142285506D01*
X144360498Y-142395820D01*
X144324188Y-142515518D01*
X144311928Y-142640000D01*
X144315000Y-143224250D01*
X144473750Y-143383000D01*
X145923000Y-143383000D01*
X145923000Y-143363000D01*
X146177000Y-143363000D01*
X146177000Y-143383000D01*
X147626250Y-143383000D01*
X147785000Y-143224250D01*
X147788072Y-142640000D01*
X147775812Y-142515518D01*
X147739502Y-142395820D01*
X147680537Y-142285506D01*
X147601185Y-142188815D01*
X147504494Y-142109463D01*
X147394180Y-142050498D01*
X147350953Y-142037385D01*
X147537417Y-141810179D01*
X147677166Y-141548725D01*
X147763224Y-141265032D01*
X147792282Y-140970000D01*
X147763224Y-140674968D01*
X147677166Y-140391275D01*
X147537417Y-140129821D01*
X147349345Y-139900655D01*
X147120179Y-139712583D01*
X147096638Y-139700000D01*
X147120179Y-139687417D01*
X147349345Y-139499345D01*
X147537417Y-139270179D01*
X147677166Y-139008725D01*
X147763224Y-138725032D01*
X147792282Y-138430000D01*
X154467718Y-138430000D01*
X154496776Y-138725032D01*
X154582834Y-139008725D01*
X154722583Y-139270179D01*
X154910655Y-139499345D01*
X155139821Y-139687417D01*
X155163362Y-139700000D01*
X155139821Y-139712583D01*
X154910655Y-139900655D01*
X154722583Y-140129821D01*
X154582834Y-140391275D01*
X154496776Y-140674968D01*
X154467718Y-140970000D01*
X154496776Y-141265032D01*
X154582834Y-141548725D01*
X154722583Y-141810179D01*
X154909047Y-142037385D01*
X154865820Y-142050498D01*
X154755506Y-142109463D01*
X154658815Y-142188815D01*
X154579463Y-142285506D01*
X154520498Y-142395820D01*
X154484188Y-142515518D01*
X154471928Y-142640000D01*
X154475000Y-143224250D01*
X154633750Y-143383000D01*
X156083000Y-143383000D01*
X156083000Y-143363000D01*
X156337000Y-143363000D01*
X156337000Y-143383000D01*
X157786250Y-143383000D01*
X157945000Y-143224250D01*
X157948072Y-142640000D01*
X157935812Y-142515518D01*
X157899502Y-142395820D01*
X157840537Y-142285506D01*
X157761185Y-142188815D01*
X157664494Y-142109463D01*
X157554180Y-142050498D01*
X157510953Y-142037385D01*
X157697417Y-141810179D01*
X157837166Y-141548725D01*
X157923224Y-141265032D01*
X157952282Y-140970000D01*
X157923224Y-140674968D01*
X157837166Y-140391275D01*
X157697417Y-140129821D01*
X157509345Y-139900655D01*
X157280179Y-139712583D01*
X157256638Y-139700000D01*
X157280179Y-139687417D01*
X157509345Y-139499345D01*
X157697417Y-139270179D01*
X157837166Y-139008725D01*
X157923224Y-138725032D01*
X157952282Y-138430000D01*
X157923224Y-138134968D01*
X157837166Y-137851275D01*
X157697417Y-137589821D01*
X157509345Y-137360655D01*
X157280179Y-137172583D01*
X157018725Y-137032834D01*
X156735032Y-136946776D01*
X156513936Y-136925000D01*
X155906064Y-136925000D01*
X155684968Y-136946776D01*
X155401275Y-137032834D01*
X155139821Y-137172583D01*
X154910655Y-137360655D01*
X154722583Y-137589821D01*
X154582834Y-137851275D01*
X154496776Y-138134968D01*
X154467718Y-138430000D01*
X147792282Y-138430000D01*
X147763224Y-138134968D01*
X147677166Y-137851275D01*
X147537417Y-137589821D01*
X147349345Y-137360655D01*
X147120179Y-137172583D01*
X146858725Y-137032834D01*
X146575032Y-136946776D01*
X146353936Y-136925000D01*
X145746064Y-136925000D01*
X145524968Y-136946776D01*
X145241275Y-137032834D01*
X144979821Y-137172583D01*
X144750655Y-137360655D01*
X144562583Y-137589821D01*
X144422834Y-137851275D01*
X144336776Y-138134968D01*
X144307718Y-138430000D01*
X138960972Y-138430000D01*
X138907373Y-138348882D01*
X138362443Y-138058351D01*
X137771304Y-137879713D01*
X137156672Y-137819832D01*
X136542169Y-137881010D01*
X135951408Y-138060897D01*
X135412627Y-138348882D01*
X135136457Y-138766852D01*
X131038068Y-138766852D01*
X131075000Y-138581184D01*
X131075000Y-138278816D01*
X131016011Y-137982257D01*
X130900299Y-137702905D01*
X130732312Y-137451495D01*
X130518505Y-137237688D01*
X130402237Y-137160000D01*
X130518505Y-137082312D01*
X130732312Y-136868505D01*
X130900299Y-136617095D01*
X131016011Y-136337743D01*
X131075000Y-136041184D01*
X131075000Y-135738816D01*
X131016011Y-135442257D01*
X130900299Y-135162905D01*
X130732312Y-134911495D01*
X130518505Y-134697688D01*
X130402237Y-134620000D01*
X130518505Y-134542312D01*
X130732312Y-134328505D01*
X130900299Y-134077095D01*
X131016011Y-133797743D01*
X131075000Y-133501184D01*
X131075000Y-133198816D01*
X131016011Y-132902257D01*
X130900299Y-132622905D01*
X130732312Y-132371495D01*
X130518505Y-132157688D01*
X130402237Y-132080000D01*
X130518505Y-132002312D01*
X130732312Y-131788505D01*
X130900299Y-131537095D01*
X131016011Y-131257743D01*
X131075000Y-130961184D01*
X131075000Y-130658816D01*
X131016011Y-130362257D01*
X130900299Y-130082905D01*
X130732312Y-129831495D01*
X130518505Y-129617688D01*
X130432170Y-129560000D01*
X132731928Y-129560000D01*
X132731928Y-132060000D01*
X132744188Y-132184482D01*
X132780498Y-132304180D01*
X132839463Y-132414494D01*
X132918815Y-132511185D01*
X133015506Y-132590537D01*
X133125820Y-132649502D01*
X133245518Y-132685812D01*
X133370000Y-132698072D01*
X135870000Y-132698072D01*
X135994482Y-132685812D01*
X136114180Y-132649502D01*
X136224494Y-132590537D01*
X136321185Y-132511185D01*
X136400537Y-132414494D01*
X136459502Y-132304180D01*
X136495812Y-132184482D01*
X136508072Y-132060000D01*
X136508072Y-130624344D01*
X147735000Y-130624344D01*
X147735000Y-130995656D01*
X147807439Y-131359834D01*
X147949534Y-131702882D01*
X148155825Y-132011618D01*
X148418382Y-132274175D01*
X148727118Y-132480466D01*
X149070166Y-132622561D01*
X149434344Y-132695000D01*
X149805656Y-132695000D01*
X150169834Y-132622561D01*
X150512882Y-132480466D01*
X150821618Y-132274175D01*
X151084175Y-132011618D01*
X151290466Y-131702882D01*
X151432561Y-131359834D01*
X151505000Y-130995656D01*
X151505000Y-130624344D01*
X152735000Y-130624344D01*
X152735000Y-130995656D01*
X152807439Y-131359834D01*
X152949534Y-131702882D01*
X153155825Y-132011618D01*
X153418382Y-132274175D01*
X153727118Y-132480466D01*
X154070166Y-132622561D01*
X154434344Y-132695000D01*
X154805656Y-132695000D01*
X155169834Y-132622561D01*
X155512882Y-132480466D01*
X155821618Y-132274175D01*
X156084175Y-132011618D01*
X156290466Y-131702882D01*
X156432561Y-131359834D01*
X156505000Y-130995656D01*
X156505000Y-130624344D01*
X156432561Y-130260166D01*
X156290466Y-129917118D01*
X156084175Y-129608382D01*
X155821618Y-129345825D01*
X155512882Y-129139534D01*
X155169834Y-128997439D01*
X154805656Y-128925000D01*
X154434344Y-128925000D01*
X154070166Y-128997439D01*
X153727118Y-129139534D01*
X153418382Y-129345825D01*
X153155825Y-129608382D01*
X152949534Y-129917118D01*
X152807439Y-130260166D01*
X152735000Y-130624344D01*
X151505000Y-130624344D01*
X151432561Y-130260166D01*
X151290466Y-129917118D01*
X151084175Y-129608382D01*
X150821618Y-129345825D01*
X150512882Y-129139534D01*
X150169834Y-128997439D01*
X149805656Y-128925000D01*
X149434344Y-128925000D01*
X149070166Y-128997439D01*
X148727118Y-129139534D01*
X148418382Y-129345825D01*
X148155825Y-129608382D01*
X147949534Y-129917118D01*
X147807439Y-130260166D01*
X147735000Y-130624344D01*
X136508072Y-130624344D01*
X136508072Y-129560000D01*
X136495812Y-129435518D01*
X136459502Y-129315820D01*
X136400537Y-129205506D01*
X136321185Y-129108815D01*
X136224494Y-129029463D01*
X136114180Y-128970498D01*
X135994482Y-128934188D01*
X135870000Y-128921928D01*
X133370000Y-128921928D01*
X133245518Y-128934188D01*
X133125820Y-128970498D01*
X133015506Y-129029463D01*
X132918815Y-129108815D01*
X132839463Y-129205506D01*
X132780498Y-129315820D01*
X132744188Y-129435518D01*
X132731928Y-129560000D01*
X130432170Y-129560000D01*
X130402237Y-129540000D01*
X130518505Y-129462312D01*
X130732312Y-129248505D01*
X130900299Y-128997095D01*
X131016011Y-128717743D01*
X131075000Y-128421184D01*
X131075000Y-128118816D01*
X131016011Y-127822257D01*
X130900299Y-127542905D01*
X130732312Y-127291495D01*
X130518505Y-127077688D01*
X130402237Y-127000000D01*
X130518505Y-126922312D01*
X130732312Y-126708505D01*
X130900299Y-126457095D01*
X131016011Y-126177743D01*
X131075000Y-125881184D01*
X131075000Y-125578816D01*
X131016011Y-125282257D01*
X130900299Y-125002905D01*
X130732312Y-124751495D01*
X130518505Y-124537688D01*
X130267095Y-124369701D01*
X129987743Y-124253989D01*
X129691184Y-124195000D01*
X129388816Y-124195000D01*
X129131070Y-124246269D01*
X128009145Y-123124344D01*
X132735000Y-123124344D01*
X132735000Y-123495656D01*
X132807439Y-123859834D01*
X132949534Y-124202882D01*
X133155825Y-124511618D01*
X133418382Y-124774175D01*
X133727118Y-124980466D01*
X134070166Y-125122561D01*
X134434344Y-125195000D01*
X134805656Y-125195000D01*
X135169834Y-125122561D01*
X135512882Y-124980466D01*
X135821618Y-124774175D01*
X136084175Y-124511618D01*
X136290466Y-124202882D01*
X136432561Y-123859834D01*
X136505000Y-123495656D01*
X136505000Y-123124344D01*
X147735000Y-123124344D01*
X147735000Y-123495656D01*
X147807439Y-123859834D01*
X147949534Y-124202882D01*
X148155825Y-124511618D01*
X148418382Y-124774175D01*
X148727118Y-124980466D01*
X149070166Y-125122561D01*
X149434344Y-125195000D01*
X149805656Y-125195000D01*
X150169834Y-125122561D01*
X150512882Y-124980466D01*
X150821618Y-124774175D01*
X151084175Y-124511618D01*
X151290466Y-124202882D01*
X151432561Y-123859834D01*
X151505000Y-123495656D01*
X151505000Y-123124344D01*
X152735000Y-123124344D01*
X152735000Y-123495656D01*
X152807439Y-123859834D01*
X152949534Y-124202882D01*
X153155825Y-124511618D01*
X153418382Y-124774175D01*
X153727118Y-124980466D01*
X154070166Y-125122561D01*
X154434344Y-125195000D01*
X154805656Y-125195000D01*
X155169834Y-125122561D01*
X155512882Y-124980466D01*
X155821618Y-124774175D01*
X156084175Y-124511618D01*
X156290466Y-124202882D01*
X156432561Y-123859834D01*
X156505000Y-123495656D01*
X156505000Y-123124344D01*
X156432561Y-122760166D01*
X156290466Y-122417118D01*
X156084175Y-122108382D01*
X155821618Y-121845825D01*
X155512882Y-121639534D01*
X155169834Y-121497439D01*
X154805656Y-121425000D01*
X154434344Y-121425000D01*
X154070166Y-121497439D01*
X153727118Y-121639534D01*
X153418382Y-121845825D01*
X153155825Y-122108382D01*
X152949534Y-122417118D01*
X152807439Y-122760166D01*
X152735000Y-123124344D01*
X151505000Y-123124344D01*
X151432561Y-122760166D01*
X151290466Y-122417118D01*
X151084175Y-122108382D01*
X150821618Y-121845825D01*
X150512882Y-121639534D01*
X150169834Y-121497439D01*
X149805656Y-121425000D01*
X149434344Y-121425000D01*
X149070166Y-121497439D01*
X148727118Y-121639534D01*
X148418382Y-121845825D01*
X148155825Y-122108382D01*
X147949534Y-122417118D01*
X147807439Y-122760166D01*
X147735000Y-123124344D01*
X136505000Y-123124344D01*
X136432561Y-122760166D01*
X136290466Y-122417118D01*
X136084175Y-122108382D01*
X135821618Y-121845825D01*
X135512882Y-121639534D01*
X135169834Y-121497439D01*
X134805656Y-121425000D01*
X134434344Y-121425000D01*
X134070166Y-121497439D01*
X133727118Y-121639534D01*
X133418382Y-121845825D01*
X133155825Y-122108382D01*
X132949534Y-122417118D01*
X132807439Y-122760166D01*
X132735000Y-123124344D01*
X128009145Y-123124344D01*
X126490000Y-121605199D01*
X126490000Y-118674801D01*
X128056269Y-120241070D01*
X128005000Y-120498816D01*
X128005000Y-120801184D01*
X128063989Y-121097743D01*
X128179701Y-121377095D01*
X128347688Y-121628505D01*
X128561495Y-121842312D01*
X128812905Y-122010299D01*
X129092257Y-122126011D01*
X129388816Y-122185000D01*
X129691184Y-122185000D01*
X129987743Y-122126011D01*
X130267095Y-122010299D01*
X130518505Y-121842312D01*
X130732312Y-121628505D01*
X130900299Y-121377095D01*
X131016011Y-121097743D01*
X131075000Y-120801184D01*
X131075000Y-120498816D01*
X131016011Y-120202257D01*
X130900299Y-119922905D01*
X130732312Y-119671495D01*
X130518505Y-119457688D01*
X130402237Y-119380000D01*
X130518505Y-119302312D01*
X130732312Y-119088505D01*
X130900299Y-118837095D01*
X131016011Y-118557743D01*
X131075000Y-118261184D01*
X131075000Y-117958816D01*
X131016011Y-117662257D01*
X130900299Y-117382905D01*
X130732312Y-117131495D01*
X130518505Y-116917688D01*
X130402237Y-116840000D01*
X130518505Y-116762312D01*
X130732312Y-116548505D01*
X130900299Y-116297095D01*
X131016011Y-116017743D01*
X131075000Y-115721184D01*
X131075000Y-115418816D01*
X131016011Y-115122257D01*
X130900299Y-114842905D01*
X130732312Y-114591495D01*
X130518505Y-114377688D01*
X130432170Y-114320000D01*
X132731928Y-114320000D01*
X132731928Y-116820000D01*
X132744188Y-116944482D01*
X132780498Y-117064180D01*
X132839463Y-117174494D01*
X132918815Y-117271185D01*
X133015506Y-117350537D01*
X133125820Y-117409502D01*
X133245518Y-117445812D01*
X133370000Y-117458072D01*
X135870000Y-117458072D01*
X135994482Y-117445812D01*
X136114180Y-117409502D01*
X136224494Y-117350537D01*
X136321185Y-117271185D01*
X136400537Y-117174494D01*
X136459502Y-117064180D01*
X136495812Y-116944482D01*
X136508072Y-116820000D01*
X136508072Y-115384344D01*
X147735000Y-115384344D01*
X147735000Y-115755656D01*
X147807439Y-116119834D01*
X147949534Y-116462882D01*
X148155825Y-116771618D01*
X148418382Y-117034175D01*
X148727118Y-117240466D01*
X149070166Y-117382561D01*
X149434344Y-117455000D01*
X149805656Y-117455000D01*
X150169834Y-117382561D01*
X150512882Y-117240466D01*
X150821618Y-117034175D01*
X151084175Y-116771618D01*
X151290466Y-116462882D01*
X151432561Y-116119834D01*
X151505000Y-115755656D01*
X151505000Y-115384344D01*
X152735000Y-115384344D01*
X152735000Y-115755656D01*
X152807439Y-116119834D01*
X152949534Y-116462882D01*
X153155825Y-116771618D01*
X153418382Y-117034175D01*
X153727118Y-117240466D01*
X154070166Y-117382561D01*
X154434344Y-117455000D01*
X154805656Y-117455000D01*
X155169834Y-117382561D01*
X155512882Y-117240466D01*
X155821618Y-117034175D01*
X156084175Y-116771618D01*
X156290466Y-116462882D01*
X156432561Y-116119834D01*
X156505000Y-115755656D01*
X156505000Y-115384344D01*
X156432561Y-115020166D01*
X156290466Y-114677118D01*
X156084175Y-114368382D01*
X155821618Y-114105825D01*
X155512882Y-113899534D01*
X155169834Y-113757439D01*
X154805656Y-113685000D01*
X154434344Y-113685000D01*
X154070166Y-113757439D01*
X153727118Y-113899534D01*
X153418382Y-114105825D01*
X153155825Y-114368382D01*
X152949534Y-114677118D01*
X152807439Y-115020166D01*
X152735000Y-115384344D01*
X151505000Y-115384344D01*
X151432561Y-115020166D01*
X151290466Y-114677118D01*
X151084175Y-114368382D01*
X150821618Y-114105825D01*
X150512882Y-113899534D01*
X150169834Y-113757439D01*
X149805656Y-113685000D01*
X149434344Y-113685000D01*
X149070166Y-113757439D01*
X148727118Y-113899534D01*
X148418382Y-114105825D01*
X148155825Y-114368382D01*
X147949534Y-114677118D01*
X147807439Y-115020166D01*
X147735000Y-115384344D01*
X136508072Y-115384344D01*
X136508072Y-114320000D01*
X136495812Y-114195518D01*
X136459502Y-114075820D01*
X136400537Y-113965506D01*
X136321185Y-113868815D01*
X136224494Y-113789463D01*
X136114180Y-113730498D01*
X135994482Y-113694188D01*
X135870000Y-113681928D01*
X133370000Y-113681928D01*
X133245518Y-113694188D01*
X133125820Y-113730498D01*
X133015506Y-113789463D01*
X132918815Y-113868815D01*
X132839463Y-113965506D01*
X132780498Y-114075820D01*
X132744188Y-114195518D01*
X132731928Y-114320000D01*
X130432170Y-114320000D01*
X130402237Y-114300000D01*
X130518505Y-114222312D01*
X130732312Y-114008505D01*
X130900299Y-113757095D01*
X131016011Y-113477743D01*
X131075000Y-113181184D01*
X131075000Y-112878816D01*
X131016011Y-112582257D01*
X130900299Y-112302905D01*
X130732312Y-112051495D01*
X130518505Y-111837688D01*
X130402237Y-111760000D01*
X130518505Y-111682312D01*
X130732312Y-111468505D01*
X130900299Y-111217095D01*
X131016011Y-110937743D01*
X131075000Y-110641184D01*
X131075000Y-110338816D01*
X131016011Y-110042257D01*
X130900299Y-109762905D01*
X130732312Y-109511495D01*
X130518505Y-109297688D01*
X130402237Y-109220000D01*
X130518505Y-109142312D01*
X130732312Y-108928505D01*
X130900299Y-108677095D01*
X131016011Y-108397743D01*
X131075000Y-108101184D01*
X131075000Y-107884344D01*
X132735000Y-107884344D01*
X132735000Y-108255656D01*
X132807439Y-108619834D01*
X132949534Y-108962882D01*
X133155825Y-109271618D01*
X133418382Y-109534175D01*
X133727118Y-109740466D01*
X134070166Y-109882561D01*
X134434344Y-109955000D01*
X134805656Y-109955000D01*
X135169834Y-109882561D01*
X135512882Y-109740466D01*
X135821618Y-109534175D01*
X136084175Y-109271618D01*
X136290466Y-108962882D01*
X136432561Y-108619834D01*
X136505000Y-108255656D01*
X136505000Y-107884344D01*
X147735000Y-107884344D01*
X147735000Y-108255656D01*
X147807439Y-108619834D01*
X147949534Y-108962882D01*
X148155825Y-109271618D01*
X148418382Y-109534175D01*
X148727118Y-109740466D01*
X149070166Y-109882561D01*
X149434344Y-109955000D01*
X149805656Y-109955000D01*
X150169834Y-109882561D01*
X150512882Y-109740466D01*
X150821618Y-109534175D01*
X151084175Y-109271618D01*
X151290466Y-108962882D01*
X151432561Y-108619834D01*
X151505000Y-108255656D01*
X151505000Y-107884344D01*
X152735000Y-107884344D01*
X152735000Y-108255656D01*
X152807439Y-108619834D01*
X152949534Y-108962882D01*
X153155825Y-109271618D01*
X153418382Y-109534175D01*
X153727118Y-109740466D01*
X154070166Y-109882561D01*
X154434344Y-109955000D01*
X154805656Y-109955000D01*
X155169834Y-109882561D01*
X155512882Y-109740466D01*
X155821618Y-109534175D01*
X156084175Y-109271618D01*
X156290466Y-108962882D01*
X156432561Y-108619834D01*
X156505000Y-108255656D01*
X156505000Y-107884344D01*
X156432561Y-107520166D01*
X156290466Y-107177118D01*
X156084175Y-106868382D01*
X155821618Y-106605825D01*
X155512882Y-106399534D01*
X155169834Y-106257439D01*
X154805656Y-106185000D01*
X154434344Y-106185000D01*
X154070166Y-106257439D01*
X153727118Y-106399534D01*
X153418382Y-106605825D01*
X153155825Y-106868382D01*
X152949534Y-107177118D01*
X152807439Y-107520166D01*
X152735000Y-107884344D01*
X151505000Y-107884344D01*
X151432561Y-107520166D01*
X151290466Y-107177118D01*
X151084175Y-106868382D01*
X150821618Y-106605825D01*
X150512882Y-106399534D01*
X150169834Y-106257439D01*
X149805656Y-106185000D01*
X149434344Y-106185000D01*
X149070166Y-106257439D01*
X148727118Y-106399534D01*
X148418382Y-106605825D01*
X148155825Y-106868382D01*
X147949534Y-107177118D01*
X147807439Y-107520166D01*
X147735000Y-107884344D01*
X136505000Y-107884344D01*
X136432561Y-107520166D01*
X136290466Y-107177118D01*
X136084175Y-106868382D01*
X135821618Y-106605825D01*
X135512882Y-106399534D01*
X135169834Y-106257439D01*
X134805656Y-106185000D01*
X134434344Y-106185000D01*
X134070166Y-106257439D01*
X133727118Y-106399534D01*
X133418382Y-106605825D01*
X133155825Y-106868382D01*
X132949534Y-107177118D01*
X132807439Y-107520166D01*
X132735000Y-107884344D01*
X131075000Y-107884344D01*
X131075000Y-107798816D01*
X131016011Y-107502257D01*
X130900299Y-107222905D01*
X130732312Y-106971495D01*
X130518505Y-106757688D01*
X130402237Y-106680000D01*
X130518505Y-106602312D01*
X130732312Y-106388505D01*
X130900299Y-106137095D01*
X131016011Y-105857743D01*
X131075000Y-105561184D01*
X131075000Y-105258816D01*
X131016011Y-104962257D01*
X130900299Y-104682905D01*
X130732312Y-104431495D01*
X130518505Y-104217688D01*
X130402237Y-104140000D01*
X130518505Y-104062312D01*
X130732312Y-103848505D01*
X130900299Y-103597095D01*
X131016011Y-103317743D01*
X131075000Y-103021184D01*
X131075000Y-102718816D01*
X131016011Y-102422257D01*
X130900299Y-102142905D01*
X130732312Y-101891495D01*
X130518505Y-101677688D01*
X130267095Y-101509701D01*
X129987743Y-101393989D01*
X129691184Y-101335000D01*
X129388816Y-101335000D01*
X129131070Y-101386269D01*
X129030000Y-101285199D01*
X129030000Y-97645506D01*
X129179764Y-97707540D01*
X129418363Y-97755000D01*
X129661637Y-97755000D01*
X129900236Y-97707540D01*
X130124992Y-97614443D01*
X130327267Y-97479287D01*
X130499287Y-97307267D01*
X130634443Y-97104992D01*
X130710046Y-96922471D01*
X130785604Y-97104907D01*
X130920742Y-97307174D01*
X131092744Y-97479191D01*
X131295000Y-97614346D01*
X131519737Y-97707446D01*
X131758319Y-97754913D01*
X131953000Y-97599994D01*
X131953000Y-96647000D01*
X132207000Y-96647000D01*
X132207000Y-97599994D01*
X132401681Y-97754913D01*
X132640263Y-97707446D01*
X132865000Y-97614346D01*
X133067256Y-97479191D01*
X133239258Y-97307174D01*
X133374396Y-97104907D01*
X133467477Y-96880162D01*
X133473462Y-96837609D01*
X133348731Y-96647000D01*
X132207000Y-96647000D01*
X131953000Y-96647000D01*
X131933000Y-96647000D01*
X131933000Y-96393000D01*
X131953000Y-96393000D01*
X131953000Y-96373000D01*
X132207000Y-96373000D01*
X132207000Y-96393000D01*
X133348731Y-96393000D01*
X133473462Y-96202391D01*
X133467477Y-96159838D01*
X133374396Y-95935093D01*
X133239258Y-95732826D01*
X133227118Y-95720685D01*
X139345011Y-89602792D01*
X139345012Y-97070186D01*
X138583801Y-97831398D01*
X138551637Y-97825000D01*
X138308363Y-97825000D01*
X138069764Y-97872460D01*
X137845008Y-97965557D01*
X137642733Y-98100713D01*
X137470713Y-98272733D01*
X137335557Y-98475008D01*
X137242460Y-98699764D01*
X137195000Y-98938363D01*
X137195000Y-99095000D01*
X137038363Y-99095000D01*
X136799764Y-99142460D01*
X136575008Y-99235557D01*
X136372733Y-99370713D01*
X136200713Y-99542733D01*
X136065557Y-99745008D01*
X135972460Y-99969764D01*
X135925000Y-100208363D01*
X135925000Y-100451637D01*
X135972460Y-100690236D01*
X136065557Y-100914992D01*
X136200713Y-101117267D01*
X136372733Y-101289287D01*
X136575008Y-101424443D01*
X136799764Y-101517540D01*
X137038363Y-101565000D01*
X137281637Y-101565000D01*
X137520236Y-101517540D01*
X137744992Y-101424443D01*
X137947267Y-101289287D01*
X138119287Y-101117267D01*
X138254443Y-100914992D01*
X138330046Y-100732471D01*
X138405604Y-100914907D01*
X138540742Y-101117174D01*
X138712744Y-101289191D01*
X138915000Y-101424346D01*
X139139737Y-101517446D01*
X139378319Y-101564913D01*
X139573000Y-101409994D01*
X139573000Y-100457000D01*
X139827000Y-100457000D01*
X139827000Y-101409994D01*
X140021681Y-101564913D01*
X140260263Y-101517446D01*
X140485000Y-101424346D01*
X140687256Y-101289191D01*
X140859258Y-101117174D01*
X140994396Y-100914907D01*
X141087477Y-100690162D01*
X141093462Y-100647609D01*
X140968731Y-100457000D01*
X139827000Y-100457000D01*
X139573000Y-100457000D01*
X139553000Y-100457000D01*
X139553000Y-100203000D01*
X139573000Y-100203000D01*
X139573000Y-99527765D01*
X139617540Y-99420236D01*
X139651400Y-99250006D01*
X139827000Y-99250006D01*
X139827000Y-100203000D01*
X140968731Y-100203000D01*
X141093462Y-100012391D01*
X141087477Y-99969838D01*
X140994396Y-99745093D01*
X140859258Y-99542826D01*
X140687256Y-99370809D01*
X140485000Y-99235654D01*
X140260263Y-99142554D01*
X140021681Y-99095087D01*
X139827000Y-99250006D01*
X139651400Y-99250006D01*
X139665000Y-99181637D01*
X139665000Y-98938363D01*
X139658602Y-98906199D01*
X139904801Y-98660000D01*
X145811928Y-98660000D01*
X145824188Y-98784482D01*
X145860498Y-98904180D01*
X145919463Y-99014494D01*
X145998815Y-99111185D01*
X146095506Y-99190537D01*
X146205820Y-99249502D01*
X146256678Y-99264930D01*
X146150990Y-99370618D01*
X145986286Y-99617115D01*
X145872836Y-99891008D01*
X145815000Y-100181770D01*
X145815000Y-100478230D01*
X145872836Y-100768992D01*
X145986286Y-101042885D01*
X146150990Y-101289382D01*
X146360618Y-101499010D01*
X146607115Y-101663714D01*
X146881008Y-101777164D01*
X147171770Y-101835000D01*
X147468230Y-101835000D01*
X147758992Y-101777164D01*
X148032885Y-101663714D01*
X148279382Y-101499010D01*
X148313392Y-101465000D01*
X156486608Y-101465000D01*
X156520618Y-101499010D01*
X156767115Y-101663714D01*
X157041008Y-101777164D01*
X157331770Y-101835000D01*
X157628230Y-101835000D01*
X157918992Y-101777164D01*
X158192885Y-101663714D01*
X158439382Y-101499010D01*
X158649010Y-101289382D01*
X158813714Y-101042885D01*
X158927164Y-100768992D01*
X158985000Y-100478230D01*
X158985000Y-100181770D01*
X158927164Y-99891008D01*
X158813714Y-99617115D01*
X158649010Y-99370618D01*
X158543322Y-99264930D01*
X158594180Y-99249502D01*
X158704494Y-99190537D01*
X158801185Y-99111185D01*
X158880537Y-99014494D01*
X158939502Y-98904180D01*
X158975812Y-98784482D01*
X158988072Y-98660000D01*
X158985000Y-98075750D01*
X158826250Y-97917000D01*
X157607000Y-97917000D01*
X157607000Y-97937000D01*
X157353000Y-97937000D01*
X157353000Y-97917000D01*
X156133750Y-97917000D01*
X155975000Y-98075750D01*
X155971928Y-98660000D01*
X155984188Y-98784482D01*
X156020498Y-98904180D01*
X156079463Y-99014494D01*
X156158815Y-99111185D01*
X156255506Y-99190537D01*
X156263856Y-99195000D01*
X148536144Y-99195000D01*
X148544494Y-99190537D01*
X148641185Y-99111185D01*
X148720537Y-99014494D01*
X148779502Y-98904180D01*
X148815812Y-98784482D01*
X148828072Y-98660000D01*
X148825000Y-98075750D01*
X148666250Y-97917000D01*
X147447000Y-97917000D01*
X147447000Y-97937000D01*
X147193000Y-97937000D01*
X147193000Y-97917000D01*
X145973750Y-97917000D01*
X145815000Y-98075750D01*
X145811928Y-98660000D01*
X139904801Y-98660000D01*
X140616019Y-97948783D01*
X140645012Y-97924989D01*
X140668806Y-97895996D01*
X140668810Y-97895992D01*
X140739984Y-97809266D01*
X140810557Y-97677236D01*
X140834162Y-97599419D01*
X140854014Y-97533974D01*
X140865011Y-97422321D01*
X140865011Y-97422313D01*
X140868687Y-97384990D01*
X140865011Y-97347667D01*
X140865011Y-96920000D01*
X145811928Y-96920000D01*
X145815000Y-97504250D01*
X145973750Y-97663000D01*
X147193000Y-97663000D01*
X147193000Y-96443750D01*
X147447000Y-96443750D01*
X147447000Y-97663000D01*
X148666250Y-97663000D01*
X148825000Y-97504250D01*
X148828072Y-96920000D01*
X155971928Y-96920000D01*
X155975000Y-97504250D01*
X156133750Y-97663000D01*
X157353000Y-97663000D01*
X157353000Y-96443750D01*
X157607000Y-96443750D01*
X157607000Y-97663000D01*
X158826250Y-97663000D01*
X158985000Y-97504250D01*
X158988072Y-96920000D01*
X158975812Y-96795518D01*
X158939502Y-96675820D01*
X158880537Y-96565506D01*
X158801185Y-96468815D01*
X158704494Y-96389463D01*
X158594180Y-96330498D01*
X158474482Y-96294188D01*
X158350000Y-96281928D01*
X157765750Y-96285000D01*
X157607000Y-96443750D01*
X157353000Y-96443750D01*
X157194250Y-96285000D01*
X156610000Y-96281928D01*
X156485518Y-96294188D01*
X156365820Y-96330498D01*
X156255506Y-96389463D01*
X156158815Y-96468815D01*
X156079463Y-96565506D01*
X156020498Y-96675820D01*
X155984188Y-96795518D01*
X155971928Y-96920000D01*
X148828072Y-96920000D01*
X148815812Y-96795518D01*
X148779502Y-96675820D01*
X148720537Y-96565506D01*
X148641185Y-96468815D01*
X148544494Y-96389463D01*
X148434180Y-96330498D01*
X148314482Y-96294188D01*
X148190000Y-96281928D01*
X147605750Y-96285000D01*
X147447000Y-96443750D01*
X147193000Y-96443750D01*
X147034250Y-96285000D01*
X146450000Y-96281928D01*
X146325518Y-96294188D01*
X146205820Y-96330498D01*
X146095506Y-96389463D01*
X145998815Y-96468815D01*
X145919463Y-96565506D01*
X145860498Y-96675820D01*
X145824188Y-96795518D01*
X145811928Y-96920000D01*
X140865011Y-96920000D01*
X140865011Y-90440000D01*
X149539428Y-90440000D01*
X149539428Y-92440000D01*
X149551688Y-92564482D01*
X149587998Y-92684180D01*
X149646963Y-92794494D01*
X149726315Y-92891185D01*
X149823006Y-92970537D01*
X149933320Y-93029502D01*
X150053018Y-93065812D01*
X150177500Y-93078072D01*
X152082500Y-93078072D01*
X152206982Y-93065812D01*
X152326680Y-93029502D01*
X152436994Y-92970537D01*
X152533685Y-92891185D01*
X152613037Y-92794494D01*
X152662059Y-92702781D01*
X152803077Y-92815969D01*
X153078906Y-92959571D01*
X153297020Y-93030563D01*
X153543000Y-92910594D01*
X153543000Y-91567000D01*
X153523000Y-91567000D01*
X153523000Y-91313000D01*
X153543000Y-91313000D01*
X153543000Y-89969406D01*
X153797000Y-89969406D01*
X153797000Y-91313000D01*
X153817000Y-91313000D01*
X153817000Y-91567000D01*
X153797000Y-91567000D01*
X153797000Y-92910594D01*
X154042980Y-93030563D01*
X154261094Y-92959571D01*
X154536923Y-92815969D01*
X154779437Y-92621315D01*
X154934837Y-92436101D01*
X155082037Y-92615463D01*
X155323766Y-92813845D01*
X155599552Y-92961255D01*
X155898797Y-93052030D01*
X156210000Y-93082681D01*
X156521204Y-93052030D01*
X156820449Y-92961255D01*
X157096235Y-92813845D01*
X157337963Y-92615463D01*
X157536345Y-92373734D01*
X157683755Y-92097948D01*
X157774530Y-91798703D01*
X157797500Y-91565485D01*
X157797500Y-91314514D01*
X157774530Y-91081296D01*
X157683755Y-90782051D01*
X157536345Y-90506265D01*
X157337963Y-90264537D01*
X157096234Y-90066155D01*
X156820448Y-89918745D01*
X156521203Y-89827970D01*
X156210000Y-89797319D01*
X155898796Y-89827970D01*
X155599551Y-89918745D01*
X155323765Y-90066155D01*
X155082037Y-90264537D01*
X154934838Y-90443900D01*
X154779437Y-90258685D01*
X154536923Y-90064031D01*
X154261094Y-89920429D01*
X154042980Y-89849437D01*
X153797000Y-89969406D01*
X153543000Y-89969406D01*
X153297020Y-89849437D01*
X153078906Y-89920429D01*
X152803077Y-90064031D01*
X152662059Y-90177219D01*
X152613037Y-90085506D01*
X152533685Y-89988815D01*
X152436994Y-89909463D01*
X152326680Y-89850498D01*
X152206982Y-89814188D01*
X152082500Y-89801928D01*
X150177500Y-89801928D01*
X150053018Y-89814188D01*
X149933320Y-89850498D01*
X149823006Y-89909463D01*
X149726315Y-89988815D01*
X149646963Y-90085506D01*
X149587998Y-90195820D01*
X149551688Y-90315518D01*
X149539428Y-90440000D01*
X140865011Y-90440000D01*
X140865011Y-86970512D01*
X143339783Y-86970512D01*
X143381213Y-87250130D01*
X143476397Y-87516292D01*
X143541616Y-87638309D01*
X143528815Y-87648815D01*
X143449463Y-87745506D01*
X143390498Y-87855820D01*
X143354188Y-87975518D01*
X143341928Y-88100000D01*
X143341928Y-89700000D01*
X143354188Y-89824482D01*
X143390498Y-89944180D01*
X143449463Y-90054494D01*
X143528815Y-90151185D01*
X143625506Y-90230537D01*
X143735820Y-90289502D01*
X143855518Y-90325812D01*
X143980000Y-90338072D01*
X145580000Y-90338072D01*
X145704482Y-90325812D01*
X145824180Y-90289502D01*
X145934494Y-90230537D01*
X146031185Y-90151185D01*
X146110537Y-90054494D01*
X146169502Y-89944180D01*
X146205812Y-89824482D01*
X146218072Y-89700000D01*
X146218072Y-88100000D01*
X146205812Y-87975518D01*
X146169502Y-87855820D01*
X146110537Y-87745506D01*
X146031185Y-87648815D01*
X146018242Y-87638193D01*
X146137571Y-87386004D01*
X146206300Y-87111816D01*
X146220217Y-86829488D01*
X146178787Y-86549870D01*
X146083603Y-86283708D01*
X146016671Y-86158486D01*
X145772702Y-86086903D01*
X144959605Y-86900000D01*
X144973748Y-86914143D01*
X144794143Y-87093748D01*
X144780000Y-87079605D01*
X144765858Y-87093748D01*
X144586253Y-86914143D01*
X144600395Y-86900000D01*
X143787298Y-86086903D01*
X143543329Y-86158486D01*
X143422429Y-86413996D01*
X143353700Y-86688184D01*
X143339783Y-86970512D01*
X140865011Y-86970512D01*
X140865011Y-85907298D01*
X143966903Y-85907298D01*
X144780000Y-86720395D01*
X145593097Y-85907298D01*
X145521514Y-85663329D01*
X145266004Y-85542429D01*
X144991816Y-85473700D01*
X144709488Y-85459783D01*
X144429870Y-85501213D01*
X144163708Y-85596397D01*
X144038486Y-85663329D01*
X143966903Y-85907298D01*
X140865011Y-85907298D01*
X140865011Y-77133148D01*
X142756457Y-77133148D01*
X143032627Y-77551118D01*
X143577557Y-77841649D01*
X144168696Y-78020287D01*
X144783328Y-78080168D01*
X145397831Y-78018990D01*
X145988592Y-77839103D01*
X146527373Y-77551118D01*
X146803543Y-77133148D01*
X144780000Y-75109605D01*
X142756457Y-77133148D01*
X140865011Y-77133148D01*
X140865010Y-74933328D01*
X141629832Y-74933328D01*
X141691010Y-75547831D01*
X141870897Y-76138592D01*
X142158882Y-76677373D01*
X142576852Y-76953543D01*
X144600395Y-74930000D01*
X144959605Y-74930000D01*
X146983148Y-76953543D01*
X147401118Y-76677373D01*
X147691649Y-76132443D01*
X147870287Y-75541304D01*
X147930168Y-74926672D01*
X147892180Y-74545098D01*
X151285000Y-74545098D01*
X151285000Y-75014902D01*
X151376654Y-75475679D01*
X151556440Y-75909721D01*
X151817450Y-76300349D01*
X152149651Y-76632550D01*
X152540279Y-76893560D01*
X152974321Y-77073346D01*
X153435098Y-77165000D01*
X153904902Y-77165000D01*
X154365679Y-77073346D01*
X154799721Y-76893560D01*
X155190349Y-76632550D01*
X155522550Y-76300349D01*
X155783560Y-75909721D01*
X155963346Y-75475679D01*
X156055000Y-75014902D01*
X156055000Y-74545098D01*
X155963346Y-74084321D01*
X155783560Y-73650279D01*
X155522550Y-73259651D01*
X155190349Y-72927450D01*
X154799721Y-72666440D01*
X154365679Y-72486654D01*
X153904902Y-72395000D01*
X153435098Y-72395000D01*
X152974321Y-72486654D01*
X152540279Y-72666440D01*
X152149651Y-72927450D01*
X151817450Y-73259651D01*
X151556440Y-73650279D01*
X151376654Y-74084321D01*
X151285000Y-74545098D01*
X147892180Y-74545098D01*
X147868990Y-74312169D01*
X147689103Y-73721408D01*
X147401118Y-73182627D01*
X146983148Y-72906457D01*
X144959605Y-74930000D01*
X144600395Y-74930000D01*
X142576852Y-72906457D01*
X142158882Y-73182627D01*
X141868351Y-73727557D01*
X141689713Y-74318696D01*
X141629832Y-74933328D01*
X140865010Y-74933328D01*
X140865010Y-72726852D01*
X142756457Y-72726852D01*
X144780000Y-74750395D01*
X146803543Y-72726852D01*
X146527373Y-72308882D01*
X145982443Y-72018351D01*
X145391304Y-71839713D01*
X144776672Y-71779832D01*
X144162169Y-71841010D01*
X143571408Y-72020897D01*
X143032627Y-72308882D01*
X142756457Y-72726852D01*
X140865010Y-72726852D01*
X140865009Y-71652930D01*
X140868686Y-71615597D01*
X140854012Y-71466611D01*
X140810555Y-71323351D01*
X140739983Y-71191321D01*
X140668809Y-71104594D01*
X140668799Y-71104584D01*
X140645010Y-71075597D01*
X140616022Y-71051807D01*
X140074214Y-70510000D01*
X157447721Y-70510000D01*
X158091222Y-70573096D01*
X158679164Y-70750606D01*
X159221436Y-71038937D01*
X159697364Y-71427094D01*
X160088845Y-71900314D01*
X160380951Y-72440552D01*
X160562563Y-73027244D01*
X160630001Y-73668888D01*
X160630001Y-106477790D01*
X160512882Y-106399534D01*
X160169834Y-106257439D01*
X159805656Y-106185000D01*
X159434344Y-106185000D01*
X159070166Y-106257439D01*
X158727118Y-106399534D01*
X158418382Y-106605825D01*
X158155825Y-106868382D01*
X157949534Y-107177118D01*
X157807439Y-107520166D01*
X157735000Y-107884344D01*
X157735000Y-108255656D01*
X157807439Y-108619834D01*
X157949534Y-108962882D01*
X158155825Y-109271618D01*
X158418382Y-109534175D01*
X158727118Y-109740466D01*
X159070166Y-109882561D01*
X159434344Y-109955000D01*
X159805656Y-109955000D01*
X160169834Y-109882561D01*
X160512882Y-109740466D01*
X160630000Y-109662210D01*
X160630000Y-113977790D01*
X160512882Y-113899534D01*
X160169834Y-113757439D01*
X159805656Y-113685000D01*
X159434344Y-113685000D01*
X159070166Y-113757439D01*
X158727118Y-113899534D01*
X158418382Y-114105825D01*
X158155825Y-114368382D01*
X157949534Y-114677118D01*
X157807439Y-115020166D01*
X157735000Y-115384344D01*
X157735000Y-115755656D01*
X157807439Y-116119834D01*
X157949534Y-116462882D01*
X158155825Y-116771618D01*
X158418382Y-117034175D01*
X158727118Y-117240466D01*
X159070166Y-117382561D01*
X159434344Y-117455000D01*
X159805656Y-117455000D01*
X160169834Y-117382561D01*
X160512882Y-117240466D01*
X160630000Y-117162210D01*
X160630000Y-121717790D01*
X160512882Y-121639534D01*
X160169834Y-121497439D01*
X159805656Y-121425000D01*
X159434344Y-121425000D01*
X159070166Y-121497439D01*
X158727118Y-121639534D01*
X158418382Y-121845825D01*
X158155825Y-122108382D01*
X157949534Y-122417118D01*
X157807439Y-122760166D01*
X157735000Y-123124344D01*
X157735000Y-123495656D01*
X157807439Y-123859834D01*
X157949534Y-124202882D01*
X158155825Y-124511618D01*
X158418382Y-124774175D01*
X158727118Y-124980466D01*
X159070166Y-125122561D01*
X159434344Y-125195000D01*
X159805656Y-125195000D01*
X160169834Y-125122561D01*
X160512882Y-124980466D01*
X160630000Y-124902210D01*
X160630000Y-129217790D01*
X160512882Y-129139534D01*
X160169834Y-128997439D01*
X159805656Y-128925000D01*
X159434344Y-128925000D01*
X159070166Y-128997439D01*
X158727118Y-129139534D01*
X158418382Y-129345825D01*
X158155825Y-129608382D01*
X157949534Y-129917118D01*
X157807439Y-130260166D01*
X157735000Y-130624344D01*
X157735000Y-130995656D01*
X157807439Y-131359834D01*
X157949534Y-131702882D01*
X158155825Y-132011618D01*
X158418382Y-132274175D01*
X158727118Y-132480466D01*
X159070166Y-132622561D01*
X159434344Y-132695000D01*
X159805656Y-132695000D01*
X160169834Y-132622561D01*
X160512882Y-132480466D01*
X160630000Y-132402210D01*
X160630000Y-142207721D01*
X160566904Y-142851221D01*
X160389394Y-143439164D01*
X160101063Y-143981436D01*
X159712906Y-144457364D01*
X159239686Y-144848845D01*
X158699449Y-145140950D01*
X158112756Y-145322563D01*
X157471130Y-145390000D01*
X109252279Y-145390000D01*
X108608779Y-145326904D01*
X108020836Y-145149394D01*
X107478564Y-144861063D01*
X107002636Y-144472906D01*
X106611155Y-143999686D01*
X106319050Y-143459449D01*
X106287899Y-143358816D01*
X115305000Y-143358816D01*
X115305000Y-143661184D01*
X115363989Y-143957743D01*
X115479701Y-144237095D01*
X115647688Y-144488505D01*
X115861495Y-144702312D01*
X116112905Y-144870299D01*
X116392257Y-144986011D01*
X116688816Y-145045000D01*
X116991184Y-145045000D01*
X117287743Y-144986011D01*
X117567095Y-144870299D01*
X117818505Y-144702312D01*
X118032312Y-144488505D01*
X118200299Y-144237095D01*
X118316011Y-143957743D01*
X118375000Y-143661184D01*
X118375000Y-143358816D01*
X118316011Y-143062257D01*
X118200299Y-142782905D01*
X118032312Y-142531495D01*
X117818505Y-142317688D01*
X117664895Y-142215049D01*
X117724475Y-142034080D01*
X116840000Y-141149605D01*
X115955525Y-142034080D01*
X116015105Y-142215049D01*
X115861495Y-142317688D01*
X115647688Y-142531495D01*
X115479701Y-142782905D01*
X115363989Y-143062257D01*
X115305000Y-143358816D01*
X106287899Y-143358816D01*
X106137437Y-142872756D01*
X106070000Y-142231130D01*
X106070000Y-141962702D01*
X107446903Y-141962702D01*
X107518486Y-142206671D01*
X107773996Y-142327571D01*
X108048184Y-142396300D01*
X108330512Y-142410217D01*
X108610130Y-142368787D01*
X108876292Y-142273603D01*
X109001514Y-142206671D01*
X109073097Y-141962702D01*
X108260000Y-141149605D01*
X107446903Y-141962702D01*
X106070000Y-141962702D01*
X106070000Y-141040512D01*
X106819783Y-141040512D01*
X106861213Y-141320130D01*
X106956397Y-141586292D01*
X107023329Y-141711514D01*
X107267298Y-141783097D01*
X108080395Y-140970000D01*
X108439605Y-140970000D01*
X109252702Y-141783097D01*
X109496671Y-141711514D01*
X109617571Y-141456004D01*
X109686300Y-141181816D01*
X109700217Y-140899488D01*
X109658787Y-140619870D01*
X109563603Y-140353708D01*
X109496671Y-140228486D01*
X109297340Y-140170000D01*
X110321928Y-140170000D01*
X110321928Y-141770000D01*
X110334188Y-141894482D01*
X110370498Y-142014180D01*
X110429463Y-142124494D01*
X110508815Y-142221185D01*
X110605506Y-142300537D01*
X110715820Y-142359502D01*
X110835518Y-142395812D01*
X110960000Y-142408072D01*
X112560000Y-142408072D01*
X112684482Y-142395812D01*
X112804180Y-142359502D01*
X112914494Y-142300537D01*
X113011185Y-142221185D01*
X113090537Y-142124494D01*
X113149502Y-142014180D01*
X113185812Y-141894482D01*
X113198072Y-141770000D01*
X113198072Y-141036553D01*
X115299009Y-141036553D01*
X115341603Y-141335907D01*
X115441778Y-141621199D01*
X115521739Y-141770792D01*
X115775920Y-141854475D01*
X116660395Y-140970000D01*
X117019605Y-140970000D01*
X117904080Y-141854475D01*
X118158261Y-141770792D01*
X118289158Y-141498225D01*
X118364365Y-141205358D01*
X118380991Y-140903447D01*
X118338397Y-140604093D01*
X118238222Y-140318801D01*
X118158261Y-140169208D01*
X117904080Y-140085525D01*
X117019605Y-140970000D01*
X116660395Y-140970000D01*
X115775920Y-140085525D01*
X115521739Y-140169208D01*
X115390842Y-140441775D01*
X115315635Y-140734642D01*
X115299009Y-141036553D01*
X113198072Y-141036553D01*
X113198072Y-140170000D01*
X113185812Y-140045518D01*
X113149502Y-139925820D01*
X113090537Y-139815506D01*
X113011185Y-139718815D01*
X112914494Y-139639463D01*
X112804180Y-139580498D01*
X112684482Y-139544188D01*
X112560000Y-139531928D01*
X110960000Y-139531928D01*
X110835518Y-139544188D01*
X110715820Y-139580498D01*
X110605506Y-139639463D01*
X110508815Y-139718815D01*
X110429463Y-139815506D01*
X110370498Y-139925820D01*
X110334188Y-140045518D01*
X110321928Y-140170000D01*
X109297340Y-140170000D01*
X109252702Y-140156903D01*
X108439605Y-140970000D01*
X108080395Y-140970000D01*
X107267298Y-140156903D01*
X107023329Y-140228486D01*
X106902429Y-140483996D01*
X106833700Y-140758184D01*
X106819783Y-141040512D01*
X106070000Y-141040512D01*
X106070000Y-139977298D01*
X107446903Y-139977298D01*
X108260000Y-140790395D01*
X109073097Y-139977298D01*
X109001514Y-139733329D01*
X108746004Y-139612429D01*
X108471816Y-139543700D01*
X108189488Y-139529783D01*
X107909870Y-139571213D01*
X107643708Y-139666397D01*
X107518486Y-139733329D01*
X107446903Y-139977298D01*
X106070000Y-139977298D01*
X106070000Y-124880000D01*
X110271928Y-124880000D01*
X110271928Y-126580000D01*
X110284188Y-126704482D01*
X110320498Y-126824180D01*
X110379463Y-126934494D01*
X110458815Y-127031185D01*
X110555506Y-127110537D01*
X110665820Y-127169502D01*
X110738380Y-127191513D01*
X110606525Y-127323368D01*
X110444010Y-127566589D01*
X110332068Y-127836842D01*
X110275000Y-128123740D01*
X110275000Y-128416260D01*
X110332068Y-128703158D01*
X110444010Y-128973411D01*
X110606525Y-129216632D01*
X110813368Y-129423475D01*
X110987760Y-129540000D01*
X110813368Y-129656525D01*
X110606525Y-129863368D01*
X110444010Y-130106589D01*
X110332068Y-130376842D01*
X110275000Y-130663740D01*
X110275000Y-130956260D01*
X110332068Y-131243158D01*
X110444010Y-131513411D01*
X110606525Y-131756632D01*
X110813368Y-131963475D01*
X110987760Y-132080000D01*
X110813368Y-132196525D01*
X110606525Y-132403368D01*
X110444010Y-132646589D01*
X110332068Y-132916842D01*
X110275000Y-133203740D01*
X110275000Y-133496260D01*
X110332068Y-133783158D01*
X110444010Y-134053411D01*
X110606525Y-134296632D01*
X110813368Y-134503475D01*
X111056589Y-134665990D01*
X111326842Y-134777932D01*
X111613740Y-134835000D01*
X111906260Y-134835000D01*
X112193158Y-134777932D01*
X112463411Y-134665990D01*
X112706632Y-134503475D01*
X112913475Y-134296632D01*
X113075990Y-134053411D01*
X113187932Y-133783158D01*
X113245000Y-133496260D01*
X113245000Y-133203740D01*
X113187932Y-132916842D01*
X113075990Y-132646589D01*
X112913475Y-132403368D01*
X112706632Y-132196525D01*
X112532240Y-132080000D01*
X112706632Y-131963475D01*
X112913475Y-131756632D01*
X113075990Y-131513411D01*
X113187932Y-131243158D01*
X113245000Y-130956260D01*
X113245000Y-130663740D01*
X113187932Y-130376842D01*
X113075990Y-130106589D01*
X112913475Y-129863368D01*
X112706632Y-129656525D01*
X112532240Y-129540000D01*
X112706632Y-129423475D01*
X112913475Y-129216632D01*
X113075990Y-128973411D01*
X113187932Y-128703158D01*
X113245000Y-128416260D01*
X113245000Y-128123740D01*
X113244021Y-128118816D01*
X115305000Y-128118816D01*
X115305000Y-128421184D01*
X115363989Y-128717743D01*
X115479701Y-128997095D01*
X115647688Y-129248505D01*
X115861495Y-129462312D01*
X115977763Y-129540000D01*
X115861495Y-129617688D01*
X115647688Y-129831495D01*
X115479701Y-130082905D01*
X115363989Y-130362257D01*
X115305000Y-130658816D01*
X115305000Y-130961184D01*
X115363989Y-131257743D01*
X115479701Y-131537095D01*
X115647688Y-131788505D01*
X115861495Y-132002312D01*
X115977763Y-132080000D01*
X115861495Y-132157688D01*
X115647688Y-132371495D01*
X115479701Y-132622905D01*
X115363989Y-132902257D01*
X115305000Y-133198816D01*
X115305000Y-133501184D01*
X115363989Y-133797743D01*
X115479701Y-134077095D01*
X115647688Y-134328505D01*
X115861495Y-134542312D01*
X115977763Y-134620000D01*
X115861495Y-134697688D01*
X115647688Y-134911495D01*
X115479701Y-135162905D01*
X115363989Y-135442257D01*
X115305000Y-135738816D01*
X115305000Y-136041184D01*
X115363989Y-136337743D01*
X115479701Y-136617095D01*
X115647688Y-136868505D01*
X115861495Y-137082312D01*
X115977763Y-137160000D01*
X115861495Y-137237688D01*
X115647688Y-137451495D01*
X115479701Y-137702905D01*
X115363989Y-137982257D01*
X115305000Y-138278816D01*
X115305000Y-138581184D01*
X115363989Y-138877743D01*
X115479701Y-139157095D01*
X115647688Y-139408505D01*
X115861495Y-139622312D01*
X116015105Y-139724951D01*
X115955525Y-139905920D01*
X116840000Y-140790395D01*
X117724475Y-139905920D01*
X117664895Y-139724951D01*
X117818505Y-139622312D01*
X118032312Y-139408505D01*
X118200299Y-139157095D01*
X118316011Y-138877743D01*
X118375000Y-138581184D01*
X118375000Y-138278816D01*
X118316011Y-137982257D01*
X118200299Y-137702905D01*
X118032312Y-137451495D01*
X117818505Y-137237688D01*
X117702237Y-137160000D01*
X117818505Y-137082312D01*
X118032312Y-136868505D01*
X118200299Y-136617095D01*
X118316011Y-136337743D01*
X118375000Y-136041184D01*
X118375000Y-135738816D01*
X118316011Y-135442257D01*
X118200299Y-135162905D01*
X118032312Y-134911495D01*
X117818505Y-134697688D01*
X117702237Y-134620000D01*
X117818505Y-134542312D01*
X118032312Y-134328505D01*
X118200299Y-134077095D01*
X118316011Y-133797743D01*
X118375000Y-133501184D01*
X118375000Y-133198816D01*
X118316011Y-132902257D01*
X118200299Y-132622905D01*
X118032312Y-132371495D01*
X117818505Y-132157688D01*
X117702237Y-132080000D01*
X117818505Y-132002312D01*
X118032312Y-131788505D01*
X118200299Y-131537095D01*
X118316011Y-131257743D01*
X118375000Y-130961184D01*
X118375000Y-130658816D01*
X118316011Y-130362257D01*
X118200299Y-130082905D01*
X118032312Y-129831495D01*
X117818505Y-129617688D01*
X117702237Y-129540000D01*
X117818505Y-129462312D01*
X118032312Y-129248505D01*
X118200299Y-128997095D01*
X118316011Y-128717743D01*
X118375000Y-128421184D01*
X118375000Y-128118816D01*
X118316011Y-127822257D01*
X118200299Y-127542905D01*
X118032312Y-127291495D01*
X117818505Y-127077688D01*
X117664895Y-126975049D01*
X117724475Y-126794080D01*
X116840000Y-125909605D01*
X115955525Y-126794080D01*
X116015105Y-126975049D01*
X115861495Y-127077688D01*
X115647688Y-127291495D01*
X115479701Y-127542905D01*
X115363989Y-127822257D01*
X115305000Y-128118816D01*
X113244021Y-128118816D01*
X113187932Y-127836842D01*
X113075990Y-127566589D01*
X112913475Y-127323368D01*
X112781620Y-127191513D01*
X112854180Y-127169502D01*
X112964494Y-127110537D01*
X113061185Y-127031185D01*
X113140537Y-126934494D01*
X113199502Y-126824180D01*
X113235812Y-126704482D01*
X113248072Y-126580000D01*
X113248072Y-125796553D01*
X115299009Y-125796553D01*
X115341603Y-126095907D01*
X115441778Y-126381199D01*
X115521739Y-126530792D01*
X115775920Y-126614475D01*
X116660395Y-125730000D01*
X117019605Y-125730000D01*
X117904080Y-126614475D01*
X118158261Y-126530792D01*
X118289158Y-126258225D01*
X118364365Y-125965358D01*
X118380991Y-125663447D01*
X118338397Y-125364093D01*
X118238222Y-125078801D01*
X118158261Y-124929208D01*
X117904080Y-124845525D01*
X117019605Y-125730000D01*
X116660395Y-125730000D01*
X115775920Y-124845525D01*
X115521739Y-124929208D01*
X115390842Y-125201775D01*
X115315635Y-125494642D01*
X115299009Y-125796553D01*
X113248072Y-125796553D01*
X113248072Y-124880000D01*
X113235812Y-124755518D01*
X113208633Y-124665920D01*
X115955525Y-124665920D01*
X116840000Y-125550395D01*
X117724475Y-124665920D01*
X117640792Y-124411739D01*
X117368225Y-124280842D01*
X117075358Y-124205635D01*
X116773447Y-124189009D01*
X116474093Y-124231603D01*
X116188801Y-124331778D01*
X116039208Y-124411739D01*
X115955525Y-124665920D01*
X113208633Y-124665920D01*
X113199502Y-124635820D01*
X113140537Y-124525506D01*
X113061185Y-124428815D01*
X112964494Y-124349463D01*
X112854180Y-124290498D01*
X112734482Y-124254188D01*
X112610000Y-124241928D01*
X110910000Y-124241928D01*
X110785518Y-124254188D01*
X110665820Y-124290498D01*
X110555506Y-124349463D01*
X110458815Y-124428815D01*
X110379463Y-124525506D01*
X110320498Y-124635820D01*
X110284188Y-124755518D01*
X110271928Y-124880000D01*
X106070000Y-124880000D01*
X106070000Y-120498816D01*
X115305000Y-120498816D01*
X115305000Y-120801184D01*
X115363989Y-121097743D01*
X115479701Y-121377095D01*
X115647688Y-121628505D01*
X115861495Y-121842312D01*
X116112905Y-122010299D01*
X116392257Y-122126011D01*
X116688816Y-122185000D01*
X116991184Y-122185000D01*
X117287743Y-122126011D01*
X117567095Y-122010299D01*
X117818505Y-121842312D01*
X118032312Y-121628505D01*
X118200299Y-121377095D01*
X118316011Y-121097743D01*
X118375000Y-120801184D01*
X118375000Y-120498816D01*
X118316011Y-120202257D01*
X118200299Y-119922905D01*
X118032312Y-119671495D01*
X117818505Y-119457688D01*
X117664895Y-119355049D01*
X117724475Y-119174080D01*
X116840000Y-118289605D01*
X115955525Y-119174080D01*
X116015105Y-119355049D01*
X115861495Y-119457688D01*
X115647688Y-119671495D01*
X115479701Y-119922905D01*
X115363989Y-120202257D01*
X115305000Y-120498816D01*
X106070000Y-120498816D01*
X106070000Y-119102702D01*
X107446903Y-119102702D01*
X107518486Y-119346671D01*
X107773996Y-119467571D01*
X108048184Y-119536300D01*
X108330512Y-119550217D01*
X108610130Y-119508787D01*
X108876292Y-119413603D01*
X109001514Y-119346671D01*
X109073097Y-119102702D01*
X108260000Y-118289605D01*
X107446903Y-119102702D01*
X106070000Y-119102702D01*
X106070000Y-118180512D01*
X106819783Y-118180512D01*
X106861213Y-118460130D01*
X106956397Y-118726292D01*
X107023329Y-118851514D01*
X107267298Y-118923097D01*
X108080395Y-118110000D01*
X108439605Y-118110000D01*
X109252702Y-118923097D01*
X109496671Y-118851514D01*
X109617571Y-118596004D01*
X109686300Y-118321816D01*
X109700217Y-118039488D01*
X109658787Y-117759870D01*
X109563603Y-117493708D01*
X109496671Y-117368486D01*
X109297340Y-117310000D01*
X110321928Y-117310000D01*
X110321928Y-118910000D01*
X110334188Y-119034482D01*
X110370498Y-119154180D01*
X110429463Y-119264494D01*
X110508815Y-119361185D01*
X110605506Y-119440537D01*
X110715820Y-119499502D01*
X110835518Y-119535812D01*
X110960000Y-119548072D01*
X112560000Y-119548072D01*
X112684482Y-119535812D01*
X112804180Y-119499502D01*
X112914494Y-119440537D01*
X113011185Y-119361185D01*
X113090537Y-119264494D01*
X113149502Y-119154180D01*
X113185812Y-119034482D01*
X113198072Y-118910000D01*
X113198072Y-118176553D01*
X115299009Y-118176553D01*
X115341603Y-118475907D01*
X115441778Y-118761199D01*
X115521739Y-118910792D01*
X115775920Y-118994475D01*
X116660395Y-118110000D01*
X117019605Y-118110000D01*
X117904080Y-118994475D01*
X118158261Y-118910792D01*
X118289158Y-118638225D01*
X118364365Y-118345358D01*
X118380991Y-118043447D01*
X118338397Y-117744093D01*
X118238222Y-117458801D01*
X118158261Y-117309208D01*
X117904080Y-117225525D01*
X117019605Y-118110000D01*
X116660395Y-118110000D01*
X115775920Y-117225525D01*
X115521739Y-117309208D01*
X115390842Y-117581775D01*
X115315635Y-117874642D01*
X115299009Y-118176553D01*
X113198072Y-118176553D01*
X113198072Y-117310000D01*
X113185812Y-117185518D01*
X113149502Y-117065820D01*
X113090537Y-116955506D01*
X113011185Y-116858815D01*
X112914494Y-116779463D01*
X112804180Y-116720498D01*
X112684482Y-116684188D01*
X112560000Y-116671928D01*
X110960000Y-116671928D01*
X110835518Y-116684188D01*
X110715820Y-116720498D01*
X110605506Y-116779463D01*
X110508815Y-116858815D01*
X110429463Y-116955506D01*
X110370498Y-117065820D01*
X110334188Y-117185518D01*
X110321928Y-117310000D01*
X109297340Y-117310000D01*
X109252702Y-117296903D01*
X108439605Y-118110000D01*
X108080395Y-118110000D01*
X107267298Y-117296903D01*
X107023329Y-117368486D01*
X106902429Y-117623996D01*
X106833700Y-117898184D01*
X106819783Y-118180512D01*
X106070000Y-118180512D01*
X106070000Y-117117298D01*
X107446903Y-117117298D01*
X108260000Y-117930395D01*
X109073097Y-117117298D01*
X109001514Y-116873329D01*
X108746004Y-116752429D01*
X108471816Y-116683700D01*
X108189488Y-116669783D01*
X107909870Y-116711213D01*
X107643708Y-116806397D01*
X107518486Y-116873329D01*
X107446903Y-117117298D01*
X106070000Y-117117298D01*
X106070000Y-102020000D01*
X110271928Y-102020000D01*
X110271928Y-103720000D01*
X110284188Y-103844482D01*
X110320498Y-103964180D01*
X110379463Y-104074494D01*
X110458815Y-104171185D01*
X110555506Y-104250537D01*
X110665820Y-104309502D01*
X110738380Y-104331513D01*
X110606525Y-104463368D01*
X110444010Y-104706589D01*
X110332068Y-104976842D01*
X110275000Y-105263740D01*
X110275000Y-105556260D01*
X110332068Y-105843158D01*
X110444010Y-106113411D01*
X110606525Y-106356632D01*
X110813368Y-106563475D01*
X110987760Y-106680000D01*
X110813368Y-106796525D01*
X110606525Y-107003368D01*
X110444010Y-107246589D01*
X110332068Y-107516842D01*
X110275000Y-107803740D01*
X110275000Y-108096260D01*
X110332068Y-108383158D01*
X110444010Y-108653411D01*
X110606525Y-108896632D01*
X110813368Y-109103475D01*
X110987760Y-109220000D01*
X110813368Y-109336525D01*
X110606525Y-109543368D01*
X110444010Y-109786589D01*
X110332068Y-110056842D01*
X110275000Y-110343740D01*
X110275000Y-110636260D01*
X110332068Y-110923158D01*
X110444010Y-111193411D01*
X110606525Y-111436632D01*
X110813368Y-111643475D01*
X111056589Y-111805990D01*
X111326842Y-111917932D01*
X111613740Y-111975000D01*
X111906260Y-111975000D01*
X112193158Y-111917932D01*
X112463411Y-111805990D01*
X112706632Y-111643475D01*
X112913475Y-111436632D01*
X113075990Y-111193411D01*
X113187932Y-110923158D01*
X113245000Y-110636260D01*
X113245000Y-110343740D01*
X113187932Y-110056842D01*
X113075990Y-109786589D01*
X112913475Y-109543368D01*
X112706632Y-109336525D01*
X112532240Y-109220000D01*
X112706632Y-109103475D01*
X112913475Y-108896632D01*
X113075990Y-108653411D01*
X113187932Y-108383158D01*
X113245000Y-108096260D01*
X113245000Y-107803740D01*
X113187932Y-107516842D01*
X113075990Y-107246589D01*
X112913475Y-107003368D01*
X112706632Y-106796525D01*
X112532240Y-106680000D01*
X112706632Y-106563475D01*
X112913475Y-106356632D01*
X113075990Y-106113411D01*
X113187932Y-105843158D01*
X113245000Y-105556260D01*
X113245000Y-105263740D01*
X113187932Y-104976842D01*
X113075990Y-104706589D01*
X112913475Y-104463368D01*
X112781620Y-104331513D01*
X112854180Y-104309502D01*
X112964494Y-104250537D01*
X113061185Y-104171185D01*
X113140537Y-104074494D01*
X113199502Y-103964180D01*
X113235812Y-103844482D01*
X113248072Y-103720000D01*
X113248072Y-102020000D01*
X113235812Y-101895518D01*
X113199502Y-101775820D01*
X113140537Y-101665506D01*
X113061185Y-101568815D01*
X112964494Y-101489463D01*
X112854180Y-101430498D01*
X112734482Y-101394188D01*
X112610000Y-101381928D01*
X110910000Y-101381928D01*
X110785518Y-101394188D01*
X110665820Y-101430498D01*
X110555506Y-101489463D01*
X110458815Y-101568815D01*
X110379463Y-101665506D01*
X110320498Y-101775820D01*
X110284188Y-101895518D01*
X110271928Y-102020000D01*
X106070000Y-102020000D01*
X106070000Y-73692279D01*
X106133096Y-73048778D01*
X106310606Y-72460836D01*
X106428656Y-72238816D01*
X108955000Y-72238816D01*
X108955000Y-72541184D01*
X109013989Y-72837743D01*
X109129701Y-73117095D01*
X109297688Y-73368505D01*
X109511495Y-73582312D01*
X109762905Y-73750299D01*
X110042257Y-73866011D01*
X110338816Y-73925000D01*
X110641184Y-73925000D01*
X110937743Y-73866011D01*
X111217095Y-73750299D01*
X111468505Y-73582312D01*
X111596737Y-73454080D01*
X112145525Y-73454080D01*
X112229208Y-73708261D01*
X112501775Y-73839158D01*
X112794642Y-73914365D01*
X113096553Y-73930991D01*
X113395907Y-73888397D01*
X113681199Y-73788222D01*
X113830792Y-73708261D01*
X113914475Y-73454080D01*
X113030000Y-72569605D01*
X112145525Y-73454080D01*
X111596737Y-73454080D01*
X111682312Y-73368505D01*
X111784951Y-73214895D01*
X111965920Y-73274475D01*
X112850395Y-72390000D01*
X111965920Y-71505525D01*
X111784951Y-71565105D01*
X111682312Y-71411495D01*
X111596737Y-71325920D01*
X112145525Y-71325920D01*
X113030000Y-72210395D01*
X113914475Y-71325920D01*
X113830792Y-71071739D01*
X113558225Y-70940842D01*
X113265358Y-70865635D01*
X112963447Y-70849009D01*
X112664093Y-70891603D01*
X112378801Y-70991778D01*
X112229208Y-71071739D01*
X112145525Y-71325920D01*
X111596737Y-71325920D01*
X111468505Y-71197688D01*
X111217095Y-71029701D01*
X110937743Y-70913989D01*
X110641184Y-70855000D01*
X110338816Y-70855000D01*
X110042257Y-70913989D01*
X109762905Y-71029701D01*
X109511495Y-71197688D01*
X109297688Y-71411495D01*
X109129701Y-71662905D01*
X109013989Y-71942257D01*
X108955000Y-72238816D01*
X106428656Y-72238816D01*
X106598937Y-71918564D01*
X106987094Y-71442636D01*
X107460314Y-71051155D01*
X108000552Y-70759049D01*
X108587244Y-70577437D01*
X109228879Y-70510000D01*
X126535198Y-70510000D01*
X126138930Y-70906269D01*
G36*
X118303748Y-87615858D02*
G01*
X118289605Y-87630000D01*
X118303748Y-87644143D01*
X118124143Y-87823748D01*
X118110000Y-87809605D01*
X118095858Y-87823748D01*
X117916253Y-87644143D01*
X117930395Y-87630000D01*
X117916253Y-87615858D01*
X118095858Y-87436253D01*
X118110000Y-87450395D01*
X118124143Y-87436253D01*
X118303748Y-87615858D01*
G37*
X118303748Y-87615858D02*
X118289605Y-87630000D01*
X118303748Y-87644143D01*
X118124143Y-87823748D01*
X118110000Y-87809605D01*
X118095858Y-87823748D01*
X117916253Y-87644143D01*
X117930395Y-87630000D01*
X117916253Y-87615858D01*
X118095858Y-87436253D01*
X118110000Y-87450395D01*
X118124143Y-87436253D01*
X118303748Y-87615858D01*
G36*
X115763748Y-87615858D02*
G01*
X115749605Y-87630000D01*
X115763748Y-87644143D01*
X115584143Y-87823748D01*
X115570000Y-87809605D01*
X115555858Y-87823748D01*
X115376253Y-87644143D01*
X115390395Y-87630000D01*
X115376253Y-87615858D01*
X115555858Y-87436253D01*
X115570000Y-87450395D01*
X115584143Y-87436253D01*
X115763748Y-87615858D01*
G37*
X115763748Y-87615858D02*
X115749605Y-87630000D01*
X115763748Y-87644143D01*
X115584143Y-87823748D01*
X115570000Y-87809605D01*
X115555858Y-87823748D01*
X115376253Y-87644143D01*
X115390395Y-87630000D01*
X115376253Y-87615858D01*
X115555858Y-87436253D01*
X115570000Y-87450395D01*
X115584143Y-87436253D01*
X115763748Y-87615858D01*
G36*
X137237688Y-73368505D02*
G01*
X137451495Y-73582312D01*
X137702905Y-73750299D01*
X137982257Y-73866011D01*
X138278816Y-73925000D01*
X138581184Y-73925000D01*
X138877743Y-73866011D01*
X138895002Y-73858862D01*
X138895001Y-86161138D01*
X138877743Y-86153989D01*
X138581184Y-86095000D01*
X138278816Y-86095000D01*
X137982257Y-86153989D01*
X137702905Y-86269701D01*
X137451495Y-86437688D01*
X137237688Y-86651495D01*
X137160000Y-86767763D01*
X137082312Y-86651495D01*
X136868505Y-86437688D01*
X136617095Y-86269701D01*
X136337743Y-86153989D01*
X136041184Y-86095000D01*
X135738816Y-86095000D01*
X135442257Y-86153989D01*
X135162905Y-86269701D01*
X134911495Y-86437688D01*
X134697688Y-86651495D01*
X134620000Y-86767763D01*
X134542312Y-86651495D01*
X134328505Y-86437688D01*
X134077095Y-86269701D01*
X133797743Y-86153989D01*
X133501184Y-86095000D01*
X133198816Y-86095000D01*
X132902257Y-86153989D01*
X132622905Y-86269701D01*
X132371495Y-86437688D01*
X132157688Y-86651495D01*
X132080000Y-86767763D01*
X132002312Y-86651495D01*
X131788505Y-86437688D01*
X131537095Y-86269701D01*
X131257743Y-86153989D01*
X130961184Y-86095000D01*
X130658816Y-86095000D01*
X130362257Y-86153989D01*
X130082905Y-86269701D01*
X129831495Y-86437688D01*
X129617688Y-86651495D01*
X129540000Y-86767763D01*
X129462312Y-86651495D01*
X129248505Y-86437688D01*
X128997095Y-86269701D01*
X128717743Y-86153989D01*
X128421184Y-86095000D01*
X128118816Y-86095000D01*
X127822257Y-86153989D01*
X127542905Y-86269701D01*
X127291495Y-86437688D01*
X127077688Y-86651495D01*
X127000000Y-86767763D01*
X126922312Y-86651495D01*
X126708505Y-86437688D01*
X126457095Y-86269701D01*
X126177743Y-86153989D01*
X125881184Y-86095000D01*
X125578816Y-86095000D01*
X125282257Y-86153989D01*
X125002905Y-86269701D01*
X124751495Y-86437688D01*
X124537688Y-86651495D01*
X124460000Y-86767763D01*
X124382312Y-86651495D01*
X124168505Y-86437688D01*
X123917095Y-86269701D01*
X123637743Y-86153989D01*
X123341184Y-86095000D01*
X123038816Y-86095000D01*
X122742257Y-86153989D01*
X122462905Y-86269701D01*
X122211495Y-86437688D01*
X121997688Y-86651495D01*
X121920000Y-86767763D01*
X121842312Y-86651495D01*
X121628505Y-86437688D01*
X121377095Y-86269701D01*
X121302851Y-86238948D01*
X133166799Y-74375001D01*
X134627677Y-74375001D01*
X134664999Y-74378677D01*
X134702321Y-74375001D01*
X134702332Y-74375001D01*
X134813985Y-74364004D01*
X134957246Y-74320547D01*
X135089275Y-74249975D01*
X135205000Y-74155002D01*
X135228803Y-74125998D01*
X135481070Y-73873731D01*
X135738816Y-73925000D01*
X136041184Y-73925000D01*
X136337743Y-73866011D01*
X136617095Y-73750299D01*
X136868505Y-73582312D01*
X137082312Y-73368505D01*
X137160000Y-73252237D01*
X137237688Y-73368505D01*
G37*
X137237688Y-73368505D02*
X137451495Y-73582312D01*
X137702905Y-73750299D01*
X137982257Y-73866011D01*
X138278816Y-73925000D01*
X138581184Y-73925000D01*
X138877743Y-73866011D01*
X138895002Y-73858862D01*
X138895001Y-86161138D01*
X138877743Y-86153989D01*
X138581184Y-86095000D01*
X138278816Y-86095000D01*
X137982257Y-86153989D01*
X137702905Y-86269701D01*
X137451495Y-86437688D01*
X137237688Y-86651495D01*
X137160000Y-86767763D01*
X137082312Y-86651495D01*
X136868505Y-86437688D01*
X136617095Y-86269701D01*
X136337743Y-86153989D01*
X136041184Y-86095000D01*
X135738816Y-86095000D01*
X135442257Y-86153989D01*
X135162905Y-86269701D01*
X134911495Y-86437688D01*
X134697688Y-86651495D01*
X134620000Y-86767763D01*
X134542312Y-86651495D01*
X134328505Y-86437688D01*
X134077095Y-86269701D01*
X133797743Y-86153989D01*
X133501184Y-86095000D01*
X133198816Y-86095000D01*
X132902257Y-86153989D01*
X132622905Y-86269701D01*
X132371495Y-86437688D01*
X132157688Y-86651495D01*
X132080000Y-86767763D01*
X132002312Y-86651495D01*
X131788505Y-86437688D01*
X131537095Y-86269701D01*
X131257743Y-86153989D01*
X130961184Y-86095000D01*
X130658816Y-86095000D01*
X130362257Y-86153989D01*
X130082905Y-86269701D01*
X129831495Y-86437688D01*
X129617688Y-86651495D01*
X129540000Y-86767763D01*
X129462312Y-86651495D01*
X129248505Y-86437688D01*
X128997095Y-86269701D01*
X128717743Y-86153989D01*
X128421184Y-86095000D01*
X128118816Y-86095000D01*
X127822257Y-86153989D01*
X127542905Y-86269701D01*
X127291495Y-86437688D01*
X127077688Y-86651495D01*
X127000000Y-86767763D01*
X126922312Y-86651495D01*
X126708505Y-86437688D01*
X126457095Y-86269701D01*
X126177743Y-86153989D01*
X125881184Y-86095000D01*
X125578816Y-86095000D01*
X125282257Y-86153989D01*
X125002905Y-86269701D01*
X124751495Y-86437688D01*
X124537688Y-86651495D01*
X124460000Y-86767763D01*
X124382312Y-86651495D01*
X124168505Y-86437688D01*
X123917095Y-86269701D01*
X123637743Y-86153989D01*
X123341184Y-86095000D01*
X123038816Y-86095000D01*
X122742257Y-86153989D01*
X122462905Y-86269701D01*
X122211495Y-86437688D01*
X121997688Y-86651495D01*
X121920000Y-86767763D01*
X121842312Y-86651495D01*
X121628505Y-86437688D01*
X121377095Y-86269701D01*
X121302851Y-86238948D01*
X133166799Y-74375001D01*
X134627677Y-74375001D01*
X134664999Y-74378677D01*
X134702321Y-74375001D01*
X134702332Y-74375001D01*
X134813985Y-74364004D01*
X134957246Y-74320547D01*
X135089275Y-74249975D01*
X135205000Y-74155002D01*
X135228803Y-74125998D01*
X135481070Y-73873731D01*
X135738816Y-73925000D01*
X136041184Y-73925000D01*
X136337743Y-73866011D01*
X136617095Y-73750299D01*
X136868505Y-73582312D01*
X137082312Y-73368505D01*
X137160000Y-73252237D01*
X137237688Y-73368505D01*
G36*
X130658816Y-73925000D02*
G01*
X130740198Y-73925000D01*
X119020200Y-85644999D01*
X117559321Y-85644999D01*
X117521998Y-85641323D01*
X117484675Y-85644999D01*
X117484666Y-85644999D01*
X117373013Y-85655996D01*
X117229752Y-85699453D01*
X117097722Y-85770025D01*
X117014082Y-85838667D01*
X116981998Y-85864998D01*
X116958199Y-85893997D01*
X116412815Y-86439382D01*
X116370792Y-86311739D01*
X116098225Y-86180842D01*
X115805358Y-86105635D01*
X115503447Y-86089009D01*
X115204093Y-86131603D01*
X115104999Y-86166398D01*
X115104999Y-85408800D01*
X126138799Y-74375001D01*
X129547677Y-74375001D01*
X129584999Y-74378677D01*
X129622321Y-74375001D01*
X129622332Y-74375001D01*
X129733985Y-74364004D01*
X129877246Y-74320547D01*
X130009275Y-74249975D01*
X130125000Y-74155002D01*
X130148803Y-74125998D01*
X130401070Y-73873731D01*
X130658816Y-73925000D01*
G37*
X130658816Y-73925000D02*
X130740198Y-73925000D01*
X119020200Y-85644999D01*
X117559321Y-85644999D01*
X117521998Y-85641323D01*
X117484675Y-85644999D01*
X117484666Y-85644999D01*
X117373013Y-85655996D01*
X117229752Y-85699453D01*
X117097722Y-85770025D01*
X117014082Y-85838667D01*
X116981998Y-85864998D01*
X116958199Y-85893997D01*
X116412815Y-86439382D01*
X116370792Y-86311739D01*
X116098225Y-86180842D01*
X115805358Y-86105635D01*
X115503447Y-86089009D01*
X115204093Y-86131603D01*
X115104999Y-86166398D01*
X115104999Y-85408800D01*
X126138799Y-74375001D01*
X129547677Y-74375001D01*
X129584999Y-74378677D01*
X129622321Y-74375001D01*
X129622332Y-74375001D01*
X129733985Y-74364004D01*
X129877246Y-74320547D01*
X130009275Y-74249975D01*
X130125000Y-74155002D01*
X130148803Y-74125998D01*
X130401070Y-73873731D01*
X130658816Y-73925000D01*
M02*
