M48
METRIC,TZ
T1C0.400
T2C0.500
T3C0.700
T4C0.800
T5C1.000
T6C1.090
T7C1.100
T8C1.200
T9C1.300
T10C1.500
T11C2.500
T12C3.500
%
G90
G05
T1
X120015Y-115570
X120015Y-138430
X120650Y-110490
X120650Y-133350
X121285Y-118110
X121285Y-140970
X127635Y-83820
T2
X106680Y-102870
X106680Y-105410
X106680Y-107950
X106680Y-110490
X106680Y-115570
X106680Y-125730
X106680Y-128270
X106680Y-130810
X106680Y-133350
X106680Y-138430
X107950Y-80010
X107950Y-120650
X107950Y-143510
X109220Y-91440
X109220Y-95250
X110490Y-77470
X111125Y-81915
X111125Y-144145
X111760Y-90170
X111760Y-114300
X111760Y-137160
X113030Y-74930
X113030Y-83820
X113665Y-79375
X113665Y-123190
X114300Y-91440
X114300Y-102870
X114300Y-116840
X114300Y-125730
X114300Y-139700
X115570Y-81280
X115570Y-85090
X116205Y-76835
X116840Y-97155
X116840Y-100330
X116840Y-123190
X118110Y-78740
X118110Y-85090
X118745Y-74295
X118745Y-95250
X118745Y-99060
X118745Y-104140
X118745Y-128905
X118745Y-131445
X119380Y-140970
X120015Y-82550
X120650Y-76200
X122555Y-80010
X122555Y-95885
X122555Y-103505
X122555Y-113030
X122555Y-116840
X122555Y-120650
X122555Y-125730
X122555Y-130810
X122555Y-135890
X122555Y-139700
X125095Y-77470
X130810Y-97790
X132715Y-140970
X134620Y-96520
X134620Y-111760
X134620Y-126365
X136525Y-76200
X136525Y-83820
X137160Y-135890
X137795Y-94615
X138430Y-101600
X140970Y-111760
X140970Y-127000
X141605Y-140970
X142240Y-81280
X142240Y-100330
X142875Y-94615
X143510Y-143510
X144145Y-107950
X144145Y-115570
X144145Y-123190
X144145Y-130810
X144780Y-80010
X144780Y-82550
X144780Y-97790
X147320Y-81280
X147320Y-95250
X148590Y-143510
X149860Y-73660
X149860Y-76200
X149860Y-80010
X149860Y-82550
X149860Y-85090
X149860Y-97790
X153670Y-80010
X153670Y-82550
X153670Y-85090
X153670Y-88900
X153670Y-143510
X157480Y-73660
X157480Y-76200
X157480Y-80010
X157480Y-82550
X157480Y-85090
X157480Y-95250
X158750Y-143510
X160020Y-97790
T3
X137160Y-100330
X138430Y-99060
X139700Y-100330
X129540Y-96520
X130810Y-95250
X132080Y-96520
T4
X144780Y-86900
X144780Y-88900
X108260Y-140970
X111760Y-140970
X108260Y-118110
X111760Y-118110
T5
X116840Y-102870
X116840Y-105410
X116840Y-107950
X116840Y-110490
X116840Y-113030
X116840Y-115570
X116840Y-118110
X116840Y-120650
X129540Y-102870
X129540Y-105410
X129540Y-107950
X129540Y-110490
X129540Y-113030
X129540Y-115570
X129540Y-118110
X129540Y-120650
X111760Y-125730
X111760Y-128270
X111760Y-130810
X111760Y-133350
X116840Y-125730
X116840Y-128270
X116840Y-130810
X116840Y-133350
X116840Y-135890
X116840Y-138430
X116840Y-140970
X116840Y-143510
X129540Y-125730
X129540Y-128270
X129540Y-130810
X129540Y-133350
X129540Y-135890
X129540Y-138430
X129540Y-140970
X129540Y-143510
X111760Y-102870
X111760Y-105410
X111760Y-107950
X111760Y-110490
X110490Y-72390
X110490Y-87630
X113030Y-72390
X113030Y-87630
X115570Y-72390
X115570Y-87630
X118110Y-72390
X118110Y-87630
X120650Y-72390
X120650Y-87630
X123190Y-72390
X123190Y-87630
X125730Y-72390
X125730Y-87630
X128270Y-72390
X128270Y-87630
X130810Y-72390
X130810Y-87630
X133350Y-72390
X133350Y-87630
X135890Y-72390
X135890Y-87630
X138430Y-72390
X138430Y-87630
T6
X157480Y-97790
X157480Y-100330
X147320Y-97790
X147320Y-100330
T7
X151130Y-91440
X153670Y-91440
X156210Y-91440
T8
X146050Y-138430
X146050Y-140970
X146050Y-143510
X156210Y-138430
X156210Y-140970
X156210Y-143510
T9
X111760Y-92710
X111760Y-97790
T10
X134620Y-123310
X134620Y-130810
X149620Y-123310
X149620Y-130810
X154620Y-123310
X154620Y-130810
X159620Y-123310
X159620Y-130810
X134620Y-108070
X134620Y-115570
X149620Y-108070
X149620Y-115570
X154620Y-108070
X154620Y-115570
X159620Y-108070
X159620Y-115570
T11
X137160Y-140970
X144780Y-74930
T12
X153670Y-74780
T0
M30
